<?xml version="1.0" encoding="UTF-8"?>
<!DOCTYPE svg  PUBLIC '-//W3C//DTD SVG 1.1//EN'  'http://www.w3.org/Graphics/SVG/1.1/DTD/svg11.dtd'>
<svg version="1.1" xmlns="http://www.w3.org/2000/svg">
<defs>
<font id="Rotunda-Light" horiz-adv-x="834">
<font-face font-family="Rotunda Light" font-weight="250" ascent="800" bbox="-31 -218 968 951" cap-height="703" descent="-200" panose-1="0 0 0 0 0 0 0 0 0 0" underline-position="-100" underline-thickness="50" unicode-range="U+0020-00FE" units-per-em="1000" x-height="503"/>
<missing-glyph/>
<glyph glyph-name="space" horiz-adv-x="262" unicode=" "/>
<glyph d="M111 180l-8 523h75l-7 -523h-60zM140 95q33 0 47 -30q5 -10 5 -21q0 -33 -30 -46q-11 -5 -22 -5q-32 0 -46 29q-5 11 -5 22q0 32 30 46q11 5 21 5z" glyph-name="exclam" horiz-adv-x="280" unicode="!"/>
<glyph d="M216 471l-9 232h67l-9 -232h-49zM76 471l-9 232h67l-9 -232h-49z" glyph-name="quotedbl" horiz-adv-x="341" unicode='"'/>
<glyph d="M41 233l9 56h148l21 125h-147l9 56h148l36 211h63l-36 -211h147l36 211h63l-36 -211h147l-9 -56h-148l-22 -125h148l-9 -56h-148l-37 -212h-61l36 212h-148l-37 -212h-62l36 212h-147zM260 289h148l22 125h-148z" glyph-name="numbersign" horiz-adv-x="689" unicode="#"/>
<glyph d="M236 -121v111q-118 12 -183 104q-8 11 -14 21l59 40q58 -100 175 -101q93 0 132 59q18 27 18 60q0 67 -73 111q-25 14 -96 45q-101 42 -137 73q-60 52 -60 129q0 91 76 143q46 32 109 39v108h66v-108q116 -13 169 -105q2 -3 3 -5l-53 -37q-52 83 -153 84q-90 0 -128 -58 q-18 -27 -18 -60q0 -61 66 -100q21 -12 97 -46q106 -45 143 -77q60 -52 60 -133q0 -93 -77 -146q-48 -33 -115 -40v-111h-66z" glyph-name="dollar" horiz-adv-x="538" unicode="$"/>
<glyph d="M748 148q0 -83 -65 -130q-43 -30 -97 -30q-82 0 -130 62q-33 43 -33 98q0 83 66 129q43 31 97 31q83 0 130 -62q32 -43 32 -98zM687 148q0 60 -49 89q-24 14 -52 14q-58 0 -87 -48q-15 -25 -15 -55q0 -60 49 -89q25 -14 53 -14q59 0 87 49q14 25 14 54zM364 554 q0 -84 -66 -131q-42 -29 -95 -29q-82 0 -130 62q-33 43 -33 98q0 79 63 127q45 33 100 33q82 0 129 -63q32 -43 32 -97zM303 554q0 60 -48 89q-24 14 -52 14q-58 0 -87 -48q-15 -25 -15 -55q0 -60 49 -89q25 -14 53 -14q58 0 86 49q14 25 14 54zM104 0l514 703h64l-513 -703 h-65z" glyph-name="percent" horiz-adv-x="788" unicode="%"/>
<glyph d="M51 179q0 82 84 148q33 26 85 56q-69 73 -85 114q-12 29 -12 58q0 76 61 123q50 37 121 37q102 0 153 -72q29 -40 29 -88q0 -71 -78 -131q-33 -26 -84 -55l188 -197q55 92 41 206h67q16 -143 -59 -256l116 -122h-90l-69 72q-90 -84 -217 -84q-121 0 -195 68 q-56 52 -56 123zM121 182q0 -67 75 -104q49 -24 107 -24q98 1 169 66l-207 217q-99 -57 -126 -97q-17 -27 -18 -58zM190 556q0 -48 51 -102q10 -11 39 -39q108 62 130 102q10 18 10 37q0 52 -49 81q-30 17 -66 17q-74 0 -103 -51q-12 -21 -12 -45z" glyph-name="ampersand" horiz-adv-x="691" unicode="&amp;"/>
<glyph d="M125 471h-49l-9 232h67z" glyph-name="quotesingle" horiz-adv-x="201" unicode="'"/>
<glyph d="M172 773h66q-110 -216 -110 -452q1 -237 110 -451h-66q-114 219 -114 451q0 234 114 452z" glyph-name="parenleft" horiz-adv-x="277" unicode="("/>
<glyph d="M105 -131h-66q110 216 110 452q-1 237 -110 451h66q114 -219 114 -451q0 -234 -114 -452z" glyph-name="parenright" horiz-adv-x="277" unicode=")"/>
<glyph d="M55 553v54l112 -13l-68 90l47 28l45 -103l45 102l47 -27l-68 -90l111 13v-54l-111 13l68 -90l-47 -27l-45 102l-45 -103l-47 28l68 90z" glyph-name="asterisk" horiz-adv-x="381" unicode="*"/>
<glyph d="M41 383h207v206h64v-206h207v-62h-207v-207h-64v207h-207v62z" glyph-name="plus" horiz-adv-x="560" unicode="+"/>
<glyph d="M63 -118l40 108q-29 11 -35 39q-1 6 -1 10q0 33 30 46q10 4 20 4q34 0 47 -30q4 -10 4 -20q0 -11 -6 -26l-59 -131h-40z" glyph-name="comma" horiz-adv-x="231" unicode=","/>
<glyph d="M389 240h-314v62h314v-62z" glyph-name="hyphen" horiz-adv-x="464" unicode="-"/>
<glyph d="M60 39q0 33 30 46q10 4 20 4q34 0 47 -30q4 -10 4 -20q0 -32 -29 -46q-11 -5 -22 -5q-31 0 -45 29q-5 11 -5 22z" glyph-name="period" horiz-adv-x="221" unicode="."/>
<glyph d="M410 783h66l-381 -923h-66z" glyph-name="slash" horiz-adv-x="505" unicode="/"/>
<glyph d="M331 -12q-165 0 -232 162q-35 86 -35 201q0 192 90 290q69 73 177 73q166 0 232 -164q34 -86 34 -199q0 -194 -91 -292q-68 -71 -175 -71zM136 351q0 -196 94 -265q43 -32 101 -32q133 0 176 152q18 64 18 145q0 200 -97 268q-41 29 -97 29q-132 0 -176 -150 q-19 -64 -19 -147z" glyph-name="zero" horiz-adv-x="661" unicode="0"/>
<glyph d="M236 61v539q-75 -61 -179 -63v63q136 8 186 103h61v-642h164v-61h-400v61h168z" glyph-name="one" horiz-adv-x="493" unicode="1"/>
<glyph d="M276 649q-112 -1 -160 -102l-57 35q53 107 170 129q24 4 49 4q118 0 179 -81q37 -51 37 -116q0 -104 -106 -191q-21 -17 -121 -85q-93 -64 -121 -113q-18 -33 -18 -68h372v-61h-441q-4 21 -4 45q0 110 107 200q22 18 122 87q93 64 120 114q18 33 18 69q0 76 -63 113 q-37 21 -83 21z" glyph-name="two" horiz-adv-x="561" unicode="2"/>
<glyph d="M40 121l58 37q37 -83 125 -100q19 -4 37 -4q81 0 129 56q34 40 34 93q0 100 -85 138q-42 19 -97 19q-35 0 -56 -4v43l203 243h-317v61h407v-47l-199 -239q113 -3 174 -85q41 -55 41 -127q0 -105 -81 -167q-65 -50 -155 -50q-130 0 -200 103q-10 15 -18 30z" glyph-name="three" horiz-adv-x="557" unicode="3"/>
<glyph d="M31 186v45l336 472h77v-456h101v-61h-101v-186h-69v186h-344zM119 247h256v359z" glyph-name="four" horiz-adv-x="596" unicode="4"/>
<glyph d="M261 54q89 0 137 66q30 43 30 98q0 89 -67 137q-43 31 -99 31q-81 -1 -142 -63l-45 20l40 360h346v-61h-289l-26 -235q49 40 124 40q112 0 178 -80q51 -62 51 -147q0 -111 -81 -178q-66 -54 -156 -54q-129 0 -199 100q-11 16 -20 33l57 37q48 -103 161 -104z" glyph-name="five" horiz-adv-x="552" unicode="5"/>
<glyph d="M294 -13q-107 0 -178 77q-61 68 -61 159q0 74 60 167q13 20 39 57l171 255h82l-191 -278q33 23 89 23q107 0 174 -78q54 -64 54 -150q0 -107 -81 -175q-67 -57 -158 -57zM294 52q87 0 136 66q32 44 32 101q0 83 -65 132q-45 34 -101 34q-92 0 -140 -68q-29 -42 -29 -96 q0 -92 69 -139q43 -30 98 -30z" glyph-name="six" horiz-adv-x="575" unicode="6"/>
<glyph d="M82 0l324 641h-368v62h447v-48l-329 -655h-74z" glyph-name="seven" horiz-adv-x="513" unicode="7"/>
<glyph d="M296 715q99 0 162 -65q49 -52 49 -121q0 -83 -66 -136q-19 -15 -39 -24q75 -26 110 -96q19 -39 19 -82q0 -97 -83 -157q-65 -46 -152 -46q-111 0 -180 71q-54 56 -54 132q0 91 74 148q26 20 55 30q-63 27 -91 92q-14 33 -14 68q0 91 78 145q58 41 132 41zM296 336 q-87 0 -134 -59q-28 -37 -28 -83q0 -76 67 -117q42 -25 95 -25q88 0 135 60q28 36 28 82q0 75 -67 116q-43 26 -96 26zM296 651q-72 0 -114 -51q-26 -33 -26 -73q0 -70 62 -106q36 -21 78 -21q75 0 116 53q25 33 25 74q0 66 -61 102q-36 22 -80 22z" glyph-name="eight" horiz-adv-x="593" unicode="8"/>
<glyph d="M281 715q107 0 178 -77q61 -68 61 -159q0 -74 -60 -167q-13 -20 -39 -57l-171 -255h-82l191 278q-33 -23 -89 -23q-107 0 -174 78q-54 64 -54 150q0 107 81 175q67 57 158 57zM281 650q-87 0 -136 -66q-32 -44 -32 -101q0 -83 65 -132q45 -34 101 -34q92 0 140 68 q29 42 29 96q0 92 -69 139q-43 30 -98 30z" glyph-name="nine" horiz-adv-x="575" unicode="9"/>
<glyph d="M126 90q33 0 46 -31q4 -10 4 -20q0 -33 -30 -46q-10 -4 -20 -4q-32 0 -46 29q-5 10 -5 21q0 32 30 46q11 5 21 5zM126 515q33 0 46 -31q4 -10 4 -20q0 -33 -30 -46q-10 -4 -20 -4q-32 0 -46 29q-5 10 -5 21q0 32 30 46q11 5 21 5z" glyph-name="colon" horiz-adv-x="251" unicode=":"/>
<glyph d="M76 -118l40 108q-29 11 -35 39q-1 6 -1 10q0 33 30 46q10 4 20 4q34 0 47 -30q4 -10 4 -20q0 -11 -6 -26l-59 -131h-40zM130 515q32 0 46 -29q5 -11 5 -22q0 -33 -31 -46q-10 -4 -20 -4q-32 0 -46 30q-4 10 -4 20q0 32 29 46q11 5 21 5z" glyph-name="semicolon" horiz-adv-x="257" unicode=";"/>
<glyph d="M463 130l-422 190v63l422 189v-67l-343 -154l343 -153v-68z" glyph-name="less" horiz-adv-x="544" unicode="&lt;"/>
<glyph d="M497 223h-419v62h419v-62zM78 479h419v-61h-419v61z" glyph-name="equal" horiz-adv-x="575" unicode="="/>
<glyph d="M81 197l343 154l-343 153v68l422 -190v-63l-422 -189v67z" glyph-name="greater" horiz-adv-x="544" unicode="&gt;"/>
<glyph d="M427 533q0 -80 -65 -143l-33 -30q-55 -47 -70 -78q-14 -29 -14 -60v-47h-68v48q0 83 66 148q11 10 33 29q54 47 69 78q12 25 12 54q0 69 -58 101q-31 17 -69 17q-92 -1 -146 -84l-50 38q49 82 139 104q28 7 57 7q107 0 162 -73q35 -47 35 -109zM210 86q32 0 45 -29 q4 -10 4 -20q0 -32 -29 -45q-10 -4 -20 -4q-32 0 -45 29q-4 10 -4 20q0 32 29 45q10 4 20 4z" glyph-name="question" horiz-adv-x="474" unicode="?"/>
<glyph d="M51 300q0 164 110 284q106 117 262 134q24 3 48 3q165 0 284 -112q114 -107 129 -263q2 -21 2 -41q0 -117 -60 -185q-42 -45 -94 -46q-69 0 -101 58q-6 13 -10 25q-61 -84 -159 -85q-100 0 -164 76q-51 63 -51 146q0 106 75 172q58 51 135 51q93 0 146 -65q4 -5 6 -8v61 h61v-304q0 -47 35 -65q13 -6 27 -6q46 0 73 66q18 47 18 109q0 148 -98 251q-103 105 -254 106q-149 0 -252 -103q-102 -109 -105 -259q0 -153 99 -257q102 -105 252 -105q113 0 214 70l28 -51q-86 -57 -165 -71q-37 -7 -77 -7q-160 0 -278 109q-115 107 -133 263 q-3 25 -3 49zM461 459q-74 0 -119 -61q-33 -46 -33 -104q0 -83 61 -132q41 -32 91 -32q80 0 123 62q29 43 29 102q0 101 -73 144q-36 21 -79 21z" glyph-name="at" horiz-adv-x="942" unicode="@"/>
<glyph d="M86 0h-72l277 703h73l276 -703h-71l-87 219h-309zM327 622l-131 -339h263z" glyph-name="A" horiz-adv-x="654" unicode="A"/>
<glyph d="M105 0v703h237q123 0 180 -78q33 -45 33 -106q0 -90 -68 -141q-17 -12 -35 -20q81 -23 111 -95q13 -33 13 -71q0 -102 -85 -156q-59 -36 -139 -36h-247zM174 325v-261h184q83 0 124 60q22 33 22 73q0 72 -67 108q-39 20 -88 20h-175zM344 639h-170v-254h175q91 0 122 71 q12 26 12 58q0 78 -66 110q-32 15 -73 15z" glyph-name="B" horiz-adv-x="638" unicode="B"/>
<glyph d="M648 179l52 -43q-110 -144 -286 -148q-149 0 -252 102q-103 110 -106 261q0 155 103 260q105 103 253 104q172 -1 275 -130l-50 -48q-85 109 -223 110q-129 0 -212 -93q-74 -84 -74 -202q0 -133 90 -218q82 -78 198 -78q147 1 232 123z" glyph-name="C" horiz-adv-x="735" unicode="C"/>
<glyph d="M105 0v703h233q149 0 251 -101q100 -107 103 -250q0 -146 -100 -247q-106 -103 -254 -105h-233zM174 64h156q127 0 212 88q78 83 78 200q0 129 -92 212q-82 75 -198 75h-156v-575z" glyph-name="D" horiz-adv-x="748" unicode="D"/>
<glyph d="M105 703h425v-63h-356v-253h296v-64h-296v-259h370v-64h-439v703z" glyph-name="E" horiz-adv-x="598" unicode="E"/>
<glyph d="M105 703h391v-63h-322v-262h280v-62h-280v-316h-69v703z" glyph-name="F" horiz-adv-x="541" unicode="F"/>
<glyph d="M413 -12q-148 0 -251 102q-103 110 -106 261q0 154 103 259q107 102 254 105q165 -1 273 -124l-49 -50q-85 105 -222 106q-129 0 -212 -92q-76 -84 -76 -203q0 -133 90 -218q82 -78 198 -78q128 0 206 82q10 11 18 22v136h-195v62h261v-223h-2l2 -1q-90 -122 -238 -142 q-27 -4 -54 -4z" glyph-name="G" horiz-adv-x="767" unicode="G"/>
<glyph d="M105 703h69v-320h413v320h69v-703h-69v321h-413v-321h-69v703z" glyph-name="H" horiz-adv-x="761" unicode="H"/>
<glyph d="M105 0v703h69v-703h-69z" glyph-name="I" horiz-adv-x="279" unicode="I"/>
<glyph d="M21 125l55 33q41 -105 136 -106q85 0 116 76q13 31 13 68v507h69v-506q0 -113 -77 -171q-52 -38 -123 -38q-114 0 -169 93q-12 21 -20 44z" glyph-name="J" horiz-adv-x="508" unicode="J"/>
<glyph d="M105 0v703h69v-394l335 394h89l-250 -291l285 -412h-83l-248 360l-128 -151v-209h-69z" glyph-name="K" horiz-adv-x="637" unicode="K"/>
<glyph d="M105 0v703h69v-639h323v-64h-392z" glyph-name="L" horiz-adv-x="526" unicode="L"/>
<glyph d="M105 0v703h60l285 -451l285 451h60v-703h-69v565l-253 -392h-46l-253 392v-565h-69z" glyph-name="M" horiz-adv-x="900" unicode="M"/>
<glyph d="M105 0v703h58l427 -576v576h68v-703h-58l-427 576v-576h-68z" glyph-name="N" horiz-adv-x="763" unicode="N"/>
<glyph d="M417 715q151 0 255 -102q105 -107 106 -261q0 -154 -103 -259q-107 -103 -258 -105q-149 0 -253 101q-105 111 -108 263q0 154 104 259q107 102 257 104zM417 647q-126 0 -210 -89q-80 -86 -80 -206q0 -131 91 -217q84 -79 199 -79q125 0 210 89q80 86 80 207 q0 131 -92 217q-83 78 -198 78z" glyph-name="O" unicode="O"/>
<glyph d="M105 0v703h242q97 0 161 -72q54 -61 54 -142q0 -100 -76 -164q-60 -50 -138 -50h-174v-275h-69zM174 337h165q72 0 118 57q34 42 34 96q0 72 -60 118q-42 31 -92 31h-165v-302z" glyph-name="P" horiz-adv-x="602" unicode="P"/>
<glyph d="M417 -12q-149 0 -253 101q-105 111 -108 263q0 154 104 259q107 102 257 104q151 0 255 -102q105 -107 106 -261q0 -161 -112 -266q-32 -31 -71 -53l146 -202h-84l-126 175q-53 -18 -114 -18zM417 647q-126 0 -210 -89q-80 -86 -80 -206q0 -131 91 -217q84 -79 199 -79 q125 0 210 89q80 86 80 207q0 131 -92 217q-83 78 -198 78z" glyph-name="Q" unicode="Q"/>
<glyph d="M174 0h-69v703h269q99 0 162 -70q52 -59 52 -137q0 -102 -84 -162q-32 -23 -70 -34l151 -300h-79l-146 292h-186v-292zM174 639v-287h195q72 0 116 56q31 39 31 90q0 74 -62 115q-40 26 -86 26h-194z" glyph-name="R" horiz-adv-x="647" unicode="R"/>
<glyph d="M487 603l-53 -37q-52 83 -153 84q-90 0 -128 -58q-18 -27 -18 -60q0 -61 66 -100q21 -12 97 -46q106 -45 143 -77q60 -52 60 -133q0 -92 -76 -145q-61 -43 -151 -43q-126 0 -201 89q-16 18 -27 38l59 40q58 -100 175 -101q93 0 132 59q18 27 18 60q0 67 -73 111 q-25 14 -96 45q-101 42 -137 73q-60 52 -60 129q0 87 73 141q60 43 145 43q120 0 185 -82q12 -15 20 -30z" glyph-name="S" horiz-adv-x="554" unicode="S"/>
<glyph d="M27 640v63h513v-63h-222v-640h-69v640h-222z" glyph-name="T" horiz-adv-x="568" unicode="T"/>
<glyph d="M362 -12q-129 0 -205 91q-61 73 -61 174v450h69v-444q0 -107 74 -164q52 -40 123 -40q107 0 162 82q35 52 35 122v444h69v-450q0 -123 -86 -200q-74 -65 -180 -65z" glyph-name="U" horiz-adv-x="724" unicode="U"/>
<glyph d="M15 703h76l229 -602l229 602h76l-266 -703h-78z" glyph-name="V" horiz-adv-x="640" unicode="V"/>
<glyph d="M20 703h73l186 -603l179 603h72l179 -603l186 603h73l-220 -703h-76l-178 594l-178 -594h-76z" glyph-name="W" horiz-adv-x="988" unicode="W"/>
<glyph d="M18 0l234 367l-215 336h81l179 -283l179 283h81l-215 -336l234 -367h-79l-200 315l-200 -315h-79z" glyph-name="X" horiz-adv-x="594" unicode="X"/>
<glyph d="M13 703h79l205 -312l206 312h79l-250 -375v-328h-69v328z" glyph-name="Y" horiz-adv-x="595" unicode="Y"/>
<glyph d="M45 0v49l378 590h-363v64h452v-50l-377 -589h373v-64h-463z" glyph-name="Z" horiz-adv-x="560" unicode="Z"/>
<glyph d="M102 -130v903h200v-62h-134v-779h134v-62h-200z" glyph-name="bracketleft" horiz-adv-x="340" unicode="["/>
<glyph d="M476 -141h-66l-381 923h66z" glyph-name="backslash" horiz-adv-x="505" unicode="\"/>
<glyph d="M172 710h-134v62h200v-903h-200v62h134v779z" glyph-name="bracketright" horiz-adv-x="340" unicode="]"/>
<glyph d="M46 401l177 302h59l177 -302h-69l-137 238l-138 -238h-69z" glyph-name="asciicircum" horiz-adv-x="505" unicode="^"/>
<glyph d="M497 -135h-445v56h445v-56z" glyph-name="underscore" horiz-adv-x="549" unicode="_"/>
<glyph d="M147 727l92 -159h-60l-116 159h84z" glyph-name="grave" horiz-adv-x="302" unicode="`"/>
<glyph d="M387 311v18q0 98 -89 119q-22 5 -46 5q-91 -1 -150 -71l-38 45q76 87 193 88q123 0 173 -87q24 -43 24 -101v-327h-64v90q-51 -91 -158 -101q-11 -1 -22 -1q-89 0 -134 61q-26 35 -26 79q0 101 123 138q17 5 35 9zM219 48q83 0 134 65q36 46 36 99v42l-169 -33 q-102 -22 -103 -90q0 -51 51 -73q23 -10 51 -10z" glyph-name="a" horiz-adv-x="535" unicode="a"/>
<glyph d="M331 51q87 0 141 70q42 56 42 130q0 100 -70 159q-50 42 -113 42q-87 0 -138 -68q-40 -54 -40 -133q0 -119 82 -172q44 -28 96 -28zM155 88v-88h-64v703h67v-286q38 69 127 91q28 7 57 7q106 0 177 -83q64 -76 64 -181q0 -121 -81 -198q-69 -65 -160 -65q-97 0 -161 65 q-15 17 -26 35z" glyph-name="b" horiz-adv-x="636" unicode="b"/>
<glyph d="M471 137l46 -42q-60 -87 -166 -104q-21 -3 -42 -3q-114 0 -190 84q-68 76 -68 180q0 119 84 196q74 67 174 67q125 -1 198 -100l-46 -44q-61 79 -152 80q-92 0 -148 -73q-41 -55 -41 -126q0 -101 71 -159q51 -41 117 -41q104 1 163 85z" glyph-name="c" horiz-adv-x="552" unicode="c"/>
<glyph d="M305 51q88 0 138 68q40 53 40 132q0 118 -82 172q-43 29 -96 29q-87 0 -141 -71q-42 -56 -42 -130q0 -100 70 -159q50 -41 113 -41zM481 0v88q-41 -71 -130 -93q-28 -7 -57 -7q-106 0 -177 83q-64 75 -64 180q0 122 82 200q68 64 159 64q97 0 157 -62q16 -17 27 -36v286 h67v-703h-64z" glyph-name="d" horiz-adv-x="636" unicode="d"/>
<glyph d="M306 515q116 0 181 -84q47 -61 47 -143q0 -27 -4 -49h-407q7 -105 86 -157q48 -31 108 -31q96 1 159 73l41 -46q-79 -90 -202 -90q-121 0 -198 87q-65 74 -65 176q0 121 82 198q72 66 172 66zM305 453q-91 0 -144 -70q-29 -39 -36 -88h342v4q-3 90 -76 132q-39 22 -86 22 z" glyph-name="e" horiz-adv-x="585" unicode="e"/>
<glyph d="M125 444h-78v59h78v61q0 99 76 135q33 16 73 16q40 -1 63 -13v-60q-23 12 -55 12q-74 0 -87 -64q-3 -13 -3 -27v-60h128v-59h-128v-444h-67v444z" glyph-name="f" horiz-adv-x="338" unicode="f"/>
<glyph d="M42 -69q0 68 76 108l8 4q-31 25 -32 63q1 41 50 75q-77 44 -88 129q-2 12 -2 24q0 86 70 140q54 41 125 41q38 0 71 -12h181v-59h-96q39 -47 39 -110q0 -86 -70 -140q-54 -41 -125 -41q-32 0 -53 7q-35 -26 -38 -46q0 -29 31 -37q8 -2 15 -2h145q93 0 135 -62 q22 -32 22 -73q0 -74 -84 -118q-66 -34 -160 -34q-137 0 -193 68q-27 33 -27 75zM249 454q-73 0 -109 -55q-19 -30 -19 -65q0 -63 53 -98q34 -21 75 -21q69 0 107 53q21 30 21 66q0 63 -54 99q-33 21 -74 21zM110 -65q0 -52 72 -74q36 -11 81 -11q119 0 160 50q15 18 15 39 q0 53 -58 70q-18 5 -39 5h-158q-72 -27 -73 -79z" glyph-name="g" horiz-adv-x="540" unicode="g"/>
<glyph d="M91 0v703h67v-290q55 101 176 102q98 0 153 -76q38 -54 38 -129v-310h-67v307q0 93 -69 129q-31 16 -68 16q-91 0 -136 -79q-27 -47 -27 -105v-268h-67z" glyph-name="h" horiz-adv-x="608" unicode="h"/>
<glyph d="M91 0v503h67v-503h-67zM124 711q32 0 45 -29q4 -10 4 -20q0 -32 -29 -45q-10 -4 -20 -4q-32 0 -45 29q-4 10 -4 20q0 32 29 45q10 4 20 4z" glyph-name="i" horiz-adv-x="249" unicode="i"/>
<glyph d="M172 503v-558q0 -120 -89 -149q-24 -8 -52 -8q-32 0 -58 11v62q24 -11 53 -11q65 0 77 68q2 12 2 26v559h67zM138 711q32 0 45 -29q4 -10 4 -20q0 -32 -29 -45q-10 -4 -20 -4q-32 0 -45 29q-4 10 -4 20q0 32 29 45q10 4 20 4z" glyph-name="j" horiz-adv-x="265" unicode="j"/>
<glyph d="M91 703h67v-472l240 272h82l-181 -207l201 -296h-79l-167 250l-96 -111v-139h-67v703z" glyph-name="k" horiz-adv-x="514" unicode="k"/>
<glyph d="M85 100v603h67v-591q2 -61 51 -62q18 0 31 5v-61q-17 -6 -38 -6q-96 0 -109 86q-2 13 -2 26z" glyph-name="l" horiz-adv-x="272" unicode="l"/>
<glyph d="M91 503h65v-95q57 104 178 107q106 0 159 -84q10 -17 17 -36q50 89 122 111q32 9 69 9q103 0 156 -79q35 -53 35 -126v-310h-67v307q0 93 -69 129q-31 16 -68 16q-88 0 -134 -79q-29 -50 -29 -110v-263h-67v307q0 93 -69 129q-31 16 -68 16q-88 0 -134 -79 q-29 -50 -29 -110v-263h-67v503z" glyph-name="m" horiz-adv-x="975" unicode="m"/>
<glyph d="M91 503h65v-95q57 104 178 107q103 0 156 -79q35 -53 35 -126v-310h-67v307q0 93 -69 129q-31 16 -68 16q-88 0 -134 -79q-29 -50 -29 -110v-263h-67v503z" glyph-name="n" horiz-adv-x="608" unicode="n"/>
<glyph d="M310 515q118 0 194 -87q64 -75 64 -177q0 -119 -83 -196q-73 -67 -175 -67q-119 0 -194 87q-64 74 -64 176q0 119 83 197q73 67 175 67zM310 450q-95 0 -150 -76q-39 -54 -39 -123q0 -95 67 -154q52 -45 122 -45q95 0 150 76q39 54 39 123q0 95 -67 154q-52 45 -122 45z " glyph-name="o" horiz-adv-x="620" unicode="o"/>
<glyph d="M331 452q-88 0 -138 -68q-40 -53 -40 -132q0 -118 82 -172q43 -29 96 -29q87 0 141 71q41 56 41 129q0 102 -70 160q-49 41 -112 41zM155 503v-88q45 75 137 95q25 5 50 5q105 0 176 -82q64 -76 64 -181q0 -122 -82 -200q-68 -64 -158 -64q-94 0 -155 59q-18 18 -29 38 v-285h-67v703h64z" glyph-name="p" horiz-adv-x="635" unicode="p"/>
<glyph d="M304 452q-87 0 -141 -71q-41 -56 -41 -130q0 -100 70 -159q49 -41 112 -41q87 0 138 68q40 54 40 133q0 119 -82 172q-44 28 -96 28zM480 415v88h64v-703h-67v285q-37 -68 -125 -90q-30 -7 -59 -7q-105 0 -175 82q-65 76 -65 182q0 121 81 199q68 64 159 64 q101 0 164 -69q13 -15 23 -31z" glyph-name="q" horiz-adv-x="634" unicode="q"/>
<glyph d="M157 503v-99q34 96 127 109q13 2 26 2q8 0 28 -3v-66q-8 1 -22 1q-98 0 -138 -85q-20 -44 -20 -103v-259h-67v503h66z" glyph-name="r" horiz-adv-x="370" unicode="r"/>
<glyph d="M235 -12q-103 0 -169 71q-15 16 -22 30l49 39q30 -48 86 -68q27 -10 56 -10q74 0 101 44q9 16 9 34q0 41 -54 67q-23 12 -72 28q-112 36 -143 87q-17 28 -17 63q0 75 71 115q46 27 105 27q95 0 153 -72q10 -11 15 -21l-50 -39q-26 44 -73 62q-23 9 -46 9q-74 0 -99 -45 q-8 -16 -8 -34q0 -44 63 -72q22 -10 56 -21q105 -36 138 -75q28 -32 28 -78q0 -74 -70 -115q-46 -26 -107 -26z" glyph-name="s" horiz-adv-x="464" unicode="s"/>
<glyph d="M37 503h79v139h67v-139h131v-59h-131v-297q0 -87 78 -94q7 -1 14 -1q30 1 59 14v-64q-35 -14 -73 -14q-98 0 -132 79q-14 33 -14 74v303h-78v59z" glyph-name="t" horiz-adv-x="368" unicode="t"/>
<glyph d="M83 503h67v-307q0 -93 69 -129q31 -16 68 -16q88 0 134 79q29 50 29 110v263h67v-503h-65v95q-57 -104 -178 -107q-103 0 -156 79q-35 53 -35 126v310z" glyph-name="u" horiz-adv-x="608" unicode="u"/>
<glyph d="M18 503h72l165 -415l165 415h72l-206 -503h-62z" glyph-name="v" horiz-adv-x="510" unicode="v"/>
<glyph d="M192 0l-171 503h71l136 -413l140 412h69l140 -412l136 413h71l-171 -503h-68l-142 408l-143 -408h-68z" glyph-name="w" horiz-adv-x="805" unicode="w"/>
<glyph d="M23 0l178 261l-163 242h79l130 -198l130 198h79l-163 -242l178 -261h-80l-144 215l-144 -215h-80z" glyph-name="x" horiz-adv-x="496" unicode="x"/>
<glyph d="M225 5l-208 498h74l167 -416l165 416h73l-248 -605q-36 -90 -103 -106q-18 -4 -38 -4q-44 0 -72 15v63q31 -18 70 -18q50 0 80 60q5 11 11 25z" glyph-name="y" horiz-adv-x="514" unicode="y"/>
<glyph d="M51 0v44l278 399h-277v60h366v-44l-279 -399h290v-60h-378z" glyph-name="z" horiz-adv-x="475" unicode="z"/>
<glyph d="M41 291v62q63 1 77 43q8 22 8 62v163q2 157 144 158q16 0 25 -1v-59q-72 0 -91 -36q-12 -22 -12 -61v-164q-1 -115 -65 -136q65 -22 65 -136v-165q0 -71 40 -88q23 -9 63 -9v-59q-10 -1 -25 -1q-143 2 -144 158v164q0 74 -30 93q-20 11 -55 12z" glyph-name="braceleft" horiz-adv-x="336" unicode="{"/>
<glyph d="M168 -140h-66v923h66v-923z" glyph-name="bar" horiz-adv-x="270" unicode="|"/>
<glyph d="M144 457v165q0 70 -37 87q-22 10 -66 10v59q10 1 25 1q143 -2 144 -158v-164q0 -74 31 -93q20 -11 54 -12v-62q-61 -1 -76 -40q-9 -22 -9 -65v-163q-2 -157 -144 -158q-16 0 -25 1v59q72 0 91 34q12 23 12 63v164q1 115 65 136q-65 22 -65 136z" glyph-name="braceright" horiz-adv-x="336" unicode="}"/>
<glyph d="M123 263l-49 16q1 70 54 104q28 18 63 18q44 0 104 -40q53 -35 79 -38q7 -1 12 -1q48 0 64 57q3 13 4 26l49 -16q0 -67 -51 -102q-30 -20 -66 -20q-45 0 -104 39q-53 34 -79 38q-7 1 -13 1q-46 0 -62 -56q-4 -13 -5 -26z" glyph-name="asciitilde" horiz-adv-x="572" unicode="~"/>
<glyph glyph-name="uni00A0" horiz-adv-x="262" unicode=" "/>
<glyph d="M163 323l8 -523h-75l7 523h60zM133 521q33 0 47 -30q5 -10 5 -21q0 -33 -30 -46q-11 -5 -22 -5q-32 0 -46 29q-5 11 -5 22q0 32 30 46q11 5 21 5z" glyph-name="exclamdown" horiz-adv-x="266" unicode="¡"/>
<glyph d="M52 352q0 118 84 195q60 56 141 66v107h66v-107q102 -13 165 -98l-46 -44q-61 79 -152 80q-93 0 -149 -74q-40 -55 -40 -125q0 -95 66 -154q52 -46 122 -46q104 1 163 85l46 -42q-65 -91 -175 -105v-108h-66v108q-109 14 -174 102q-51 71 -51 160z" glyph-name="cent" horiz-adv-x="558" unicode="¢"/>
<glyph d="M62 0v64h19q36 0 46 45q2 12 2 25v180h-66v60h66v141q0 99 73 157q55 43 126 43q126 -1 193 -112l-53 -40q-48 85 -140 86q-74 0 -110 -58q-21 -34 -21 -76v-141h204v-60h-204v-181q-1 -49 -26 -69h355v-64h-464z" glyph-name="sterling" horiz-adv-x="574" unicode="£"/>
<glyph d="M58 588l46 47l97 -98q60 45 135 45q76 -1 135 -45l98 98l46 -47l-98 -98q44 -59 44 -134q-1 -76 -44 -134l98 -99l-47 -46l-98 98q-60 -45 -134 -45q-76 1 -134 44l-97 -97l-47 47l97 97q-45 60 -45 135q1 76 45 135zM336 516q-77 0 -125 -61q-35 -44 -35 -99 q0 -79 64 -128q43 -32 96 -34q81 0 129 63q33 44 33 99q-3 80 -65 127q-44 33 -97 33z" glyph-name="currency" horiz-adv-x="673" unicode="¤"/>
<glyph d="M254 373l-220 330h79l205 -312l206 312h79l-220 -330h150v-59h-180v-85h180v-59h-180v-170h-69v170h-177v59h177v85h-177v59h147z" glyph-name="yen" horiz-adv-x="638" unicode="¥"/>
<glyph d="M102 200h66v-340h-66v340zM102 783h66v-340h-66v340z" glyph-name="brokenbar" horiz-adv-x="270" unicode="¦"/>
<glyph d="M51 2l52 37q58 -87 160 -88q77 0 110 46q14 21 14 44q0 45 -46 78q-28 20 -96 53q-129 63 -162 114q-20 32 -20 73q1 55 50 98q-44 42 -44 103q0 78 71 123q51 32 117 32q109 0 173 -74q14 -18 25 -38l-53 -36q-48 84 -145 85q-77 0 -107 -48q-13 -19 -13 -42 q0 -44 47 -77q29 -20 102 -56q127 -62 159 -120q15 -30 15 -66q-1 -54 -49 -99q43 -44 43 -101q0 -78 -72 -123q-51 -32 -118 -32q-111 0 -186 80q-15 16 -27 34zM250 373q-56 27 -89 47q-31 -28 -30 -59q0 -42 47 -76q30 -21 94 -53q57 -28 89 -49q30 27 31 58q0 48 -59 87 q-31 21 -83 45z" glyph-name="section" horiz-adv-x="521" unicode="§"/>
<glyph d="M172 695q32 0 45 -29q4 -10 4 -20q0 -32 -29 -45q-10 -4 -20 -4q-32 0 -45 29q-4 10 -4 20q0 32 29 45q10 4 20 4zM388 695q32 0 45 -29q4 -10 4 -20q0 -32 -29 -45q-10 -4 -20 -4q-32 0 -45 29q-4 10 -4 20q0 32 29 45q10 4 20 4z" glyph-name="dieresis" horiz-adv-x="560" unicode="¨"/>
<glyph d="M56 351q0 150 101 255q99 104 244 109h13q146 0 251 -101q104 -100 111 -245v-18q0 -149 -102 -254q-100 -103 -245 -109h-15q-147 0 -250 101t-108 250v12zM121 351q0 -134 92 -221q83 -80 201 -80q131 0 217 92q80 87 80 209q0 132 -91 220q-85 82 -206 82 q-127 0 -213 -92q-80 -87 -80 -210zM541 265l43 -38q-50 -71 -143 -81q-12 -1 -24 -1q-96 0 -156 73q-48 57 -48 134q0 99 74 160q56 46 131 46q96 -1 158 -75l-41 -41q-50 55 -117 56q-75 0 -116 -60q-26 -38 -26 -86q0 -80 60 -122q36 -25 81 -25q75 1 124 60z" glyph-name="copyright" horiz-adv-x="832" unicode="©"/>
<glyph d="M71 319v55h264v-55h-264zM262 608v6q0 38 -40 48q-10 2 -20 2q-43 0 -81 -35l-30 37q31 39 89 47q12 2 23 2q82 0 108 -59q9 -20 9 -44v-178h-55v44q-17 -36 -63 -47q-13 -3 -25 -3q-58 0 -83 42q-9 17 -9 35q0 58 73 80q7 2 14 3zM181 477q46 0 71 37q11 18 11 36v14 l-76 -17q-44 -10 -45 -38q0 -26 29 -31q5 -1 10 -1z" glyph-name="ordfeminine" horiz-adv-x="409" unicode="ª"/>
<glyph d="M338 61l-119 190l119 191h69l-119 -191l119 -190h-69zM47 251l119 191h69l-119 -191l119 -190h-69z" glyph-name="guillemotleft" horiz-adv-x="464" unicode="«"/>
<glyph d="M76 321v62h429v-183h-63v121h-366z" glyph-name="logicalnot" horiz-adv-x="589" unicode="¬"/>
<glyph d="M73 240v62h290v-62h-290z" glyph-name="uni00AD" horiz-adv-x="436" unicode="­"/>
<glyph d="M248 380q-96 0 -154 72q-42 54 -42 124q0 94 71 151q54 43 125 43q95 0 152 -71q43 -54 43 -123q0 -96 -72 -154q-54 -42 -123 -42zM248 726q-83 0 -125 -64q-25 -38 -25 -86q0 -83 63 -126q38 -26 87 -26q80 0 123 63q26 39 26 89q0 79 -61 123q-39 27 -88 27zM181 483 v183h81q40 0 54 -36q4 -11 4 -23q-1 -36 -35 -52l43 -72h-45l-36 65h-26v-65h-40zM221 632v-50h32q22 5 26 25q-5 22 -26 25h-32z" glyph-name="registered" horiz-adv-x="495" unicode="®"/>
<glyph d="M58 619v55h259v-55h-259z" glyph-name="macron" horiz-adv-x="375" unicode="¯"/>
<glyph d="M195 428q-73 0 -116 58q-28 38 -28 85q0 73 59 116q38 28 85 28q70 0 114 -57q29 -39 29 -87q0 -72 -58 -115q-39 -28 -85 -28zM195 486q53 0 75 43q10 20 10 42q0 54 -45 77q-19 9 -40 9q-53 0 -75 -45q-9 -19 -9 -41q0 -56 47 -77q17 -8 37 -8z" glyph-name="degree" horiz-adv-x="389" unicode="°"/>
<glyph d="M270 400h-197v62h197v187h64v-187h197v-62h-197v-186h-64v186zM73 122h458v-62h-458v62z" glyph-name="plusminus" horiz-adv-x="604" unicode="±"/>
<glyph d="M171 660q-54 0 -78 -55q-1 -1 -1 -2l-49 30q41 81 129 82q83 0 113 -61q11 -23 11 -50q0 -62 -70 -114q-13 -10 -47 -32q-60 -41 -70 -66q-1 -5 -2 -9h197v-54h-254q-5 19 -5 35q0 63 66 114q16 13 38 27q59 40 72 56q15 20 15 43q0 42 -42 53q-11 3 -23 3z" glyph-name="twosuperior" horiz-adv-x="350" unicode="²"/>
<glyph d="M37 398l47 30q24 -56 83 -57q44 0 66 34q10 16 10 34q0 48 -47 64q-18 6 -37 6q-23 0 -38 -4v41l93 104h-158v53h238v-39l-96 -107q73 -14 96 -75q7 -20 7 -42q0 -67 -58 -102q-35 -21 -78 -21q-85 0 -126 77z" glyph-name="threesuperior" horiz-adv-x="349" unicode="³"/>
<glyph d="M63 568l92 159h84l-116 -159h-60z" glyph-name="acute" horiz-adv-x="302" unicode="´"/>
<glyph d="M91 502h67v-307q0 -93 69 -129q31 -16 68 -16q88 0 134 79q29 50 29 110v263h67v-503h-65v95q-57 -104 -178 -107q-73 1 -125 44v-231h-66v702z" glyph-name="mu" horiz-adv-x="616" unicode="µ"/>
<glyph d="M37 509q0 100 84 156q58 38 133 38h255v-803h-62v744h-86v-744h-62v417h-45q-105 0 -168 67q-49 53 -49 125z" glyph-name="paragraph" horiz-adv-x="621" unicode="¶"/>
<glyph d="M70 303q0 33 30 46q10 4 20 4q34 0 47 -30q4 -10 4 -20q0 -32 -29 -46q-11 -5 -22 -5q-31 0 -45 29q-5 11 -5 22z" glyph-name="periodcentered" horiz-adv-x="241" unicode="·"/>
<glyph d="M148 0l-14 -62q55 -9 71 -51q4 -11 4 -23q0 -57 -60 -76q-21 -6 -43 -6q-36 0 -48 5v49q36 -5 44 -5q49 1 50 33q-9 31 -56 34h-5t-5 -0.5t-4 -0.5h-2l28 120z" glyph-name="cedilla" horiz-adv-x="267" unicode="¸"/>
<glyph d="M139 383v233q-38 -19 -89 -22v55q73 6 98 48h49v-314h84v-54h-227v54h85z" glyph-name="onesuperior" horiz-adv-x="314" unicode="¹"/>
<glyph d="M215 428q-74 0 -116 58q-27 38 -27 85q0 75 59 117q38 27 84 27q74 0 116 -59q27 -38 27 -85q0 -74 -58 -116q-38 -27 -85 -27zM215 486q53 0 75 43q10 20 10 42q0 54 -45 77q-19 9 -40 9q-51 0 -74 -43q-10 -20 -10 -43q0 -55 46 -77q18 -8 38 -8zM82 321v56h266v-56 h-266z" glyph-name="ordmasculine" horiz-adv-x="430" unicode="º"/>
<glyph d="M299 61h-69l119 191l-119 190h69l119 -190zM177 252l-119 190h69l119 -190l-119 -191h-69z" glyph-name="guillemotright" horiz-adv-x="466" unicode="»"/>
<glyph d="M600 87h-176v36l184 252h48v-236h56v-52h-56v-86h-56v86zM185 0h-65l514 703h64zM143 383v233q-38 -19 -89 -22v55q73 6 98 48h49v-314h84v-54h-227v54h85zM499 139h101v139z" glyph-name="onequarter" horiz-adv-x="761" unicode="¼"/>
<glyph d="M549 275l-49 30q41 81 129 82q83 0 113 -61q11 -23 11 -50q0 -62 -70 -114q-13 -10 -47 -32q-60 -41 -70 -66q-1 -5 -2 -9h197v-54h-254q-5 19 -5 35q0 63 66 114q16 13 38 27q59 40 72 56q15 20 15 43q0 42 -42 53q-11 3 -23 3q-54 0 -78 -55q-1 -1 -1 -2zM185 0h-65 l514 703h64zM143 383v233q-38 -19 -89 -22v55q73 6 98 48h49v-314h84v-54h-227v54h85z" glyph-name="onehalf" horiz-adv-x="807" unicode="½"/>
<glyph d="M426 123l184 252h48v-236h56v-52h-56v-86h-56v86h-176v36zM40 398l47 30q24 -56 83 -57q44 0 66 34q10 16 10 34q0 48 -47 64q-18 6 -37 6q-23 0 -38 -4v41l93 104h-158v53h238v-39l-96 -107q73 -14 96 -75q7 -20 7 -42q0 -67 -58 -102q-35 -21 -78 -21q-85 0 -126 77z M187 0h-65l514 703h64zM602 278l-101 -139h101v139z" glyph-name="threequarters" horiz-adv-x="765" unicode="¾"/>
<glyph d="M44 -30q0 80 65 143l33 30q55 47 70 78q14 29 14 60v47h68v-48q0 -82 -66 -147q-11 -10 -33 -29q-54 -48 -69 -79q-12 -26 -12 -54q0 -69 58 -101q31 -17 69 -17q92 1 146 84l50 -38q-49 -82 -139 -104q-28 -7 -57 -7q-107 0 -162 73q-35 47 -35 109zM261 515 q32 0 45 -29q4 -10 4 -20q0 -32 -29 -45q-10 -4 -20 -4q-32 0 -45 29q-4 10 -4 20q0 32 29 45q10 4 20 4z" glyph-name="questiondown" horiz-adv-x="469" unicode="¿"/>
<glyph d="M86 0h-72l277 703h73l276 -703h-71l-87 219h-309zM327 622l-131 -339h263zM285 768l-116 159h84l92 -159h-60z" glyph-name="Agrave" horiz-adv-x="654" unicode="À"/>
<glyph d="M14 0l277 703h73l276 -703h-71l-87 219h-309l-87 -219h-72zM196 283h263l-132 339zM368 768h-60l92 159h84z" glyph-name="Aacute" horiz-adv-x="654" unicode="Á"/>
<glyph d="M14 0l277 703h73l276 -703h-71l-87 219h-309l-87 -219h-72zM196 283h263l-132 339zM178 753l120 174h59l120 -174h-66l-84 124l-83 -124h-66z" glyph-name="Acircumflex" horiz-adv-x="654" unicode="Â"/>
<glyph d="M14 0l277 703h73l276 -703h-71l-87 219h-309l-87 -219h-72zM327 622l-131 -339h263zM224 779l-48 16q0 78 58 98q16 5 33 5q32 0 72 -35q33 -27 49 -28q35 0 42 57q0 4 1 9l48 -16q0 -74 -55 -96q-17 -7 -36 -7q-33 0 -72 36q-33 27 -49 28q-35 0 -42 -58q0 -4 -1 -9z " glyph-name="Atilde" horiz-adv-x="654" unicode="Ã"/>
<glyph d="M86 0h-72l277 703h73l276 -703h-71l-87 219h-309zM196 283h263l-132 339zM385 846q0 32 29 45q10 4 20 4q32 0 45 -29q4 -10 4 -20q0 -32 -29 -45q-10 -4 -20 -4q-32 0 -45 29q-4 10 -4 20zM170 846q0 32 29 45q10 4 20 4q32 0 45 -29q4 -10 4 -20q0 -32 -29 -45 q-10 -4 -20 -4q-32 0 -45 29q-4 10 -4 20z" glyph-name="Adieresis" horiz-adv-x="654" unicode="Ä"/>
<glyph d="M14 0l277 703h73l276 -703h-71l-87 219h-309l-87 -219h-72zM327 622l-131 -339h263zM327 752q-57 0 -85 47q-14 24 -14 52q0 56 46 85q25 15 53 15q56 0 85 -47q15 -25 15 -53q0 -56 -47 -84q-25 -15 -53 -15zM276 851q0 -34 30 -47q11 -4 21 -4q37 0 49 32q3 10 3 19 q0 40 -35 50q-9 2 -17 2q-36 0 -48 -32q-3 -10 -3 -20z" glyph-name="Aring" horiz-adv-x="654" unicode="Å"/>
<glyph d="M-6 0l360 703h503v-64h-330v-252h271v-64h-271v-259h344v-64h-413v242h-268l-124 -242h-72zM394 639l-171 -334h235v334h-64z" glyph-name="AE" horiz-adv-x="925" unicode="Æ"/>
<glyph d="M355 -103l22 93q-145 15 -236 123q-85 101 -85 238q0 155 103 260q105 103 253 104q172 -1 275 -130l-50 -48q-85 109 -223 110q-129 0 -212 -93q-74 -84 -74 -202q0 -133 90 -218q82 -78 198 -78q147 1 232 123l52 -43q-105 -143 -280 -148l-11 -50q55 -9 71 -51 q4 -11 4 -23q0 -57 -60 -76q-21 -6 -43 -6q-36 0 -48 5v49q36 -5 44 -5q49 1 50 33q-9 31 -56 34h-5t-5 -0.5t-4 -0.5h-2z" glyph-name="Ccedilla" horiz-adv-x="735" unicode="Ç"/>
<glyph d="M105 703h425v-63h-356v-253h296v-64h-296v-259h370v-64h-439v703zM278 768l-116 159h84l92 -159h-60z" glyph-name="Egrave" horiz-adv-x="598" unicode="È"/>
<glyph d="M105 0v703h425v-63h-356v-253h296v-64h-296v-259h370v-64h-439zM353 768h-60l92 159h84z" glyph-name="Eacute" horiz-adv-x="598" unicode="É"/>
<glyph d="M105 703h425v-63h-356v-253h296v-64h-296v-259h370v-64h-439v703zM169 753l120 174h59l120 -174h-66l-84 124l-83 -124h-66z" glyph-name="Ecircumflex" horiz-adv-x="598" unicode="Ê"/>
<glyph d="M105 0v703h425v-63h-356v-253h296v-64h-296v-259h370v-64h-439zM379 846q0 32 29 45q10 4 20 4q32 0 45 -29q4 -10 4 -20q0 -32 -29 -45q-10 -4 -20 -4q-32 0 -45 29q-4 10 -4 20zM163 846q0 32 29 45q10 4 20 4q32 0 45 -29q4 -10 4 -20q0 -32 -29 -45q-10 -4 -20 -4 q-32 0 -45 29q-4 10 -4 20z" glyph-name="Edieresis" horiz-adv-x="598" unicode="Ë"/>
<glyph d="M100 0v703h69v-703h-69zM62 927l92 -159h-60l-116 159h84z" glyph-name="Igrave" horiz-adv-x="274" unicode="Ì"/>
<glyph d="M105 0v703h69v-703h-69zM119 768l92 159h84l-116 -159h-60z" glyph-name="Iacute" horiz-adv-x="277" unicode="Í"/>
<glyph d="M175 0h-69v703h69v-703zM-8 753l120 174h59l120 -174h-66l-84 124l-83 -124h-66z" glyph-name="Icircumflex" horiz-adv-x="282" unicode="Î"/>
<glyph d="M106 0v703h69v-703h-69zM34 895q32 0 45 -29q4 -10 4 -20q0 -32 -29 -45q-10 -4 -20 -4q-32 0 -45 29q-4 10 -4 20q0 32 29 45q10 4 20 4zM248 895q32 0 45 -29q4 -10 4 -20q0 -32 -29 -45q-10 -4 -20 -4q-32 0 -45 29q-4 10 -4 20q0 32 29 45q10 4 20 4z" glyph-name="Idieresis" horiz-adv-x="280" unicode="Ï"/>
<glyph d="M34 320v64h80v319h233q149 0 251 -101q100 -107 103 -250q0 -146 -100 -247q-106 -103 -254 -105h-233v320h-80zM183 384h206v-64h-206v-256h156q127 0 212 88q78 83 78 200q0 129 -92 212q-82 75 -198 75h-156v-255z" glyph-name="Eth" horiz-adv-x="757" unicode="Ð"/>
<glyph d="M105 0v703h58l427 -576v576h68v-703h-58l-427 576v-576h-68zM277 779l-48 16q0 78 58 98q16 5 33 5q32 0 72 -35q33 -27 49 -28q35 0 42 57q0 4 1 9l48 -16q0 -74 -55 -96q-17 -7 -36 -7q-33 0 -72 36q-33 27 -49 28q-35 0 -42 -58q0 -4 -1 -9z" glyph-name="Ntilde" horiz-adv-x="763" unicode="Ñ"/>
<glyph d="M417 715q151 0 255 -102q105 -107 106 -261q0 -154 -103 -259q-107 -103 -258 -105q-149 0 -253 101q-105 111 -108 263q0 154 104 259q107 102 257 104zM417 647q-126 0 -210 -89q-80 -86 -80 -206q0 -131 91 -217q84 -79 199 -79q125 0 210 89q80 86 80 207 q0 131 -92 217q-83 78 -198 78zM348 927l92 -159h-60l-116 159h84z" glyph-name="Ograve" unicode="Ò"/>
<glyph d="M417 715q151 0 255 -102q105 -107 106 -261q0 -154 -103 -259q-107 -103 -258 -105q-149 0 -253 101q-105 111 -108 263q0 154 104 259q107 102 257 104zM417 647q-126 0 -210 -89q-80 -86 -80 -206q0 -131 91 -217q84 -79 199 -79q125 0 210 89q80 86 80 207 q0 131 -92 217q-83 78 -198 78zM396 768l92 159h84l-116 -159h-60z" glyph-name="Oacute" unicode="Ó"/>
<glyph d="M56 352q0 154 104 259q107 102 257 104q151 0 255 -102q105 -107 106 -261q0 -154 -103 -259q-107 -103 -258 -105q-149 0 -253 101q-105 111 -108 263zM127 352q0 -131 91 -217q84 -79 199 -79q125 0 210 89q80 86 80 207q0 131 -92 217q-83 78 -198 78q-126 0 -210 -89 q-80 -86 -80 -206zM334 753h-66l120 174h59l120 -174h-66l-84 124z" glyph-name="Ocircumflex" unicode="Ô"/>
<glyph d="M417 715q151 0 255 -102q105 -107 106 -261q0 -154 -103 -259q-107 -103 -258 -105q-149 0 -253 101q-105 111 -108 263q0 154 104 259q107 102 257 104zM417 647q-126 0 -210 -89q-80 -86 -80 -206q0 -131 91 -217q84 -79 199 -79q125 0 210 89q80 86 80 207 q0 131 -92 217q-83 78 -198 78zM314 779l-48 16q0 78 58 98q16 5 33 5q32 0 72 -35q33 -27 49 -28q35 0 42 57q0 4 1 9l48 -16q0 -74 -55 -96q-17 -7 -36 -7q-33 0 -72 36q-33 27 -49 28q-35 0 -42 -58q0 -4 -1 -9z" glyph-name="Otilde" unicode="Õ"/>
<glyph d="M417 715q151 0 255 -102q105 -107 106 -261q0 -154 -103 -259q-107 -103 -258 -105q-149 0 -253 101q-105 111 -108 263q0 154 104 259q107 102 257 104zM417 647q-126 0 -210 -89q-80 -86 -80 -206q0 -131 91 -217q84 -79 199 -79q125 0 210 89q80 86 80 207 q0 131 -92 217q-83 78 -198 78zM309 895q32 0 45 -29q4 -10 4 -20q0 -32 -29 -45q-10 -4 -20 -4q-32 0 -45 29q-4 10 -4 20q0 32 29 45q10 4 20 4zM525 895q32 0 45 -29q4 -10 4 -20q0 -32 -29 -45q-10 -4 -20 -4q-32 0 -45 29q-4 10 -4 20q0 32 29 45q10 4 20 4z" glyph-name="Odieresis" unicode="Ö"/>
<glyph d="M236 351l-172 172l42 42l172 -172l173 172l41 -42l-172 -172l172 -172l-42 -42l-172 172l-173 -172l-41 42z" glyph-name="multiply" horiz-adv-x="556" unicode="×"/>
<glyph d="M56 352q0 154 104 259q107 102 257 104q107 -1 191 -53l63 88l46 -31l-64 -89q123 -113 125 -278q0 -154 -103 -259q-107 -103 -258 -105q-101 1 -188 51l-63 -87l-46 32l63 88q-123 114 -127 280zM224 129l343 477q-66 41 -150 41q-126 0 -210 -89q-80 -86 -80 -206 q1 -137 97 -223zM612 573l-343 -477q67 -40 148 -40q125 0 210 89q80 86 80 207q-1 133 -95 221z" glyph-name="Oslash" unicode="Ø"/>
<glyph d="M96 703h69v-444q0 -107 74 -164q52 -40 123 -40q107 0 162 82q35 52 35 122v444h69v-450q0 -123 -86 -200q-74 -65 -180 -65q-129 0 -205 91q-61 73 -61 174v450zM205 927h84l92 -159h-60z" glyph-name="Ugrave" horiz-adv-x="724" unicode="Ù"/>
<glyph d="M96 703h69v-444q0 -107 74 -164q52 -40 123 -40q107 0 162 82q35 52 35 122v444h69v-450q0 -123 -86 -200q-74 -65 -180 -65q-129 0 -205 91q-61 73 -61 174v450zM401 768h-60l92 159h84z" glyph-name="Uacute" horiz-adv-x="724" unicode="Ú"/>
<glyph d="M362 -12q-129 0 -205 91q-61 73 -61 174v450h69v-444q0 -107 74 -164q52 -40 123 -40q107 0 162 82q35 52 35 122v444h69v-450q0 -123 -86 -200q-74 -65 -180 -65zM279 753h-66l120 174h59l120 -174h-66l-84 124z" glyph-name="Ucircumflex" horiz-adv-x="724" unicode="Û"/>
<glyph d="M96 703h69v-444q0 -107 74 -164q52 -40 123 -40q107 0 162 82q35 52 35 122v444h69v-450q0 -123 -86 -200q-74 -65 -180 -65q-129 0 -205 91q-61 73 -61 174v450zM469 797q-32 0 -45 29q-4 10 -4 20q0 32 29 45q10 4 20 4q32 0 45 -29q4 -10 4 -20q0 -32 -29 -45 q-10 -4 -20 -4zM254 797q-32 0 -45 29q-4 10 -4 20q0 32 29 45q10 4 20 4q32 0 45 -29q4 -10 4 -20q0 -32 -29 -45q-10 -4 -20 -4z" glyph-name="Udieresis" horiz-adv-x="724" unicode="Ü"/>
<glyph d="M263 328l-250 375h79l205 -312l206 312h79l-250 -375v-328h-69v328zM335 768h-60l92 159h84z" glyph-name="Yacute" horiz-adv-x="595" unicode="Ý"/>
<glyph d="M105 0v703h69v-138h173q97 0 161 -72q54 -61 54 -141q0 -100 -76 -164q-60 -50 -138 -50h-174v-138h-69zM174 199h170q82 0 125 63q26 39 26 89q0 83 -64 127q-39 26 -88 26h-169v-305z" glyph-name="Thorn" horiz-adv-x="612" unicode="Þ"/>
<glyph d="M162 0h-67v531q0 101 88 153q54 31 119 31q104 0 158 -67q31 -40 31 -87q0 -52 -49 -97q-10 -8 -32 -27q-13 -11 -19 -16q-47 -41 -50 -44q-15 -17 -15 -32q0 -27 55 -58q11 -6 43 -23q91 -51 113 -96q11 -24 11 -50q0 -77 -74 -112q-38 -18 -81 -18q-93 0 -151 65 q-11 13 -17 24l49 39q47 -65 119 -66q57 0 78 38q8 14 8 31q0 37 -50 68q-12 9 -45 27q-79 44 -100 67q-24 28 -24 62q0 41 51 88q12 11 33 29q56 46 67 63q13 18 13 37q0 46 -47 74q-33 19 -77 19q-72 0 -112 -50q-26 -33 -26 -77v-526z" glyph-name="germandbls" horiz-adv-x="602" unicode="ß"/>
<glyph d="M387 311v18q0 98 -89 119q-22 5 -46 5q-91 -1 -150 -71l-38 45q76 87 193 88q123 0 173 -87q24 -43 24 -101v-327h-64v90q-51 -91 -158 -101q-11 -1 -22 -1q-89 0 -134 61q-26 35 -26 79q0 101 123 138q17 5 35 9zM219 48q83 0 134 65q36 46 36 99v42l-169 -33 q-102 -22 -103 -90q0 -51 51 -73q23 -10 51 -10zM189 727l92 -159h-60l-116 159h84z" glyph-name="agrave" horiz-adv-x="535" unicode="à"/>
<glyph d="M387 311v18q0 98 -89 119q-22 5 -46 5q-91 -1 -150 -71l-38 45q76 87 193 88q123 0 173 -87q24 -43 24 -101v-327h-64v90q-51 -91 -158 -101q-11 -1 -22 -1q-89 0 -134 61q-26 35 -26 79q0 101 123 138q17 5 35 9zM219 48q83 0 134 65q36 46 36 99v42l-169 -33 q-102 -22 -103 -90q0 -51 51 -73q23 -10 51 -10zM229 568l92 159h84l-116 -159h-60z" glyph-name="aacute" horiz-adv-x="535" unicode="á"/>
<glyph d="M50 128q0 101 123 138q17 5 35 9l179 36v18q0 98 -89 119q-22 5 -46 5q-91 -1 -150 -71l-38 45q76 87 193 88q123 0 173 -87q24 -43 24 -101v-327h-64v90q-51 -91 -158 -101q-11 -1 -22 -1q-89 0 -134 61q-26 35 -26 79zM389 254l-169 -33q-102 -22 -103 -90 q0 -51 51 -73q23 -10 51 -10q83 0 134 65q36 46 36 99v42zM170 553h-66l120 174h59l120 -174h-66l-84 124z" glyph-name="acircumflex" horiz-adv-x="535" unicode="â"/>
<glyph d="M387 311v18q0 98 -89 119q-22 5 -46 5q-91 -1 -150 -71l-38 45q76 87 193 88q123 0 173 -87q24 -43 24 -101v-327h-64v90q-51 -91 -158 -101q-11 -1 -22 -1q-89 0 -134 61q-26 35 -26 79q0 101 123 138q17 5 35 9zM219 48q83 0 134 65q36 46 36 99v42l-169 -33 q-102 -22 -103 -90q0 -51 51 -73q23 -10 51 -10zM142 579l-48 16q0 78 58 98q16 5 33 5q32 0 72 -35q33 -27 49 -28q35 0 42 57q0 4 1 9l48 -16q0 -74 -55 -96q-17 -7 -36 -7q-33 0 -72 36q-33 27 -49 28q-35 0 -42 -58q0 -4 -1 -9z" glyph-name="atilde" horiz-adv-x="535" unicode="ã"/>
<glyph d="M387 311v18q0 98 -89 119q-22 5 -46 5q-91 -1 -150 -71l-38 45q76 87 193 88q123 0 173 -87q24 -43 24 -101v-327h-64v90q-51 -91 -158 -101q-11 -1 -22 -1q-89 0 -134 61q-26 35 -26 79q0 101 123 138q17 5 35 9zM219 48q83 0 134 65q36 46 36 99v42l-169 -33 q-102 -22 -103 -90q0 -51 51 -73q23 -10 51 -10zM142 695q32 0 45 -29q4 -10 4 -20q0 -32 -29 -45q-10 -4 -20 -4q-32 0 -45 29q-4 10 -4 20q0 32 29 45q10 4 20 4zM357 695q32 0 45 -29q4 -10 4 -20q0 -32 -29 -45q-10 -4 -20 -4q-32 0 -45 29q-4 10 -4 20q0 32 29 45 q10 4 20 4z" glyph-name="adieresis" horiz-adv-x="535" unicode="ä"/>
<glyph d="M387 311v18q0 98 -89 119q-22 5 -46 5q-91 -1 -150 -71l-38 45q76 87 193 88q123 0 173 -87q24 -43 24 -101v-327h-64v90q-51 -91 -158 -101q-11 -1 -22 -1q-89 0 -134 61q-26 35 -26 79q0 101 123 138q17 5 35 9zM219 48q83 0 134 65q36 46 36 99v42l-169 -33 q-102 -22 -103 -90q0 -51 51 -73q23 -10 51 -10zM155 651q0 56 46 85q25 15 53 15q56 0 85 -47q15 -25 15 -53q0 -56 -47 -84q-25 -15 -53 -15q-57 0 -85 47q-14 24 -14 52zM203 651q0 -34 30 -47q11 -4 21 -4q37 0 49 32q3 10 3 19q0 40 -35 50q-9 2 -17 2q-36 0 -48 -32 q-3 -10 -3 -20z" glyph-name="aring" horiz-adv-x="535" unicode="å"/>
<glyph d="M225 -12q-96 0 -146 62q-30 38 -30 87q0 73 69 116q54 34 135 34h158v37q0 80 -74 113q-35 16 -77 16q-79 0 -139 -53q-10 -10 -18 -19l-38 46q69 79 178 87q11 1 21 1q104 0 163 -69q18 -22 28 -47q58 98 164 114q16 2 33 2q114 0 177 -86q44 -62 44 -144q0 -33 -5 -53 h-391q8 -102 84 -153q45 -29 101 -29q90 1 153 73l41 -46q-78 -89 -195 -89q-118 0 -188 90q-16 19 -27 41q-41 -79 -127 -113q-45 -18 -94 -18zM413 232h-155q-123 0 -140 -73q-2 -10 -2 -20q0 -59 58 -82q25 -9 55 -9q84 0 141 62q43 47 43 102v20zM479 287h327v9 q-3 91 -72 134q-37 23 -82 23q-90 0 -140 -76q-26 -40 -33 -90z" glyph-name="ae" horiz-adv-x="924" unicode="æ"/>
<glyph d="M52 252q0 119 84 196q74 67 174 67q125 -1 198 -100l-46 -44q-61 79 -152 80q-92 0 -148 -73q-41 -55 -41 -126q0 -101 71 -159q51 -41 117 -41q104 1 163 85l46 -42q-63 -90 -173 -105l-24 -2l-11 -50q55 -9 71 -51q4 -11 4 -23q0 -57 -60 -76q-21 -6 -43 -6 q-36 0 -48 5v49q36 -5 44 -5q49 1 50 33q-9 31 -56 34h-5t-5 -0.5t-4 -0.5h-2l22 93q-110 14 -175 103q-51 70 -51 159z" glyph-name="ccedilla" horiz-adv-x="553" unicode="ç"/>
<glyph d="M306 515q116 0 181 -84q47 -61 47 -143q0 -27 -4 -49h-407q7 -105 86 -157q48 -31 108 -31q96 1 159 73l41 -46q-79 -90 -202 -90q-121 0 -198 87q-65 74 -65 176q0 121 82 198q72 66 172 66zM305 453q-91 0 -144 -70q-29 -39 -36 -88h342v4q-3 90 -76 132q-39 22 -86 22 zM235 727l92 -159h-60l-116 159h84z" glyph-name="egrave" horiz-adv-x="585" unicode="è"/>
<glyph d="M306 515q116 0 181 -84q47 -61 47 -143q0 -27 -4 -49h-407q7 -105 86 -157q48 -31 108 -31q96 1 159 73l41 -46q-79 -90 -202 -90q-121 0 -198 87q-65 74 -65 176q0 121 82 198q72 66 172 66zM305 453q-91 0 -144 -70q-29 -39 -36 -88h342v4q-3 90 -76 132q-39 22 -86 22 zM280 568l92 159h84l-116 -159h-60z" glyph-name="eacute" horiz-adv-x="585" unicode="é"/>
<glyph d="M52 251q0 121 82 198q72 66 172 66q116 0 181 -84q47 -61 47 -143q0 -27 -4 -49h-407q7 -105 86 -157q48 -31 108 -31q96 1 159 73l41 -46q-79 -90 -202 -90q-121 0 -198 87q-65 74 -65 176zM305 453q-91 0 -144 -70q-29 -39 -36 -88h342v4q-3 90 -76 132q-39 22 -86 22z M146 553l120 174h59l120 -174h-66l-84 124l-83 -124h-66z" glyph-name="ecircumflex" horiz-adv-x="585" unicode="ê"/>
<glyph d="M306 515q116 0 181 -84q47 -61 47 -143q0 -27 -4 -49h-407q7 -105 86 -157q48 -31 108 -31q96 1 159 73l41 -46q-79 -90 -202 -90q-121 0 -198 87q-65 74 -65 176q0 121 82 198q72 66 172 66zM305 453q-91 0 -144 -70q-29 -39 -36 -88h342v4q-3 90 -76 132q-39 22 -86 22 zM185 695q32 0 45 -29q4 -10 4 -20q0 -32 -29 -45q-10 -4 -20 -4q-32 0 -45 29q-4 10 -4 20q0 32 29 45q10 4 20 4zM401 695q32 0 45 -29q4 -10 4 -20q0 -32 -29 -45q-10 -4 -20 -4q-32 0 -45 29q-4 10 -4 20q0 32 29 45q10 4 20 4z" glyph-name="edieresis" horiz-adv-x="585" unicode="ë"/>
<glyph d="M91 0v503h67v-503h-67zM53 727l92 -159h-60l-116 159h84z" glyph-name="igrave" horiz-adv-x="249" unicode="ì"/>
<glyph d="M91 0v503h67v-503h-67zM105 568l92 159h84l-116 -159h-60z" glyph-name="iacute" horiz-adv-x="249" unicode="í"/>
<glyph d="M158 0h-67v503h67v-503zM-24 553l120 174h59l120 -174h-66l-84 124l-83 -124h-66z" glyph-name="icircumflex" horiz-adv-x="249" unicode="î"/>
<glyph d="M91 0v503h67v-503h-67zM18 695q32 0 45 -29q4 -10 4 -20q0 -32 -29 -45q-10 -4 -20 -4q-32 0 -45 29q-4 10 -4 20q0 32 29 45q10 4 20 4zM233 695q32 0 45 -29q4 -10 4 -20q0 -32 -29 -45q-10 -4 -20 -4q-32 0 -45 29q-4 10 -4 20q0 32 29 45q10 4 20 4z" glyph-name="idieresis" horiz-adv-x="249" unicode="ï"/>
<glyph d="M57 236q0 106 69 178q68 70 171 70q77 0 131 -53q4 -4 6 -7l1 1q-40 99 -127 155l-156 -72l-21 44l121 56q-54 26 -130 44l20 63q115 -29 185 -72l126 59l21 -45l-98 -45q152 -122 161 -342v-24q0 -109 -66 -184q-66 -74 -169 -74q-125 0 -195 95q-50 68 -50 153z M126 236q0 -89 61 -143q48 -41 114 -41q98 0 143 87q23 46 23 99q0 97 -65 148q-45 35 -105 35q-104 0 -149 -89q-22 -44 -22 -96z" glyph-name="eth" horiz-adv-x="605" unicode="ð"/>
<glyph d="M91 0v503h65v-95q57 104 178 107q103 0 156 -79q35 -53 35 -126v-310h-67v307q0 93 -69 129q-31 16 -68 16q-88 0 -134 -79q-29 -50 -29 -110v-263h-67zM198 579l-48 16q0 78 58 98q16 5 33 5q32 0 72 -35q33 -27 49 -28q35 0 42 57q0 4 1 9l48 -16q0 -74 -55 -96 q-17 -7 -36 -7q-33 0 -72 36q-33 27 -49 28q-35 0 -42 -58q0 -4 -1 -9z" glyph-name="ntilde" horiz-adv-x="608" unicode="ñ"/>
<glyph d="M310 515q118 0 194 -87q64 -75 64 -177q0 -119 -83 -196q-73 -67 -175 -67q-119 0 -194 87q-64 74 -64 176q0 119 83 197q73 67 175 67zM310 450q-95 0 -150 -76q-39 -54 -39 -123q0 -95 67 -154q52 -45 122 -45q95 0 150 76q39 54 39 123q0 95 -67 154q-52 45 -122 45z M237 727l92 -159h-60l-116 159h84z" glyph-name="ograve" horiz-adv-x="620" unicode="ò"/>
<glyph d="M310 515q118 0 194 -87q64 -75 64 -177q0 -119 -83 -196q-73 -67 -175 -67q-119 0 -194 87q-64 74 -64 176q0 119 83 197q73 67 175 67zM310 450q-95 0 -150 -76q-39 -54 -39 -123q0 -95 67 -154q52 -45 122 -45q95 0 150 76q39 54 39 123q0 95 -67 154q-52 45 -122 45z M283 568l92 159h84l-116 -159h-60z" glyph-name="oacute" horiz-adv-x="620" unicode="ó"/>
<glyph d="M52 251q0 119 83 197q73 67 175 67q118 0 194 -87q64 -75 64 -177q0 -119 -83 -196q-73 -67 -175 -67q-119 0 -194 87q-64 74 -64 176zM121 251q0 -95 67 -154q52 -45 122 -45q95 0 150 76q39 54 39 123q0 95 -67 154q-52 45 -122 45q-95 0 -150 -76q-39 -54 -39 -123z M227 553h-66l120 174h59l120 -174h-66l-84 124z" glyph-name="ocircumflex" horiz-adv-x="620" unicode="ô"/>
<glyph d="M310 515q118 0 194 -87q64 -75 64 -177q0 -119 -83 -196q-73 -67 -175 -67q-119 0 -194 87q-64 74 -64 176q0 119 83 197q73 67 175 67zM310 450q-95 0 -150 -76q-39 -54 -39 -123q0 -95 67 -154q52 -45 122 -45q95 0 150 76q39 54 39 123q0 95 -67 154q-52 45 -122 45z M207 579l-48 16q0 78 58 98q16 5 33 5q32 0 72 -35q33 -27 49 -28q35 0 42 57q0 4 1 9l48 -16q0 -74 -55 -96q-17 -7 -36 -7q-33 0 -72 36q-33 27 -49 28q-35 0 -42 -58q0 -4 -1 -9z" glyph-name="otilde" horiz-adv-x="620" unicode="õ"/>
<glyph d="M310 515q118 0 194 -87q64 -75 64 -177q0 -119 -83 -196q-73 -67 -175 -67q-119 0 -194 87q-64 74 -64 176q0 119 83 197q73 67 175 67zM310 450q-95 0 -150 -76q-39 -54 -39 -123q0 -95 67 -154q52 -45 122 -45q95 0 150 76q39 54 39 123q0 95 -67 154q-52 45 -122 45z M202 695q32 0 45 -29q4 -10 4 -20q0 -32 -29 -45q-10 -4 -20 -4q-32 0 -45 29q-4 10 -4 20q0 32 29 45q10 4 20 4zM418 695q32 0 45 -29q4 -10 4 -20q0 -32 -29 -45q-10 -4 -20 -4q-32 0 -45 29q-4 10 -4 20q0 32 29 45q10 4 20 4z" glyph-name="odieresis" horiz-adv-x="620" unicode="ö"/>
<glyph d="M223 158q0 32 29 46q11 5 21 5q32 0 46 -29q5 -11 5 -22q0 -33 -31 -46q-10 -4 -20 -4q-32 0 -46 30q-4 10 -4 20zM57 383h433v-62h-433v62zM223 545q0 32 29 46q11 5 21 5q32 0 46 -29q5 -11 5 -22q0 -32 -29 -46q-11 -5 -22 -5q-31 0 -45 29q-5 11 -5 22z" glyph-name="divide" horiz-adv-x="547" unicode="÷"/>
<glyph d="M52 251q0 119 83 197q73 67 175 67q75 -1 136 -38l51 71l43 -30l-53 -73q81 -77 81 -194q0 -119 -83 -196q-73 -67 -175 -67q-68 0 -127 32l-47 -65l-44 30l48 66q-85 81 -88 200zM179 106l228 317q-45 27 -97 27q-95 0 -150 -76q-39 -54 -39 -123q1 -89 58 -145z M448 389l-227 -315q40 -22 89 -22q95 0 150 76q39 54 39 123q-1 81 -51 138z" glyph-name="oslash" horiz-adv-x="620" unicode="ø"/>
<glyph d="M83 503h67v-307q0 -93 69 -129q31 -16 68 -16q88 0 134 79q29 50 29 110v263h67v-503h-65v95q-57 -104 -178 -107q-103 0 -156 79q-35 53 -35 126v310zM141 727h84l92 -159h-60z" glyph-name="ugrave" horiz-adv-x="608" unicode="ù"/>
<glyph d="M83 193v310h67v-307q0 -93 69 -129q31 -16 68 -16q88 0 134 79q29 50 29 110v263h67v-503h-65v95q-57 -104 -178 -107q-103 0 -156 79q-35 53 -35 126zM332 568h-60l92 159h84z" glyph-name="uacute" horiz-adv-x="608" unicode="ú"/>
<glyph d="M83 193v310h67v-307q0 -93 69 -129q31 -16 68 -16q88 0 134 79q29 50 29 110v263h67v-503h-65v95q-57 -104 -178 -107q-103 0 -156 79q-35 53 -35 126zM148 553l120 174h59l120 -174h-66l-84 124l-83 -124h-66z" glyph-name="ucircumflex" horiz-adv-x="608" unicode="û"/>
<glyph d="M83 503h67v-307q0 -93 69 -129q31 -16 68 -16q88 0 134 79q29 50 29 110v263h67v-503h-65v95q-57 -104 -178 -107q-103 0 -156 79q-35 53 -35 126v310zM355 646q0 32 29 45q10 4 20 4q32 0 45 -29q4 -10 4 -20q0 -32 -29 -45q-10 -4 -20 -4q-32 0 -45 29q-4 10 -4 20z M140 646q0 32 29 45q10 4 20 4q32 0 45 -29q4 -10 4 -20q0 -32 -29 -45q-10 -4 -20 -4q-32 0 -45 29q-4 10 -4 20z" glyph-name="udieresis" horiz-adv-x="608" unicode="ü"/>
<glyph d="M225 5l-208 498h74l167 -416l165 416h73l-248 -605q-36 -90 -103 -106q-18 -4 -38 -4q-44 0 -72 15v63q31 -18 70 -18q50 0 80 60q5 11 11 25zM300 568h-60l92 159h84z" glyph-name="yacute" horiz-adv-x="514" unicode="ý"/>
<glyph d="M89 703h68v-283q50 75 144 92q20 3 40 3q105 0 176 -82q64 -76 64 -181q0 -122 -82 -200q-68 -64 -158 -64q-94 0 -155 59q-18 18 -29 38v-285h-67v603h-1v300zM330 51q87 0 141 71q41 56 41 129q0 102 -70 160q-49 41 -112 41q-103 0 -151 -88q-27 -49 -27 -112 q0 -103 65 -160q47 -41 113 -41z" glyph-name="thorn" horiz-adv-x="634" unicode="þ"/>
</font>
</defs>
</svg>
