<?xml version="1.0" encoding="UTF-8"?>
<!DOCTYPE svg  PUBLIC '-//W3C//DTD SVG 1.1//EN'  'http://www.w3.org/Graphics/SVG/1.1/DTD/svg11.dtd'>
<svg version="1.1" xmlns="http://www.w3.org/2000/svg">
<defs>
<font id="Rotunda-Italic" horiz-adv-x="824">
<font-face font-family="Rotunda Italic" font-style="italic" font-weight="400" ascent="800" bbox="-70 -226 1123 976" cap-height="706" descent="-200" panose-1="0 0 0 0 0 0 0 0 0 0" underline-position="-100" underline-thickness="50" unicode-range="U+0020-00FE" units-per-em="1000" x-height="506"/>
<missing-glyph/>
<glyph glyph-name="space" horiz-adv-x="246" unicode=" "/>
<glyph d="M319 706l-100 -512h-87l80 512h107zM140 -12q-36 0 -48 31q-5 15 -2 31q8 39 45 55q14 6 27 6q37 0 48 -31q5 -15 2 -30q-8 -40 -45 -56q-14 -6 -27 -6z" glyph-name="exclam" horiz-adv-x="283" unicode="!"/>
<glyph d="M301 456l33 250h87l-57 -250h-63zM151 456l33 250h87l-57 -250h-63z" glyph-name="quotedbl" horiz-adv-x="355" unicode='"'/>
<glyph d="M73 226l26 77h147l35 101h-147l27 77h147l71 202h86l-71 -202h123l71 202h86l-71 -202h148l-27 -77h-148l-35 -101h147l-26 -77h-148l-71 -203h-86l71 203h-123l-71 -203h-86l71 203h-146zM332 303h123l35 101h-123z" glyph-name="numbersign" horiz-adv-x="698" unicode="#"/>
<glyph d="M53 125l93 56q36 -98 144 -99q84 0 130 52q18 22 22 44q10 54 -40 88q-16 10 -92 49q-83 43 -96 51q-80 53 -74 139q1 12 3 24q15 85 98 141q54 35 117 44l21 118h93l-21 -118q117 -21 154 -117l-86 -53q-38 81 -132 82q-89 0 -127 -56q-12 -18 -16 -38q-10 -53 46 -89 q18 -12 93 -48q96 -47 128 -81q46 -51 32 -132q-16 -90 -100 -145q-55 -36 -125 -45l-22 -124h-93l22 124q-118 17 -164 113z" glyph-name="dollar" horiz-adv-x="547" unicode="$"/>
<glyph d="M783 152q-14 -82 -88 -131q-51 -33 -107 -33q-81 0 -120 61q-28 45 -18 103q14 82 88 131q51 34 108 34q80 0 119 -61q28 -45 18 -104zM702 152q8 52 -30 76q-18 11 -40 11q-52 0 -83 -45q-14 -20 -18 -42q-9 -51 30 -75q19 -11 41 -11q51 0 82 45q14 19 18 41zM462 552 q-14 -82 -87 -131q-51 -33 -108 -33q-81 0 -120 61q-28 45 -18 103q14 82 88 131q51 34 108 34q81 0 120 -62q27 -45 17 -103zM381 552q9 50 -28 75q-18 12 -41 12q-52 0 -84 -45q-14 -20 -18 -42q-9 -52 31 -76q18 -10 40 -10q51 0 82 43q14 21 18 43zM93 0l641 706h88 l-641 -706h-88z" glyph-name="percent" horiz-adv-x="788" unicode="%"/>
<glyph d="M292 -12q-117 0 -179 64q-51 54 -38 131q17 94 137 169q24 14 52 29q-56 74 -57 131q0 17 3 35q14 76 85 127q61 44 134 44q96 0 139 -68q28 -46 18 -100q-13 -70 -93 -127q-36 -26 -92 -57l127 -166q61 82 67 181h96q-11 -143 -107 -255l96 -126h-125l-45 59 q-104 -71 -218 -71zM178 187q-12 -63 58 -91q34 -14 74 -14q78 1 147 47l-143 187q-98 -51 -124 -96q-9 -16 -12 -33zM305 548q-8 -44 25 -89q8 -11 22 -28q101 54 125 85q12 16 15 33q8 47 -32 70q-21 11 -47 11q-61 0 -93 -46q-11 -17 -15 -36z" glyph-name="ampersand" horiz-adv-x="685" unicode="&amp;"/>
<glyph d="M214 456h-63l33 250h87z" glyph-name="quotesingle" horiz-adv-x="205" unicode="'"/>
<glyph d="M240 -130h-93q-82 213 -40 453q41 234 200 453h93q-150 -214 -193 -446q0 -4 -1 -7q-40 -226 30 -442q2 -6 4 -11z" glyph-name="parenleft" horiz-adv-x="294" unicode="("/>
<glyph d="M168 776h93q82 -213 40 -453q-41 -234 -200 -453h-93q150 214 193 446q0 4 1 7q40 226 -30 442q-2 6 -4 11z" glyph-name="parenright" horiz-adv-x="294" unicode=")"/>
<glyph d="M144 548l11 66l108 -17l-55 88l64 34l23 -105l61 105l52 -34l-87 -88l114 17l-11 -66l-110 16l57 -87l-63 -34l-24 105l-62 -105l-51 34l87 87z" glyph-name="asterisk" horiz-adv-x="374" unicode="*"/>
<glyph d="M289 311h-201l15 85h201l35 200h88l-35 -200h201l-15 -85h-201l-36 -201h-88z" glyph-name="plus" horiz-adv-x="556" unicode="+"/>
<glyph d="M86 -121h-49l60 112q-29 12 -33 43q-1 8 0 16q8 42 47 56q13 5 25 5q39 0 49 -33q4 -13 1 -28q-3 -12 -14 -31z" glyph-name="comma" horiz-adv-x="232" unicode=","/>
<glyph d="M437 229h-330l15 84h330z" glyph-name="hyphen" horiz-adv-x="464" unicode="-"/>
<glyph d="M111 -12q-36 0 -48 31q-5 15 -2 31q8 39 45 55q14 6 27 6q37 0 48 -31q5 -15 2 -30q-8 -40 -45 -56q-14 -6 -27 -6z" glyph-name="period" horiz-adv-x="226" unicode="."/>
<glyph d="M542 786h94l-546 -926h-94z" glyph-name="slash" horiz-adv-x="518" unicode="/"/>
<glyph d="M331 -12q-165 0 -209 153q-25 90 -4 212q32 184 138 284q87 81 204 81q168 0 210 -157q23 -88 2 -208q-33 -189 -141 -288q-85 -77 -200 -77zM348 82q133 0 195 167q17 47 27 104q38 213 -68 260q-26 11 -59 11q-130 0 -193 -159q-19 -50 -30 -112q-37 -209 65 -258 q28 -13 63 -13z" glyph-name="zero" horiz-adv-x="666" unicode="0"/>
<glyph d="M62 0l15 86h167l85 481q-77 -60 -191 -60l16 87q136 6 209 110q2 1 2 2h88l-110 -620h161l-15 -86h-427z" glyph-name="one" horiz-adv-x="506" unicode="1"/>
<glyph d="M388 624q-102 -1 -165 -97l-71 49q74 113 200 137q29 5 57 5q115 0 165 -74q35 -54 23 -129q-19 -107 -144 -194q-19 -14 -136 -84q-102 -61 -131 -110q-12 -20 -16 -41h344l-15 -86h-447q0 31 5 54q20 116 150 210q23 17 138 88q101 62 131 110q14 23 18 46 q12 68 -41 99q-28 17 -65 17z" glyph-name="two" horiz-adv-x="559" unicode="2"/>
<glyph d="M259 -12q-142 0 -193 114q-7 14 -11 28l92 53q19 -81 92 -98q17 -4 35 -4q79 0 130 56q27 31 33 69q18 96 -68 126q-32 11 -74 11q-39 0 -71 -5l10 58l228 224h-289l16 86h422l-12 -63l-230 -222q109 -7 154 -86q29 -54 17 -125q-17 -105 -111 -170q-77 -52 -170 -52z " glyph-name="three" horiz-adv-x="558" unicode="3"/>
<glyph d="M388 176h-334l11 62l396 468h120l-79 -444h96l-15 -86h-96l-31 -176h-99zM191 262h212l56 318z" glyph-name="four" horiz-adv-x="595" unicode="4"/>
<glyph d="M280 81q95 0 144 71q21 32 28 71q16 88 -44 127q-31 19 -75 19q-75 0 -136 -48q-4 -3 -6 -5l-57 26l105 364h361l-16 -86h-281l-54 -191q46 26 112 26q119 0 171 -81q38 -61 23 -147q-21 -121 -120 -188q-75 -51 -169 -51q-138 0 -192 104q-10 18 -16 38l91 53 q27 -101 131 -102z" glyph-name="five" horiz-adv-x="560" unicode="5"/>
<glyph d="M294 -12q-105 0 -166 74q-57 71 -40 170q14 76 91 169q13 16 47 55l215 250h119l-231 -261q24 13 68 13q105 0 159 -77q45 -66 29 -155q-19 -109 -116 -179q-81 -59 -175 -59zM310 80q83 0 136 65q30 36 39 81q14 75 -38 118q-34 28 -81 28q-84 0 -138 -64 q-28 -35 -36 -77q-15 -87 42 -128q32 -23 76 -23z" glyph-name="six" horiz-adv-x="579" unicode="6"/>
<glyph d="M65 0l416 619h-342l16 87h457l-12 -68l-426 -638h-109z" glyph-name="seven" horiz-adv-x="507" unicode="7"/>
<glyph d="M310 78q78 0 127 55q26 30 32 65q12 67 -42 102q-32 20 -75 20q-82 0 -130 -59q-22 -29 -29 -63q-11 -66 42 -100q32 -20 75 -20zM368 410q65 0 109 48q25 29 31 64q13 60 -39 90q-28 16 -62 16q-72 0 -114 -53q-19 -24 -25 -53q-11 -67 42 -98q26 -14 58 -14zM423 718 q99 0 153 -63q45 -55 32 -131q-13 -79 -82 -133q-23 -17 -45 -26q57 -20 82 -78q18 -44 9 -95q-18 -95 -110 -155q-77 -49 -168 -49q-109 0 -170 67q-50 59 -36 137q16 92 98 147q27 17 53 26q-47 22 -66 81q-12 38 -5 78q17 95 109 152q69 42 146 42z" glyph-name="eight" horiz-adv-x="592" unicode="8"/>
<glyph d="M410 718q105 0 166 -74q57 -71 40 -170q-14 -74 -91 -167q-9 -11 -48 -57l-214 -250h-119l231 261q-30 -13 -68 -13q-105 0 -159 77q-45 66 -29 155q19 109 116 179q81 59 175 59zM393 626q-83 0 -136 -65q-29 -37 -38 -81q-14 -75 38 -118q34 -28 81 -28q84 0 138 64 q28 35 36 77q15 87 -42 128q-32 23 -77 23z" glyph-name="nine" horiz-adv-x="579" unicode="9"/>
<glyph d="M126 -12q-36 0 -48 31q-5 15 -2 31q8 39 45 55q14 6 27 6q37 0 48 -31q5 -15 2 -30q-8 -40 -45 -56q-14 -6 -27 -6zM198 395q-36 0 -48 31q-5 15 -2 31q8 40 45 56q13 5 26 5q36 0 48 -30q6 -15 3 -31q-8 -40 -45 -56q-14 -6 -27 -6z" glyph-name="colon" horiz-adv-x="256" unicode=":"/>
<glyph d="M99 -121h-49l60 112q-29 12 -33 43q-1 8 0 16q8 42 47 56q13 5 25 5q39 0 49 -33q4 -13 1 -28q-3 -12 -14 -31zM199 395q-36 0 -48 31q-5 15 -2 31q8 40 45 56q13 5 26 5q36 0 48 -30q6 -15 3 -31q-8 -40 -45 -56q-14 -6 -27 -6z" glyph-name="semicolon" horiz-adv-x="258" unicode=";"/>
<glyph d="M493 112l-406 195l16 92l475 195l-17 -93l-365 -148l313 -148z" glyph-name="less" horiz-adv-x="546" unicode="&lt;"/>
<glyph d="M123 301h410l-15 -85h-410zM156 489h410l-15 -85h-410z" glyph-name="equal" horiz-adv-x="550" unicode="="/>
<glyph d="M178 594l405 -195l-16 -92l-474 -195l16 93l365 148l-313 148z" glyph-name="greater" horiz-adv-x="546" unicode="&gt;"/>
<glyph d="M198 183l9 48q16 88 97 151q13 11 39 29q62 44 81 72q13 21 17 44q12 68 -48 91q-23 8 -51 8q-84 -1 -149 -77l-60 56q54 69 145 99q43 14 82 14q114 0 161 -72q32 -50 20 -118q-14 -82 -91 -143q-13 -11 -40 -30q-64 -46 -85 -76q-16 -25 -21 -52l-8 -44h-98zM213 -12 q-36 0 -48 31q-5 15 -2 31q8 39 45 55q14 6 27 6q37 0 48 -31q5 -15 2 -30q-8 -40 -45 -56q-14 -6 -27 -6z" glyph-name="question" horiz-adv-x="487" unicode="?"/>
<glyph d="M450 -132q-161 0 -264 107q-100 104 -97 258q1 34 7 67q30 165 161 288q132 124 300 142q23 2 46 2q167 0 269 -111q97 -105 89 -259q-2 -26 -6 -52q-22 -126 -100 -192q-49 -41 -102 -41q-79 0 -104 73q-2 6 -3 11q-48 -61 -121 -82q-24 -7 -46 -7q-102 0 -151 74 q-41 62 -25 149q21 112 109 177q64 46 135 46t112 -43q10 -10 15 -21l9 52h83l-49 -279q-9 -45 20 -66q13 -9 29 -9q49 0 82 81q13 34 21 77q24 137 -52 235q-77 100 -216 105h-12q-147 0 -266 -105q-115 -102 -141 -245q-26 -144 51.5 -245t220.5 -105h10q93 0 193 53 l25 -71q-115 -64 -232 -64zM387 295q-15 -80 36 -123q29 -23 66 -23q72 0 122 62q29 37 38 84q15 82 -39 124q-29 22 -69 22q-65 0 -114 -59q-31 -38 -40 -87z" glyph-name="at" horiz-adv-x="948" unicode="@"/>
<glyph d="M108 0h-102l399 706h104l149 -706h-102l-40 192h-300zM264 285h236l-63 313z" glyph-name="A" horiz-adv-x="664" unicode="A"/>
<glyph d="M221 706h245q123 0 170 -74q30 -48 18 -113q-18 -91 -91 -142q-16 -11 -32 -18q56 -18 79 -74q15 -41 7 -90q-19 -110 -121 -163q-64 -32 -143 -32h-256zM266 397h147q87 0 122 72q10 20 14 42q12 61 -36 90q-27 15 -64 15h-144zM212 91h159q77 0 120 58q19 25 24 55 q11 62 -43 92q-31 18 -74 18h-147z" glyph-name="B" horiz-adv-x="637" unicode="B"/>
<glyph d="M669 204l61 -62q-109 -124 -257 -149q-32 -5 -63 -5q-149 0 -236 100q-88 102 -66 255q1 6 2 10q27 153 149 259q126 104 275 106q162 0 244 -110q12 -17 21 -34l-85 -67q-61 113 -197 114q-120 0 -211 -90q-75 -75 -94 -178q-22 -122 50 -200q62 -68 165 -68 q139 1 242 119z" glyph-name="C" horiz-adv-x="732" unicode="C"/>
<glyph d="M97 0l125 706h246q151 0 235 -100q83 -100 59 -247q-1 -3 -1 -5q-27 -151 -146 -253q-120 -101 -272 -101h-246zM212 91h138q119 0 210 84q80 74 98 179q22 122 -52 198q-62 64 -162 64h-139z" glyph-name="D" horiz-adv-x="747" unicode="D"/>
<glyph d="M97 0l125 706h438l-16 -90h-339l-38 -215h281l-16 -90h-281l-39 -220h349l-16 -91h-448z" glyph-name="E" horiz-adv-x="591" unicode="E"/>
<glyph d="M97 0l124 706h409l-15 -90h-310l-40 -226h267l-16 -88h-267l-53 -302h-99z" glyph-name="F" horiz-adv-x="543" unicode="F"/>
<glyph d="M405 -12q-147 0 -232 100q-87 102 -64 257q0 4 1 8q27 153 149 259q126 104 275 106q159 0 243 -110q12 -17 22 -34l-85 -67q-61 113 -197 114q-120 0 -211 -90q-75 -75 -94 -178q-22 -123 49 -201q60 -67 161 -67q134 1 233 106l16 91h-178l15 86h271l-38 -215 q-130 -148 -300 -163q-18 -2 -36 -2z" glyph-name="G" horiz-adv-x="768" unicode="G"/>
<glyph d="M97 0l125 706h99l-55 -310h374l55 310h99l-125 -706h-99l55 310h-374l-55 -310h-99z" glyph-name="H" horiz-adv-x="766" unicode="H"/>
<glyph d="M97 0l125 706h99l-125 -706h-99z" glyph-name="I" horiz-adv-x="293" unicode="I"/>
<glyph d="M36 128l87 48q22 -66 56 -85q23 -12 56 -12q86 0 120 82q8 21 12 43l89 502h99l-89 -503q-19 -111 -108 -172q-65 -43 -143 -43q-138 0 -174 122q-3 9 -5 18z" glyph-name="J" horiz-adv-x="520" unicode="J"/>
<glyph d="M97 0l125 706h99l-63 -352l368 352h125l-307 -293l214 -413h-118l-174 341l-132 -126l-38 -215h-99z" glyph-name="K" horiz-adv-x="654" unicode="K"/>
<glyph d="M97 0l125 706h99l-109 -616h311l-16 -90h-410z" glyph-name="L" horiz-adv-x="528" unicode="L"/>
<glyph d="M196 0h-99l124 706h91l189 -419l335 419h91l-124 -706h-99l91 518l-284 -347h-62l-162 347z" glyph-name="M" horiz-adv-x="900" unicode="M"/>
<glyph d="M97 0l125 706h88l297 -529l94 529h99l-125 -706h-87l-298 530l-93 -530h-100z" glyph-name="N" horiz-adv-x="772" unicode="N"/>
<glyph d="M110 353q27 154 150 259q125 106 279 106q147 0 234 -98q88 -100 67 -251q-1 -9 -2 -16q-26 -153 -148 -258q-128 -104 -280 -107q-149 0 -236 100q-88 102 -66 255q1 6 2 10zM212 353q-22 -124 52 -202q63 -66 163 -66q116 0 208 85q82 76 101 183q22 124 -52 202 q-62 66 -162 66q-117 0 -210 -85q-81 -77 -100 -183z" glyph-name="O" unicode="O"/>
<glyph d="M97 0l124 706h249q98 0 152 -72q48 -64 34 -148q-18 -101 -106 -168q-74 -56 -157 -56h-151l-46 -262h-99zM257 348h135q70 0 122 58q32 36 40 80q12 68 -39 106q-32 24 -75 24h-135z" glyph-name="P" horiz-adv-x="602" unicode="P"/>
<glyph d="M212 353q-22 -124 52 -202q63 -66 163 -66q116 0 208 85q82 76 101 183q22 124 -52 202q-62 66 -162 66q-117 0 -210 -85q-81 -77 -100 -183zM110 353q27 154 150 259q125 106 279 106q147 0 234 -98q88 -100 67 -251q-1 -9 -2 -16q-26 -152 -147 -257q-42 -36 -89 -60 l114 -211h-120l-92 174q-52 -11 -94 -11q-149 0 -236 100q-88 102 -66 255q1 6 2 10z" glyph-name="Q" unicode="Q"/>
<glyph d="M196 0h-99l125 706h283q105 0 156 -73q40 -59 27 -142q-22 -117 -133 -178q-26 -15 -54 -24l94 -289h-113l-87 280h-150zM305 616l-45 -252h174q68 0 115 52q29 34 36 78q12 70 -42 105q-28 17 -64 17h-174z" glyph-name="R" horiz-adv-x="652" unicode="R"/>
<glyph d="M612 597l-86 -53q-38 81 -132 82q-89 0 -127 -56q-12 -18 -16 -38q-10 -53 46 -89q18 -12 93 -48q96 -47 128 -81q46 -51 32 -132q-17 -93 -104 -147q-72 -46 -169 -46q-130 0 -192 88q-16 22 -25 48l93 56q36 -98 144 -99q84 0 130 52q18 22 22 44q10 54 -40 88 q-16 10 -92 49q-83 43 -96 51q-80 53 -74 139q1 12 3 24q16 88 102 143q72 46 161 46q111 0 170 -69q19 -24 29 -52z" glyph-name="S" horiz-adv-x="563" unicode="S"/>
<glyph d="M128 616l16 90h523l-16 -90h-212l-109 -616h-99l109 616h-212z" glyph-name="T" horiz-adv-x="562" unicode="T"/>
<glyph d="M359 -12q-122 0 -187 84q-58 77 -39 183l80 451h99l-79 -445q-15 -88 40 -140q41 -38 103 -38q89 0 153 72q42 48 52 106l79 445h99l-80 -451q-22 -119 -121 -197q-90 -70 -199 -70z" glyph-name="U" horiz-adv-x="722" unicode="U"/>
<glyph d="M267 0l-136 706h110l108 -561l304 561h110l-384 -706h-112z" glyph-name="V" horiz-adv-x="646" unicode="V"/>
<glyph d="M137 706h103l63 -563l275 563h104l75 -563l263 563h103l-338 -706h-102l-80 558l-276 -558h-102z" glyph-name="W" horiz-adv-x="1010" unicode="W"/>
<glyph d="M10 0l294 364l-156 342h114l120 -263l212 263h114l-276 -342l166 -364h-112l-132 286l-232 -286h-112z" glyph-name="X" horiz-adv-x="608" unicode="X"/>
<glyph d="M256 0l56 320l-182 386h115l133 -294l238 294h115l-320 -386l-56 -320h-99z" glyph-name="Y" horiz-adv-x="611" unicode="Y"/>
<glyph d="M37 0l12 66l448 550h-339l16 90h469l-12 -65l-448 -550h348l-16 -91h-478z" glyph-name="Z" horiz-adv-x="558" unicode="Z"/>
<glyph d="M449 776l-15 -86h-124l-130 -734h124l-15 -86h-218l160 906h218z" glyph-name="bracketleft" horiz-adv-x="342" unicode="["/>
<glyph d="M472 -140h-94l-218 926h94z" glyph-name="backslash" horiz-adv-x="518" unicode="\"/>
<glyph d="M7 -130l15 86h124l130 734h-124l15 86h218l-160 -906h-218z" glyph-name="bracketright" horiz-adv-x="342" unicode="]"/>
<glyph d="M108 396l235 310h78l127 -310h-98l-84 214l-160 -214h-98z" glyph-name="asciicircum" horiz-adv-x="516" unicode="^"/>
<glyph d="M473 -148h-455l13 74h455z" glyph-name="underscore" horiz-adv-x="543" unicode="_"/>
<glyph d="M366 568h-82l-99 167h116z" glyph-name="grave" horiz-adv-x="321" unicode="`"/>
<glyph d="M234 70q75 0 130 60q33 37 41 79l6 32l-150 -28q-81 -15 -96 -62q-2 -6 -3 -11q-8 -47 35 -64q17 -6 37 -6zM518 323l-57 -323h-90l14 78q-71 -89 -181 -90q-83 0 -122 56q-25 40 -16 90q23 120 190 152l164 31l2 10q14 84 -63 101q-17 4 -37 4q-84 -1 -152 -65l-39 64 q91 87 215 87q125 0 163 -85q20 -47 9 -110z" glyph-name="a" horiz-adv-x="534" unicode="a"/>
<glyph d="M176 0h-93l125 706h97l-48 -270q45 54 125 75q29 7 56 7q109 0 164 -83q48 -74 30 -182q-22 -128 -120 -205q-77 -60 -167 -60q-81 0 -132 52q-16 17 -24 35zM534 253q17 92 -40 144q-37 32 -87 32q-79 0 -137 -67q-40 -47 -51 -109q-17 -94 40 -145q36 -31 86 -31 q78 0 136 66q41 48 53 110z" glyph-name="b" horiz-adv-x="632" unicode="b"/>
<glyph d="M479 155l55 -61q-81 -93 -200 -105q-15 -1 -29 -1q-113 0 -176 80q-60 78 -41 186q21 117 119 195q88 69 191 69q127 -1 184 -106l-75 -62q-41 77 -125 78q-86 0 -146 -70q-39 -46 -49 -105q-17 -87 37 -139q39 -36 95 -36q95 1 160 77z" glyph-name="c" horiz-adv-x="544" unicode="c"/>
<glyph d="M549 0h-93l13 75q-38 -53 -119 -77q-35 -10 -67 -10q-107 0 -162 82q-50 75 -31 183q22 129 120 206q77 59 166 59q80 0 130 -50q15 -16 23 -32l48 270h97zM188 253q-17 -92 40 -144q37 -32 87 -32q78 0 136 67q40 47 52 109q17 97 -42 147q-35 29 -84 29q-78 0 -136 -66 q-41 -48 -53 -110z" glyph-name="d" horiz-adv-x="632" unicode="d"/>
<glyph d="M569 228h-383q-8 -92 63 -131q36 -20 82 -20q84 1 154 64l47 -68q-99 -85 -219 -85q-130 0 -192 89q-51 73 -33 175q23 124 120 201q82 65 183 65q119 0 171 -85q38 -64 22 -150q-5 -33 -15 -55zM377 431q-95 0 -149 -77q-15 -22 -25 -47h290v1q7 78 -54 109 q-27 14 -62 14z" glyph-name="e" horiz-adv-x="577" unicode="e"/>
<glyph d="M109 0l75 425h-70l14 81h70l8 46q19 99 104 143q46 23 99 23q43 0 67 -14l-15 -84q-23 12 -53 12q-75 0 -99 -61q-4 -11 -6 -22l-8 -43h121l-14 -81h-121l-75 -425h-97z" glyph-name="f" horiz-adv-x="345" unicode="f"/>
<glyph d="M225 -212q-155 0 -194 74q-15 30 -9 67q11 65 97 107q4 2 7 3q-28 25 -21 68q8 43 59 76q-67 49 -59 135q1 8 2 15q15 87 96 142q64 43 138 43q38 0 71 -12h186l-14 -81h-83q19 -42 10 -92q-15 -87 -97 -142q-64 -43 -138 -43q-27 0 -51 6q-21 -14 -26 -34q-5 -27 23 -35 q6 -1 11 -1h128q98 0 133 -63q18 -35 10 -78q-14 -75 -106 -120q-74 -35 -173 -35zM201 333q-11 -54 33 -84q25 -16 57 -16q63 0 102 50q19 23 24 50q9 55 -35 84q-25 16 -56 16q-61 0 -100 -47q-21 -25 -25 -53zM120 -62q-7 -39 55 -55q29 -8 67 -8q127 0 160 48q5 9 7 18 q8 44 -45 55q-12 2 -26 2h-148q-43 -9 -62 -40q-6 -10 -8 -20z" glyph-name="g" horiz-adv-x="540" unicode="g"/>
<glyph d="M83 0l125 706h97l-48 -270q68 81 176 82q101 0 143 -75q30 -56 16 -137l-54 -306h-97l53 302q15 85 -44 116q-23 11 -52 11q-99 0 -148 -93q-17 -33 -23 -69l-47 -267h-97z" glyph-name="h" horiz-adv-x="613" unicode="h"/>
<glyph d="M237 595q-36 0 -48 31q-5 15 -2 31q8 39 45 55q14 6 27 6q37 0 48 -31q5 -15 2 -30q-8 -40 -45 -56q-14 -6 -27 -6zM83 0l89 506h97l-89 -506h-97z" glyph-name="i" horiz-adv-x="263" unicode="i"/>
<glyph d="M241 595q-36 0 -48 31q-5 15 -2 31q8 39 45 55q14 6 27 6q37 0 48 -31q5 -15 2 -30q-8 -40 -45 -56q-14 -6 -27 -6zM81 -33l95 539h97l-94 -537q-29 -159 -155 -178q-17 -3 -34 -3q-36 0 -60 13l15 86q19 -12 52 -12q67 2 84 92z" glyph-name="j" horiz-adv-x="267" unicode="j"/>
<glyph d="M180 0h-97l125 706h97l-79 -443l255 243h116l-216 -212l145 -294h-112l-109 233l-101 -98z" glyph-name="k" horiz-adv-x="532" unicode="k"/>
<glyph d="M99 126l103 580h97l-100 -563q-11 -59 25 -65q5 -1 11 -1q17 0 34 6l-16 -87q-19 -8 -46 -8q-103 0 -111 87q-2 23 3 51z" glyph-name="l" horiz-adv-x="284" unicode="l"/>
<glyph d="M180 0h-97l89 506h95l-13 -76q66 87 179 88q111 0 149 -84q5 -11 8 -21q73 88 157 102q21 3 44 3q107 0 146 -80q27 -54 13 -132l-54 -306h-97l53 302q15 86 -45 116q-23 11 -51 11q-93 0 -145 -94q-21 -37 -28 -78l-45 -257h-97l53 302q15 86 -45 116q-23 11 -51 11 q-93 0 -145 -94q-21 -37 -28 -78z" glyph-name="m" horiz-adv-x="971" unicode="m"/>
<glyph d="M83 0l89 506h95l-13 -76q66 87 179 88q107 0 146 -80q27 -54 13 -132l-54 -306h-97l53 302q15 86 -45 116q-23 11 -51 11q-93 0 -145 -94q-21 -37 -28 -78l-45 -257h-97z" glyph-name="n" horiz-adv-x="613" unicode="n"/>
<glyph d="M304 -12q-118 0 -179 84q-55 75 -36 181q22 121 120 198q85 67 188 67q117 0 179 -83q56 -76 37 -182q-22 -120 -120 -198q-86 -67 -189 -67zM381 426q-86 0 -146 -72q-37 -46 -47 -101q-15 -86 37 -137q38 -36 95 -36q84 0 145 70q39 47 49 103q15 85 -37 136 q-38 37 -96 37z" glyph-name="o" horiz-adv-x="612" unicode="o"/>
<glyph d="M145 -200h-97l124 706h93l-13 -74q51 61 137 80q25 6 49 6q109 0 164 -83q48 -74 30 -182q-22 -128 -120 -205q-77 -60 -167 -60q-81 0 -131 50q-14 15 -22 31zM219 253q-17 -94 40 -145q36 -31 86 -31q78 0 136 66q41 48 53 110q17 92 -40 144q-37 32 -87 32 q-79 0 -137 -67q-40 -47 -51 -109z" glyph-name="p" horiz-adv-x="632" unicode="p"/>
<glyph d="M514 -200h-97l47 269q-44 -53 -126 -74q-29 -7 -55 -7q-107 0 -162 82q-50 75 -31 183q22 129 120 206q77 59 166 59q82 0 133 -53q15 -16 23 -33l13 74h93zM503 253q17 97 -42 147q-35 29 -84 29q-78 0 -136 -66q-41 -48 -53 -110q-17 -92 40 -144q37 -32 87 -32 q78 0 136 67q40 47 52 109z" glyph-name="q" horiz-adv-x="631" unicode="q"/>
<glyph d="M267 506l-15 -89q48 86 136 99q13 2 26 2q22 0 31 -4l-17 -95q-8 2 -20 2q-96 0 -150 -81q-25 -39 -34 -89l-44 -251h-97l89 506h95z" glyph-name="r" horiz-adv-x="378" unicode="r"/>
<glyph d="M486 420l-79 -52q-33 64 -98 65q-62 0 -85 -41q-5 -9 -7 -18q-7 -31 33 -53q21 -11 57 -24q107 -39 131 -88q15 -32 7 -76q-11 -73 -89 -115q-56 -30 -123 -30q-105 0 -156 69q-15 20 -23 43l80 51q39 -76 113 -77q83 0 100 48q2 5 3 9q4 33 -23 52q-22 14 -75 32 q-104 36 -126 89q-11 29 -4 68q11 67 82 111q57 35 124 35q115 0 155 -90q2 -4 3 -8z" glyph-name="s" horiz-adv-x="466" unicode="s"/>
<glyph d="M180 425h-76l14 81h79l25 139h94l-25 -139h130l-14 -81h-130l-47 -264q-13 -82 68 -83q35 1 63 16l-16 -89q-33 -17 -84 -17q-110 0 -130 84q-8 34 0 77z" glyph-name="t" horiz-adv-x="370" unicode="t"/>
<glyph d="M269 -12q-105 0 -145 78q-28 56 -14 134l54 306h97l-53 -302q-15 -85 45 -116q23 -11 52 -11q95 0 146 96q19 36 26 76l45 257h97l-89 -506h-95l13 76q-66 -87 -179 -88z" glyph-name="u" horiz-adv-x="613" unicode="u"/>
<glyph d="M99 506h104l81 -376l213 376h104l-296 -506h-88z" glyph-name="v" horiz-adv-x="522" unicode="v"/>
<glyph d="M102 506h101l49 -374l188 374h94l56 -374l181 374h101l-254 -506h-94l-61 371l-191 -371h-94z" glyph-name="w" horiz-adv-x="796" unicode="w"/>
<glyph d="M15 0l216 260l-119 246h112l84 -182l148 182h112l-206 -246l124 -260h-111l-88 194l-161 -194h-111z" glyph-name="x" horiz-adv-x="503" unicode="x"/>
<glyph d="M8 -199l15 87q25 -17 61 -17q55 0 94 62q6 9 11 18l31 56l-122 499h109l80 -383l210 383h105l-339 -589q-51 -93 -116 -117q-31 -12 -68 -12q-42 1 -71 13z" glyph-name="y" horiz-adv-x="523" unicode="y"/>
<glyph d="M43 0l10 56l324 366h-260l15 84h388l-10 -56l-326 -366h271l-15 -84h-397z" glyph-name="z" horiz-adv-x="478" unicode="z"/>
<glyph d="M307 -44l-15 -85q-12 -1 -29 -1q-166 2 -137 171l26 144q12 69 -16 87q-18 10 -53 11l14 80q64 1 86 40q11 21 17 58l26 144q32 170 197 171q19 0 29 -1l-15 -85q-8 1 -20 1q-64 0 -85 -45q-8 -18 -13 -45l-25 -140q-19 -112 -87 -138q56 -24 40 -134q-1 -2 -1 -4 l-25 -140q-12 -67 21 -82q17 -8 45 -8q13 0 20 1z" glyph-name="braceleft" horiz-adv-x="348" unicode="{"/>
<glyph d="M163 -140h-94l164 926h94z" glyph-name="bar" horiz-adv-x="282" unicode="|"/>
<glyph d="M155 690l15 85q12 1 29 1q166 -2 137 -171l-26 -144q-12 -69 16 -87q18 -10 53 -11l-14 -80q-64 -1 -86 -40q-11 -21 -17 -58l-26 -144q-32 -170 -197 -171q-19 0 -29 1l15 85q8 -1 20 -1q64 0 85 45q8 18 13 45l25 140q19 112 87 138q-56 24 -40 134q1 2 1 4l25 140 q12 67 -21 82q-17 8 -45 8q-13 0 -20 -1z" glyph-name="braceright" horiz-adv-x="348" unicode="}"/>
<glyph d="M176 257l-61 20q13 69 71 106q35 22 73 22q44 0 100 -34q49 -30 77 -30q45 0 67 59q2 6 4 11l62 -20q-10 -65 -68 -103q-37 -25 -77 -25q-44 0 -99 34q-49 29 -77 30q-43 0 -67 -55q-3 -8 -5 -15z" glyph-name="asciitilde" horiz-adv-x="561" unicode="~"/>
<glyph glyph-name="uni00A0" horiz-adv-x="246" unicode=" "/>
<glyph d="M46 -200l100 512h87l-80 -512h-107zM205 395q-36 0 -48 31q-5 15 -2 31q8 40 45 56q13 5 26 5q36 0 48 -30q6 -15 3 -31q-8 -40 -45 -56q-14 -6 -27 -6z" glyph-name="exclamdown" horiz-adv-x="269" unicode="¡"/>
<glyph d="M256 -24l20 116q-102 21 -149 107q-36 69 -21 155q22 119 122 197q65 49 140 63l21 116h93l-21 -116q97 -17 139 -102l-75 -62q-41 77 -125 78q-88 0 -148 -74q-36 -45 -47 -101q-15 -92 41 -143q37 -32 91 -32q96 1 161 77l54 -61q-74 -85 -183 -102l-20 -116h-93z" glyph-name="cent" horiz-adv-x="550" unicode="¢"/>
<glyph d="M54 0l16 91h13q43 0 57 57q2 7 3 13l26 144h-60l14 82h60l22 123q18 101 106 162q67 46 146 46q118 0 173 -88q6 -9 10 -18l-83 -63q-26 60 -89 72q-14 3 -28 3q-72 0 -112 -57q-18 -26 -24 -57l-22 -123h198l-14 -82h-198l-26 -145q-9 -43 -39 -69h348l-16 -91h-481z " glyph-name="sterling" horiz-adv-x="575" unicode="£"/>
<glyph d="M127 60l-55 65l122 104q-29 57 -16 127t60 126l-85 104l77 66l86 -104q64 38 132 38q72 -1 121 -39l123 105l53 -66l-122 -105q26 -57 15 -125q-13 -70 -60 -126l86 -105l-77 -65l-87 104q-64 -38 -133 -38q-67 1 -118 37zM270 356q-12 -72 38 -115q32 -25 75 -27 q78 0 129 59q32 37 38 83q10 72 -41 113q-33 25 -77 25q-73 0 -124 -59q-30 -36 -38 -79z" glyph-name="currency" horiz-adv-x="692" unicode="¤"/>
<glyph d="M130 158l14 80h175l12 68h-175l14 80h132l-151 320h115l133 -294l238 294h115l-265 -320h133l-14 -80h-176l-12 -68h176l-14 -80h-176l-28 -158h-99l28 158h-175z" glyph-name="yen" horiz-adv-x="654" unicode="¥"/>
<glyph d="M129 200h94l-60 -340h-94zM267 446h-94l60 340h94z" glyph-name="brokenbar" horiz-adv-x="282" unicode="¦"/>
<glyph d="M253 -112q-106 0 -171 71q-23 25 -37 55l83 51q43 -87 140 -88q70 0 102 38q11 14 14 30q6 37 -28 64q-20 16 -87 53q-116 64 -139 114q-12 30 -5 69q11 55 77 102q-45 46 -34 112q14 79 94 125q60 34 133 34q96 0 154 -57q28 -28 40 -64l-83 -51q-26 69 -102 81 q-12 2 -24 2q-88 0 -111 -53q-3 -8 -4 -15q-6 -36 29 -62q22 -17 102 -60q112 -60 127 -123q6 -26 0 -58q-11 -55 -75 -103q44 -49 33 -108q-14 -79 -96 -126q-60 -33 -132 -33zM327 364q-11 7 -32 19q-25 14 -35 20q-36 -26 -40 -55q-3 -30 30 -56q24 -18 72 -45 q45 -25 69 -43q33 27 37 53q5 35 -26 61q-24 20 -75 46z" glyph-name="section" horiz-adv-x="537" unicode="§"/>
<glyph d="M281 595q-36 0 -48 31q-5 15 -2 31q8 39 45 55q14 6 27 6q37 0 48 -31q5 -15 2 -30q-8 -40 -45 -56q-14 -6 -27 -6zM501 595q-36 0 -48 31q-5 15 -2 31q8 39 45 55q14 6 27 6q37 0 48 -31q5 -15 2 -30q-8 -40 -45 -56q-14 -6 -27 -6z" glyph-name="dieresis" horiz-adv-x="572" unicode="¨"/>
<glyph d="M110 353q27 150 148 255q129 108 282 110q145 0 234 -96q89 -97 74 -240q-1 -15 -4 -29q-25 -146 -145 -252q-121 -106 -270 -113h-18q-147 0 -235 99q-87 100 -69 246q1 10 3 20zM199 353q-22 -126 52 -207q65 -72 175 -72q125 0 223 90q87 79 106 189q23 122 -51 204 q-68 75 -180 75q-130 0 -226 -95q-79 -77 -99 -184zM575 281l47 -50q-60 -69 -152 -79q-13 -2 -26 -2q-98 0 -144 72q-36 56 -24 132q18 97 101 156q64 46 139 46q96 -1 143 -81l-64 -52q-34 52 -94 53q-73 0 -115 -60q-18 -29 -25 -63q-13 -75 40 -108q25 -15 57 -15 q61 1 117 51z" glyph-name="copyright" horiz-adv-x="830" unicode="©"/>
<glyph d="M115 296l13 74h282l-13 -74h-282zM437 607l-32 -184h-74l7 39q-25 -35 -71 -44q-11 -2 -20 -2q-60 0 -78 44q-6 18 -3 39q13 67 108 89l84 19v1q6 35 -30 41q-6 1 -11 1q-42 0 -89 -35l-28 52q34 34 91 47q20 4 38 4q89 0 107 -62q6 -22 1 -49zM269 480q41 0 67 37 q11 15 14 30l2 6l-66 -16q-38 -10 -43 -31q2 -23 26 -26z" glyph-name="ordfeminine" horiz-adv-x="411" unicode="ª"/>
<glyph d="M271 253l155 196h98l-155 -196l86 -195h-98zM84 253l155 196h98l-155 -196l86 -195h-98z" glyph-name="guillemotleft" horiz-adv-x="494" unicode="«"/>
<glyph d="M123 311l15 85h432l-35 -200h-88l20 115h-344z" glyph-name="logicalnot" horiz-adv-x="576" unicode="¬"/>
<glyph d="M105 228l15 86h306l-15 -86h-306z" glyph-name="uni00AD" horiz-adv-x="436" unicode="­"/>
<glyph d="M309 376q-97 0 -142 71q-34 55 -22 128q18 98 101 156q62 42 133 42q93 0 139 -68q37 -56 24 -130q-16 -96 -98 -155q-63 -44 -135 -44zM203 575q-15 -83 41 -122q31 -21 75 -21q80 0 131 62q28 36 35 81q15 79 -39 119q-32 23 -77 23q-85 0 -135 -69q-23 -33 -31 -73z M255 481l33 186h90q40 0 50 -33q4 -13 1 -28q-9 -39 -43 -55l30 -70h-55l-24 63h-19l-11 -63h-52zM332 625l-7 -39h27q20 1 26 20q4 15 -13 18q-4 1 -6 1h-27z" glyph-name="registered" horiz-adv-x="485" unicode="®"/>
<glyph d="M160 622l12 70h269l-12 -70h-269z" glyph-name="macron" horiz-adv-x="369" unicode="¯"/>
<glyph d="M267 416q-72 0 -108 56q-26 42 -16 95q15 76 83 121q46 30 95 30q73 0 109 -57q25 -41 15 -94q-15 -77 -83 -121q-45 -30 -95 -30zM281 495q52 0 77 44q7 13 10 28q9 50 -30 68q-14 6 -31 6q-48 0 -74 -43q-8 -15 -11 -31q-9 -48 29 -66q14 -6 30 -6z" glyph-name="degree" horiz-adv-x="388" unicode="°"/>
<glyph d="M326 394h-191l14 85h191l32 180h88l-32 -180h191l-14 -85h-191l-32 -181h-88zM543 47h-470l15 85h470z" glyph-name="plusminus" horiz-adv-x="600" unicode="±"/>
<glyph d="M203 592l-57 38q62 85 158 88q83 0 109 -57q11 -28 6 -62q-11 -61 -88 -112q-15 -10 -45 -28q-19 -11 -28 -17q-58 -35 -66 -54h197l-12 -70h-275q-4 18 1 44q10 62 86 115q20 14 44 29q72 42 87 57q15 16 19 36q7 43 -39 47q-5 1 -10 1q-51 -1 -87 -55z" glyph-name="twosuperior" horiz-adv-x="359" unicode="²"/>
<glyph d="M237 376q44 0 68 36q7 12 10 25q8 47 -40 59q-13 3 -27 3q-22 0 -46 -5l9 53l106 89h-156l13 70h260l-9 -50l-113 -96q65 -17 80 -73q6 -24 1 -49q-12 -71 -80 -109q-42 -23 -90 -23q-87 0 -118 68q-4 10 -7 19l67 41q17 -57 72 -58z" glyph-name="threesuperior" horiz-adv-x="356" unicode="³"/>
<glyph d="M155 568l125 167h116l-159 -167h-82z" glyph-name="acute" horiz-adv-x="321" unicode="´"/>
<glyph d="M142 -200h-94l68 385q0 3 2 15l54 306h97l-53 -302q-15 -85 45 -116q23 -11 52 -11q95 0 146 96q19 36 26 76l45 257h97l-89 -506h-95l13 76q-66 -87 -179 -88q-59 1 -98 25z" glyph-name="mu" horiz-adv-x="621" unicode="µ"/>
<glyph d="M346 306h-36q-107 0 -162 67q-43 55 -30 133q17 103 115 161q69 39 147 39h282l-142 -806h-84l128 726h-77l-128 -726h-85z" glyph-name="paragraph" horiz-adv-x="642" unicode="¶"/>
<glyph d="M166 242q-36 0 -48 31q-5 15 -2 31q8 40 45 56q13 5 26 5q36 0 48 -30q6 -15 3 -31q-8 -40 -45 -56q-14 -6 -27 -6z" glyph-name="periodcentered" horiz-adv-x="246" unicode="·"/>
<glyph d="M109 21l45 -21l-26 -56q56 -10 67 -51q4 -15 1 -30q-11 -58 -78 -80q-27 -9 -56 -9t-51 7l11 62q25 -6 46 -6q45 1 51 29q5 24 -29 29q-7 1 -15 1q-10 0 -23 -2z" glyph-name="cedilla" horiz-adv-x="270" unicode="¸"/>
<glyph d="M102 318l12 70h86l39 216q-35 -13 -94 -18l13 71q69 4 97 32q8 8 15 17h64l-57 -318h85l-12 -70h-248z" glyph-name="onesuperior" horiz-adv-x="319" unicode="¹"/>
<glyph d="M127 301l13 74h282l-13 -74h-282zM288 416q-72 0 -108 56q-26 42 -16 95q15 76 83 121q46 30 95 30q73 0 109 -57q25 -41 15 -94q-15 -77 -83 -121q-45 -30 -95 -30zM302 495q52 0 77 44q7 13 10 28q9 50 -30 68q-14 6 -31 6q-48 0 -74 -43q-8 -15 -11 -31q-9 -48 29 -66 q14 -6 30 -6z" glyph-name="ordmasculine" horiz-adv-x="430" unicode="º"/>
<glyph d="M345 58h-98l156 196l-87 195h98l87 -195zM158 58h-98l156 196l-87 195h98l87 -195z" glyph-name="guillemotright" horiz-adv-x="496" unicode="»"/>
<glyph d="M629 80h-180l8 47l238 261h63l-42 -240h58l-12 -68h-58l-14 -80h-75zM767 706h88l-641 -706h-88zM354 318h-248l12 70h86l39 216q-35 -13 -94 -18l13 71q69 4 97 32q8 8 15 17h64l-57 -318h85zM661 257l-99 -110h80z" glyph-name="onequarter" horiz-adv-x="789" unicode="¼"/>
<glyph d="M813 0h-275q-4 18 1 44q10 62 86 115q20 14 44 29q72 42 87 57q15 16 19 36q7 43 -39 47q-5 1 -10 1q-51 -1 -87 -55l-57 38q62 85 158 88q83 0 109 -57q11 -28 6 -62q-11 -61 -88 -112q-15 -10 -45 -28q-19 -11 -28 -17q-58 -35 -66 -54h197zM214 0h-88l641 706h88z M106 318l12 70h86l39 216q-35 -13 -94 -18l13 71q69 4 97 32q8 8 15 17h64l-57 -318h85l-12 -70h-248z" glyph-name="onehalf" horiz-adv-x="851" unicode="½"/>
<glyph d="M101 393l67 41q17 -57 72 -58q44 0 68 36q7 12 10 25q8 47 -40 59q-13 3 -27 3q-22 0 -46 -5l9 53l106 89h-156l13 70h260l-9 -50l-113 -96q65 -17 80 -73q6 -24 1 -49q-12 -71 -80 -109q-42 -23 -90 -23q-87 0 -118 68q-4 10 -7 19zM460 80l8 47l238 261h63l-42 -240h58 l-12 -68h-58l-14 -80h-75l14 80h-180zM137 0l641 706h88l-641 -706h-88zM573 147h80l19 110z" glyph-name="threequarters" horiz-adv-x="802" unicode="¾"/>
<glyph d="M375 323l-9 -48q-16 -88 -97 -151q-13 -11 -39 -29q-62 -44 -81 -72q-13 -21 -17 -44q-12 -68 48 -91q23 -8 51 -8q84 1 149 77l61 -56q-54 -69 -145 -99q-43 -14 -82 -14q-116 0 -163 75q-30 49 -19 115q16 82 93 144q13 10 39 28q64 47 84 77q16 25 21 52l8 44h98z M339 395q-36 0 -48 31q-5 15 -2 31q8 40 45 56q13 5 26 5q36 0 48 -30q6 -15 3 -31q-8 -40 -45 -56q-14 -6 -27 -6z" glyph-name="questiondown" horiz-adv-x="482" unicode="¿"/>
<glyph d="M6 0l399 706h104l149 -706h-102l-40 192h-300l-108 -192h-102zM264 285h236l-63 313zM318 935h116l66 -167h-82z" glyph-name="Agrave" horiz-adv-x="664" unicode="À"/>
<glyph d="M6 0l399 706h104l149 -706h-102l-40 192h-300l-108 -192h-102zM264 285h236l-63 313zM512 768h-82l124 167h116z" glyph-name="Aacute" horiz-adv-x="664" unicode="Á"/>
<glyph d="M6 0l399 706h104l149 -706h-102l-40 192h-300l-108 -192h-102zM437 598l-173 -313h236zM394 753h-92l152 182h86l88 -182h-92l-51 114z" glyph-name="Acircumflex" horiz-adv-x="664" unicode="Â"/>
<glyph d="M108 0h-102l399 706h104l149 -706h-102l-40 192h-300zM437 598l-173 -313h236zM370 776l-61 20q13 79 77 103q22 8 44 8q32 0 72 -32q27 -21 40 -21q35 1 49 56l61 -20q-12 -72 -72 -100q-24 -11 -49 -11q-32 0 -72 32q-27 21 -40 21q-35 -1 -49 -56z" glyph-name="Atilde" horiz-adv-x="664" unicode="Ã"/>
<glyph d="M6 0l399 706h104l149 -706h-102l-40 192h-300l-108 -192h-102zM264 285h236l-63 313zM582 795q-36 0 -48 31q-5 15 -2 31q8 39 45 55q14 6 27 6q37 0 48 -31q5 -15 2 -30q-8 -40 -45 -56q-14 -6 -27 -6zM362 795q-36 0 -48 31q-5 15 -2 31q8 39 45 55q14 6 27 6 q37 0 48 -31q5 -15 2 -30q-8 -40 -45 -56q-14 -6 -27 -6z" glyph-name="Adieresis" horiz-adv-x="664" unicode="Ä"/>
<glyph d="M108 0h-102l399 706h104l149 -706h-102l-40 192h-300zM466 760q-57 0 -81 47q-14 28 -8 61q11 59 65 91q30 17 62 17q57 0 81 -47q14 -28 8 -61q-11 -59 -65 -91q-30 -17 -62 -17zM437 598l-173 -313h236zM439 868q-5 -30 20 -42q9 -4 18 -4q31 0 48 29q4 9 6 17 q5 30 -20 42q-9 4 -18 4q-31 0 -48 -29q-4 -9 -6 -17z" glyph-name="Aring" horiz-adv-x="664" unicode="Å"/>
<glyph d="M-14 0l486 706h540l-16 -90h-319l-38 -215h261l-16 -90h-261l-39 -220h329l-16 -91h-428l43 242h-257l-167 -242h-102zM514 616l-197 -284h211l50 284h-64z" glyph-name="AE" horiz-adv-x="943" unicode="Æ"/>
<glyph d="M329 -106l43 96q-138 15 -213 117q-74 103 -49 246q27 153 149 259q126 104 275 106q162 0 244 -110q12 -17 21 -34l-85 -67q-61 113 -197 114q-120 0 -211 -90q-75 -75 -94 -178q-22 -122 50 -200q62 -68 165 -68q139 1 242 119l61 -62q-123 -137 -283 -153 q-11 -1 -21 -1l-21 -44q56 -10 67 -51q4 -15 1 -30q-11 -58 -78 -80q-27 -9 -56 -9t-51 7l11 62q25 -6 46 -6q45 1 51 29q5 24 -29 29q-7 1 -15 1q-10 0 -23 -2z" glyph-name="Ccedilla" horiz-adv-x="732" unicode="Ç"/>
<glyph d="M97 0l125 706h438l-16 -90h-339l-38 -215h281l-16 -90h-281l-39 -220h349l-16 -91h-448zM493 768h-82l-100 167h116z" glyph-name="Egrave" horiz-adv-x="591" unicode="È"/>
<glyph d="M97 0l125 706h438l-16 -90h-339l-38 -215h281l-16 -90h-281l-39 -220h349l-16 -91h-448zM412 768l124 167h116l-158 -167h-82z" glyph-name="Eacute" horiz-adv-x="591" unicode="É"/>
<glyph d="M545 0h-448l125 706h438l-16 -90h-339l-38 -215h281l-16 -90h-281l-39 -220h349zM374 753h-92l152 182h86l88 -182h-92l-51 114z" glyph-name="Ecircumflex" horiz-adv-x="591" unicode="Ê"/>
<glyph d="M97 0l125 706h438l-16 -90h-339l-38 -215h281l-16 -90h-281l-39 -220h349l-16 -91h-448zM353 795q-36 0 -48 31q-5 15 -2 31q8 39 45 55q14 6 27 6q37 0 48 -31q5 -15 2 -30q-8 -40 -45 -56q-14 -6 -27 -6zM573 795q-36 0 -48 31q-5 15 -2 31q8 39 45 55q14 6 27 6 q37 0 48 -31q5 -15 2 -30q-8 -40 -45 -56q-14 -6 -27 -6z" glyph-name="Edieresis" horiz-adv-x="591" unicode="Ë"/>
<glyph d="M97 0l125 706h99l-125 -706h-99zM316 768h-82l-99 167h116z" glyph-name="Igrave" horiz-adv-x="293" unicode="Ì"/>
<glyph d="M97 0l125 706h99l-125 -706h-99zM243 768l125 167h116l-159 -167h-82z" glyph-name="Iacute" horiz-adv-x="293" unicode="Í"/>
<glyph d="M196 0h-99l125 706h99zM116 753l152 182h86l88 -182h-92l-51 114l-91 -114h-92z" glyph-name="Icircumflex" horiz-adv-x="293" unicode="Î"/>
<glyph d="M97 0l125 706h99l-125 -706h-99zM178 795q-36 0 -48 31q-5 15 -2 31q8 40 45 56q13 5 26 5q36 0 48 -30q6 -15 3 -31q-8 -40 -45 -56q-14 -6 -27 -6zM398 795q-36 0 -48 31q-5 15 -2 31q8 40 45 56q13 5 26 5q36 0 48 -30q6 -15 3 -31q-8 -40 -45 -56q-14 -6 -27 -6z" glyph-name="Idieresis" horiz-adv-x="293" unicode="Ï"/>
<glyph d="M162 308h-82l16 90h81l55 308h246q151 0 235 -100q83 -100 59 -247q-1 -3 -1 -5q-27 -151 -146 -253q-120 -101 -272 -101h-246zM440 308h-180l-38 -217h138q119 0 210 84q80 74 98 179q22 122 -52 198q-62 64 -162 64h-139l-39 -218h180z" glyph-name="Eth" horiz-adv-x="757" unicode="Ð"/>
<glyph d="M197 0h-100l125 706h88l297 -529l94 529h99l-125 -706h-87l-298 530zM424 776l-61 20q13 79 77 103q22 8 44 8q32 0 72 -32q27 -21 40 -21q35 1 49 56l61 -20q-12 -72 -72 -100q-24 -11 -49 -11q-32 0 -72 32q-27 21 -40 21q-35 -1 -49 -56z" glyph-name="Ntilde" horiz-adv-x="772" unicode="Ñ"/>
<glyph d="M110 353q27 154 150 259q125 106 279 106q147 0 234 -98q88 -100 67 -251q-1 -9 -2 -16q-26 -153 -148 -258q-128 -104 -280 -107q-149 0 -236 100q-88 102 -66 255q1 6 2 10zM212 353q-22 -124 52 -202q63 -66 163 -66q116 0 208 85q82 76 101 183q22 124 -52 202 q-62 66 -162 66q-117 0 -210 -85q-81 -77 -100 -183zM581 768h-82l-99 167h116z" glyph-name="Ograve" unicode="Ò"/>
<glyph d="M110 353q27 154 150 259q125 106 279 106q147 0 234 -98q88 -100 67 -251q-1 -9 -2 -16q-26 -153 -148 -258q-128 -104 -280 -107q-149 0 -236 100q-88 102 -66 255q1 6 2 10zM212 353q-22 -124 52 -202q63 -66 163 -66q116 0 208 85q82 76 101 183q22 124 -52 202 q-62 66 -162 66q-117 0 -210 -85q-81 -77 -100 -183zM512 768l125 167h116l-159 -167h-82z" glyph-name="Oacute" unicode="Ó"/>
<glyph d="M410 -12q-149 0 -236 100q-88 102 -66 255q1 6 2 10q27 154 150 259q125 106 279 106q147 0 234 -98q88 -100 67 -251q-1 -9 -2 -16q-26 -153 -148 -258q-128 -104 -280 -107zM212 353q-22 -124 52 -202q63 -66 163 -66q116 0 208 85q82 76 101 183q22 124 -52 202 q-62 66 -162 66q-117 0 -210 -85q-81 -77 -100 -183zM382 753l152 182h86l88 -182h-92l-51 114l-91 -114h-92z" glyph-name="Ocircumflex" unicode="Ô"/>
<glyph d="M110 353q27 154 150 259q125 106 279 106q147 0 234 -98q88 -100 67 -251q-1 -9 -2 -16q-26 -153 -148 -258q-128 -104 -280 -107q-149 0 -236 100q-88 102 -66 255q1 6 2 10zM212 353q-22 -124 52 -202q63 -66 163 -66q116 0 208 85q82 76 101 183q22 124 -52 202 q-62 66 -162 66q-117 0 -210 -85q-81 -77 -100 -183zM451 776l-62 20q15 79 79 103q21 8 43 8q32 0 72 -32q27 -21 40 -21q34 1 48 56l62 -20q-11 -67 -69 -97q-26 -14 -53 -14q-32 0 -71 32q-27 21 -40 21q-35 -1 -49 -56z" glyph-name="Otilde" unicode="Õ"/>
<glyph d="M110 353q27 154 150 259q125 106 279 106q147 0 234 -98q88 -100 67 -251q-1 -9 -2 -16q-26 -153 -148 -258q-128 -104 -280 -107q-149 0 -236 100q-88 102 -66 255q1 6 2 10zM212 353q-22 -124 52 -202q63 -66 163 -66q116 0 208 85q82 76 101 183q22 124 -52 202 q-62 66 -162 66q-117 0 -210 -85q-81 -77 -100 -183zM443 795q-36 0 -48 31q-5 15 -2 31q8 40 45 56q13 5 26 5q36 0 48 -30q6 -15 3 -31q-8 -40 -45 -56q-14 -6 -27 -6zM663 795q-36 0 -48 31q-5 15 -2 31q8 40 45 56q13 5 26 5q36 0 48 -30q6 -15 3 -31q-8 -40 -45 -56 q-14 -6 -27 -6z" glyph-name="Odieresis" unicode="Ö"/>
<glyph d="M350 410l193 164l47 -57l-193 -164l135 -165l-67 -57l-135 164l-194 -164l-47 57l193 165l-135 164l67 57z" glyph-name="multiply" horiz-adv-x="555" unicode="×"/>
<glyph d="M97 -17l86 95q-101 107 -73 275q27 154 150 259q125 106 279 106q101 -1 175 -47l84 94l53 -42l-85 -95q101 -107 72 -275q-26 -153 -148 -258q-128 -104 -280 -107q-101 1 -174 47l-84 -94zM256 160l385 430q-52 31 -119 31q-117 0 -210 -85q-81 -77 -100 -183 q-21 -114 44 -193zM692 546l-384 -430q52 -31 119 -31q116 0 208 85q82 76 101 183q21 114 -44 193z" glyph-name="Oslash" unicode="Ø"/>
<glyph d="M359 -12q-122 0 -187 84q-58 77 -39 183l80 451h99l-79 -445q-15 -88 40 -140q41 -38 103 -38q89 0 153 72q42 48 52 106l79 445h99l-80 -451q-22 -119 -121 -197q-90 -70 -199 -70zM439 768l-100 167h116l66 -167h-82z" glyph-name="Ugrave" horiz-adv-x="722" unicode="Ù"/>
<glyph d="M359 -12q-122 0 -187 84q-58 77 -39 183l80 451h99l-79 -445q-15 -88 40 -140q41 -38 103 -38q89 0 153 72q42 48 52 106l79 445h99l-80 -451q-22 -119 -121 -197q-90 -70 -199 -70zM544 768h-82l124 167h116z" glyph-name="Uacute" horiz-adv-x="722" unicode="Ú"/>
<glyph d="M359 -12q-122 0 -187 84q-58 77 -39 183l80 451h99l-79 -445q-15 -88 40 -140q41 -38 103 -38q89 0 153 72q42 48 52 106l79 445h99l-80 -451q-22 -119 -121 -197q-90 -70 -199 -70zM423 753h-92l152 182h86l88 -182h-92l-51 114z" glyph-name="Ucircumflex" horiz-adv-x="722" unicode="Û"/>
<glyph d="M359 -12q-122 0 -187 84q-58 77 -39 183l80 451h99l-79 -445q-15 -88 40 -140q41 -38 103 -38q89 0 153 72q42 48 52 106l79 445h99l-80 -451q-22 -119 -121 -197q-90 -70 -199 -70zM611 795q-36 0 -48 31q-5 15 -2 31q8 39 45 55q14 6 27 6q37 0 48 -31q5 -15 2 -30 q-8 -40 -45 -56q-14 -6 -27 -6zM391 795q-36 0 -48 31q-5 15 -2 31q8 39 45 55q14 6 27 6q37 0 48 -31q5 -15 2 -30q-8 -40 -45 -56q-14 -6 -27 -6z" glyph-name="Udieresis" horiz-adv-x="722" unicode="Ü"/>
<glyph d="M256 0l56 320l-182 386h115l133 -294l238 294h115l-320 -386l-56 -320h-99zM406 768l124 167h116l-158 -167h-82z" glyph-name="Yacute" horiz-adv-x="611" unicode="Ý"/>
<glyph d="M234 215h144q95 0 140 77q15 28 21 61q17 95 -54 125q-25 10 -58 10h-145zM97 0l124 706h99l-23 -132h150q99 0 153 -73q46 -63 32 -147q-17 -101 -104 -167q-74 -57 -158 -57h-151l-23 -130h-99z" glyph-name="Thorn" horiz-adv-x="612" unicode="Þ"/>
<glyph d="M83 0l93 530q18 103 118 155q62 33 132 33q106 0 154 -63q32 -44 23 -98q-9 -51 -58 -93q-19 -15 -68 -51q-57 -41 -64 -48q-7 -9 -9 -17q-3 -18 41 -46q6 -4 19 -12q10 -6 14 -9q91 -59 104 -110q5 -21 1 -46q-14 -80 -99 -118q-45 -19 -91 -19q-94 0 -138 62 q-11 17 -17 36l80 52q31 -63 90 -64q46 0 67 30q7 11 9 23q6 27 -31 53q-8 5 -27 17q-17 11 -25 16q-70 48 -85 75q-12 24 -6 57q8 44 73 94q15 12 33 25q72 51 85 74q5 9 7 18q7 41 -37 63q-26 13 -63 13q-72 0 -112 -52q-18 -25 -24 -57l-92 -523h-97z" glyph-name="germandbls" horiz-adv-x="587" unicode="ß"/>
<glyph d="M234 70q75 0 130 60q33 37 41 79l6 32l-150 -28q-81 -15 -96 -62q-2 -6 -3 -11q-8 -47 35 -64q17 -6 37 -6zM518 323l-57 -323h-90l14 78q-71 -89 -181 -90q-83 0 -122 56q-25 40 -16 90q23 120 190 152l164 31l2 10q14 84 -63 101q-17 4 -37 4q-84 -1 -152 -65l-39 64 q91 87 215 87q125 0 163 -85q20 -47 9 -110zM398 568h-82l-99 167h116z" glyph-name="agrave" horiz-adv-x="534" unicode="à"/>
<glyph d="M234 70q75 0 130 60q33 37 41 79l6 32l-150 -28q-81 -15 -96 -62q-2 -6 -3 -11q-8 -47 35 -64q17 -6 37 -6zM518 323l-57 -323h-90l14 78q-71 -89 -181 -90q-83 0 -122 56q-25 40 -16 90q23 120 190 152l164 31l2 10q14 84 -63 101q-17 4 -37 4q-84 -1 -152 -65l-39 64 q91 87 215 87q125 0 163 -85q20 -47 9 -110zM307 568l125 167h116l-159 -167h-82z" glyph-name="aacute" horiz-adv-x="534" unicode="á"/>
<glyph d="M204 -12q-83 0 -122 56q-25 40 -16 90q23 120 190 152l164 31l2 10q14 84 -63 101q-17 4 -37 4q-84 -1 -152 -65l-39 64q91 87 215 87q125 0 163 -85q20 -47 9 -110l-57 -323h-90l14 78q-71 -89 -181 -90zM162 140q-8 -47 35 -64q17 -6 37 -6q75 0 130 60q33 37 41 79 l6 32l-150 -28q-81 -15 -96 -62q-2 -6 -3 -11zM279 553h-92l152 182h86l88 -182h-92l-51 114z" glyph-name="acircumflex" horiz-adv-x="534" unicode="â"/>
<glyph d="M234 70q75 0 130 60q33 37 41 79l6 32l-150 -28q-81 -15 -96 -62q-2 -6 -3 -11q-8 -47 35 -64q17 -6 37 -6zM518 323l-57 -323h-90l14 78q-71 -89 -181 -90q-83 0 -122 56q-25 40 -16 90q23 120 190 152l164 31l2 10q14 84 -63 101q-17 4 -37 4q-84 -1 -152 -65l-39 64 q91 87 215 87q125 0 163 -85q20 -47 9 -110zM246 576l-62 20q13 78 77 103q22 8 45 8q32 0 71 -32q27 -21 40 -21q35 1 49 56l62 -20q-13 -73 -75 -101q-23 -10 -47 -10q-32 0 -72 32q-27 21 -40 21q-34 -1 -48 -56z" glyph-name="atilde" horiz-adv-x="534" unicode="ã"/>
<glyph d="M234 70q75 0 130 60q33 37 41 79l6 32l-150 -28q-81 -15 -96 -62q-2 -6 -3 -11q-8 -47 35 -64q17 -6 37 -6zM518 323l-57 -323h-90l14 78q-71 -89 -181 -90q-83 0 -122 56q-25 40 -16 90q23 120 190 152l164 31l2 10q14 84 -63 101q-17 4 -37 4q-84 -1 -152 -65l-39 64 q91 87 215 87q125 0 163 -85q20 -47 9 -110zM241 595q-36 0 -48 31q-5 15 -2 31q8 39 45 55q14 6 27 6q37 0 48 -31q5 -15 2 -30q-8 -40 -45 -56q-14 -6 -27 -6zM461 595q-36 0 -48 31q-5 15 -2 31q8 39 45 55q14 6 27 6q37 0 48 -31q5 -15 2 -30q-8 -40 -45 -56 q-14 -6 -27 -6z" glyph-name="adieresis" horiz-adv-x="534" unicode="ä"/>
<glyph d="M234 70q75 0 130 60q33 37 41 79l6 32l-150 -28q-81 -15 -96 -62q-2 -6 -3 -11q-8 -47 35 -64q17 -6 37 -6zM518 323l-57 -323h-90l14 78q-71 -89 -181 -90q-83 0 -122 56q-25 40 -16 90q23 120 190 152l164 31l2 10q14 84 -63 101q-17 4 -37 4q-84 -1 -152 -65l-39 64 q91 87 215 87q125 0 163 -85q20 -47 9 -110zM328 668q-5 -30 20 -42q9 -4 18 -4q31 0 48 29q4 9 6 17q6 29 -20 42q-9 4 -18 4q-31 0 -48 -30q-4 -8 -6 -16zM266 668q11 59 65 91q30 17 62 17q57 0 81 -47q14 -28 8 -61q-11 -59 -65 -91q-30 -17 -62 -17q-57 0 -81 47 q-14 28 -8 61z" glyph-name="aring" horiz-adv-x="534" unicode="å"/>
<glyph d="M226 -12q-93 0 -138 61q-31 43 -21 96q12 69 81 116q64 42 148 42h146l3 14q13 75 -56 103q-29 12 -65 12q-81 0 -147 -58q-5 -4 -8 -7l-39 64q89 87 218 87q116 0 164 -80q5 -10 9 -19q91 96 204 99q118 0 167 -87q35 -65 20 -152q-8 -43 -14 -53h-373q-8 -95 64 -132 q32 -17 74 -17q84 1 151 64l47 -68q-97 -85 -216 -85q-125 0 -181 95l-8 16q-66 -77 -164 -102q-34 -9 -66 -9zM162 148q-8 -47 36 -67q21 -9 49 -9q67 0 129 52q46 41 54 85l3 17h-144q-101 0 -124 -67q-2 -6 -3 -11zM541 303h280l1 1q7 79 -50 112q-27 15 -61 15 q-90 0 -144 -77q-16 -24 -26 -51z" glyph-name="ae" horiz-adv-x="906" unicode="æ"/>
<glyph d="M229 -106l42 96q-105 13 -156 99q-42 72 -26 165q21 117 119 195q88 69 191 69q127 -1 184 -106l-75 -62q-41 77 -125 78q-86 0 -146 -70q-39 -46 -49 -105q-17 -87 37 -139q39 -36 95 -36q95 1 160 77l55 -61q-81 -92 -197 -104q-7 -1 -12 -1l-21 -45q55 -10 66 -51 q4 -15 1 -30q-11 -57 -77 -80q-27 -9 -56 -9q-30 0 -51 7l11 62q23 -6 46 -6q45 1 51 29q-2 28 -45 30q-12 0 -22 -2z" glyph-name="ccedilla" horiz-adv-x="545" unicode="ç"/>
<glyph d="M569 228h-383q-8 -92 63 -131q36 -20 82 -20q84 1 154 64l47 -68q-99 -85 -219 -85q-130 0 -192 89q-51 73 -33 175q23 124 120 201q82 65 183 65q119 0 171 -85q38 -64 22 -150q-5 -33 -15 -55zM377 431q-95 0 -149 -77q-15 -22 -25 -47h290v1q7 78 -54 109 q-27 14 -62 14zM445 568h-82l-99 167h116z" glyph-name="egrave" horiz-adv-x="577" unicode="è"/>
<glyph d="M569 228h-383q-8 -92 63 -131q36 -20 82 -20q84 1 154 64l47 -68q-99 -85 -219 -85q-130 0 -192 89q-51 73 -33 175q23 124 120 201q82 65 183 65q119 0 171 -85q38 -64 22 -150q-5 -33 -15 -55zM377 431q-95 0 -149 -77q-15 -22 -25 -47h290v1q7 78 -54 109 q-27 14 -62 14zM356 568l125 167h116l-159 -167h-82z" glyph-name="eacute" horiz-adv-x="577" unicode="é"/>
<glyph d="M313 -12q-130 0 -192 89q-51 73 -33 175q23 124 120 201q82 65 183 65q119 0 171 -85q38 -64 22 -150q-5 -33 -15 -55h-383q-8 -92 63 -131q36 -20 82 -20q84 1 154 64l47 -68q-99 -85 -219 -85zM203 307h290v1q7 78 -54 109q-27 14 -62 14q-95 0 -149 -77 q-15 -22 -25 -47zM224 553l152 182h86l88 -182h-92l-51 114l-91 -114h-92z" glyph-name="ecircumflex" horiz-adv-x="577" unicode="ê"/>
<glyph d="M569 228h-383q-8 -92 63 -131q36 -20 82 -20q84 1 154 64l47 -68q-99 -85 -219 -85q-130 0 -192 89q-51 73 -33 175q23 124 120 201q82 65 183 65q119 0 171 -85q38 -64 22 -150q-5 -33 -15 -55zM377 431q-95 0 -149 -77q-15 -22 -25 -47h290v1q7 78 -54 109 q-27 14 -62 14zM284 595q-36 0 -48 31q-5 15 -2 31q8 39 45 55q14 6 27 6q37 0 48 -31q5 -15 2 -30q-8 -40 -45 -56q-14 -6 -27 -6zM504 595q-36 0 -48 31q-5 15 -2 31q8 39 45 55q14 6 27 6q37 0 48 -31q5 -15 2 -30q-8 -40 -45 -56q-14 -6 -27 -6z" glyph-name="edieresis" horiz-adv-x="577" unicode="ë"/>
<glyph d="M83 0l89 506h97l-89 -506h-97zM267 568h-82l-99 167h116z" glyph-name="igrave" horiz-adv-x="263" unicode="ì"/>
<glyph d="M83 0l89 506h97l-89 -506h-97zM195 568l125 167h116l-159 -167h-82z" glyph-name="iacute" horiz-adv-x="263" unicode="í"/>
<glyph d="M83 0l89 506h97l-89 -506h-97zM158 553h-92l152 182h86l88 -182h-92l-51 114z" glyph-name="icircumflex" horiz-adv-x="263" unicode="î"/>
<glyph d="M83 0l89 506h97l-89 -506h-97zM129 595q-36 0 -48 31q-5 15 -2 31q8 39 45 55q14 6 27 6q37 0 48 -31q5 -15 2 -30q-8 -40 -45 -56q-14 -6 -27 -6zM349 595q-36 0 -48 31q-5 15 -2 31q8 39 45 55q14 6 27 6q37 0 48 -31q5 -15 2 -30q-8 -40 -45 -56q-14 -6 -27 -6z" glyph-name="idieresis" horiz-adv-x="263" unicode="ï"/>
<glyph d="M85 240q18 99 96 173q83 79 187 79q65 -1 102 -36l2 1q-23 60 -98 107l-149 -64l-18 58l97 41q-41 16 -95 27l47 92q101 -25 169 -67l139 60l18 -58l-100 -43q141 -126 101 -353q-18 -107 -97 -187q-84 -82 -189 -82q-129 0 -186 95q-40 69 -26 157zM183 240 q-13 -83 37 -129q35 -33 92 -33q86 0 139 87q22 38 31 82q14 75 -33 120q-36 35 -94 35q-92 0 -144 -86q-21 -36 -28 -76z" glyph-name="eth" horiz-adv-x="585" unicode="ð"/>
<glyph d="M83 0l89 506h95l-13 -76q66 87 179 88q107 0 146 -80q27 -54 13 -132l-54 -306h-97l53 302q15 86 -45 116q-23 11 -51 11q-93 0 -145 -94q-21 -37 -28 -78l-45 -257h-97zM310 576l-61 20q13 79 77 103q22 8 44 8q32 0 72 -32q27 -21 40 -21q35 1 49 56l61 -20 q-12 -72 -72 -100q-24 -11 -49 -11q-32 0 -72 32q-27 21 -40 21q-35 -1 -49 -56z" glyph-name="ntilde" horiz-adv-x="613" unicode="ñ"/>
<glyph d="M304 -12q-118 0 -179 84q-55 75 -36 181q22 121 120 198q85 67 188 67q117 0 179 -83q56 -76 37 -182q-22 -120 -120 -198q-86 -67 -189 -67zM381 426q-86 0 -146 -72q-37 -46 -47 -101q-15 -86 37 -137q38 -36 95 -36q84 0 145 70q39 47 49 103q15 85 -37 136 q-38 37 -96 37zM435 568h-82l-100 167h116z" glyph-name="ograve" horiz-adv-x="612" unicode="ò"/>
<glyph d="M304 -12q-118 0 -179 84q-55 75 -36 181q22 121 120 198q85 67 188 67q117 0 179 -83q56 -76 37 -182q-22 -120 -120 -198q-86 -67 -189 -67zM381 426q-86 0 -146 -72q-37 -46 -47 -101q-15 -86 37 -137q38 -36 95 -36q84 0 145 70q39 47 49 103q15 85 -37 136 q-38 37 -96 37zM361 568l124 167h116l-158 -167h-82z" glyph-name="oacute" horiz-adv-x="612" unicode="ó"/>
<glyph d="M304 -12q-118 0 -179 84q-55 75 -36 181q22 121 120 198q85 67 188 67q117 0 179 -83q56 -76 37 -182q-22 -120 -120 -198q-86 -67 -189 -67zM188 253q-15 -86 37 -137q38 -36 95 -36q84 0 145 70q39 47 49 103q15 85 -37 136q-38 37 -96 37q-86 0 -146 -72 q-37 -46 -47 -101zM333 553h-92l152 182h86l88 -182h-92l-51 114z" glyph-name="ocircumflex" horiz-adv-x="612" unicode="ô"/>
<glyph d="M304 -12q-118 0 -179 84q-55 75 -36 181q22 121 120 198q85 67 188 67q117 0 179 -83q56 -76 37 -182q-22 -120 -120 -198q-86 -67 -189 -67zM381 426q-86 0 -146 -72q-37 -46 -47 -101q-15 -86 37 -137q38 -36 95 -36q84 0 145 70q39 47 49 103q15 85 -37 136 q-38 37 -96 37zM309 576l-61 20q13 79 77 103q22 8 44 8q32 0 72 -32q27 -21 40 -21q35 1 49 56l61 -20q-12 -72 -72 -100q-24 -11 -49 -11q-32 0 -72 32q-27 21 -40 21q-35 -1 -49 -56z" glyph-name="otilde" horiz-adv-x="612" unicode="õ"/>
<glyph d="M304 -12q-118 0 -179 84q-55 75 -36 181q22 121 120 198q85 67 188 67q117 0 179 -83q56 -76 37 -182q-22 -120 -120 -198q-86 -67 -189 -67zM381 426q-86 0 -146 -72q-37 -46 -47 -101q-15 -86 37 -137q38 -36 95 -36q84 0 145 70q39 47 49 103q15 85 -37 136 q-38 37 -96 37zM301 595q-36 0 -48 31q-5 15 -2 31q8 39 45 55q14 6 27 6q37 0 48 -31q5 -15 2 -30q-8 -40 -45 -56q-14 -6 -27 -6zM521 595q-36 0 -48 31q-5 15 -2 31q8 39 45 55q14 6 27 6q37 0 48 -31q5 -15 2 -30q-8 -40 -45 -56q-14 -6 -27 -6z" glyph-name="odieresis" horiz-adv-x="612" unicode="ö"/>
<glyph d="M286 98q-36 0 -48 31q-5 15 -2 31q8 39 45 55q14 6 27 6q37 0 48 -31q5 -15 2 -30q-8 -40 -45 -56q-14 -6 -27 -6zM119 396h440l-15 -85h-440zM355 486q-36 0 -48 31q-5 15 -2 31q8 40 45 56q13 5 26 5q36 0 48 -30q6 -15 3 -31q-8 -40 -45 -56q-14 -6 -27 -6z" glyph-name="divide" horiz-adv-x="538" unicode="÷"/>
<glyph d="M113 -61l-51 40l72 81q-67 79 -45 193q22 121 120 198q85 67 188 67q70 -1 121 -31l71 80l50 -40l-72 -81q65 -78 46 -193q-22 -120 -120 -198q-86 -67 -189 -67q-68 0 -120 30zM495 366l-242 -270q30 -16 67 -16q84 0 145 70q39 47 49 103q10 67 -19 113zM206 140 l242 270q-30 16 -67 16q-86 0 -146 -72q-37 -46 -47 -101q-11 -64 18 -113z" glyph-name="oslash" horiz-adv-x="612" unicode="ø"/>
<glyph d="M269 -12q-105 0 -145 78q-28 56 -14 134l54 306h97l-53 -302q-15 -85 45 -116q23 -11 52 -11q95 0 146 96q19 36 26 76l45 257h97l-89 -506h-95l13 76q-66 -87 -179 -88zM261 735h116l66 -167h-82z" glyph-name="ugrave" horiz-adv-x="613" unicode="ù"/>
<glyph d="M269 -12q-105 0 -145 78q-28 56 -14 134l54 306h97l-53 -302q-15 -85 45 -116q23 -11 52 -11q95 0 146 96q19 36 26 76l45 257h97l-89 -506h-95l13 76q-66 -87 -179 -88zM446 568h-82l124 167h116z" glyph-name="uacute" horiz-adv-x="613" unicode="ú"/>
<glyph d="M269 -12q-105 0 -145 78q-28 56 -14 134l54 306h97l-53 -302q-15 -85 45 -116q23 -11 52 -11q95 0 146 96q19 36 26 76l45 257h97l-89 -506h-95l13 76q-66 -87 -179 -88zM235 553l152 182h86l88 -182h-92l-51 114l-91 -114h-92z" glyph-name="ucircumflex" horiz-adv-x="613" unicode="û"/>
<glyph d="M269 -12q-105 0 -145 78q-28 56 -14 134l54 306h97l-53 -302q-15 -85 45 -116q23 -11 52 -11q95 0 146 96q19 36 26 76l45 257h97l-89 -506h-95l13 76q-66 -87 -179 -88zM506 595q-36 0 -48 31q-5 15 -2 31q8 39 45 55q14 6 27 6q37 0 48 -31q5 -15 2 -30q-8 -40 -45 -56 q-14 -6 -27 -6zM286 595q-36 0 -48 31q-5 15 -2 31q8 39 45 55q14 6 27 6q37 0 48 -31q5 -15 2 -30q-8 -40 -45 -56q-14 -6 -27 -6z" glyph-name="udieresis" horiz-adv-x="613" unicode="ü"/>
<glyph d="M8 -199l15 87q25 -17 61 -17q55 0 94 62q6 9 11 18l31 56l-122 499h109l80 -383l210 383h105l-339 -589q-51 -93 -116 -117q-31 -12 -68 -12q-42 1 -71 13zM326 568l124 167h116l-158 -167h-82z" glyph-name="yacute" horiz-adv-x="523" unicode="ý"/>
<glyph d="M145 -200h-97l109 618h-2l50 288h99l-46 -268q53 60 139 76q21 4 41 4q109 0 164 -83q48 -74 30 -182q-22 -128 -120 -205q-77 -60 -167 -60q-81 0 -131 50q-14 15 -22 31zM219 253q-17 -94 40 -145q36 -31 86 -31q78 0 136 66q41 48 53 110q17 92 -40 144q-37 32 -87 32 q-79 0 -137 -67q-40 -47 -51 -109z" glyph-name="thorn" horiz-adv-x="632" unicode="þ"/>
</font>
</defs>
</svg>
