<?xml version="1.0" encoding="UTF-8"?>
<!DOCTYPE svg  PUBLIC '-//W3C//DTD SVG 1.1//EN'  'http://www.w3.org/Graphics/SVG/1.1/DTD/svg11.dtd'>
<svg version="1.1" xmlns="http://www.w3.org/2000/svg">
<defs>
<font id="Rotunda-LightItalic" horiz-adv-x="834">
<font-face font-family="Rotunda Light Italic" font-style="italic" font-weight="250" ascent="800" bbox="-62 -218 1092 951" cap-height="703" descent="-200" panose-1="0 0 0 0 0 0 0 0 0 0" underline-position="-100" underline-thickness="50" unicode-range="U+0020-00FE" units-per-em="1000" x-height="503"/>
<missing-glyph/>
<glyph glyph-name="space" horiz-adv-x="262" unicode=" "/>
<glyph d="M143 180l84 523h75l-99 -523h-60zM157 95q32 0 42 -28q3 -11 1 -23q-6 -33 -39 -47q-11 -4 -22 -4q-31 0 -40 28q-4 12 -2 23q6 32 37 46q12 5 23 5z" glyph-name="exclam" horiz-adv-x="280" unicode="!"/>
<glyph d="M299 471l32 232h67l-50 -232h-49zM159 471l32 232h67l-50 -232h-49z" glyph-name="quotedbl" horiz-adv-x="341" unicode='"'/>
<glyph d="M82 233l19 56h148l43 125h-147l19 56h148l73 211h63l-74 -211h148l73 211h63l-74 -211h148l-19 -56h-148l-44 -125h148l-19 -56h-148l-74 -212h-61l73 212h-148l-74 -212h-62l74 212h-148zM311 289h149l43 125h-148z" glyph-name="numbersign" horiz-adv-x="689" unicode="#"/>
<glyph d="M59 115l66 40q43 -100 158 -101q90 0 141 57q24 28 30 62q13 68 -55 112q-23 15 -87 44q-90 40 -121 69q-53 52 -40 133q16 89 100 142q52 33 116 40l20 108h66l-20 -108q111 -13 149 -101q2 -5 4 -9l-59 -37q-40 83 -138 84q-94 0 -142 -63q-19 -25 -25 -55 q-10 -61 48 -100q20 -13 89 -46q96 -44 128 -75q51 -53 38 -135q-16 -92 -102 -145q-54 -34 -123 -41l-19 -111h-66l19 111q-115 12 -164 102q-7 12 -11 23z" glyph-name="dollar" horiz-adv-x="538" unicode="$"/>
<glyph d="M774 148q-14 -83 -88 -129q-48 -31 -102 -31q-80 0 -117 59q-28 44 -18 101q14 82 88 129q49 31 103 31q81 0 118 -60q25 -44 16 -100zM713 148q11 59 -32 88q-22 15 -51 15q-58 0 -96 -49q-19 -25 -24 -54q-11 -60 34 -89q22 -14 50 -14q61 0 97 52q17 23 22 51z M462 554q-15 -83 -87 -130q-48 -30 -102 -30q-80 0 -117 59q-28 44 -18 101q14 79 86 127q50 33 105 33q79 0 116 -60q27 -44 17 -100zM401 554q11 59 -31 88q-23 15 -51 15q-58 0 -96 -49q-19 -25 -24 -54q-11 -60 34 -89q22 -14 50 -14q60 0 96 51q17 24 22 52zM104 0 l638 703h64l-637 -703h-65z" glyph-name="percent" horiz-adv-x="788" unicode="%"/>
<glyph d="M300 -12q-118 0 -180 65q-50 53 -37 126q14 83 110 148q37 26 95 56q-56 71 -66 113q-6 29 -1 59q12 76 82 123q56 37 128 37q100 0 140 -70q22 -41 14 -90q-13 -73 -113 -138q-34 -22 -82 -47l154 -198q71 95 77 206h67q-11 -146 -105 -256l95 -122h-90l-56 71 q-105 -83 -232 -83zM153 182q-13 -66 56 -104q45 -24 104 -24q100 1 181 66l-170 217q-113 -59 -146 -101q-19 -25 -25 -54zM288 556q-5 -37 10 -65.5t54 -74.5l1 -1q122 64 150 104q12 17 15 35q9 51 -34 80q-27 18 -64 18q-75 0 -113 -52q-15 -21 -19 -44z" glyph-name="ampersand" horiz-adv-x="691" unicode="&amp;"/>
<glyph d="M208 471h-49l32 232h67z" glyph-name="quotesingle" horiz-adv-x="201" unicode="'"/>
<glyph d="M308 773h66q-146 -216 -189 -452q-42 -233 30 -451h-66q-75 220 -34 451q40 231 193 452z" glyph-name="parenleft" horiz-adv-x="277" unicode="("/>
<glyph d="M82 -131h-66q147 218 190 452q42 231 -31 451h66q75 -216 35 -451q-42 -232 -194 -452z" glyph-name="parenright" horiz-adv-x="277" unicode=")"/>
<glyph d="M153 553l9 54l110 -13l-52 90l52 28l26 -103l63 102l43 -27l-84 -90l113 13l-9 -54l-109 13l52 -90l-52 -27l-27 102l-63 -103l-42 28l84 90z" glyph-name="asterisk" horiz-adv-x="381" unicode="*"/>
<glyph d="M305 321h-207l11 62h207l36 206h64l-36 -206h207l-11 -62h-207l-37 -207h-64z" glyph-name="plus" horiz-adv-x="560" unicode="+"/>
<glyph d="M42 -118l59 108q-27 11 -28 39q0 6 1 10q6 33 38 46q11 4 21 4q34 0 41 -30q3 -10 1 -20q-3 -11 -11 -26l-82 -131h-40z" glyph-name="comma" horiz-adv-x="231" unicode=","/>
<glyph d="M431 240h-314l11 62h314z" glyph-name="hyphen" horiz-adv-x="464" unicode="-"/>
<glyph d="M67 39q6 32 37 45q12 5 22 5q32 0 41 -28q3 -11 1 -22q-6 -33 -38 -46q-12 -5 -22 -5q-30 0 -40 28q-3 11 -1 23z" glyph-name="period" horiz-adv-x="221" unicode="."/>
<glyph d="M548 783h66l-544 -923h-66z" glyph-name="slash" horiz-adv-x="505" unicode="/"/>
<glyph d="M329 -12q-158 0 -200 151q-24 89 -3 212q34 191 140 289q82 74 191 74q161 0 201 -156q22 -88 1 -207q-34 -193 -142 -291q-80 -72 -188 -72zM198 351q-34 -188 42 -261q39 -36 101 -36q146 0 215 182q19 52 31 115q35 198 -48 267q-37 30 -94 30q-137 0 -207 -161 q-26 -60 -40 -136z" glyph-name="zero" horiz-adv-x="661" unicode="0"/>
<glyph d="M468 0h-400l11 61h168l95 539q-84 -61 -190 -63l11 63q136 8 204 103h61l-113 -642h164z" glyph-name="one" horiz-adv-x="493" unicode="1"/>
<glyph d="M390 649q-112 -1 -178 -102l-50 35q78 115 207 131q18 2 35 2q114 0 162 -75q32 -53 19 -122q-18 -104 -140 -191q-21 -15 -139 -87q-109 -66 -143 -120q-19 -29 -24 -59h372l-11 -61h-441q3 38 4 45q20 110 143 200q22 16 140 90q108 67 143 121q18 29 24 59 q13 76 -44 113q-32 21 -79 21z" glyph-name="two" horiz-adv-x="561" unicode="2"/>
<glyph d="M61 121l65 37q22 -79 101 -99q21 -5 43 -5q85 0 143 59q37 39 46 90q17 100 -62 138q-38 19 -93 19q-35 0 -56 -4l7 43l246 243h-317l11 61h407l-8 -47l-241 -239q109 -3 157 -81q33 -56 20 -131q-19 -105 -111 -168q-74 -49 -163 -49q-123 0 -177 92q-11 20 -18 41z" glyph-name="three" horiz-adv-x="557" unicode="3"/>
<glyph d="M408 186h-344l8 45l419 472h77l-80 -456h101l-11 -61h-101l-33 -186h-69zM163 247h256l63 359z" glyph-name="four" horiz-adv-x="596" unicode="4"/>
<glyph d="M271 54q91 0 150 68q36 42 45 96q17 87 -41 136q-38 32 -95 32q-81 -1 -153 -63l-42 20l104 360h346l-11 -61h-289l-67 -235q58 40 131 40q109 0 162 -76q43 -63 27 -151q-20 -112 -114 -179q-74 -53 -164 -53q-122 0 -177 90q-12 20 -19 43l64 37q30 -103 143 -104z" glyph-name="five" horiz-adv-x="552" unicode="5"/>
<glyph d="M292 -13q-104 0 -162 74q-52 68 -36 162q14 74 88 164q15 18 51 60l216 255h82l-240 -278q36 23 93 23q105 0 159 -77q43 -64 29 -151q-20 -109 -114 -177q-76 -55 -166 -55zM303 52q88 0 149 67q39 44 49 100q14 83 -42 132q-39 34 -95 34q-92 0 -153 -69 q-36 -42 -45 -95q-15 -93 45 -140q38 -29 92 -29z" glyph-name="six" horiz-adv-x="575" unicode="6"/>
<glyph d="M82 0l437 641h-368l11 62h447l-9 -48l-444 -655h-74z" glyph-name="seven" horiz-adv-x="513" unicode="7"/>
<glyph d="M422 715q97 0 148 -63q42 -52 30 -123q-14 -82 -89 -136q-22 -15 -44 -24q66 -25 91 -89q15 -42 7 -89q-18 -99 -112 -158q-73 -45 -159 -45q-108 0 -165 68q-47 57 -33 135q17 92 100 148q29 20 60 30q-57 25 -74 89q-9 34 -3 71q16 90 103 145q66 41 140 41zM355 336 q-88 0 -146 -62q-32 -36 -41 -80q-12 -77 48 -117q37 -25 89 -25q89 0 147 60q34 37 41 82q14 73 -44 115q-39 27 -94 27zM411 651q-75 0 -126 -54q-28 -32 -36 -70q-12 -69 43 -105q32 -22 75 -22q78 0 128 56q28 31 35 71q13 65 -41 102q-34 22 -78 22z" glyph-name="eight" horiz-adv-x="593" unicode="8"/>
<glyph d="M407 715q105 0 162 -75q51 -68 35 -161q-12 -73 -86 -164q-16 -19 -52 -60l-216 -255h-82l240 278q-36 -23 -93 -23q-105 0 -159 77q-43 64 -29 151q20 108 113 176q77 56 167 56zM396 650q-88 0 -149 -67q-39 -44 -49 -100q-14 -83 42 -132q39 -34 95 -34q92 0 153 69 q36 42 45 95q15 93 -45 140q-38 29 -92 29z" glyph-name="nine" horiz-adv-x="575" unicode="9"/>
<glyph d="M141 90q31 0 41 -28q3 -11 1 -23q-6 -33 -38 -46q-11 -4 -21 -4q-30 0 -40 27q-4 11 -2 23q6 32 37 46q12 5 22 5zM216 515q31 0 41 -28q3 -11 1 -23q-6 -32 -37 -45q-12 -5 -22 -5q-30 0 -40 27q-4 11 -2 23q6 32 37 46q12 5 22 5z" glyph-name="colon" horiz-adv-x="251" unicode=":"/>
<glyph d="M55 -118l59 108q-27 11 -28 39q0 6 1 10q6 33 38 46q11 4 21 4q34 0 41 -30q3 -10 1 -20q-3 -11 -11 -26l-82 -131h-40zM221 515q31 0 41 -28q3 -11 1 -23q-6 -32 -38 -46q-11 -4 -22 -4q-31 0 -40 28q-3 11 -1 22q4 31 36 46q12 5 23 5z" glyph-name="semicolon" horiz-adv-x="257" unicode=";"/>
<glyph d="M109 383l455 189l-12 -67l-370 -154l316 -153l-12 -68l-389 190z" glyph-name="less" horiz-adv-x="544" unicode="&lt;"/>
<glyph d="M162 479h419l-10 -61h-419zM128 285h419l-11 -62h-419z" glyph-name="equal" horiz-adv-x="575" unicode="="/>
<glyph d="M559 319l-455 -189l12 67l370 154l-316 153l12 68l388 -190z" glyph-name="greater" horiz-adv-x="544" unicode="&gt;"/>
<glyph d="M521 533q-13 -80 -90 -143q-12 -11 -38 -30q-65 -48 -86 -81q-17 -27 -23 -57l-8 -47h-68l8 48q16 83 93 147q12 11 37 30q64 48 84 80q16 25 21 52q12 69 -40 101q-28 17 -66 17q-97 -1 -161 -84l-43 38q44 64 122 94q46 17 93 17q107 0 149 -72q27 -47 16 -110zM225 86 q31 0 40 -29q2 -10 1 -20q-6 -32 -38 -45q-10 -4 -20 -4q-31 0 -39 27q-3 11 -1 22q5 32 36 45q11 4 21 4z" glyph-name="question" horiz-adv-x="474" unicode="?"/>
<glyph d="M444 -121q-157 0 -256 106q-97 105 -90 261q1 27 6 54q28 162 158 283q129 119 292 136q23 2 44 2q163 0 262 -109q96 -105 86 -261q-2 -24 -6 -46q-22 -120 -95 -187q-48 -44 -100 -44q-67 0 -89 56q-6 13 -7 27q-76 -84 -174 -85q-98 0 -148 74q-42 63 -28 148 q17 105 104 172q68 51 145 51q92 0 134 -65q3 -4 5 -8l11 61h61l-54 -304q-9 -45 21 -63q13 -8 29 -8q48 0 87 71q25 46 35 104q26 148 -54 251q-80 102 -225 106h-10q-153 0 -275 -107q-118 -105 -146 -255q-27 -155 55 -258t232 -104q113 0 226 70l19 -51 q-125 -78 -255 -78zM361 294q-15 -84 38 -133q35 -31 85 -31q81 0 135 64q35 42 46 100q17 102 -49 145q-32 20 -74 20q-76 0 -133 -65q-38 -44 -48 -100z" glyph-name="at" horiz-adv-x="942" unicode="@"/>
<glyph d="M86 0h-72l401 703h73l152 -703h-71l-48 219h-309zM437 622l-191 -339h263z" glyph-name="A" horiz-adv-x="654" unicode="A"/>
<glyph d="M105 0l124 703h237q120 0 165 -75q26 -47 16 -109q-17 -90 -94 -141q-19 -12 -38 -20q81 -25 95 -101q6 -30 0 -65q-17 -100 -110 -154q-66 -38 -148 -38h-247zM242 385h175q94 0 137 74q15 25 20 55q14 78 -47 110q-29 15 -70 15h-170zM185 64h184q85 0 136 61 q27 33 34 72q12 72 -49 108q-36 20 -84 20h-175z" glyph-name="B" horiz-adv-x="638" unicode="B"/>
<glyph d="M680 179l44 -43q-131 -147 -312 -148q-148 0 -233 101q-86 102 -62 256q1 4 1 6q28 155 149 260q121 104 271 104q172 -1 252 -130l-58 -48q-65 109 -204 110q-131 0 -231 -95q-86 -84 -107 -200q-23 -135 53 -220q68 -76 183 -76q148 1 254 123z" glyph-name="C" horiz-adv-x="735" unicode="C"/>
<glyph d="M105 0l124 703h233q145 0 230 -98q84 -97 64 -239l-2 -14q-25 -145 -143 -247q-122 -104 -273 -105h-233zM185 64h156q130 0 231 91q89 82 110 197q23 128 -54 212q-70 75 -185 75h-156z" glyph-name="D" horiz-adv-x="748" unicode="D"/>
<glyph d="M105 0l124 703h425l-11 -63h-356l-45 -253h296l-11 -64h-296l-46 -259h370l-11 -64h-439z" glyph-name="E" horiz-adv-x="598" unicode="E"/>
<glyph d="M105 0l124 703h391l-11 -63h-322l-46 -262h280l-11 -62h-280l-56 -316h-69z" glyph-name="F" horiz-adv-x="541" unicode="F"/>
<glyph d="M411 -12q-147 0 -231 99q-86 102 -63 256q0 4 1 8q28 155 150 260q121 104 271 104q167 -1 251 -124l-58 -50q-66 105 -203 106q-131 0 -231 -94q-88 -84 -109 -201q-23 -134 53 -219q68 -77 183 -77q135 0 230 92l13 13l23 135h-195l11 62h261l-39 -223h-2l2 -1 q-117 -128 -277 -144q-21 -2 -41 -2z" glyph-name="G" horiz-adv-x="767" unicode="G"/>
<glyph d="M105 0l124 703h69l-56 -320h413l56 320h69l-124 -703h-69l57 321h-413l-57 -321h-69z" glyph-name="H" horiz-adv-x="761" unicode="H"/>
<glyph d="M105 0l124 703h69l-124 -703h-69z" glyph-name="I" horiz-adv-x="279" unicode="I"/>
<glyph d="M43 125l61 33q23 -105 117 -106q85 0 130 75q19 32 25 69l89 507h69l-89 -506q-21 -114 -109 -172q-58 -37 -128 -37q-113 0 -153 93q-8 21 -12 44z" glyph-name="J" horiz-adv-x="508" unicode="J"/>
<glyph d="M105 0l124 703h69l-70 -394l405 394h89l-301 -291l212 -412h-83l-185 360l-154 -151l-37 -209h-69z" glyph-name="K" horiz-adv-x="637" unicode="K"/>
<glyph d="M105 0l124 703h69l-113 -639h323l-11 -64h-392z" glyph-name="L" horiz-adv-x="526" unicode="L"/>
<glyph d="M174 0h-69l124 703h60l205 -451l365 451h60l-124 -703h-69l100 565l-322 -392h-46l-184 392z" glyph-name="M" horiz-adv-x="900" unicode="M"/>
<glyph d="M105 0l124 703h58l325 -576l102 576h68l-124 -703h-58l-325 576l-102 -576h-68z" glyph-name="N" horiz-adv-x="763" unicode="N"/>
<glyph d="M543 715q147 0 233 -98q88 -101 66 -252q-1 -7 -2 -13q-26 -152 -148 -257q-126 -105 -277 -107q-150 0 -235 101q-87 103 -63 258q1 3 1 5q28 154 150 259q123 104 275 104zM531 647q-126 0 -228 -91q-93 -85 -114 -204q-23 -131 53 -217q70 -79 185 -79q126 0 228 92 q93 85 114 204q23 131 -54 217q-69 78 -184 78z" glyph-name="O" unicode="O"/>
<glyph d="M233 337h165q77 0 133 62q36 40 46 91q14 72 -38 117q-37 32 -87 32h-165zM222 275l-48 -275h-69l124 703h242q95 0 147 -69q45 -62 30 -145q-18 -100 -105 -164q-69 -50 -147 -50h-174z" glyph-name="P" horiz-adv-x="602" unicode="P"/>
<glyph d="M415 -12q-150 0 -235 101q-87 103 -63 258q1 3 1 5q28 154 150 259q123 104 275 104q147 0 233 -98q88 -101 66 -252q-1 -7 -2 -13q-26 -154 -150 -259q-42 -36 -89 -60l110 -202h-84l-95 175q-57 -18 -117 -18zM189 352q-23 -131 53 -217q70 -79 185 -79q126 0 228 92 q93 85 114 204q23 131 -54 217q-69 78 -184 78q-126 0 -228 -91q-93 -85 -114 -204z" glyph-name="Q" unicode="Q"/>
<glyph d="M174 0h-69l124 703h269q98 0 149 -69q42 -58 28 -138q-16 -101 -111 -161q-37 -23 -77 -35l98 -300h-79l-95 292h-186zM287 639l-51 -287h195q74 0 129 58q35 39 44 88q12 75 -44 116q-34 25 -79 25h-194z" glyph-name="R" horiz-adv-x="647" unicode="R"/>
<glyph d="M593 603l-59 -37q-40 83 -138 84q-94 0 -142 -63q-19 -25 -25 -55q-10 -61 48 -100q20 -13 89 -46q96 -44 128 -75q51 -53 38 -135q-18 -95 -105 -148q-67 -40 -155 -40q-122 0 -182 83q-15 21 -24 44l66 40q43 -100 158 -101q90 0 141 57q24 28 30 62q13 68 -55 112 q-23 15 -87 44q-90 40 -121 69q-53 52 -40 133q14 85 95 139q69 45 155 45q118 0 169 -79q10 -16 16 -33z" glyph-name="S" horiz-adv-x="554" unicode="S"/>
<glyph d="M140 640l11 63h513l-11 -63h-222l-113 -640h-69l113 640h-222z" glyph-name="T" horiz-adv-x="568" unicode="T"/>
<glyph d="M360 -12q-126 0 -187 87q-50 74 -32 178l79 450h69l-78 -444q-20 -104 43 -163q46 -41 118 -41q111 0 181 88q39 51 52 116l78 444h69l-79 -450q-22 -123 -121 -199q-86 -66 -192 -66z" glyph-name="U" horiz-adv-x="724" unicode="U"/>
<glyph d="M139 703h76l123 -602l335 602h76l-390 -703h-78z" glyph-name="V" horiz-adv-x="640" unicode="V"/>
<glyph d="M144 703h73l80 -603l285 603h72l73 -603l292 603h73l-344 -703h-76l-73 594l-283 -594h-76z" glyph-name="W" horiz-adv-x="988" unicode="W"/>
<glyph d="M18 0l299 367l-156 336h81l129 -283l229 283h81l-274 -336l169 -367h-79l-144 315l-256 -315h-79z" glyph-name="X" horiz-adv-x="594" unicode="X"/>
<glyph d="M137 703h79l150 -312l261 312h79l-316 -375l-58 -328h-69l58 328z" glyph-name="Y" horiz-adv-x="595" unicode="Y"/>
<glyph d="M45 0l9 49l482 590h-363l11 64h452l-9 -50l-481 -589h373l-11 -64h-463z" glyph-name="Z" horiz-adv-x="560" unicode="Z"/>
<glyph d="M438 773l-11 -62h-134l-137 -779h134l-11 -62h-200l159 903h200z" glyph-name="bracketleft" horiz-adv-x="340" unicode="["/>
<glyph d="M451 -141h-66l-218 923h66z" glyph-name="backslash" horiz-adv-x="505" unicode="\"/>
<glyph d="M15 -131l11 62h134l137 779h-134l11 62h200l-159 -903h-200z" glyph-name="bracketright" horiz-adv-x="340" unicode="]"/>
<glyph d="M117 401l230 302h59l124 -302h-69l-95 238l-180 -238h-69z" glyph-name="asciicircum" horiz-adv-x="505" unicode="^"/>
<glyph d="M473 -135h-445l10 56h445z" glyph-name="underscore" horiz-adv-x="549" unicode="_"/>
<glyph d="M275 727l64 -159h-60l-88 159h84z" glyph-name="grave" horiz-adv-x="302" unicode="`"/>
<glyph d="M442 311l3 18q18 95 -63 118q-22 6 -50 6q-88 -1 -163 -71l-30 45q91 87 209 88q121 0 156 -84q18 -45 8 -104l-58 -327h-64l16 90q-69 -93 -180 -101q-9 -1 -18 -1q-84 0 -120 55q-24 37 -15 85q17 100 146 138q18 5 37 9zM227 48q84 0 148 66q42 46 51 98l8 42 l-175 -33q-100 -21 -117 -81q-1 -5 -2 -9q-9 -51 38 -73q21 -10 49 -10z" glyph-name="a" horiz-adv-x="535" unicode="a"/>
<glyph d="M340 51q87 0 154 71q52 56 64 129q18 100 -42 159q-42 42 -105 42q-88 0 -152 -71q-48 -53 -62 -130q-21 -117 51 -172q39 -28 92 -28zM171 88l-16 -88h-64l124 703h67l-50 -286q51 71 146 92q28 6 55 6q104 0 161 -80q52 -76 33 -184q-22 -122 -117 -199 q-79 -64 -170 -64q-93 0 -145 60q-16 19 -24 40z" glyph-name="b" horiz-adv-x="636" unicode="b"/>
<glyph d="M495 137l39 -42q-81 -92 -196 -105q-16 -2 -31 -2q-110 0 -172 80q-58 77 -40 184q22 118 119 196q86 67 186 67q124 -1 180 -100l-54 -44q-46 79 -137 80q-95 0 -164 -77q-48 -53 -61 -122q-17 -102 44 -160q44 -40 109 -40q103 1 178 85z" glyph-name="c" horiz-adv-x="552" unicode="c"/>
<glyph d="M314 51q91 0 155 73q44 53 58 127q22 118 -51 172q-38 29 -91 29q-90 0 -157 -75q-48 -55 -62 -126q-17 -102 43 -160q43 -40 105 -40zM481 0l16 88q-54 -72 -149 -94q-29 -6 -56 -6q-103 0 -160 79q-54 77 -35 184q22 122 118 200q79 64 170 64q95 0 145 -61 q14 -17 22 -37l50 286h67l-124 -703h-64z" glyph-name="d" horiz-adv-x="636" unicode="d"/>
<glyph d="M397 515q115 0 165 -83q36 -62 23 -144q-4 -22 -13 -49h-407q-12 -103 57 -156q44 -32 104 -32q96 1 172 73l33 -46q-95 -90 -218 -90q-119 0 -181 83q-55 75 -36 180q21 122 118 199q83 65 183 65zM385 453q-93 0 -159 -72q-34 -38 -49 -86h342l1 4q12 90 -53 132 q-35 22 -82 22z" glyph-name="e" horiz-adv-x="585" unicode="e"/>
<glyph d="M125 0l78 444h-78l11 59h78l10 61q17 99 100 135q35 16 76 16q39 -1 61 -13l-11 -60q-20 12 -53 12q-76 0 -100 -68q-4 -11 -6 -23l-10 -60h128l-11 -59h-128l-78 -444h-67z" glyph-name="f" horiz-adv-x="338" unicode="f"/>
<glyph d="M225 -212q-136 0 -181 66q-22 34 -14 77q12 68 95 108q5 2 9 4q-28 24 -21 63q8 42 63 75q-67 44 -66 124q1 15 3 29q16 86 94 140q61 41 133 41q39 0 69 -12h181l-11 -59h-96q30 -46 20 -110q-17 -86 -95 -140q-61 -41 -132 -41q-31 0 -52 7q-39 -20 -45 -42 q-1 -2 -1 -4q-5 -29 24 -37q7 -2 15 -2h145q91 0 123 -59q18 -33 10 -76q-14 -75 -105 -118q-72 -34 -165 -34zM180 334q-11 -62 36 -97q30 -22 71 -22q69 0 117 54q26 30 32 65q12 61 -34 97q-31 23 -73 23q-75 0 -121 -59q-21 -28 -28 -61zM99 -65q-11 -51 55 -73 q35 -12 83 -12q121 0 171 52q15 18 19 37q10 53 -45 70q-18 5 -39 5h-158q-77 -27 -86 -79z" glyph-name="g" horiz-adv-x="540" unicode="g"/>
<glyph d="M158 0h-67l124 703h67l-51 -290q72 101 194 102q98 0 139 -74q29 -55 16 -131l-55 -310h-67l54 307q16 93 -46 129q-28 16 -65 16q-92 0 -152 -80q-34 -47 -44 -104z" glyph-name="h" horiz-adv-x="608" unicode="h"/>
<glyph d="M91 0l89 503h67l-89 -503h-67zM249 711q31 0 40 -27q3 -11 1 -22q-6 -32 -38 -45q-10 -4 -20 -4q-31 0 -39 27q-3 11 -1 22q6 33 38 45q10 4 19 4z" glyph-name="i" horiz-adv-x="249" unicode="i"/>
<glyph d="M261 503l-99 -558q-22 -124 -119 -151q-24 -6 -49 -6q-33 0 -56 11l10 62q24 -11 52 -11q69 0 91 75q2 10 4 19l99 559h67zM263 711q31 0 40 -27q3 -11 1 -22q-6 -32 -38 -45q-10 -4 -20 -4q-31 0 -39 27q-3 11 -1 22q6 33 38 45q10 4 19 4z" glyph-name="j" horiz-adv-x="265" unicode="j"/>
<glyph d="M91 0l124 703h67l-83 -472l288 272h82l-218 -207l149 -296h-79l-123 250l-115 -111l-25 -139h-67z" glyph-name="k" horiz-adv-x="514" unicode="k"/>
<glyph d="M103 100l106 603h67l-104 -591q-9 -61 40 -62q18 0 32 5l-11 -61q-18 -6 -39 -6q-90 0 -93 79q-1 16 2 33z" glyph-name="l" horiz-adv-x="272" unicode="l"/>
<glyph d="M158 0h-67l89 503h65l-17 -95q71 106 197 107q104 0 142 -81q9 -19 13 -39q69 94 152 113q28 7 60 7q101 0 141 -77q26 -53 14 -128l-55 -310h-67l54 307q16 93 -46 129q-28 16 -65 16q-89 0 -150 -81q-37 -49 -47 -108l-46 -263h-67l54 307q16 93 -46 129q-28 16 -65 16 q-89 0 -150 -81q-37 -49 -47 -108z" glyph-name="m" horiz-adv-x="975" unicode="m"/>
<glyph d="M91 0l89 503h65l-17 -95q71 106 197 107q101 0 141 -77q26 -53 14 -128l-55 -310h-67l54 307q16 93 -46 129q-28 16 -65 16q-89 0 -150 -81q-37 -49 -47 -108l-46 -263h-67z" glyph-name="n" horiz-adv-x="608" unicode="n"/>
<glyph d="M401 515q116 0 176 -83q54 -76 35 -181q-19 -118 -116 -195q-85 -68 -188 -68q-118 0 -178 86q-50 74 -34 177q22 120 119 197q84 67 186 67zM389 450q-97 0 -166 -79q-46 -53 -58 -120q-17 -95 40 -154q44 -45 114 -45q97 0 166 79q46 53 58 120q17 95 -40 154 q-44 45 -114 45z" glyph-name="o" horiz-adv-x="620" unicode="o"/>
<glyph d="M411 452q-88 0 -152 -70q-48 -53 -62 -130q-21 -117 51 -172q39 -29 92 -29q89 0 155 73q50 55 62 127q18 102 -42 160q-42 41 -104 41zM244 503l-16 -88q61 78 161 96q22 4 44 4q104 0 160 -80q52 -76 33 -183q-22 -122 -116 -200q-79 -64 -170 -64q-93 0 -143 58 q-16 18 -24 39l-50 -285h-67l124 703h64z" glyph-name="p" horiz-adv-x="635" unicode="p"/>
<glyph d="M384 452q-90 0 -157 -75q-48 -54 -61 -126q-17 -102 43 -160q42 -40 104 -40q91 0 155 73q44 53 58 128q22 119 -51 172q-39 28 -91 28zM553 415l16 88h64l-124 -703h-67l50 285q-50 -69 -145 -91q-28 -6 -56 -6q-102 0 -159 79q-54 77 -35 185q22 122 118 200 q79 63 169 63q98 0 149 -66q13 -17 20 -34z" glyph-name="q" horiz-adv-x="634" unicode="q"/>
<glyph d="M246 503l-18 -99q49 94 144 109q15 2 29 2q5 0 9.5 -0.5t11.5 -1.5l6 -1l-11 -66q-8 1 -22 1q-101 0 -155 -89q-26 -43 -36 -99l-46 -259h-67l89 503h66z" glyph-name="r" horiz-adv-x="370" unicode="r"/>
<glyph d="M233 -12q-102 0 -156 70q-12 17 -17 31l56 39q32 -63 100 -76q14 -2 28 -2q76 0 110 46q11 15 14 32q7 42 -43 68q-21 11 -67 27q-103 35 -126 83q-14 30 -7 67q11 73 89 114q52 28 112 28q92 0 138 -69q9 -13 13 -24l-56 -39q-22 53 -75 67q-16 4 -32 4q-76 0 -108 -47 q-10 -15 -13 -32q-8 -44 49 -72q21 -10 54 -21q96 -35 123 -72q24 -33 16 -81q-15 -76 -93 -116q-50 -25 -109 -25z" glyph-name="s" horiz-adv-x="464" unicode="s"/>
<glyph d="M193 444h-78l11 59h79l24 139h67l-24 -139h131l-11 -59h-131l-52 -297q-7 -90 75 -95q32 1 62 14l-12 -64q-36 -14 -75 -14q-96 0 -117 76q-9 34 -2 77z" glyph-name="t" horiz-adv-x="368" unicode="t"/>
<glyph d="M272 -12q-101 0 -141 77q-26 53 -14 128l55 310h67l-54 -307q-16 -93 46 -129q28 -16 65 -16q90 0 150 81q36 50 46 108l47 263h67l-89 -503h-65l17 95q-71 -106 -197 -107z" glyph-name="u" horiz-adv-x="608" unicode="u"/>
<glyph d="M107 503h72l92 -415l238 415h72l-295 -503h-62z" glyph-name="v" horiz-adv-x="510" unicode="v"/>
<glyph d="M192 0l-82 503h71l63 -413l213 412h69l67 -412l209 413h71l-260 -503h-68l-70 408l-215 -408h-68z" glyph-name="w" horiz-adv-x="805" unicode="w"/>
<glyph d="M23 0l224 261l-120 242h79l95 -198l165 198h79l-206 -242l132 -261h-80l-106 215l-182 -215h-80z" glyph-name="x" horiz-adv-x="496" unicode="x"/>
<glyph d="M0 -197l11 63q28 -18 67 -18q49 0 89 59q8 12 17 26l42 72l-120 498h74l93 -416l239 416h73l-355 -605q-53 -93 -127 -107q-16 -3 -33 -3q-44 0 -70 15z" glyph-name="y" horiz-adv-x="514" unicode="y"/>
<glyph d="M51 0l8 44l348 399h-277l11 60h366l-8 -44l-349 -399h290l-11 -60h-378z" glyph-name="z" horiz-adv-x="475" unicode="z"/>
<glyph d="M432 778l-10 -59q-72 0 -97 -36q-15 -22 -23 -61l-29 -164q-19 -107 -77 -132q-7 -2 -12 -4q61 -22 41 -136l-29 -165q-12 -72 25 -89q19 -8 50 -8h11l-11 -59q-10 -1 -25 -1q-143 2 -116 158l29 164q13 74 -14 93q-18 11 -53 12l11 62q64 1 87 46q10 22 17 59l29 163 q30 157 172 158q16 0 24 -1z" glyph-name="braceleft" horiz-adv-x="336" unicode="{"/>
<glyph d="M143 -140h-66l163 923h66z" glyph-name="bar" horiz-adv-x="270" unicode="|"/>
<glyph d="M17 -135l11 59q75 0 100 40q14 21 20 57l29 164q19 107 77 132q7 2 12 4q-59 19 -43 124l2 12l29 165q12 74 -28 90q-18 7 -47 7h-11l10 59q10 1 25 1q119 0 122 -103q0 -25 -5 -55l-29 -164q-13 -74 14 -93q18 -11 52 -12l-11 -62q-63 -1 -85 -42q-11 -22 -18 -63 l-29 -163q-30 -157 -172 -158q-17 0 -25 1z" glyph-name="braceright" horiz-adv-x="336" unicode="}"/>
<glyph d="M169 263l-46 16q13 68 71 103q33 19 68 19q44 0 96 -39q44 -33 67 -38q9 -2 18 -2q46 0 72 53q7 15 10 30l47 -16q-13 -68 -72 -103q-32 -19 -67 -19q-45 0 -96 38q-44 33 -66 38q-11 2 -20 2q-45 0 -72 -53q-7 -15 -10 -29z" glyph-name="asciitilde" horiz-adv-x="572" unicode="~"/>
<glyph glyph-name="uni00A0" horiz-adv-x="262" unicode=" "/>
<glyph d="M220 323l-84 -523h-75l99 523h60zM225 521q32 0 42 -28q3 -11 1 -23q-6 -33 -39 -47q-11 -4 -22 -4q-31 0 -40 28q-4 12 -2 23q6 32 37 46q12 5 23 5z" glyph-name="exclamdown" horiz-adv-x="266" unicode="¡"/>
<glyph d="M274 -18l19 108q-102 13 -152 97q-43 73 -27 165q21 118 118 195q70 56 153 66l19 107h66l-19 -107q100 -14 148 -98l-54 -44q-46 79 -138 80q-95 0 -164 -77q-47 -54 -60 -122q-17 -102 44 -160q44 -40 109 -40q103 1 178 85l38 -42q-77 -90 -189 -105h-4l-19 -108h-66z " glyph-name="cent" horiz-adv-x="558" unicode="¢"/>
<glyph d="M62 0l11 64h19q39 0 56 51q3 10 5 19l31 180h-66l11 60h66l25 141q18 101 103 159q60 41 131 41q126 -1 173 -112l-60 -40q-32 85 -125 86q-73 0 -121 -59q-26 -33 -33 -75l-25 -141h204l-11 -60h-204l-32 -181q-10 -51 -38 -69h355l-11 -64h-464z" glyph-name="sterling" horiz-adv-x="574" unicode="£"/>
<glyph d="M119 77l-39 47l114 97q-34 59 -21 135q14 77 69 135l-80 97l54 47l80 -98q70 45 143 45q76 -1 127 -45l115 98l38 -47l-115 -98q33 -59 20 -134q-14 -77 -68 -134l81 -99l-55 -46l-81 98q-70 -45 -142 -45q-76 1 -126 44zM239 356q-14 -77 38 -126q38 -36 93 -36 q81 0 141 64q40 44 50 98q12 78 -42 126q-38 34 -92 34q-81 0 -140 -65q-38 -43 -48 -95z" glyph-name="currency" horiz-adv-x="673" unicode="¤"/>
<glyph d="M314 170h-177l10 59h177l16 85h-178l11 59h147l-162 330h79l150 -312l261 312h79l-278 -330h150l-11 -59h-179l-16 -85h180l-10 -59h-180l-30 -170h-69z" glyph-name="yen" horiz-adv-x="638" unicode="¥"/>
<glyph d="M137 200h66l-60 -340h-66zM246 443h-66l60 340h66z" glyph-name="brokenbar" horiz-adv-x="270" unicode="¦"/>
<glyph d="M244 -112q-108 0 -168 75q-15 18 -25 39l59 37q42 -87 144 -88q75 0 117 45q19 21 23 45q8 46 -34 79q-25 20 -85 52q-115 62 -141 113q-15 32 -8 74q10 53 68 98q-37 43 -26 103q14 79 94 124q55 31 121 31q108 0 159 -74q12 -18 19 -38l-59 -36q-34 84 -130 85 q-78 0 -117 -49q-15 -19 -19 -41q-8 -45 32 -77q26 -21 94 -56q114 -61 136 -116q12 -31 5 -70q-11 -55 -67 -99q36 -45 26 -101q-14 -78 -94 -123q-57 -32 -124 -32zM316 373q-56 30 -80 47q-36 -25 -41 -59q-7 -43 35 -77q27 -21 83 -52q29 -15 81 -49q34 25 40 58 q8 49 -42 87q-28 21 -76 45z" glyph-name="section" horiz-adv-x="521" unicode="§"/>
<glyph d="M295 695q31 0 39 -27q3 -11 1 -22q-6 -32 -38 -45q-10 -4 -20 -4q-31 0 -39 27q-3 11 -1 22q6 32 38 45q10 4 20 4zM511 695q31 0 39 -27q3 -11 1 -22q-6 -32 -38 -45q-10 -4 -20 -4q-31 0 -39 27q-3 11 -1 22q6 32 38 45q10 4 20 4z" glyph-name="dieresis" horiz-adv-x="560" unicode="¨"/>
<glyph d="M118 351q27 150 147 255q125 107 275 109q141 0 228 -95q89 -97 74 -239q-1 -16 -4 -30q-25 -148 -146 -253q-120 -105 -268 -110h-12q-146 0 -231 99q-86 101 -65 251q1 7 2 13zM183 351q-23 -135 53 -223q70 -78 187 -78q133 0 237 95q92 86 113 206q23 133 -53 221 q-71 81 -191 81q-129 0 -231 -94q-94 -87 -115 -208zM588 265l36 -38q-65 -74 -163 -81q-9 -1 -18 -1q-94 0 -143 70q-39 59 -25 137q18 100 102 160q65 46 139 46q96 -1 145 -75l-48 -41q-41 55 -107 56q-79 0 -131 -65q-28 -36 -37 -81q-15 -79 37 -121q33 -26 78 -26 q75 1 135 60z" glyph-name="copyright" horiz-adv-x="832" unicode="©"/>
<glyph d="M127 319l10 55h264l-10 -55h-264zM369 608l1 6q8 36 -29 47q-10 3 -22 3q-44 0 -87 -35l-24 37q42 42 106 48q8 1 15 1q79 0 97 -55q6 -22 2 -48l-31 -178h-55l7 44q-23 -37 -72 -47q-13 -3 -25 -3q-57 0 -74 40q-7 18 -4 37q11 59 90 80q6 2 12 3zM265 477q47 0 78 38 q14 17 17 35l2 14l-79 -17q-46 -10 -51 -38q-5 -25 21 -31q6 -1 12 -1z" glyph-name="ordfeminine" horiz-adv-x="409" unicode="ª"/>
<glyph d="M349 61l-86 190l153 191h69l-153 -191l86 -190h-69zM91 251l153 191h69l-153 -191l86 -190h-69z" glyph-name="guillemotleft" horiz-adv-x="464" unicode="«"/>
<glyph d="M133 321l11 62h429l-33 -183h-63l22 121h-366z" glyph-name="logicalnot" horiz-adv-x="589" unicode="¬"/>
<glyph d="M115 240l11 62h290l-11 -62h-290z" glyph-name="uni00AD" horiz-adv-x="436" unicode="­"/>
<glyph d="M315 380q-95 0 -140 71q-32 54 -21 125q16 94 97 151q62 43 133 43q93 0 138 -69q35 -54 23 -125q-15 -94 -97 -152q-62 -44 -133 -44zM200 576q-15 -82 39 -125q34 -27 84 -27q83 0 137 67q30 38 39 85q15 78 -38 122q-35 28 -85 28q-85 0 -139 -68q-28 -37 -37 -82z M266 483l32 183h81q37 0 47 -32q4 -13 1 -27q-7 -36 -44 -52l30 -72h-45l-24 65h-26l-12 -65h-40zM332 632l-8 -50h32q25 2 30 25q-1 21 -22 25h-32z" glyph-name="registered" horiz-adv-x="495" unicode="®"/>
<glyph d="M167 619l10 55h259l-10 -55h-259z" glyph-name="macron" horiz-adv-x="375" unicode="¯"/>
<glyph d="M270 428q-72 0 -105 57q-20 38 -13 86q12 73 79 116q43 28 90 28q70 0 103 -55q23 -40 15 -89q-12 -71 -78 -115q-44 -28 -91 -28zM281 486q55 0 85 47q11 18 15 38q10 54 -32 77q-17 9 -38 9q-54 0 -84 -47q-11 -18 -15 -39q-10 -56 33 -77q16 -8 36 -8z" glyph-name="degree" horiz-adv-x="389" unicode="°"/>
<glyph d="M341 400h-197l10 62h197l33 187h64l-33 -187h197l-10 -62h-197l-33 -186h-64zM84 60l11 62h458l-11 -62h-458z" glyph-name="plusminus" horiz-adv-x="604" unicode="±"/>
<glyph d="M287 660q-55 -1 -89 -57l-43 30q55 81 143 82q80 0 101 -57q9 -25 4 -54q-11 -61 -88 -112q-10 -7 -55 -34q-70 -43 -83 -69q-1 -4 -2 -6h197l-10 -54h-254q-2 23 1 35q11 62 87 114q18 12 42 27q67 42 82 57q18 20 23 42q6 43 -34 53q-11 3 -22 3z" glyph-name="twosuperior" horiz-adv-x="350" unicode="²"/>
<glyph d="M107 398l52 30q16 -56 73 -57q46 0 74 36q11 15 14 32q9 47 -35 64q-16 6 -36 6q-24 0 -39 -4l7 41l112 104h-158l9 53h238l-7 -39l-115 -107q69 -13 83 -71q4 -22 0 -46q-13 -67 -77 -102q-38 -21 -81 -21q-83 0 -112 75z" glyph-name="threesuperior" horiz-adv-x="349" unicode="³"/>
<glyph d="M163 568l120 159h84l-144 -159h-60z" glyph-name="acute" horiz-adv-x="302" unicode="´"/>
<glyph d="M122 -200h-66l67 379q1 2 1 7q1 4 1 6l55 310h67l-55 -307q-16 -94 48 -130q28 -15 64 -15q90 0 150 81q36 50 46 108l47 263h67l-89 -503h-65l17 95q-71 -106 -197 -107q-73 1 -117 44z" glyph-name="mu" horiz-adv-x="616" unicode="µ"/>
<glyph d="M355 317h-45q-101 0 -154 64q-42 54 -29 128q18 101 112 156q65 38 139 38h255l-142 -803h-62l132 744h-86l-132 -744h-62z" glyph-name="paragraph" horiz-adv-x="621" unicode="¶"/>
<glyph d="M123 303q6 32 37 45q12 5 22 5q32 0 41 -28q3 -11 1 -22q-5 -32 -37 -46q-12 -5 -23 -5q-31 0 -40 29q-2 11 -1 22z" glyph-name="periodcentered" horiz-adv-x="241" unicode="·"/>
<glyph d="M148 0l-25 -62q53 -9 62 -49q2 -12 0 -25q-12 -60 -78 -77q-19 -5 -39 -5q-36 0 -48 5l9 49q36 -5 43 -5q50 1 56 33q5 27 -33 33q-8 1 -17 1h-5t-5 -0.5t-4 -0.5h-2l49 120z" glyph-name="cedilla" horiz-adv-x="267" unicode="¸"/>
<glyph d="M339 329h-227l10 54h85l41 233q-43 -19 -93 -22l9 55q75 5 107 48h49l-55 -314h84z" glyph-name="onesuperior" horiz-adv-x="314" unicode="¹"/>
<glyph d="M290 428q-72 0 -104 57q-20 38 -13 86q13 74 79 117q43 27 89 27q73 0 105 -58q20 -38 13 -86q-12 -72 -77 -115q-44 -28 -92 -28zM301 486q55 0 85 47q11 18 15 38q10 54 -32 77q-17 9 -38 9q-53 0 -83 -46q-12 -19 -16 -40q-10 -55 32 -77q17 -8 37 -8zM139 321l9 56 h266l-9 -56h-266z" glyph-name="ordmasculine" horiz-adv-x="430" unicode="º"/>
<glyph d="M310 61h-69l152 191l-85 190h69l85 -190zM138 61h-69l152 191l-85 190h69l85 -190z" glyph-name="guillemotright" horiz-adv-x="466" unicode="»"/>
<glyph d="M439 87l7 36l228 252h48l-42 -236h56l-9 -52h-56l-15 -86h-56l15 86h-176zM185 0h-65l638 703h64zM343 329h-227l10 54h85l41 233q-43 -19 -93 -22l9 55q75 5 107 48h49l-55 -314h84zM523 139h101l25 139z" glyph-name="onequarter" horiz-adv-x="761" unicode="¼"/>
<glyph d="M761 1h-254q-2 23 1 35q11 62 87 114q18 12 42 27q67 42 82 57q18 20 23 42q6 43 -34 53q-11 3 -22 3q-55 -1 -89 -57l-43 30q55 81 143 82q80 0 101 -57q9 -25 4 -54q-11 -61 -88 -112q-10 -7 -55 -34q-70 -43 -83 -69q-1 -4 -2 -6h197zM185 0h-65l638 703h64zM343 329 h-227l10 54h85l41 233q-43 -19 -93 -22l9 55q75 5 107 48h49l-55 -314h84z" glyph-name="onehalf" horiz-adv-x="807" unicode="½"/>
<glyph d="M441 87l7 36l228 252h48l-42 -236h56l-9 -52h-56l-15 -86h-56l15 86h-176zM224 317q-83 0 -112 75l-2 6l52 30q16 -56 73 -57q46 0 74 36q11 15 14 32q9 47 -35 64q-16 6 -36 6q-24 0 -39 -4l7 41l112 104h-158l9 53h238l-7 -39l-115 -107q69 -13 83 -71q4 -22 0 -46 q-13 -67 -77 -102q-38 -21 -81 -21zM187 0h-65l638 703h64zM525 139h101l25 139z" glyph-name="threequarters" horiz-adv-x="765" unicode="¾"/>
<glyph d="M39 -30q13 80 90 143q12 11 38 30q65 48 86 81q17 27 23 57l8 47h68l-9 -48q-14 -83 -91 -147q-12 -11 -38 -30q-64 -48 -84 -80q-16 -25 -21 -52q-12 -69 40 -101q28 -17 66 -17q97 1 161 84l43 -38q-66 -85 -163 -106q-26 -5 -52 -5q-107 0 -149 72q-27 47 -16 110z M352 515q31 0 39 -27q3 -11 1 -22q-6 -33 -38 -45q-10 -4 -19 -4q-31 0 -40 27q-3 11 -1 22q6 32 38 45q10 4 20 4z" glyph-name="questiondown" horiz-adv-x="469" unicode="¿"/>
<glyph d="M14 0l401 703h73l152 -703h-71l-48 219h-309l-126 -219h-72zM246 283h263l-72 339zM332 927h84l64 -159h-60z" glyph-name="Agrave" horiz-adv-x="654" unicode="À"/>
<glyph d="M14 0l401 703h73l152 -703h-71l-48 219h-309l-126 -219h-72zM246 283h263l-72 339zM503 768h-60l120 159h84z" glyph-name="Aacute" horiz-adv-x="654" unicode="Á"/>
<glyph d="M14 0l401 703h73l152 -703h-71l-48 219h-309l-126 -219h-72zM246 283h263l-72 339zM377 753h-66l150 174h59l90 -174h-66l-63 124z" glyph-name="Acircumflex" horiz-adv-x="654" unicode="Â"/>
<glyph d="M14 0l401 703h73l152 -703h-71l-48 219h-309l-126 -219h-72zM437 622l-191 -339h263zM361 779l-45 16q13 77 74 98q17 5 35 5q32 0 65 -34q30 -27 45 -29q36 0 53 59q1 4 2 7l45 -16q-14 -76 -73 -97q-18 -6 -36 -6q-32 0 -65 35q-31 27 -45 29q-36 0 -53 -60 q-1 -4 -2 -7z" glyph-name="Atilde" horiz-adv-x="654" unicode="Ã"/>
<glyph d="M14 0l401 703h73l152 -703h-71l-48 219h-309l-126 -219h-72zM246 283h263l-72 339zM575 797q-31 0 -40 27q-3 11 -1 22q6 32 38 45q10 4 20 4q31 0 39 -27q3 -11 1 -22q-6 -33 -38 -45q-10 -4 -19 -4zM360 797q-31 0 -40 27q-3 11 -1 22q6 32 38 45q10 4 20 4 q31 0 39 -27q3 -11 1 -22q-6 -33 -38 -45q-10 -4 -19 -4z" glyph-name="Adieresis" horiz-adv-x="654" unicode="Ä"/>
<glyph d="M14 0l401 703h73l152 -703h-71l-48 219h-309l-126 -219h-72zM437 622l-191 -339h263zM459 752q-55 0 -76 45q-10 25 -5 54q8 53 58 83q29 17 58 17q55 0 76 -46q11 -25 7 -54q-11 -57 -64 -85q-26 -14 -54 -14zM426 851q-6 -35 24 -48q9 -3 18 -3q39 0 56 35q3 8 5 16 q6 40 -27 50q-8 2 -16 2q-37 0 -54 -33q-4 -10 -6 -19z" glyph-name="Aring" horiz-adv-x="654" unicode="Å"/>
<glyph d="M-6 0l484 703h503l-11 -64h-330l-45 -252h271l-11 -64h-271l-46 -259h344l-11 -64h-413l43 242h-268l-167 -242h-72zM507 639l-231 -334h236l59 334h-64z" glyph-name="AE" horiz-adv-x="925" unicode="Æ"/>
<glyph d="M337 -103l38 93q-137 15 -210 117q-72 103 -47 244q28 155 149 260q121 104 271 104q172 -1 252 -130l-58 -48q-65 109 -204 110q-131 0 -231 -95q-86 -84 -107 -200q-23 -135 53 -220q68 -76 183 -76q148 1 254 123l44 -43q-130 -143 -306 -148l-20 -50q53 -9 62 -49 q2 -12 0 -25q-12 -60 -78 -77q-19 -5 -39 -5q-36 0 -48 5l9 49q36 -5 43 -5q50 1 56 33q5 27 -33 33q-8 1 -17 1h-5t-5 -0.5t-4 -0.5h-2z" glyph-name="Ccedilla" horiz-adv-x="735" unicode="Ç"/>
<glyph d="M105 0l124 703h425l-11 -63h-356l-45 -253h296l-11 -64h-296l-46 -259h370l-11 -64h-439zM409 927l64 -159h-60l-88 159h84z" glyph-name="Egrave" horiz-adv-x="598" unicode="È"/>
<glyph d="M105 0l124 703h425l-11 -63h-356l-45 -253h296l-11 -64h-296l-46 -259h370l-11 -64h-439zM428 768l120 159h84l-144 -159h-60z" glyph-name="Eacute" horiz-adv-x="598" unicode="É"/>
<glyph d="M544 0h-439l124 703h425l-11 -63h-356l-45 -253h296l-11 -64h-296l-46 -259h370zM368 753h-66l150 174h59l90 -174h-66l-63 124z" glyph-name="Ecircumflex" horiz-adv-x="598" unicode="Ê"/>
<glyph d="M105 0l124 703h425l-11 -63h-356l-45 -253h296l-11 -64h-296l-46 -259h370l-11 -64h-439zM370 895q31 0 39 -27q3 -11 1 -22q-6 -33 -38 -45q-10 -4 -19 -4q-31 0 -40 27q-3 11 -1 22q6 32 38 45q10 4 20 4zM586 895q31 0 39 -27q3 -11 1 -22q-6 -33 -38 -45 q-10 -4 -19 -4q-31 0 -40 27q-3 11 -1 22q6 32 38 45q10 4 20 4z" glyph-name="Edieresis" horiz-adv-x="598" unicode="Ë"/>
<glyph d="M100 0l124 703h69l-124 -703h-69zM225 927l64 -159h-60l-88 159h84z" glyph-name="Igrave" horiz-adv-x="274" unicode="Ì"/>
<glyph d="M105 0l124 703h69l-124 -703h-69zM254 768l120 159h84l-144 -159h-60z" glyph-name="Iacute" horiz-adv-x="277" unicode="Í"/>
<glyph d="M175 0h-69l124 703h69zM125 753l150 174h59l90 -174h-66l-63 124l-104 -124h-66z" glyph-name="Icircumflex" horiz-adv-x="282" unicode="Î"/>
<glyph d="M106 0l124 703h69l-124 -703h-69zM192 895q31 0 39 -27q3 -11 1 -22q-6 -33 -38 -45q-10 -4 -19 -4q-31 0 -40 27q-3 11 -1 22q6 32 38 45q10 4 20 4zM406 895q31 0 39 -27q3 -11 1 -22q-6 -33 -38 -45q-10 -4 -19 -4q-31 0 -40 27q-3 11 -1 22q6 32 38 45q10 4 20 4z " glyph-name="Idieresis" horiz-adv-x="280" unicode="Ï"/>
<glyph d="M170 320h-80l12 64h80l56 319h233q145 0 230 -98q84 -97 64 -239l-2 -14q-25 -145 -143 -247q-122 -104 -273 -105h-233zM445 320h-206l-45 -256h156q130 0 231 91q89 82 110 197q23 128 -54 212q-70 75 -185 75h-156l-45 -255h206z" glyph-name="Eth" horiz-adv-x="757" unicode="Ð"/>
<glyph d="M173 0h-68l124 703h58l325 -576l102 576h68l-124 -703h-58l-325 576zM414 779l-45 16q13 77 74 98q17 5 35 5q32 0 65 -34q30 -27 45 -29q36 0 53 59q1 4 2 7l45 -16q-14 -76 -73 -97q-18 -6 -36 -6q-32 0 -65 35q-31 27 -45 29q-36 0 -53 -60q-1 -4 -2 -7z" glyph-name="Ntilde" horiz-adv-x="763" unicode="Ñ"/>
<glyph d="M543 715q147 0 233 -98q88 -101 66 -252q-1 -7 -2 -13q-26 -152 -148 -257q-126 -105 -277 -107q-150 0 -235 101q-87 103 -63 258q1 3 1 5q28 154 150 259q123 104 275 104zM531 647q-126 0 -228 -91q-93 -85 -114 -204q-23 -131 53 -217q70 -79 185 -79q126 0 228 92 q93 85 114 204q23 131 -54 217q-69 78 -184 78zM511 927l64 -159h-60l-88 159h84z" glyph-name="Ograve" unicode="Ò"/>
<glyph d="M543 715q147 0 233 -98q88 -101 66 -252q-1 -7 -2 -13q-26 -152 -148 -257q-126 -105 -277 -107q-150 0 -235 101q-87 103 -63 258q1 3 1 5q28 154 150 259q123 104 275 104zM531 647q-126 0 -228 -91q-93 -85 -114 -204q-23 -131 53 -217q70 -79 185 -79q126 0 228 92 q93 85 114 204q23 131 -54 217q-69 78 -184 78zM531 768l120 159h84l-144 -159h-60z" glyph-name="Oacute" unicode="Ó"/>
<glyph d="M415 -12q-150 0 -235 101q-87 103 -63 258q1 3 1 5q28 154 150 259q123 104 275 104q147 0 233 -98q88 -101 66 -252q-1 -7 -2 -13q-26 -152 -148 -257q-126 -105 -277 -107zM189 352q-23 -131 53 -217q70 -79 185 -79q126 0 228 92q93 85 114 204q23 131 -54 217 q-69 78 -184 78q-126 0 -228 -91q-93 -85 -114 -204zM467 753h-66l150 174h59l90 -174h-66l-63 124z" glyph-name="Ocircumflex" unicode="Ô"/>
<glyph d="M543 715q147 0 233 -98q88 -101 66 -252q-1 -7 -2 -13q-26 -152 -148 -257q-126 -105 -277 -107q-150 0 -235 101q-87 103 -63 258q1 3 1 5q28 154 150 259q123 104 275 104zM531 647q-126 0 -228 -91q-93 -85 -114 -204q-23 -131 53 -217q70 -79 185 -79q126 0 228 92 q93 85 114 204q23 131 -54 217q-69 78 -184 78zM451 779l-45 16q13 77 74 98q17 5 35 5q32 0 65 -34q30 -27 45 -29q36 0 53 59q1 4 2 7l45 -16q-14 -76 -73 -97q-18 -6 -36 -6q-32 0 -65 35q-31 27 -45 29q-36 0 -53 -60q-1 -4 -2 -7z" glyph-name="Otilde" unicode="Õ"/>
<glyph d="M543 715q147 0 233 -98q88 -101 66 -252q-1 -7 -2 -13q-26 -152 -148 -257q-126 -105 -277 -107q-150 0 -235 101q-87 103 -63 258q1 3 1 5q28 154 150 259q123 104 275 104zM531 647q-126 0 -228 -91q-93 -85 -114 -204q-23 -131 53 -217q70 -79 185 -79q126 0 228 92 q93 85 114 204q23 131 -54 217q-69 78 -184 78zM467 895q31 0 39 -27q3 -11 1 -22q-6 -33 -38 -45q-10 -4 -19 -4q-31 0 -40 27q-3 11 -1 22q6 32 38 45q10 4 20 4zM683 895q31 0 39 -27q3 -11 1 -22q-6 -33 -38 -45q-10 -4 -19 -4q-31 0 -40 27q-3 11 -1 22q6 32 38 45 q10 4 20 4z" glyph-name="Odieresis" unicode="Ö"/>
<glyph d="M347 393l204 172l33 -42l-202 -172l142 -172l-50 -42l-142 172l-203 -172l-33 42l202 172l-142 172l50 42z" glyph-name="multiply" horiz-adv-x="556" unicode="×"/>
<glyph d="M117 -16l79 88q-107 105 -79 276q1 3 1 4q28 154 150 259q123 104 275 104q102 -1 182 -52l78 87l41 -31l-80 -89q105 -107 76 -278q-26 -152 -148 -257q-126 -105 -277 -107q-103 1 -179 51l-78 -87zM247 129l427 477q-60 41 -143 41q-126 0 -228 -91q-93 -85 -114 -204 q-23 -135 58 -223zM713 572l-426 -476q59 -40 140 -40q126 0 228 92q93 85 114 204q23 128 -51 214q-3 4 -5 6z" glyph-name="Oslash" unicode="Ø"/>
<glyph d="M360 -12q-126 0 -187 87q-50 74 -32 178l79 450h69l-78 -444q-20 -104 43 -163q46 -41 118 -41q111 0 181 88q39 51 52 116l78 444h69l-79 -450q-22 -123 -121 -199q-86 -66 -192 -66zM456 768l-88 159h84l64 -159h-60z" glyph-name="Ugrave" horiz-adv-x="724" unicode="Ù"/>
<glyph d="M360 -12q-126 0 -187 87q-50 74 -32 178l79 450h69l-78 -444q-20 -104 43 -163q46 -41 118 -41q111 0 181 88q39 51 52 116l78 444h69l-79 -450q-22 -123 -121 -199q-86 -66 -192 -66zM536 768h-60l120 159h84z" glyph-name="Uacute" horiz-adv-x="724" unicode="Ú"/>
<glyph d="M360 -12q-126 0 -187 87q-50 74 -32 178l79 450h69l-78 -444q-20 -104 43 -163q46 -41 118 -41q111 0 181 88q39 51 52 116l78 444h69l-79 -450q-22 -123 -121 -199q-86 -66 -192 -66zM346 753l150 174h59l90 -174h-66l-63 124l-104 -124h-66z" glyph-name="Ucircumflex" horiz-adv-x="724" unicode="Û"/>
<glyph d="M360 -12q-126 0 -187 87q-50 74 -32 178l79 450h69l-78 -444q-20 -104 43 -163q46 -41 118 -41q111 0 181 88q39 51 52 116l78 444h69l-79 -450q-22 -123 -121 -199q-86 -66 -192 -66zM610 797q-31 0 -40 27q-3 11 -1 22q6 32 38 45q10 4 20 4q31 0 39 -27q3 -11 1 -22 q-6 -33 -38 -45q-10 -4 -19 -4zM395 797q-31 0 -40 27q-3 11 -1 22q6 32 38 45q10 4 20 4q31 0 39 -27q3 -11 1 -22q-6 -33 -38 -45q-10 -4 -19 -4z" glyph-name="Udieresis" horiz-adv-x="724" unicode="Ü"/>
<glyph d="M321 328l-184 375h79l150 -312l261 312h79l-316 -375l-58 -328h-69zM470 768h-60l120 159h84z" glyph-name="Yacute" horiz-adv-x="595" unicode="Ý"/>
<glyph d="M209 199h170q84 0 138 65q31 38 40 87q15 83 -41 127q-35 26 -84 26h-169zM198 138l-24 -138h-69l124 703h69l-24 -138h173q94 0 146 -69q45 -61 31 -144q-18 -100 -105 -164q-69 -50 -147 -50h-174z" glyph-name="Thorn" horiz-adv-x="612" unicode="Þ"/>
<glyph d="M162 0h-67l94 531q18 101 115 153q59 31 124 31q104 0 146 -67q23 -39 16 -87q-9 -52 -69 -99q-1 -1 -56 -41q-57 -43 -58 -44q-17 -17 -20 -32q-4 -26 45 -58q8 -5 39 -23q79 -49 94 -92q9 -25 4 -54q-15 -78 -95 -113q-40 -17 -83 -17q-91 0 -138 62q-10 15 -14 27 l55 39q25 -51 80 -63q14 -3 28 -3q58 0 86 39q9 14 12 30q7 35 -35 66q-7 5 -43 29q-68 43 -85 64q-23 29 -17 65q8 42 68 89q14 11 37 28q66 48 79 64q15 18 19 36q8 45 -34 73q-30 20 -74 20q-73 0 -122 -50q-31 -33 -38 -77z" glyph-name="germandbls" horiz-adv-x="602" unicode="ß"/>
<glyph d="M442 311l3 18q18 95 -63 118q-22 6 -50 6q-88 -1 -163 -71l-30 45q91 87 209 88q121 0 156 -84q18 -45 8 -104l-58 -327h-64l16 90q-69 -93 -180 -101q-9 -1 -18 -1q-84 0 -120 55q-24 37 -15 85q17 100 146 138q18 5 37 9zM227 48q84 0 148 66q42 46 51 98l8 42 l-175 -33q-100 -21 -117 -81q-1 -5 -2 -9q-9 -51 38 -73q21 -10 49 -10zM317 727l64 -159h-60l-88 159h84z" glyph-name="agrave" horiz-adv-x="535" unicode="à"/>
<glyph d="M442 311l3 18q18 95 -63 118q-22 6 -50 6q-88 -1 -163 -71l-30 45q91 87 209 88q121 0 156 -84q18 -45 8 -104l-58 -327h-64l16 90q-69 -93 -180 -101q-9 -1 -18 -1q-84 0 -120 55q-24 37 -15 85q17 100 146 138q18 5 37 9zM227 48q84 0 148 66q42 46 51 98l8 42 l-175 -33q-100 -21 -117 -81q-1 -5 -2 -9q-9 -51 38 -73q21 -10 49 -10zM329 568l120 159h84l-144 -159h-60z" glyph-name="aacute" horiz-adv-x="535" unicode="á"/>
<glyph d="M208 -12q-84 0 -120 55q-24 37 -15 85q17 100 146 138q18 5 37 9l186 36l3 18q18 95 -63 118q-22 6 -50 6q-88 -1 -163 -71l-30 45q91 87 209 88q121 0 156 -84q18 -45 8 -104l-58 -327h-64l16 90q-69 -93 -180 -101q-9 -1 -18 -1zM140 131q-9 -51 38 -73q21 -10 49 -10 q84 0 148 66q42 46 51 98l8 42l-175 -33q-100 -21 -117 -81q-1 -5 -2 -9zM202 553l150 174h59l90 -174h-66l-63 124l-104 -124h-66z" glyph-name="acircumflex" horiz-adv-x="535" unicode="â"/>
<glyph d="M442 311l3 18q18 95 -63 118q-22 6 -50 6q-88 -1 -163 -71l-30 45q91 87 209 88q121 0 156 -84q18 -45 8 -104l-58 -327h-64l16 90q-69 -93 -180 -101q-9 -1 -18 -1q-84 0 -120 55q-24 37 -15 85q17 100 146 138q18 5 37 9zM227 48q84 0 148 66q42 46 51 98l8 42 l-175 -33q-100 -21 -117 -81q-1 -5 -2 -9q-9 -51 38 -73q21 -10 49 -10zM244 579l-45 16q13 77 74 98q17 5 35 5q32 0 65 -34q30 -27 45 -29q36 0 53 59q1 4 2 7l45 -16q-14 -76 -73 -97q-18 -6 -36 -6q-32 0 -65 35q-31 27 -45 29q-36 0 -53 -60q-1 -4 -2 -7z" glyph-name="atilde" horiz-adv-x="535" unicode="ã"/>
<glyph d="M442 311l3 18q18 95 -63 118q-22 6 -50 6q-88 -1 -163 -71l-30 45q91 87 209 88q121 0 156 -84q18 -45 8 -104l-58 -327h-64l16 90q-69 -93 -180 -101q-9 -1 -18 -1q-84 0 -120 55q-24 37 -15 85q17 100 146 138q18 5 37 9zM227 48q84 0 148 66q42 46 51 98l8 42 l-175 -33q-100 -21 -117 -81q-1 -5 -2 -9q-9 -51 38 -73q21 -10 49 -10zM265 695q31 0 39 -27q3 -11 1 -22q-6 -32 -38 -45q-10 -4 -20 -4q-31 0 -39 27q-3 11 -1 22q6 32 38 45q10 4 20 4zM480 695q31 0 39 -27q3 -11 1 -22q-6 -32 -38 -45q-10 -4 -20 -4q-31 0 -39 27 q-3 11 -1 22q6 32 38 45q10 4 20 4z" glyph-name="adieresis" horiz-adv-x="535" unicode="ä"/>
<glyph d="M442 311l3 18q18 95 -63 118q-22 6 -50 6q-88 -1 -163 -71l-30 45q91 87 209 88q121 0 156 -84q18 -45 8 -104l-58 -327h-64l16 90q-69 -93 -180 -101q-9 -1 -18 -1q-84 0 -120 55q-24 37 -15 85q17 100 146 138q18 5 37 9zM227 48q84 0 148 66q42 46 51 98l8 42 l-175 -33q-100 -21 -117 -81q-1 -5 -2 -9q-9 -51 38 -73q21 -10 49 -10zM270 651q8 53 58 83q29 17 58 17q55 0 76 -46q11 -25 7 -54q-11 -57 -64 -85q-26 -14 -54 -14q-55 0 -76 45q-10 25 -5 54zM318 651q-6 -35 24 -48q9 -3 18 -3q39 0 56 35q3 8 5 16q6 40 -27 50 q-8 2 -16 2q-37 0 -54 -33q-4 -10 -6 -19z" glyph-name="aring" horiz-adv-x="535" unicode="å"/>
<glyph d="M223 -12q-92 0 -133 59q-26 39 -17 90q12 72 87 115q62 35 144 35h158l6 37q15 78 -51 112q-34 17 -77 17q-80 0 -150 -55q-11 -9 -20 -17l-30 46q82 79 193 87q11 1 22 1q102 0 149 -67q15 -23 21 -49q97 112 218 116q111 0 159 -82q37 -63 21 -148q-7 -37 -14 -53h-391 q-10 -104 58 -153q40 -29 95 -29q90 1 166 73l33 -46q-94 -89 -211 -89q-115 0 -170 86q-14 21 -22 45q-51 -76 -143 -112q-50 -19 -101 -19zM141 139q-12 -58 41 -81q24 -10 55 -10q87 0 155 64q49 47 58 100l4 20h-155q-123 0 -152 -72q-4 -11 -6 -21zM530 287h327l1 9 q12 91 -48 134q-33 23 -78 23q-89 0 -154 -76q-33 -40 -48 -90z" glyph-name="ae" horiz-adv-x="924" unicode="æ"/>
<glyph d="M238 -103l38 93q-105 13 -155 98q-41 72 -25 164q22 118 119 196q86 67 186 67q124 -1 180 -100l-54 -44q-46 79 -137 80q-95 0 -164 -77q-48 -53 -61 -122q-17 -102 44 -160q44 -40 109 -40q103 1 178 85l39 -42q-92 -101 -216 -107l-20 -50q53 -9 62 -49q2 -12 0 -25 q-12 -60 -78 -77q-19 -5 -39 -5q-36 0 -48 5l9 49q36 -5 43 -5q50 1 56 33q5 27 -33 33q-8 1 -17 1h-5t-5 -0.5t-4 -0.5h-2z" glyph-name="ccedilla" horiz-adv-x="553" unicode="ç"/>
<glyph d="M397 515q115 0 165 -83q36 -62 23 -144q-4 -22 -13 -49h-407q-12 -103 57 -156q44 -32 104 -32q96 1 172 73l33 -46q-95 -90 -218 -90q-119 0 -181 83q-55 75 -36 180q21 122 118 199q83 65 183 65zM385 453q-93 0 -159 -72q-34 -38 -49 -86h342l1 4q12 90 -53 132 q-35 22 -82 22zM363 727l64 -159h-60l-88 159h84z" glyph-name="egrave" horiz-adv-x="585" unicode="è"/>
<glyph d="M397 515q115 0 165 -83q36 -62 23 -144q-4 -22 -13 -49h-407q-12 -103 57 -156q44 -32 104 -32q96 1 172 73l33 -46q-95 -90 -218 -90q-119 0 -181 83q-55 75 -36 180q21 122 118 199q83 65 183 65zM385 453q-93 0 -159 -72q-34 -38 -49 -86h342l1 4q12 90 -53 132 q-35 22 -82 22zM380 568l120 159h84l-144 -159h-60z" glyph-name="eacute" horiz-adv-x="585" unicode="é"/>
<glyph d="M313 -12q-119 0 -181 83q-55 75 -36 180q21 122 118 199q83 65 183 65q115 0 165 -83q36 -62 23 -144q-4 -22 -13 -49h-407q-12 -103 57 -156q44 -32 104 -32q96 1 172 73l33 -46q-95 -90 -218 -90zM177 295h342l1 4q12 90 -53 132q-35 22 -82 22q-93 0 -159 -72 q-34 -38 -49 -86zM244 553l150 174h59l90 -174h-66l-63 124l-104 -124h-66z" glyph-name="ecircumflex" horiz-adv-x="585" unicode="ê"/>
<glyph d="M397 515q115 0 165 -83q36 -62 23 -144q-4 -22 -13 -49h-407q-12 -103 57 -156q44 -32 104 -32q96 1 172 73l33 -46q-95 -90 -218 -90q-119 0 -181 83q-55 75 -36 180q21 122 118 199q83 65 183 65zM385 453q-93 0 -159 -72q-34 -38 -49 -86h342l1 4q12 90 -53 132 q-35 22 -82 22zM308 695q31 0 39 -27q3 -11 1 -22q-6 -32 -38 -45q-10 -4 -20 -4q-31 0 -39 27q-3 11 -1 22q6 32 38 45q10 4 20 4zM524 695q31 0 39 -27q3 -11 1 -22q-6 -32 -38 -45q-10 -4 -20 -4q-31 0 -39 27q-3 11 -1 22q6 32 38 45q10 4 20 4z" glyph-name="edieresis" horiz-adv-x="585" unicode="ë"/>
<glyph d="M91 0l89 503h67l-89 -503h-67zM181 727l64 -159h-60l-88 159h84z" glyph-name="igrave" horiz-adv-x="249" unicode="ì"/>
<glyph d="M91 0l89 503h67l-89 -503h-67zM205 568l120 159h84l-144 -159h-60z" glyph-name="iacute" horiz-adv-x="249" unicode="í"/>
<glyph d="M91 0l89 503h67l-89 -503h-67zM140 553h-66l150 174h59l90 -174h-66l-63 124z" glyph-name="icircumflex" horiz-adv-x="249" unicode="î"/>
<glyph d="M91 0l89 503h67l-89 -503h-67zM141 695q31 0 39 -27q3 -11 1 -22q-6 -32 -38 -45q-10 -4 -20 -4q-31 0 -39 27q-3 11 -1 22q6 32 38 45q10 4 20 4zM356 695q31 0 39 -27q3 -11 1 -22q-6 -32 -38 -45q-10 -4 -20 -4q-31 0 -39 27q-3 11 -1 22q6 32 38 45q10 4 20 4z" glyph-name="idieresis" horiz-adv-x="249" unicode="ï"/>
<glyph d="M99 236q19 107 100 179q79 69 183 69q80 0 127 -60l1 1q-22 99 -100 155l-168 -72l-14 44l131 56q-55 28 -122 44l31 63q110 -30 172 -72l137 59l13 -45l-106 -45q134 -124 98 -354l-2 -12q-19 -109 -98 -184q-79 -74 -182 -74q-123 0 -177 93q-38 68 -24 155zM168 236 q-15 -91 36 -144q40 -40 106 -40q101 0 162 93q28 44 37 93q16 99 -42 150q-37 33 -96 33q-108 0 -168 -95q-26 -42 -35 -90z" glyph-name="eth" horiz-adv-x="605" unicode="ð"/>
<glyph d="M91 0l89 503h65l-17 -95q71 106 197 107q101 0 141 -77q26 -53 14 -128l-55 -310h-67l54 307q16 93 -46 129q-28 16 -65 16q-89 0 -150 -81q-37 -49 -47 -108l-46 -263h-67zM300 579l-45 16q13 77 74 98q17 5 35 5q32 0 65 -34q30 -27 45 -29q36 0 53 59q1 4 2 7l45 -16 q-14 -76 -73 -97q-18 -6 -36 -6q-32 0 -65 35q-31 27 -45 29q-36 0 -53 -60q-1 -4 -2 -7z" glyph-name="ntilde" horiz-adv-x="608" unicode="ñ"/>
<glyph d="M401 515q116 0 176 -83q54 -76 35 -181q-19 -118 -116 -195q-85 -68 -188 -68q-118 0 -178 86q-50 74 -34 177q22 120 119 197q84 67 186 67zM389 450q-97 0 -166 -79q-46 -53 -58 -120q-17 -95 40 -154q44 -45 114 -45q97 0 166 79q46 53 58 120q17 95 -40 154 q-44 45 -114 45zM365 727l64 -159h-60l-88 159h84z" glyph-name="ograve" horiz-adv-x="620" unicode="ò"/>
<glyph d="M401 515q116 0 176 -83q54 -76 35 -181q-19 -118 -116 -195q-85 -68 -188 -68q-118 0 -178 86q-50 74 -34 177q22 120 119 197q84 67 186 67zM389 450q-97 0 -166 -79q-46 -53 -58 -120q-17 -95 40 -154q44 -45 114 -45q97 0 166 79q46 53 58 120q17 95 -40 154 q-44 45 -114 45zM383 568l120 159h84l-144 -159h-60z" glyph-name="oacute" horiz-adv-x="620" unicode="ó"/>
<glyph d="M308 -12q-118 0 -178 86q-50 74 -34 177q22 120 119 197q84 67 186 67q116 0 176 -83q54 -76 35 -181q-19 -118 -116 -195q-85 -68 -188 -68zM165 251q-17 -95 40 -154q44 -45 114 -45q97 0 166 79q46 53 58 120q17 95 -40 154q-44 45 -114 45q-97 0 -166 -79 q-46 -53 -58 -120zM325 553h-66l150 174h59l90 -174h-66l-63 124z" glyph-name="ocircumflex" horiz-adv-x="620" unicode="ô"/>
<glyph d="M401 515q116 0 176 -83q54 -76 35 -181q-19 -118 -116 -195q-85 -68 -188 -68q-118 0 -178 86q-50 74 -34 177q22 120 119 197q84 67 186 67zM389 450q-97 0 -166 -79q-46 -53 -58 -120q-17 -95 40 -154q44 -45 114 -45q97 0 166 79q46 53 58 120q17 95 -40 154 q-44 45 -114 45zM309 579l-45 16q13 77 74 98q17 5 35 5q32 0 65 -34q30 -27 45 -29q36 0 53 59q1 4 2 7l45 -16q-14 -76 -73 -97q-18 -6 -36 -6q-32 0 -65 35q-31 27 -45 29q-36 0 -53 -60q-1 -4 -2 -7z" glyph-name="otilde" horiz-adv-x="620" unicode="õ"/>
<glyph d="M401 515q116 0 176 -83q54 -76 35 -181q-19 -118 -116 -195q-85 -68 -188 -68q-118 0 -178 86q-50 74 -34 177q22 120 119 197q84 67 186 67zM389 450q-97 0 -166 -79q-46 -53 -58 -120q-17 -95 40 -154q44 -45 114 -45q97 0 166 79q46 53 58 120q17 95 -40 154 q-44 45 -114 45zM325 695q31 0 39 -27q3 -11 1 -22q-6 -32 -38 -45q-10 -4 -20 -4q-31 0 -39 27q-3 11 -1 22q6 32 38 45q10 4 20 4zM541 695q31 0 39 -27q3 -11 1 -22q-6 -32 -38 -45q-10 -4 -20 -4q-31 0 -39 27q-3 11 -1 22q6 32 38 45q10 4 20 4z" glyph-name="odieresis" horiz-adv-x="620" unicode="ö"/>
<glyph d="M251 158q6 32 37 46q12 5 22 5q31 0 41 -28q3 -11 1 -23q-6 -32 -38 -46q-11 -4 -22 -4q-31 0 -40 28q-3 11 -1 22zM125 383h433l-11 -62h-433zM319 545q6 32 37 46q12 5 22 5q31 0 41 -28q3 -11 1 -23q-6 -33 -38 -46q-12 -5 -22 -5q-30 0 -40 28q-3 11 -1 23z" glyph-name="divide" horiz-adv-x="547" unicode="÷"/>
<glyph d="M89 -15l60 66q-74 77 -54 195q1 3 1 5q22 120 119 197q84 67 186 67q74 -1 129 -38l64 71l37 -30l-65 -73q68 -78 46 -194q-19 -118 -116 -195q-85 -68 -188 -68q-69 1 -121 33l-59 -66zM197 106l285 317q-40 27 -93 27q-97 0 -166 -79q-46 -53 -58 -120q-16 -88 32 -145 zM516 389l-282 -315q37 -22 85 -22q97 0 166 79q46 53 58 120q13 83 -27 138z" glyph-name="oslash" horiz-adv-x="620" unicode="ø"/>
<glyph d="M272 -12q-101 0 -141 77q-26 53 -14 128l55 310h67l-54 -307q-16 -93 46 -129q28 -16 65 -16q90 0 150 81q36 50 46 108l47 263h67l-89 -503h-65l17 95q-71 -106 -197 -107zM357 568l-88 159h84l64 -159h-60z" glyph-name="ugrave" horiz-adv-x="608" unicode="ù"/>
<glyph d="M272 -12q-101 0 -141 77q-26 53 -14 128l55 310h67l-54 -307q-16 -93 46 -129q28 -16 65 -16q90 0 150 81q36 50 46 108l47 263h67l-89 -503h-65l17 95q-71 -106 -197 -107zM372 568l120 159h84l-144 -159h-60z" glyph-name="uacute" horiz-adv-x="608" unicode="ú"/>
<glyph d="M272 -12q-101 0 -141 77q-26 53 -14 128l55 310h67l-54 -307q-16 -93 46 -129q28 -16 65 -16q90 0 150 81q36 50 46 108l47 263h67l-89 -503h-65l17 95q-71 -106 -197 -107zM246 553l150 174h59l90 -174h-66l-63 124l-104 -124h-66z" glyph-name="ucircumflex" horiz-adv-x="608" unicode="û"/>
<glyph d="M272 -12q-101 0 -141 77q-26 53 -14 128l55 310h67l-54 -307q-16 -93 46 -129q28 -16 65 -16q90 0 150 81q36 50 46 108l47 263h67l-89 -503h-65l17 95q-71 -106 -197 -107zM509 597q-31 0 -39 27q-3 11 -1 22q6 32 38 45q10 4 20 4q31 0 39 -27q3 -11 1 -22 q-6 -32 -38 -45q-10 -4 -20 -4zM294 597q-31 0 -39 27q-3 11 -1 22q6 32 38 45q10 4 20 4q31 0 39 -27q3 -11 1 -22q-6 -32 -38 -45q-10 -4 -20 -4z" glyph-name="udieresis" horiz-adv-x="608" unicode="ü"/>
<glyph d="M0 -197l11 63q28 -18 67 -18q49 0 89 59q8 12 17 26l42 72l-120 498h74l93 -416l239 416h73l-355 -605q-53 -93 -127 -107q-16 -3 -33 -3q-44 0 -70 15zM340 568l120 159h84l-144 -159h-60z" glyph-name="yacute" horiz-adv-x="514" unicode="ý"/>
<glyph d="M55 -200l106 603h-1l53 300h68l-50 -283q66 79 167 93q17 2 34 2q104 0 160 -80q52 -76 33 -183q-22 -122 -116 -200q-79 -64 -170 -64q-93 0 -143 58q-16 18 -24 39l-50 -285h-67zM196 252q-21 -117 51 -172q39 -29 92 -29q89 0 155 73q50 55 62 127q18 102 -42 160 q-42 41 -104 41q-88 0 -152 -70q-48 -53 -62 -130z" glyph-name="thorn" horiz-adv-x="634" unicode="þ"/>
</font>
</defs>
</svg>
