<?xml version="1.0" encoding="UTF-8"?>
<!DOCTYPE svg  PUBLIC '-//W3C//DTD SVG 1.1//EN'  'http://www.w3.org/Graphics/SVG/1.1/DTD/svg11.dtd'>
<svg version="1.1" xmlns="http://www.w3.org/2000/svg">
<defs>
<font id="Rotunda-ExtraBoldItalic" horiz-adv-x="687">
<font-face font-family="Rotunda Extra Bold Italic" font-style="italic" font-weight="700" ascent="800" bbox="-90 -238 1128 979" cap-height="715" descent="-200" panose-1="0 0 0 0 0 0 0 0 0 0" underline-position="-100" underline-thickness="50" unicode-range="U+0020-00FE" units-per-em="1000" x-height="515"/>
<missing-glyph/>
<glyph glyph-name="space" horiz-adv-x="234" unicode=" "/>
<glyph d="M368 715l-103 -495h-143l71 495h175zM75 78q9 54 61 79q23 11 48 11q55 0 74 -44q8 -21 4 -46q-9 -54 -61 -79q-24 -11 -49 -11q-55 0 -73 44q-8 21 -4 46z" glyph-name="exclam" horiz-adv-x="308" unicode="!"/>
<glyph d="M303 435l32 280h122l-66 -280h-88zM133 435l32 280h122l-66 -280h-88z" glyph-name="quotedbl" horiz-adv-x="370" unicode='"'/>
<glyph d="M45 181l46 132h130l29 81h-131l47 132h130l59 167h141l-59 -167h83l59 167h141l-59 -167h132l-47 -132h-131l-29 -81h132l-46 -132h-132l-59 -168h-141l59 168h-83l-59 -168h-141l59 168h-130zM362 313h83l29 81h-83z" glyph-name="numbersign" horiz-adv-x="712" unicode="#"/>
<glyph d="M34 133l139 102q36 -73 105 -87q14 -3 28 -3q70 0 91 40q3 7 5 14q5 32 -33 53q-2 1 -95 43q-5 2 -8 3q-93 46 -123 88q-33 48 -22 120q20 110 120 173q54 34 119 44l22 124h99l-21 -123q127 -20 171 -128q1 -1 1 -2l-145 -98q-31 73 -102 74q-54 0 -78 -36 q-8 -11 -10 -24q-6 -28 45 -54q11 -5 38 -17q19 -8 28 -12q101 -47 135 -84q49 -54 35 -139q-18 -97 -107 -160q-65 -44 -147 -54l-21 -122h-99l21 123q-128 22 -180 118q-6 12 -11 24z" glyph-name="dollar" horiz-adv-x="558" unicode="$"/>
<glyph d="M342 545q7 58 -50 60q-61 -2 -72 -60q-9 -47 29 -58q10 -3 21 -3q52 0 68 48q3 7 4 13zM454 545q-14 -86 -90 -136q-53 -35 -113 -35q-84 0 -124 63q-29 47 -19 108q14 84 89 136q54 36 114 36q83 0 123 -63q30 -48 20 -109zM665 159q7 58 -50 60q-61 -2 -72 -60 q-9 -47 29 -58q10 -3 21 -3q52 0 68 48q3 7 4 13zM777 159q-14 -86 -90 -136q-53 -35 -113 -35q-84 0 -124 63q-29 47 -19 108q14 84 89 136q54 36 114 36q83 0 123 -63q30 -48 20 -109zM76 0l649 715h94l-649 -715h-94z" glyph-name="percent" horiz-adv-x="761" unicode="%"/>
<glyph d="M298 -12q-133 0 -201 67q-54 54 -41 131q17 96 131 172q20 13 42 26q-52 69 -58 111q-3 23 1 46q14 81 93 136q73 50 165 50q109 0 162 -71q36 -51 26 -112q-13 -76 -96 -138q-31 -23 -77 -50l84 -112q43 64 48 141h146q-11 -138 -113 -248l103 -137h-190l-32 42 q-95 -54 -193 -54zM223 204q-10 -50 49 -69q23 -7 48 -7q50 0 92 18l-111 144q-69 -41 -78 -86zM371 454q74 42 88 77q3 6 4 12q6 35 -30 49q-13 4 -26 4q-46 0 -67 -35q-5 -10 -7 -19q-6 -34 36 -86z" glyph-name="ampersand" horiz-adv-x="698" unicode="&amp;"/>
<glyph d="M221 435h-88l32 280h122z" glyph-name="quotesingle" horiz-adv-x="200" unicode="'"/>
<glyph d="M297 -130h-167q-83 214 -44 447q1 6 2 10q39 229 197 450q4 5 6 8h167q-155 -237 -194 -458q-40 -219 33 -457z" glyph-name="parenleft" horiz-adv-x="331" unicode="("/>
<glyph d="M149 785h167q82 -213 44 -448q0 -5 -1 -9q-41 -230 -198 -450q-4 -5 -6 -8h-167q156 236 195 458q39 226 -34 457z" glyph-name="parenright" horiz-adv-x="331" unicode=")"/>
<glyph d="M121 535l20 110l100 -30l-62 77l98 52l11 -104l47 104l80 -52l-89 -77l111 30l-20 -110l-100 30l62 -77l-98 -52l-11 104l-47 -104l-80 52l89 77z" glyph-name="asterisk" horiz-adv-x="350" unicode="*"/>
<glyph d="M248 283h-185l27 151h185l32 185h151l-32 -185h185l-27 -151h-185l-33 -185h-151z" glyph-name="plus" horiz-adv-x="547" unicode="+"/>
<glyph d="M49 78q9 54 61 79q23 11 48 11q55 0 74 -44q8 -21 4 -46q-5 -22 -15 -38l-117 -186h-76l72 138q-52 15 -53 66q0 10 2 20z" glyph-name="comma" horiz-adv-x="257" unicode=","/>
<glyph d="M83 203l25 142h360l-25 -142h-360z" glyph-name="hyphen" horiz-adv-x="454" unicode="-"/>
<glyph d="M46 78q9 54 61 79q23 11 48 11q55 0 74 -44q8 -21 4 -46q-9 -54 -61 -79q-24 -11 -49 -11q-55 0 -73 44q-8 21 -4 46z" glyph-name="period" horiz-adv-x="251" unicode="."/>
<glyph d="M523 789h180l-547 -929h-180z" glyph-name="slash" horiz-adv-x="565" unicode="/"/>
<glyph d="M329 -12q-205 0 -235 191q-12 77 5 178q45 250 202 333q70 37 158 37q188 0 230 -165q21 -86 0 -205q-40 -233 -184 -322q-77 -47 -176 -47zM357 148q112 0 150 180q3 15 6 29q35 209 -82 210q-113 0 -152 -186l-4 -24q-26 -202 82 -209z" glyph-name="zero" horiz-adv-x="662" unicode="0"/>
<glyph d="M38 0l29 164h152l60 342q-53 -38 -168 -42l28 160q132 6 227 91h126l-97 -551h148l-29 -164h-476z" glyph-name="one" horiz-adv-x="511" unicode="1"/>
<glyph d="M537 0h-500q2 45 11 95q22 123 165 222q17 12 130 81q84 50 99 85q3 7 4 13q10 51 -42 62q-12 3 -26 3q-62 0 -118 -54q-11 -11 -19 -22l-112 95q67 97 186 132q49 15 99 15q107 0 169 -62q60 -61 44 -157q-19 -112 -159 -203q-28 -19 -84 -51q-88 -50 -107 -74 q-8 -11 -11 -21h299z" glyph-name="two" horiz-adv-x="570" unicode="2"/>
<glyph d="M34 123l142 105q32 -64 96 -74q10 -2 19 -2q70 0 102 47q10 15 13 32q12 62 -51 84q-27 9 -61 9q-63 0 -97 -10l20 109l155 130h-220l28 162h456l-21 -119l-187 -153q87 -10 131 -79q36 -56 24 -128q-23 -124 -131 -194q-84 -54 -190 -54q-141 0 -210 103q-10 16 -18 32z " glyph-name="three" horiz-adv-x="576" unicode="3"/>
<glyph d="M32 164l20 115l353 436h214l-69 -392h85l-28 -159h-85l-29 -164h-166l29 164h-324zM263 318h125l35 201z" glyph-name="four" horiz-adv-x="601" unicode="4"/>
<glyph d="M39 138l148 96q44 -81 110 -82q74 0 102 56q7 15 10 30q10 59 -39 82q-22 10 -50 10q-68 -1 -109 -32l-96 43l95 374h405l-28 -162h-253l-22 -87q22 7 68 7q149 0 194 -98q25 -55 12 -132q-24 -130 -128 -201q-79 -54 -182 -54q-138 0 -208 96q-18 25 -29 54z" glyph-name="five" horiz-adv-x="568" unicode="5"/>
<glyph d="M285 -12q-120 0 -181 82q-51 71 -35 167q14 85 82 167q5 7 11 14l248 297h198l-208 -247q120 -10 168 -94q33 -60 19 -140q-20 -114 -117 -185q-83 -61 -185 -61zM235 231q-12 -62 35 -85q18 -8 41 -8q66 0 97 57q9 17 13 36q10 64 -38 85q-17 8 -39 8q-64 0 -95 -53 q-10 -19 -14 -40z" glyph-name="six" horiz-adv-x="560" unicode="6"/>
<glyph d="M387 551h-280l29 164h485l-23 -133l-392 -582h-183z" glyph-name="seven" horiz-adv-x="495" unicode="7"/>
<glyph d="M317 138q61 0 91 42q11 16 14 33q9 53 -40 70q-18 6 -38 6q-65 0 -93 -46q-8 -14 -11 -30q-9 -48 36 -67q19 -8 41 -8zM371 440q56 0 80 43q6 12 9 25q8 48 -36 63q-13 5 -29 5q-55 0 -79 -41q-7 -13 -10 -27q-9 -47 34 -63q15 -5 31 -5zM421 727q118 0 175 -74 q43 -58 29 -139q-15 -79 -87 -133q-16 -11 -30 -18q54 -25 75 -80q13 -37 5 -77q-18 -107 -118 -169q-79 -49 -179 -49q-134 0 -193 80q-41 58 -28 138q17 85 96 136q20 13 40 21q-53 32 -64 96q-4 28 1 55q18 106 115 167q74 46 163 46z" glyph-name="eight" horiz-adv-x="586" unicode="8"/>
<glyph d="M78 0l208 247q-121 10 -169 95q-32 60 -18 139q20 114 117 185q83 61 185 61q120 0 181 -82q51 -70 35 -167q-14 -85 -82 -167q-5 -7 -11 -14l-248 -297h-198zM265 484q-10 -64 38 -85q17 -8 39 -8q64 0 95 53q10 19 14 40q12 62 -35 85q-18 8 -41 8q-66 0 -97 -57 q-9 -17 -13 -36z" glyph-name="nine" horiz-adv-x="560" unicode="9"/>
<glyph d="M61 78q9 54 61 79q23 11 48 11q55 0 74 -44q8 -21 4 -46q-9 -54 -61 -79q-24 -11 -49 -11q-55 0 -73 44q-8 21 -4 46zM124 437q9 54 61 79q23 11 48 11q55 0 74 -44q8 -21 4 -46q-9 -54 -61 -79q-24 -11 -49 -11q-55 0 -73 44q-8 21 -4 46z" glyph-name="colon" horiz-adv-x="281" unicode=":"/>
<glyph d="M126 437q9 54 61 79q23 11 48 11q55 0 74 -44q8 -21 4 -46q-9 -54 -61 -79q-24 -11 -49 -11q-55 0 -73 44q-8 21 -4 46zM62 78q9 54 61 79q23 11 48 11q55 0 74 -44q8 -21 4 -46q-5 -22 -15 -38l-117 -186h-76l72 138q-52 15 -53 66q0 10 2 20z" glyph-name="semicolon" horiz-adv-x="284" unicode=";"/>
<glyph d="M516 246l-28 -160l-424 205l24 132l496 205l-28 -160l-274 -111z" glyph-name="less" horiz-adv-x="526" unicode="&lt;"/>
<glyph d="M147 550h460l-27 -151h-460zM106 320h460l-26 -151h-460z" glyph-name="equal" horiz-adv-x="560" unicode="="/>
<glyph d="M136 468l28 160l424 -205l-24 -132l-496 -205l28 160l274 111z" glyph-name="greater" horiz-adv-x="526" unicode="&gt;"/>
<glyph d="M208 497l-96 102q64 87 168 116q42 12 85 12q120 0 174 -72q43 -57 27 -145q-15 -90 -107 -158q-13 -10 -38 -28q-58 -39 -70 -61q-5 -10 -7 -19l-7 -37h-159l11 58q13 75 94 133q11 8 33 23q57 38 70 60q5 10 7 20q9 45 -34 61q-15 5 -32 5q-61 0 -110 -59q-5 -6 -9 -11 zM143 78q9 54 61 79q23 11 48 11q55 0 74 -44q8 -21 4 -46q-9 -54 -61 -79q-24 -11 -49 -11q-55 0 -73 44q-8 21 -4 46z" glyph-name="question" horiz-adv-x="495" unicode="?"/>
<glyph d="M456 -152q-181 0 -291 117q-103 111 -96 275q2 30 7 60q30 170 164 297q139 131 319 152q29 3 58 3q180 0 286 -116q98 -109 89 -267q-2 -25 -6 -49q-22 -130 -108 -201q-60 -47 -129 -47q-89 1 -126 75q-66 -74 -156 -75q-96 0 -142 74q-38 62 -22 149q21 114 109 178 q62 45 133 45q62 0 95 -39q8 -9 12 -18l8 45h126l-47 -268q-8 -37 20 -48q7 -3 14 -3q40 0 65 77q9 25 14 56q23 127 -51 215q-74 87 -207 87q-146 0 -259 -102q-102 -92 -125 -220q-25 -137 50 -230q77 -95 219 -95q76 0 169 40l22 11l34 -110q-77 -47 -190 -63 q-32 -5 -58 -5zM437 295q-11 -60 30 -89q20 -14 44 -14q52 0 87 49q17 25 23 54q11 65 -33 92q-19 11 -41 11q-51 0 -86 -48q-18 -25 -24 -55z" glyph-name="at" horiz-adv-x="958" unicode="@"/>
<glyph d="M164 0h-178l399 715h169l147 -715h-178l-30 151h-245zM434 516l-110 -219h142z" glyph-name="A" unicode="A"/>
<glyph d="M203 715h287q116 0 165 -73q33 -51 20 -123q-13 -77 -77 -128q-25 -18 -49 -26q68 -19 91 -81q14 -40 5 -90q-18 -104 -121 -157q-70 -37 -158 -37h-289zM329 438h86q50 0 73 43q6 12 8 23q8 41 -30 56q-14 5 -30 5h-84zM278 150h109q44 0 71 42q10 16 13 33q7 42 -29 63 q-17 10 -37 10h-100z" glyph-name="B" horiz-adv-x="645" unicode="B"/>
<glyph d="M624 268l117 -101q-90 -120 -230 -162q-57 -17 -114 -17q-159 0 -246 106q-85 104 -61 257q0 4 1 7q28 157 150 261q125 108 291 108t243 -113q20 -29 32 -64l-151 -102q-22 71 -92 100q-31 12 -64 12q-111 0 -178 -88q-38 -50 -50 -114q-17 -105 43 -163q43 -40 108 -40 q114 1 201 113z" glyph-name="C" horiz-adv-x="719" unicode="C"/>
<glyph d="M203 715h267q159 0 246 -105q83 -100 59 -247q-1 -3 -1 -4q-26 -151 -146 -254q-124 -105 -284 -105h-267zM278 150h77q97 0 170 76q54 57 68 132q18 97 -42 159q-48 48 -121 48h-78z" glyph-name="D" horiz-adv-x="739" unicode="D"/>
<glyph d="M77 0l126 715h478l-27 -152h-303l-22 -128h248l-27 -151h-248l-23 -132h317l-27 -152h-492z" glyph-name="E" horiz-adv-x="595" unicode="E"/>
<glyph d="M77 0l126 715h458l-27 -152h-283l-26 -148h228l-26 -151h-228l-47 -264h-175z" glyph-name="F" horiz-adv-x="552" unicode="F"/>
<glyph d="M401 -12q-164 0 -251 108q-85 105 -59 260v2q28 155 150 260q129 109 297 109q174 0 254 -120q11 -19 20 -38l-147 -106q-45 86 -134 97q-13 2 -25 2q-112 0 -182 -88q-39 -51 -52 -116q-17 -105 44 -164q43 -41 111 -41q95 0 164 67l4 4l7 38h-141l26 146h306l-44 -248 q-93 -121 -239 -158q-54 -14 -109 -14z" glyph-name="G" horiz-adv-x="755" unicode="G"/>
<glyph d="M77 0l126 715h176l-47 -268h260l47 268h176l-126 -715h-176l50 283h-260l-50 -283h-176z" glyph-name="H" horiz-adv-x="766" unicode="H"/>
<glyph d="M77 0l126 715h175l-126 -715h-175z" glyph-name="I" horiz-adv-x="329" unicode="I"/>
<glyph d="M19 148l152 84q16 -83 73 -84q48 0 72 47q7 14 10 30l86 490h175l-87 -494q-21 -120 -120 -185q-73 -48 -163 -48q-120 0 -172 88q-19 32 -26 72z" glyph-name="J" horiz-adv-x="531" unicode="J"/>
<glyph d="M77 0l126 715h176l-52 -297l294 297h213l-309 -313l186 -402h-204l-127 279l-94 -93l-33 -186h-176z" glyph-name="K" unicode="K"/>
<glyph d="M77 0l126 715h175l-99 -563h279l-27 -152h-454z" glyph-name="L" horiz-adv-x="532" unicode="L"/>
<glyph d="M77 0l126 715h156l161 -344l283 344h156l-126 -715h-176l71 404l-211 -258h-72l-121 258l-71 -404h-176z" glyph-name="M" horiz-adv-x="910" unicode="M"/>
<glyph d="M77 0l126 715h147l229 -414l73 414h175l-126 -715h-146l-229 421l-74 -421h-175z" glyph-name="N" horiz-adv-x="778" unicode="N"/>
<glyph d="M91 358q28 154 148 259q127 110 291 110q161 0 249 -105q85 -103 62 -253q-1 -6 -2 -11q-26 -153 -147 -259q-128 -111 -292 -111q-163 0 -251 108q-84 105 -58 260v2zM272 358q-18 -107 45 -165q43 -40 112 -40q100 0 170 79q47 55 59 126q20 104 -42 163 q-45 41 -115 41q-106 0 -175 -85q-41 -52 -54 -119z" glyph-name="O" horiz-adv-x="804" unicode="O"/>
<glyph d="M203 715h277q118 0 177 -81q49 -69 33 -165q-22 -120 -122 -192q-80 -57 -174 -57h-103l-39 -220h-175zM431 565h-79l-35 -194h79q58 0 93 52q15 22 20 47q12 59 -33 84q-20 11 -45 11z" glyph-name="P" horiz-adv-x="619" unicode="P"/>
<glyph d="M400 -12q-163 0 -251 108q-84 105 -58 260v2q28 154 148 259q127 110 291 110q161 0 249 -105q85 -103 62 -253q-1 -6 -2 -11q-27 -157 -152 -263q-36 -30 -76 -52l113 -233h-186l-84 181q-27 -3 -54 -3zM272 358q-18 -107 45 -165q43 -40 112 -40q100 0 170 79 q47 55 59 126q20 104 -42 163q-45 41 -115 41q-106 0 -175 -85q-41 -52 -54 -119z" glyph-name="Q" horiz-adv-x="804" unicode="Q"/>
<glyph d="M253 0h-176l126 715h311q129 0 183 -85q38 -62 23 -147q-20 -111 -118 -178q-19 -13 -40 -23l82 -282h-189l-60 248h-98zM322 392h103q73 0 103 58q7 15 10 31q11 66 -49 81q-15 3 -31 3h-105z" glyph-name="R" horiz-adv-x="675" unicode="R"/>
<glyph d="M313 145q70 0 91 40q3 7 5 14q5 32 -33 53q-2 1 -95 43q-5 2 -8 3q-93 46 -123 88q-33 48 -22 120q20 111 122 174q77 47 171 47q138 0 200 -98q11 -17 18 -35l-145 -98q-31 73 -102 74q-54 0 -78 -36q-8 -11 -10 -24q-6 -28 45 -54q11 -5 38 -17q19 -8 28 -12 q101 -47 135 -84q49 -54 35 -139q-16 -97 -107 -160q-83 -57 -193 -57q-122 0 -196 74q-32 32 -48 72l139 102q36 -73 105 -87q14 -3 28 -3z" glyph-name="S" horiz-adv-x="574" unicode="S"/>
<glyph d="M98 563l27 152h562l-27 -152h-193l-99 -563h-176l99 563h-193z" glyph-name="T" horiz-adv-x="561" unicode="T"/>
<glyph d="M367 -12q-141 0 -210 93q-60 81 -40 195l77 439h176l-75 -425q-16 -87 41 -122q25 -15 60 -15q82 0 125 72q17 29 24 65l75 425h176l-77 -439q-23 -129 -129 -212q-98 -76 -223 -76z" glyph-name="U" horiz-adv-x="738" unicode="U"/>
<glyph d="M256 0l-143 715h178l82 -509l262 509h178l-395 -715h-162z" glyph-name="V" horiz-adv-x="674" unicode="V"/>
<glyph d="M118 715h177l39 -482l213 482h152l43 -482l209 482h177l-334 -715h-173l-43 458l-205 -458h-173z" glyph-name="W" horiz-adv-x="994" unicode="W"/>
<glyph d="M-9 0l279 355l-154 360h199l91 -232l173 232h199l-280 -360l153 -355h-195l-95 228l-175 -228h-195z" glyph-name="X" horiz-adv-x="642" unicode="X"/>
<glyph d="M111 715h191l108 -255l198 255h191l-328 -402l-55 -313h-175l55 313z" glyph-name="Y" horiz-adv-x="658" unicode="Y"/>
<glyph d="M265 150h296l-26 -150h-518l19 110l382 455h-284l26 150h506l-19 -108z" glyph-name="Z" horiz-adv-x="560" unicode="Z"/>
<glyph d="M502 785l-27 -154h-119l-107 -607h119l-27 -154h-290l161 915h290z" glyph-name="bracketleft" horiz-adv-x="374" unicode="["/>
<glyph d="M539 -140h-180l-219 929h180z" glyph-name="backslash" horiz-adv-x="565" unicode="\"/>
<glyph d="M-13 -130l27 154h119l107 607h-119l27 154h290l-161 -915h-290z" glyph-name="bracketright" horiz-adv-x="374" unicode="]"/>
<glyph d="M84 375l260 340h86l141 -340h-154l-62 160l-117 -160h-154z" glyph-name="asciicircum" horiz-adv-x="523" unicode="^"/>
<glyph d="M-9 -188l24 138h500l-24 -138h-500z" glyph-name="underscore" horiz-adv-x="548" unicode="_"/>
<glyph d="M458 563h-142l-145 209h212z" glyph-name="grave" horiz-adv-x="394" unicode="`"/>
<glyph d="M171 318l-72 109q78 79 195 96q26 4 51 4q149 0 191 -93q21 -48 10 -112l-57 -322h-161l10 57q-55 -65 -145 -69q-93 0 -131 62q-24 41 -15 93q19 108 176 147q10 2 19 4l137 26l1 1q9 52 -57 58h-13q-74 -1 -139 -61zM215 154q1 -38 41 -41q69 0 95 67q5 13 8 27l2 8 l-87 -16q-52 -12 -59 -45z" glyph-name="a" horiz-adv-x="542" unicode="a"/>
<glyph d="M223 0h-160l126 715h174l-45 -258q57 70 152 70q117 0 169 -90q43 -74 25 -180q-22 -130 -121 -209q-77 -60 -163 -60q-83 0 -126 52q-12 14 -19 30zM279 259q-13 -76 37 -106q21 -13 49 -13q60 0 98 54q20 29 27 65q12 74 -37 104q-21 12 -47 12q-67 0 -104 -57 q-17 -26 -23 -59z" glyph-name="b" horiz-adv-x="644" unicode="b"/>
<glyph d="M332 140q55 2 113 58l92 -99q-89 -100 -215 -110q-12 -1 -23 -1q-129 0 -194 87q-56 76 -37 183q22 124 124 201q90 68 201 68q144 -1 200 -120l-133 -99q-25 66 -89 67q-66 0 -105 -59q-16 -27 -22 -58q-13 -72 36 -104q22 -14 52 -14z" glyph-name="c" horiz-adv-x="528" unicode="c"/>
<glyph d="M581 0h-160l12 70q-57 -75 -159 -82h-14q-103 0 -158 80q-51 77 -32 189q23 130 119 208q77 62 171 62q95 -1 128 -70l45 258h174zM457 259q13 76 -39 104q-21 12 -48 12q-62 0 -99 -54q-19 -28 -25 -62q-13 -72 34 -105q22 -14 49 -14q66 0 105 59q17 27 23 60z" glyph-name="d" horiz-adv-x="644" unicode="d"/>
<glyph d="M567 216h-326q-3 -60 64 -78q21 -5 44 -5q73 1 131 48l69 -110q-103 -79 -222 -83h-16q-142 0 -208 91q-52 74 -34 178q22 122 122 201q88 69 194 69q129 0 182 -86q38 -63 23 -151q-8 -44 -23 -74zM357 389q-57 0 -87 -42q-10 -15 -14 -31h171v1q7 47 -35 65 q-16 7 -35 7z" glyph-name="e" horiz-adv-x="562" unicode="e"/>
<glyph d="M86 380l24 135h72l3 19q22 124 127 171q50 22 112 22q50 0 80 -17l-24 -139q-19 10 -49 10q-61 -1 -72 -50l-3 -16h95l-24 -135h-95l-67 -380h-174l67 380h-72z" glyph-name="f" horiz-adv-x="352" unicode="f"/>
<glyph d="M235 -212q-150 0 -210 61q-32 34 -24 78q13 67 95 97q-39 30 -29 78q9 53 78 89q7 3 13 6q-77 48 -66 139q0 5 1 10q16 85 101 138q69 43 152 43q34 0 67 -12h220l-22 -125h-75q4 -23 0 -44q-18 -104 -130 -153q-64 -28 -137 -28q-42 -10 -49 -30q-2 -22 38 -22h128 q99 0 139 -64q24 -39 15 -91q-13 -80 -110 -129q-84 -41 -195 -41zM242 346q-8 -38 28 -55q15 -7 33 -7q49 0 73 38q7 12 10 24q8 40 -29 56q-15 6 -32 6q-49 0 -73 -38q-7 -12 -10 -24zM172 -45q-5 -27 37 -37q21 -5 49 -5q102 1 111 42q5 24 -25 31q-8 2 -15 2h-129 q-23 -12 -28 -33z" glyph-name="g" horiz-adv-x="553" unicode="g"/>
<glyph d="M237 0h-174l126 715h174l-44 -250q61 62 150 62q122 0 157 -92q18 -51 6 -121l-55 -314h-174l50 283q15 84 -54 91q-7 1 -12 1q-60 0 -89 -61q-9 -20 -13 -43z" glyph-name="h" horiz-adv-x="632" unicode="h"/>
<glyph d="M63 0l91 515h174l-91 -515h-174zM172 659q9 54 61 79q23 11 48 11q55 0 74 -44q8 -21 4 -46q-9 -54 -61 -79q-24 -11 -49 -11q-55 0 -73 44q-8 21 -4 46z" glyph-name="i" horiz-adv-x="300" unicode="i"/>
<glyph d="M-90 -198l25 141q23 -6 45 -6q63 2 74 57l92 521h174l-95 -536q-26 -146 -158 -181q-36 -10 -76 -10q-56 0 -81 14zM164 659q9 54 61 79q23 11 48 11q55 0 74 -44q8 -21 4 -46q-9 -54 -61 -79q-24 -11 -49 -11q-55 0 -73 44q-8 21 -4 46z" glyph-name="j" horiz-adv-x="285" unicode="j"/>
<glyph d="M63 0l126 715h174l-65 -368l181 168h205l-232 -213l160 -302h-208l-101 206l-35 -33l-31 -173h-174z" glyph-name="k" horiz-adv-x="598" unicode="k"/>
<glyph d="M84 154l99 561h174l-93 -529q-4 -36 10 -44q10 -5 24 -5q18 0 35 6l-24 -140q-36 -15 -84 -15q-126 0 -143 97q-5 31 2 69z" glyph-name="l" horiz-adv-x="318" unicode="l"/>
<glyph d="M237 0h-174l91 515h166l-11 -61q61 73 158 73q115 -1 152 -84q74 77 165 83q10 1 19 1q124 0 156 -95q17 -50 5 -118l-55 -314h-174l50 283q8 87 -64 92q-53 0 -83 -55q-12 -23 -17 -49l-48 -271h-174l50 283q8 87 -64 92q-57 0 -86 -59q-10 -21 -14 -45z" glyph-name="m" horiz-adv-x="964" unicode="m"/>
<glyph d="M63 0l91 515h166l-11 -61q61 73 160 73q122 0 157 -92q18 -51 6 -121l-55 -314h-174l50 283q15 84 -54 91q-7 1 -12 1q-60 0 -89 -61q-9 -20 -13 -43l-48 -271h-174z" glyph-name="n" horiz-adv-x="632" unicode="n"/>
<glyph d="M69 258q22 123 125 201q90 68 203 68q131 0 196 -88q54 -75 36 -181q-22 -124 -124 -202q-90 -68 -203 -68q-129 0 -195 87q-57 76 -38 183zM245 258q-14 -79 39 -108q20 -10 45 -10q66 0 103 59q16 26 22 59q15 77 -37 106q-21 11 -47 11q-70 0 -106 -65 q-13 -24 -19 -52z" glyph-name="o" horiz-adv-x="608" unicode="o"/>
<glyph d="M28 -200l126 715h160l-12 -70q62 76 160 82h10q99 0 156 -76q57 -78 37 -193q-23 -130 -119 -208q-77 -62 -171 -62q-98 1 -129 62l-44 -250h-174zM278 256q-13 -74 37 -104q22 -12 50 -12q62 0 99 54q19 28 25 62q13 72 -34 105q-22 14 -49 14q-66 0 -105 -59 q-17 -27 -23 -60z" glyph-name="p" horiz-adv-x="644" unicode="p"/>
<glyph d="M672 515l-126 -715h-174l44 250q-56 -62 -151 -62q-117 0 -169 90q-43 74 -25 180q24 131 123 209q77 60 164 60q85 0 128 -59q8 -11 14 -23l12 70h160zM456 256q13 76 -37 106q-21 13 -49 13q-60 0 -98 -54q-20 -29 -27 -65q-12 -74 37 -104q21 -12 47 -12q68 0 105 59 q16 26 22 57z" glyph-name="q" horiz-adv-x="643" unicode="q"/>
<glyph d="M505 523l-29 -165q-12 6 -38 6q-98 0 -145 -99q-16 -34 -23 -76l-33 -189h-174l91 515h173l-16 -88q55 94 152 100h11q22 0 31 -4z" glyph-name="r" horiz-adv-x="417" unicode="r"/>
<glyph d="M239 -12q-119 0 -179 74q-16 20 -25 44l126 85q25 -63 87 -72q8 -1 16 -1q54 1 59 29q4 20 -32 37q-6 2 -63 24q-109 41 -128 100q-8 27 -2 60q16 92 116 135q57 24 125 24q102 0 155 -66q14 -18 22 -38l-122 -78q-23 51 -83 52q-43 0 -53 -24l-2 -6q-3 -13 24 -25 q7 -3 25 -11q28 -11 45 -19q76 -33 99 -53q45 -41 33 -108q-14 -81 -98 -128q-64 -35 -145 -35z" glyph-name="s" horiz-adv-x="479" unicode="s"/>
<glyph d="M76 380l24 135h71l24 139h169l-24 -139h109l-24 -135h-109l-31 -177q-10 -57 36 -62q5 -1 9 -1q40 1 70 19l-26 -147q-54 -24 -121 -24q-121 0 -146 94q-10 40 -1 92l36 206h-66z" glyph-name="t" horiz-adv-x="378" unicode="t"/>
<glyph d="M254 -12q-122 0 -157 92q-18 51 -6 121l55 314h174l-50 -283q-15 -84 54 -91q7 -1 12 -1q60 0 89 61q9 20 13 43l48 271h174l-91 -515h-166l11 61q-61 -73 -160 -73z" glyph-name="u" horiz-adv-x="632" unicode="u"/>
<glyph d="M197 0l-116 515h174l54 -318l166 318h174l-298 -515h-154z" glyph-name="v" horiz-adv-x="548" unicode="v"/>
<glyph d="M165 0l-81 515h166l33 -317l155 317h122l43 -317l145 317h166l-263 -515h-155l-39 276l-137 -276h-155z" glyph-name="w" horiz-adv-x="816" unicode="w"/>
<glyph d="M-1 0l222 255l-135 260h198l58 -143l108 143h198l-227 -260l132 -255h-193l-60 136l-108 -136h-193z" glyph-name="x" horiz-adv-x="554" unicode="x"/>
<glyph d="M75 -212q-56 0 -96 22l25 141q32 -16 70 -16q62 0 96 47q12 18 22 40l-112 493h179l52 -317l167 317h175l-315 -540q-84 -143 -181 -175q-38 -12 -82 -12z" glyph-name="y" horiz-adv-x="552" unicode="y"/>
<glyph d="M23 0l15 86l264 294h-205l24 135h412l-16 -87l-264 -293h221l-24 -135h-427z" glyph-name="z" horiz-adv-x="468" unicode="z"/>
<glyph d="M336 20l-27 -149q-14 -1 -37 -1q-211 2 -180 187l22 126q13 68 -22 82q-13 5 -31 5l20 115q58 1 75 51q6 15 9 36l22 126q35 186 246 187q24 0 37 -1l-26 -149q-60 0 -79 -34q-8 -14 -12 -34l-17 -95q-18 -114 -95 -144q64 -31 44 -145l-16 -95q-12 -61 43 -67 q9 -1 17 -1h7z" glyph-name="braceleft" horiz-adv-x="345" unicode="{"/>
<glyph d="M215 -140h-166l165 935h166z" glyph-name="bar" horiz-adv-x="314" unicode="|"/>
<glyph d="M125 635l26 149q14 1 37 1q211 -2 180 -187l-22 -126q-10 -64 18 -80q14 -6 36 -7l-20 -115q-55 -1 -74 -48q-6 -16 -11 -39l-22 -126q-35 -186 -246 -187q-24 0 -37 1l27 149q63 0 82 41q6 12 9 27l16 95q22 117 96 144q-65 32 -45 145l17 95q11 67 -60 68h-7z" glyph-name="braceright" horiz-adv-x="345" unicode="}"/>
<glyph d="M201 238l-109 23q19 108 97 148q34 18 75 18q34 0 98 -30q34 -15 49 -15q38 0 51 39q1 5 2 9l109 -23q-19 -106 -95 -147q-36 -19 -78 -19q-35 0 -98 30q-34 15 -49 15q-37 0 -49 -38q-2 -5 -3 -10z" glyph-name="asciitilde" horiz-adv-x="542" unicode="~"/>
<glyph glyph-name="uni00A0" horiz-adv-x="234" unicode=" "/>
<glyph d="M25 -200l103 495h143l-71 -495h-175zM131 437q9 54 61 79q23 11 48 11q55 0 74 -44q8 -21 4 -46q-9 -54 -61 -79q-24 -11 -49 -11q-55 0 -73 44q-8 21 -4 46z" glyph-name="exclamdown" horiz-adv-x="294" unicode="¡"/>
<glyph d="M245 -28l20 116q-113 21 -160 113q-34 68 -19 153q22 122 122 200q68 52 151 65l21 116h99l-21 -116q106 -18 153 -116l-133 -99q-25 66 -89 67q-66 0 -105 -59q-16 -27 -22 -58q-13 -72 36 -104q22 -14 52 -14q55 2 113 58l92 -99q-79 -89 -191 -107l-20 -116h-99z" glyph-name="cent" horiz-adv-x="534" unicode="¢"/>
<glyph d="M555 0h-521l28 159h20q35 1 42 33l20 114h-55l15 85h55l17 98q22 128 125 193q72 45 165 45q116 0 177 -82q12 -16 20 -33l-119 -108q-25 46 -80 57q-13 3 -26 3q-63 0 -86 -52q-5 -12 -7 -23l-17 -98h179l-15 -85h-179l-17 -98q-6 -29 -28 -49h315z" glyph-name="sterling" horiz-adv-x="575" unicode="£"/>
<glyph d="M54 130l123 105q-22 55 -10 121q13 67 52 120l-87 105l111 94l86 -105q60 31 126 31q66 -1 116 -32l124 106l77 -94l-124 -106q20 -56 9 -119q-13 -67 -52 -120l87 -106l-111 -94l-87 106q-60 -31 -125 -31q-66 1 -114 31l-124 -106zM331 356q-11 -60 35 -79q15 -5 31 -6 q65 0 90 52q8 16 10 33q8 59 -39 76q-15 5 -32 5q-59 0 -85 -50q-7 -15 -10 -31z" glyph-name="currency" horiz-adv-x="700" unicode="¤"/>
<glyph d="M132 715h191l108 -255l198 255h191l-268 -329h101l-15 -85h-148l-10 -58h148l-15 -85h-148l-28 -158h-175l28 158h-147l15 85h147l10 58h-147l15 85h100z" glyph-name="yen" horiz-adv-x="701" unicode="¥"/>
<glyph d="M111 212h166l-62 -352h-166zM214 795h166l-62 -352h-166z" glyph-name="brokenbar" horiz-adv-x="314" unicode="¦"/>
<glyph d="M27 25l115 77q39 -86 129 -87q67 0 83 33q2 5 3 9q5 20 -30 43q-25 17 -80 45q-112 59 -136 110q-13 31 -6 69q13 67 93 115q-55 46 -49 105l2 12q15 89 109 138q63 33 137 33q136 0 191 -96q8 -15 14 -30l-113 -79q-23 58 -81 74q-16 4 -32 4q-56 0 -74 -31 q-3 -6 -4 -11q-3 -21 27 -41q25 -17 84 -47q117 -60 138 -119q9 -28 3 -60q-12 -65 -92 -115q55 -46 48 -105l-2 -12q-15 -86 -110 -136q-68 -35 -145 -35q-140 0 -203 99q-11 18 -19 38zM305 367q-3 2 -9 5q-7 4 -10 6q-33 -20 -37 -43q-2 -22 31 -44q11 -8 71 -43l9 -6 q6 -3 9 -5q35 20 37 43q0 23 -30 44q-13 9 -71 43z" glyph-name="section" horiz-adv-x="532" unicode="§"/>
<glyph d="M211 659q9 54 61 79q23 11 48 11q55 0 74 -44q8 -21 4 -46q-9 -54 -61 -79q-24 -11 -49 -11q-55 0 -73 44q-8 21 -4 46zM448 659q9 54 61 79q23 11 48 11q55 0 74 -44q8 -21 4 -46q-9 -54 -61 -79q-24 -11 -49 -11q-55 0 -73 44q-8 21 -4 46z" glyph-name="dieresis" horiz-adv-x="614" unicode="¨"/>
<glyph d="M537 727q165 0 255 -112q81 -98 66 -235q-1 -12 -3 -23q-23 -134 -133 -239q-125 -120 -290 -129q-13 -1 -25 -1q-166 0 -256 113q-79 99 -63 236q1 11 3 20q23 137 133 242q127 121 296 128h17zM427 101q126 0 219 93q70 72 87 163q19 107 -43 182q-63 75 -173 75 q-128 0 -220 -96q-67 -71 -84 -161q-20 -110 44 -185q62 -71 170 -71zM566 316l66 -69q-87 -94 -191 -94q-107 0 -155 78q-36 57 -23 128q16 90 94 150q70 53 156 53q106 -1 154 -93l-90 -74q-30 56 -84 57q-65 0 -97 -55q-10 -19 -14 -40q-10 -59 32 -83q20 -11 45 -11 q54 1 107 53z" glyph-name="copyright" horiz-adv-x="820" unicode="©"/>
<glyph d="M89 262l20 110h295l-20 -110h-295zM437 621l-35 -199h-101l5 28q-30 -35 -81 -37q-75 0 -85 55q-2 15 1 31q14 68 112 91l77 18v1q4 14 -18 19q-7 1 -14 1q-49 -1 -100 -35l-25 87q45 34 115 44q18 2 34 2q84 0 109 -54q11 -24 6 -52zM265 499q29 0 45 28q5 9 7 18v1 l-45 -12q-20 -6 -23 -19q-2 -15 16 -16z" glyph-name="ordfeminine" horiz-adv-x="384" unicode="ª"/>
<glyph d="M302 258l164 209h163l-165 -209l92 -208h-163zM156 50l-91 208l164 209h163l-165 -209l92 -208h-163z" glyph-name="guillemotleft" horiz-adv-x="576" unicode="«"/>
<glyph d="M125 434h495l-51 -286h-151l24 135h-344z" glyph-name="logicalnot" horiz-adv-x="599" unicode="¬"/>
<glyph d="M81 203l25 142h336l-25 -142h-336z" glyph-name="uni00AD" horiz-adv-x="426" unicode="­"/>
<glyph d="M297 379q-99 0 -147 74q-35 57 -23 133q18 100 103 160q64 45 139 45q98 0 146 -71q38 -57 24 -134q-16 -100 -101 -161q-66 -46 -141 -46zM201 586q-13 -82 43 -116q28 -17 66 -17q79 0 125 64q22 31 29 69q15 75 -37 112q-29 20 -70 20q-77 0 -124 -61q-25 -32 -32 -71 zM301 493h-65l33 186h95q43 0 53 -35q4 -14 1 -29q-6 -39 -39 -57l25 -65h-69l-17 54h-8zM322 631l-6 -34h16q16 2 21 16q1 16 -15 18h-16z" glyph-name="registered" horiz-adv-x="460" unicode="®"/>
<glyph d="M135 594l23 132h325l-23 -132h-325z" glyph-name="macron" horiz-adv-x="385" unicode="¯"/>
<glyph d="M259 394q-82 0 -120 63q-27 46 -17 104q14 84 88 133q51 33 108 33q83 0 121 -63q27 -45 17 -103q-14 -82 -87 -132q-52 -35 -110 -35zM280 510q35 0 54 32q5 9 7 19q6 32 -22 46q-10 5 -21 5q-35 0 -54 -32q-5 -9 -7 -19q-6 -32 22 -46q10 -5 21 -5z" glyph-name="degree" horiz-adv-x="380" unicode="°"/>
<glyph d="M277 381h-160l27 151h160l27 155h151l-27 -155h160l-27 -151h-160l-27 -155h-151zM530 27h-480l26 151h480z" glyph-name="plusminus" horiz-adv-x="570" unicode="±"/>
<glyph d="M88 386q14 79 105 130q8 5 17 9q67 34 74 39q16 13 19 25q2 25 -28 26q-36 -1 -75 -43l-72 68q48 63 127 82q23 5 43 5q86 0 116 -58q16 -32 10 -73q-12 -72 -100 -121q-6 -3 -11 -6q-12 -6 -33 -16q-40 -18 -46 -28h167l-19 -107h-302q1 30 8 68z" glyph-name="twosuperior" horiz-adv-x="344" unicode="²"/>
<glyph d="M78 394l99 64q17 -44 59 -45q36 0 47 27q1 4 2 7q-1 35 -45 38q-45 0 -65 -4l11 63l78 64h-121l19 107h276l-14 -79l-102 -77q66 -9 82 -63q6 -24 1 -51q-15 -84 -96 -121q-40 -18 -86 -18q-87 0 -130 61q-9 13 -15 27z" glyph-name="threesuperior" horiz-adv-x="347" unicode="³"/>
<glyph d="M134 563l149 209h212l-219 -209h-142z" glyph-name="acute" horiz-adv-x="394" unicode="´"/>
<glyph d="M305 290h-18q-105 0 -159 72q-44 60 -30 142q19 103 110 164q70 47 155 47h357l-144 -815h-135l117 663h-70l-117 -663h-135z" glyph-name="paragraph" horiz-adv-x="678" unicode="¶"/>
<glyph d="M96 304q9 54 61 79q23 11 48 11q55 0 74 -44q8 -21 4 -46q-12 -56 -64 -80q-22 -10 -46 -10q-53 0 -73 41q-9 22 -4 49z" glyph-name="periodcentered" horiz-adv-x="271" unicode="·"/>
<glyph d="M96 33l74 -33l-22 -43q82 -26 69 -97q-12 -62 -83 -87q-34 -11 -73 -11q-46 0 -71 9l17 97q28 -9 53 -9q44 1 50 20q2 15 -20 20q-11 2 -25 2q-20 0 -36 -2z" glyph-name="cedilla" horiz-adv-x="272" unicode="¸"/>
<glyph d="M370 318h-287l20 111h85l25 143q-36 -15 -93 -15l19 108q76 1 133 50h85l-50 -286h83z" glyph-name="onesuperior" horiz-adv-x="319" unicode="¹"/>
<glyph d="M103 262l20 110h302l-20 -110h-302zM281 413q-81 0 -119 60q-26 43 -17 97q14 80 87 126q49 31 104 31q80 0 119 -59q28 -43 18 -98q-14 -78 -86 -125q-50 -32 -106 -32zM300 521q33 0 51 30q6 9 8 19q5 32 -22 45q-10 4 -20 4q-33 0 -51 -29q-5 -10 -7 -20 q-6 -31 21 -45q10 -4 20 -4z" glyph-name="ordmasculine" horiz-adv-x="416" unicode="º"/>
<glyph d="M276 50l166 209l-93 208h163l92 -208l-165 -209h-163zM39 50l166 209l-93 208h163l92 -208l-165 -209h-163z" glyph-name="guillemotright" horiz-adv-x="578" unicode="»"/>
<glyph d="M597 80h-177l13 74l209 243h123l-39 -223h46l-17 -96h-46l-14 -78h-112zM374 318h-287l20 111h85l25 143q-36 -15 -93 -15l19 108q76 1 133 50h85l-50 -286h83zM118 0l649 715h94l-649 -715h-94zM638 268l-82 -96h65z" glyph-name="onequarter" horiz-adv-x="762" unicode="¼"/>
<glyph d="M814 0h-302q1 30 8 68q14 79 105 130q8 5 17 9q67 34 74 39q16 13 19 25q2 25 -28 26q-36 -1 -75 -43l-72 68q48 63 127 82q23 5 43 5q86 0 116 -58q16 -32 10 -73q-12 -72 -100 -121q-6 -3 -11 -6q-12 -6 -33 -16q-40 -18 -46 -28h167zM374 318h-287l20 111h85l25 143 q-36 -15 -93 -15l19 108q76 1 133 50h85l-50 -286h83zM222 0h-94l649 715h94z" glyph-name="onehalf" horiz-adv-x="832" unicode="½"/>
<glyph d="M81 394l99 64q17 -44 59 -45q36 0 47 27q1 4 2 7q-1 35 -45 38q-45 0 -65 -4l11 63l78 64h-121l19 107h276l-14 -79l-102 -77q66 -9 82 -63q6 -24 1 -51q-15 -84 -96 -121q-40 -18 -86 -18q-87 0 -130 61q-9 13 -15 27zM401 80l13 74l209 243h123l-39 -223h46l-17 -96 h-46l-14 -78h-112l14 80h-177zM193 0h-94l649 715h94zM619 268l-82 -96h65z" glyph-name="threequarters" horiz-adv-x="745" unicode="¾"/>
<glyph d="M375 18l96 -102q-64 -87 -168 -116q-42 -12 -85 -12q-120 0 -174 72q-43 57 -27 145q15 90 107 158q13 10 38 28q58 39 70 61q5 10 7 19l6 37h159l-10 -58q-13 -75 -94 -133q-11 -9 -34 -23q-57 -38 -70 -60q-5 -10 -7 -20q-8 -45 35 -61q15 -5 32 -5q61 0 110 59 q5 6 9 11zM253 437q9 54 61 79q23 11 48 11q55 0 74 -44q8 -21 4 -46q-9 -54 -61 -79q-24 -11 -49 -11q-55 0 -73 44q-8 21 -4 46z" glyph-name="questiondown" horiz-adv-x="490" unicode="¿"/>
<glyph d="M164 0h-178l399 715h169l147 -715h-178l-30 151h-245zM261 972h212l75 -209h-142zM324 297h142l-32 219z" glyph-name="Agrave" unicode="À"/>
<glyph d="M-14 0l399 715h169l147 -715h-178l-30 151h-245l-84 -151h-178zM548 763h-142l149 209h212zM324 297h142l-32 219z" glyph-name="Aacute" unicode="Á"/>
<glyph d="M-14 0l399 715h169l147 -715h-178l-30 151h-245l-84 -151h-178zM270 763l174 214h144l98 -214h-150l-39 108l-77 -108h-150zM324 297h142l-32 219z" glyph-name="Acircumflex" unicode="Â"/>
<glyph d="M-14 0l399 715h169l147 -715h-178l-30 151h-245l-84 -151h-178zM390 768l-109 23q17 99 90 138q33 17 71 17q34 0 82 -27q23 -13 35 -13q33 2 42 44l109 -23q-17 -100 -90 -138q-33 -17 -70 -17q-34 0 -81 27q-24 13 -37 13q-33 -2 -42 -44zM434 516l-110 -219h142z" glyph-name="Atilde" unicode="Ã"/>
<glyph d="M164 0h-178l399 715h169l147 -715h-178l-30 151h-245zM361 769q-55 0 -74 44q-8 21 -4 46q12 57 64 80q22 10 45 10q54 0 73 -41q10 -23 5 -49q-9 -54 -61 -79q-23 -11 -48 -11zM598 769q-55 0 -74 44q-8 21 -4 46q12 57 64 80q22 10 45 10q54 0 73 -41q10 -23 5 -49 q-9 -54 -61 -79q-23 -11 -48 -11zM324 297h142l-32 219z" glyph-name="Adieresis" unicode="Ä"/>
<glyph d="M164 0h-178l399 715h169l147 -715h-178l-30 151h-245zM474 739q-84 0 -106 62q-9 26 -4 58q14 71 78 103q34 17 74 17q82 0 105 -59q11 -28 5 -61q-11 -67 -73 -101q-36 -19 -79 -19zM324 297h142l-32 219zM464 859q-4 -25 19 -29q4 -1 7 -1q27 0 35 26q1 2 1 4 q4 25 -19 29q-4 1 -7 1q-27 0 -35 -26q-1 -2 -1 -4z" glyph-name="Aring" unicode="Å"/>
<glyph d="M-34 0l481 715h627l-27 -152h-283l-22 -128h228l-27 -151h-228l-23 -132h297l-27 -152h-472l33 188h-240l-124 -188h-193zM531 564l-142 -215h163l37 215h-58z" glyph-name="AE" horiz-adv-x="988" unicode="Æ"/>
<glyph d="M289 -101l47 94q-141 23 -208 135q-59 99 -37 230q28 157 150 261q125 108 291 108t243 -113q20 -29 32 -64l-151 -102q-22 71 -92 100q-31 12 -64 12q-111 0 -178 -88q-38 -50 -50 -114q-17 -105 43 -163q43 -40 108 -40q114 1 201 113l117 -101q-90 -120 -230 -162 q-44 -13 -87 -16l-16 -32q82 -26 69 -97q-12 -62 -83 -87q-34 -11 -73 -11q-46 0 -71 9l17 97q28 -9 53 -9q44 1 50 20q2 15 -20 20q-11 2 -25 2q-20 0 -36 -2z" glyph-name="Ccedilla" horiz-adv-x="719" unicode="Ç"/>
<glyph d="M89 0l126 715h478l-27 -152h-303l-22 -128h248l-27 -151h-248l-23 -132h317l-27 -152h-492zM535 763h-142l-145 209h212z" glyph-name="Egrave" horiz-adv-x="607" unicode="È"/>
<glyph d="M77 0l126 715h478l-27 -152h-303l-22 -128h248l-27 -151h-248l-23 -132h317l-27 -152h-492zM349 763l149 209h212l-219 -209h-142z" glyph-name="Eacute" horiz-adv-x="595" unicode="É"/>
<glyph d="M569 0h-492l126 715h478l-27 -152h-303l-22 -128h248l-27 -151h-248l-23 -132h317zM384 763h-150l174 214h144l98 -214h-150l-39 108z" glyph-name="Ecircumflex" horiz-adv-x="595" unicode="Ê"/>
<glyph d="M77 0l126 715h478l-27 -152h-303l-22 -128h248l-27 -151h-248l-23 -132h317l-27 -152h-492zM255 859q12 57 64 80q22 10 45 10q54 0 73 -41q10 -23 5 -49q-9 -54 -61 -79q-23 -11 -48 -11q-55 0 -74 44q-8 21 -4 46zM492 859q12 57 64 80q22 10 45 10q54 0 73 -41 q10 -23 5 -49q-9 -54 -61 -79q-23 -11 -48 -11q-55 0 -74 44q-8 21 -4 46z" glyph-name="Edieresis" horiz-adv-x="595" unicode="Ë"/>
<glyph d="M77 0l126 715h175l-126 -715h-175zM373 763h-142l-145 209h212z" glyph-name="Igrave" horiz-adv-x="329" unicode="Ì"/>
<glyph d="M77 0l126 715h175l-126 -715h-175zM224 763l149 209h212l-219 -209h-142z" glyph-name="Iacute" horiz-adv-x="329" unicode="Í"/>
<glyph d="M252 0h-175l126 715h175zM241 763h-150l174 214h144l98 -214h-150l-39 108z" glyph-name="Icircumflex" horiz-adv-x="329" unicode="Î"/>
<glyph d="M77 0l126 715h175l-126 -715h-175zM104 859q12 57 64 80q22 10 45 10q54 0 73 -41q10 -23 5 -49q-9 -54 -61 -79q-23 -11 -48 -11q-55 0 -74 44q-8 21 -4 46zM340 859q12 57 64 80q22 10 45 10q54 0 73 -41q10 -23 5 -49q-9 -54 -61 -79q-23 -11 -48 -11q-55 0 -74 44 q-8 21 -4 46z" glyph-name="Idieresis" horiz-adv-x="329" unicode="Ï"/>
<glyph d="M62 316l15 86h72l55 313h267q159 0 246 -105q83 -100 59 -247q-1 -3 -1 -4q-26 -151 -146 -254q-124 -105 -284 -105h-267l56 316h-72zM452 316h-143l-30 -166h77q97 0 170 76q54 57 68 132q18 97 -42 159q-48 48 -121 48h-78l-29 -163h143z" glyph-name="Eth" horiz-adv-x="740" unicode="Ð"/>
<glyph d="M77 0l126 715h147l229 -414l73 414h175l-126 -715h-146l-229 421l-74 -421h-175zM427 768l-109 23q17 99 90 138q33 17 71 17q34 0 82 -27q23 -13 35 -13q33 2 42 44l109 -23q-17 -100 -90 -138q-33 -17 -70 -17q-34 0 -81 27q-24 13 -37 13q-33 -2 -42 -44z" glyph-name="Ntilde" horiz-adv-x="778" unicode="Ñ"/>
<glyph d="M91 358q28 154 148 259q127 110 291 110q161 0 249 -105q85 -103 62 -253q-1 -6 -2 -11q-26 -153 -147 -259q-128 -111 -292 -111q-163 0 -251 108q-84 105 -58 260v2zM272 358q-18 -107 45 -165q43 -40 112 -40q100 0 170 79q47 55 59 126q20 104 -42 163 q-45 41 -115 41q-106 0 -175 -85q-41 -52 -54 -119zM619 763h-142l-145 209h212z" glyph-name="Ograve" horiz-adv-x="804" unicode="Ò"/>
<glyph d="M91 358q28 154 148 259q127 110 291 110q161 0 249 -105q85 -103 62 -253q-1 -6 -2 -11q-26 -153 -147 -259q-128 -111 -292 -111q-163 0 -251 108q-84 105 -58 260v2zM272 358q-18 -107 45 -165q43 -40 112 -40q100 0 170 79q47 55 59 126q20 104 -42 163 q-45 41 -115 41q-106 0 -175 -85q-41 -52 -54 -119zM455 763l149 209h212l-219 -209h-142z" glyph-name="Oacute" horiz-adv-x="804" unicode="Ó"/>
<glyph d="M400 -12q-163 0 -251 108q-84 105 -58 260v2q28 154 148 259q127 110 291 110q161 0 249 -105q85 -103 62 -253q-1 -6 -2 -11q-26 -153 -147 -259q-128 -111 -292 -111zM272 358q-18 -107 45 -165q43 -40 112 -40q100 0 170 79q47 55 59 126q20 104 -42 163 q-45 41 -115 41q-106 0 -175 -85q-41 -52 -54 -119zM328 763l174 214h144l98 -214h-150l-39 108l-77 -108h-150z" glyph-name="Ocircumflex" horiz-adv-x="804" unicode="Ô"/>
<glyph d="M91 358q28 154 148 259q127 110 291 110q161 0 249 -105q85 -103 62 -253q-1 -6 -2 -11q-26 -153 -147 -259q-128 -111 -292 -111q-163 0 -251 108q-84 105 -58 260v2zM272 358q-18 -107 45 -165q43 -40 112 -40q100 0 170 79q47 55 59 126q20 104 -42 163 q-45 41 -115 41q-106 0 -175 -85q-41 -52 -54 -119zM447 768l-109 23q17 99 90 138q33 17 71 17q34 0 82 -27q23 -13 35 -13q33 2 42 44l109 -23q-17 -100 -90 -138q-33 -17 -70 -17q-34 0 -81 27q-24 13 -37 13q-33 -2 -42 -44z" glyph-name="Otilde" horiz-adv-x="804" unicode="Õ"/>
<glyph d="M91 358q28 154 148 259q127 110 291 110q161 0 249 -105q85 -103 62 -253q-1 -6 -2 -11q-26 -153 -147 -259q-128 -111 -292 -111q-163 0 -251 108q-84 105 -58 260v2zM272 358q-18 -107 45 -165q43 -40 112 -40q100 0 170 79q47 55 59 126q20 104 -42 163 q-45 41 -115 41q-106 0 -175 -85q-41 -52 -54 -119zM341 859q12 57 64 80q22 10 45 10q54 0 73 -41q10 -23 5 -49q-9 -54 -61 -79q-23 -11 -48 -11q-55 0 -74 44q-8 21 -4 46zM578 859q12 57 64 80q22 10 45 10q54 0 73 -41q10 -23 5 -49q-9 -54 -61 -79q-23 -11 -48 -11 q-55 0 -74 44q-8 21 -4 46z" glyph-name="Odieresis" horiz-adv-x="804" unicode="Ö"/>
<glyph d="M450 358l114 -137l-126 -107l-113 138l-162 -138l-88 107l162 137l-114 138l126 107l114 -138l161 138l88 -107z" glyph-name="multiply" horiz-adv-x="561" unicode="×"/>
<glyph d="M77 -21l89 99q-98 99 -78 257q1 12 3 23q28 154 148 259q127 110 291 110q103 0 177 -45l89 99l57 -44l-89 -99q98 -99 78 -257q-1 -12 -3 -23q-26 -153 -147 -259q-128 -111 -292 -111q-101 0 -177 45l-87 -98zM294 221l289 322q-36 19 -82 19q-106 0 -175 -85 q-41 -52 -54 -119q-13 -82 22 -137zM636 494l-288 -322q34 -19 81 -19q100 0 170 79q47 55 59 126q13 81 -22 136z" glyph-name="Oslash" horiz-adv-x="804" unicode="Ø"/>
<glyph d="M367 -12q-141 0 -210 93q-60 81 -40 195l77 439h176l-75 -425q-16 -87 41 -122q25 -15 60 -15q82 0 125 72q17 29 24 65l75 425h176l-77 -439q-23 -129 -129 -212q-98 -76 -223 -76zM439 763l-145 209h212l75 -209h-142z" glyph-name="Ugrave" horiz-adv-x="738" unicode="Ù"/>
<glyph d="M367 -12q-141 0 -210 93q-60 81 -40 195l77 439h176l-75 -425q-16 -87 41 -122q25 -15 60 -15q82 0 125 72q17 29 24 65l75 425h176l-77 -439q-23 -129 -129 -212q-98 -76 -223 -76zM565 763h-142l149 209h212z" glyph-name="Uacute" horiz-adv-x="738" unicode="Ú"/>
<glyph d="M367 -12q-141 0 -210 93q-60 81 -40 195l77 439h176l-75 -425q-16 -87 41 -122q25 -15 60 -15q82 0 125 72q17 29 24 65l75 425h176l-77 -439q-23 -129 -129 -212q-98 -76 -223 -76zM444 763h-150l174 214h144l98 -214h-150l-39 108z" glyph-name="Ucircumflex" horiz-adv-x="738" unicode="Û"/>
<glyph d="M367 -12q-141 0 -210 93q-60 81 -40 195l77 439h176l-75 -425q-16 -87 41 -122q25 -15 60 -15q82 0 125 72q17 29 24 65l75 425h176l-77 -439q-23 -129 -129 -212q-98 -76 -223 -76zM622 769q-55 0 -74 44q-8 21 -4 46q12 57 64 80q22 10 45 10q54 0 73 -41q10 -23 5 -49 q-9 -54 -61 -79q-23 -11 -48 -11zM385 769q-55 0 -74 44q-8 21 -4 46q12 57 64 80q22 10 45 10q54 0 73 -41q10 -23 5 -49q-9 -54 -61 -79q-23 -11 -48 -11z" glyph-name="Udieresis" horiz-adv-x="738" unicode="Ü"/>
<glyph d="M111 715h191l108 -255l198 255h191l-328 -402l-55 -313h-175l55 313zM533 763h-142l149 209h212z" glyph-name="Yacute" horiz-adv-x="658" unicode="Ý"/>
<glyph d="M203 715h175l-20 -112h102q118 0 177 -81q49 -69 33 -165q-22 -120 -122 -192q-80 -57 -174 -57h-103l-19 -108h-175zM411 453h-79l-34 -194h79q59 0 93 52q14 22 19 47q12 59 -33 84q-20 11 -45 11z" glyph-name="Thorn" horiz-adv-x="629" unicode="Þ"/>
<glyph d="M44 0l90 510q16 89 101 152q90 65 211 65q114 0 179 -66q51 -52 41 -117q-11 -59 -88 -118q-7 -5 -16 -12q-51 -36 -58 -49q-2 -4 -3 -8q-2 -15 36 -42q3 -2 10 -7q11 -8 17 -12q79 -53 91 -111q4 -23 0 -47q-12 -71 -88 -115q-60 -35 -133 -35q-109 0 -158 74 q-11 17 -18 36l120 80q19 -46 55 -58q8 -2 16 -2q29 0 39 23q1 3 2 5q4 17 -42 47l-45 30q-71 52 -74 99q-1 12 1 24q8 45 74 95l14 10q51 40 63 56q8 12 11 24q8 42 -42 56q-16 4 -35 4q-63 0 -96 -47q-12 -19 -16 -40l-89 -504h-170z" glyph-name="germandbls" horiz-adv-x="626" unicode="ß"/>
<glyph d="M171 318l-72 109q78 79 195 96q26 4 51 4q149 0 191 -93q21 -48 10 -112l-57 -322h-161l10 57q-55 -65 -145 -69q-93 0 -131 62q-24 41 -15 93q19 108 176 147q10 2 19 4l137 26l1 1q9 52 -57 58h-13q-74 -1 -139 -61zM215 154q1 -38 41 -41q69 0 95 67q5 13 8 27l2 8 l-87 -16q-52 -12 -59 -45zM428 563h-142l-145 209h212z" glyph-name="agrave" horiz-adv-x="541" unicode="à"/>
<glyph d="M171 318l-72 109q78 79 195 96q26 4 51 4q149 0 191 -93q21 -48 10 -112l-57 -322h-161l10 57q-55 -65 -145 -69q-93 0 -131 62q-24 41 -15 93q19 108 176 147q10 2 19 4l137 26l1 1q9 52 -57 58h-13q-74 -1 -139 -61zM215 154q1 -38 41 -41q69 0 95 67q5 13 8 27l2 8 l-87 -16q-52 -12 -59 -45zM280 563l149 209h212l-219 -209h-142z" glyph-name="aacute" horiz-adv-x="542" unicode="á"/>
<glyph d="M193 -12q-93 0 -131 62q-24 41 -15 93q19 108 176 147q10 2 19 4l137 26l1 1q9 52 -57 58h-13q-74 -1 -139 -61l-72 109q78 79 195 96q26 4 51 4q149 0 191 -93q21 -48 10 -112l-57 -322h-161l10 57q-55 -65 -145 -69zM304 563h-150l174 214h144l98 -214h-150l-39 108z M215 154q1 -38 41 -41q69 0 95 67q5 13 8 27l2 8l-87 -16q-52 -12 -59 -45z" glyph-name="acircumflex" horiz-adv-x="542" unicode="â"/>
<glyph d="M171 318l-72 109q78 79 195 96q26 4 51 4q149 0 191 -93q21 -48 10 -112l-57 -322h-161l10 57q-55 -65 -145 -69q-93 0 -131 62q-24 41 -15 93q19 108 176 147q10 2 19 4l137 26l1 1q9 52 -57 58h-13q-74 -1 -139 -61zM215 154q1 -38 41 -41q69 0 95 67q5 13 8 27l2 8 l-87 -16q-52 -12 -59 -45zM270 568l-109 23q17 99 90 138q33 17 71 17q34 0 82 -27q23 -13 35 -13q33 2 42 44l109 -23q-17 -100 -90 -138q-33 -17 -70 -17q-34 0 -81 27q-24 13 -37 13q-33 -2 -42 -44z" glyph-name="atilde" horiz-adv-x="542" unicode="ã"/>
<glyph d="M171 318l-72 109q78 79 195 96q26 4 51 4q149 0 191 -93q21 -48 10 -112l-57 -322h-161l10 57q-55 -65 -145 -69q-93 0 -131 62q-24 41 -15 93q19 108 176 147q10 2 19 4l137 26l1 1q9 52 -57 58h-13q-74 -1 -139 -61zM215 154q1 -38 41 -41q69 0 95 67q5 13 8 27l2 8 l-87 -16q-52 -12 -59 -45zM167 659q9 54 61 79q23 11 48 11q55 0 74 -44q8 -21 4 -46q-9 -54 -61 -79q-24 -11 -49 -11q-55 0 -73 44q-8 21 -4 46zM404 659q9 54 61 79q23 11 48 11q55 0 74 -44q8 -21 4 -46q-9 -54 -61 -79q-24 -11 -49 -11q-55 0 -73 44q-8 21 -4 46z" glyph-name="adieresis" horiz-adv-x="542" unicode="ä"/>
<glyph d="M171 318l-72 109q78 79 195 96q26 4 51 4q149 0 191 -93q21 -48 10 -112l-57 -322h-161l10 57q-55 -65 -145 -69q-93 0 -131 62q-24 41 -15 93q19 108 176 147q10 2 19 4l137 26l1 1q9 52 -57 58h-13q-74 -1 -139 -61zM215 154q1 -38 41 -41q69 0 95 67q5 13 8 27l2 8 l-87 -16q-52 -12 -59 -45zM348 659q-4 -25 19 -29q4 -1 7 -1q27 0 35 26q1 2 1 4q4 25 -19 29q-4 1 -7 1q-27 0 -35 -26q-1 -2 -1 -4zM248 659q14 71 78 103q34 17 74 17q82 0 105 -59q11 -28 5 -61q-11 -67 -73 -101q-36 -19 -79 -19q-84 0 -106 62q-9 26 -4 58z" glyph-name="aring" horiz-adv-x="542" unicode="å"/>
<glyph d="M222 -12q-104 0 -152 61q-33 43 -22 102q16 89 113 134q56 26 115 26h125l1 6q8 44 -45 63q-21 8 -44 8q-73 -1 -141 -58l-72 104q55 55 144 80q44 13 87 13q120 -1 175 -67q80 67 183 67q118 0 173 -80q44 -67 27 -162q-7 -41 -22 -69h-319q0 -60 55 -81q20 -7 43 -7 q75 0 133 44q3 2 5 4l70 -105q-107 -83 -236 -83q-117 1 -184 86q-78 -74 -185 -85q-14 -1 -27 -1zM217 168q-6 -33 29 -45q12 -3 25 -3q52 0 88 38q19 20 23 44l2 14h-97q-51 0 -66 -36q-3 -6 -4 -12zM661 389q-55 0 -85 -45q-10 -16 -14 -33h169v1q7 49 -34 69 q-17 8 -36 8z" glyph-name="ae" horiz-adv-x="864" unicode="æ"/>
<glyph d="M196 -101l47 94q-107 20 -154 110q-35 70 -20 155q22 124 124 201q90 68 201 68q144 -1 200 -120l-133 -99q-25 66 -89 67q-66 0 -105 -59q-16 -27 -22 -58q-13 -72 36 -104q22 -14 52 -14q55 2 113 58l92 -99q-80 -92 -197 -108q-5 -1 -9 -1l-17 -33q82 -26 69 -97 q-12 -62 -83 -87q-34 -11 -73 -11q-46 0 -71 9l17 97q28 -9 53 -9q44 1 50 20q2 15 -20 20q-11 2 -25 2q-20 0 -36 -2z" glyph-name="ccedilla" horiz-adv-x="529" unicode="ç"/>
<glyph d="M567 216h-326q-3 -60 64 -78q21 -5 44 -5q73 1 131 48l69 -110q-103 -79 -222 -83h-16q-142 0 -208 91q-52 74 -34 178q22 122 122 201q88 69 194 69q129 0 182 -86q38 -63 23 -151q-8 -44 -23 -74zM357 389q-57 0 -87 -42q-10 -15 -14 -31h171v1q7 47 -35 65 q-16 7 -35 7zM465 563h-142l-145 209h212z" glyph-name="egrave" horiz-adv-x="562" unicode="è"/>
<glyph d="M567 216h-326q-3 -60 64 -78q21 -5 44 -5q73 1 131 48l69 -110q-103 -79 -222 -83h-16q-142 0 -208 91q-52 74 -34 178q22 122 122 201q88 69 194 69q129 0 182 -86q38 -63 23 -151q-8 -44 -23 -74zM357 389q-57 0 -87 -42q-10 -15 -14 -31h171v1q7 47 -35 65 q-16 7 -35 7zM318 563l149 209h212l-219 -209h-142z" glyph-name="eacute" horiz-adv-x="562" unicode="é"/>
<glyph d="M311 -12q-142 0 -208 91q-52 74 -34 178q22 122 122 201q88 69 194 69q129 0 182 -86q38 -63 23 -151q-8 -44 -23 -74h-326q-3 -60 64 -78q21 -5 44 -5q73 1 131 48l69 -110q-103 -79 -222 -83h-16zM175 563l174 214h144l98 -214h-150l-39 108l-77 -108h-150zM256 316 h171v1q7 47 -35 65q-16 7 -35 7q-57 0 -87 -42q-10 -15 -14 -31z" glyph-name="ecircumflex" horiz-adv-x="562" unicode="ê"/>
<glyph d="M567 216h-326q-3 -60 64 -78q21 -5 44 -5q73 1 131 48l69 -110q-103 -79 -222 -83h-16q-142 0 -208 91q-52 74 -34 178q22 122 122 201q88 69 194 69q129 0 182 -86q38 -63 23 -151q-8 -44 -23 -74zM357 389q-57 0 -87 -42q-10 -15 -14 -31h171v1q7 47 -35 65 q-16 7 -35 7zM198 659q9 54 61 79q23 11 48 11q55 0 74 -44q8 -21 4 -46q-9 -54 -61 -79q-24 -11 -49 -11q-55 0 -73 44q-8 21 -4 46zM435 659q9 54 61 79q23 11 48 11q55 0 74 -44q8 -21 4 -46q-9 -54 -61 -79q-24 -11 -49 -11q-55 0 -73 44q-8 21 -4 46z" glyph-name="edieresis" horiz-adv-x="562" unicode="ë"/>
<glyph d="M63 0l91 515h174l-91 -515h-174zM322 563h-142l-145 209h212z" glyph-name="igrave" horiz-adv-x="300" unicode="ì"/>
<glyph d="M63 0l91 515h174l-91 -515h-174zM178 563l149 209h212l-219 -209h-142z" glyph-name="iacute" horiz-adv-x="300" unicode="í"/>
<glyph d="M63 0l91 515h174l-91 -515h-174zM41 563l174 214h144l98 -214h-150l-39 108l-77 -108h-150z" glyph-name="icircumflex" horiz-adv-x="300" unicode="î"/>
<glyph d="M63 0l91 515h174l-91 -515h-174zM54 659q9 54 61 79q23 11 48 11q55 0 74 -44q8 -21 4 -46q-9 -54 -61 -79q-24 -11 -49 -11q-55 0 -73 44q-8 21 -4 46zM290 659q9 54 61 79q23 11 48 11q55 0 74 -44q8 -21 4 -46q-9 -54 -61 -79q-24 -11 -49 -11q-55 0 -73 44 q-8 21 -4 46z" glyph-name="idieresis" horiz-adv-x="300" unicode="ï"/>
<glyph d="M53 246q21 107 101 182q79 72 175 72q39 0 67 -18l1 1q-38 37 -97 63l-124 -53l-17 54l65 28q-38 12 -63 17l72 135q104 -26 179 -72l126 54l16 -54l-87 -37q153 -128 115 -345q-25 -137 -117 -216q-81 -69 -195 -69q-130 0 -188 96q-44 72 -29 162zM227 246 q-14 -84 37 -106q15 -6 32 -6q63 0 93 66q10 21 14 46q15 83 -33 108q-15 8 -33 8q-60 0 -93 -64q-12 -24 -17 -52z" glyph-name="eth" horiz-adv-x="556" unicode="ð"/>
<glyph d="M237 0h-174l91 515h166l-11 -61q61 73 160 73q122 0 157 -92q18 -51 6 -121l-55 -314h-174l50 283q15 84 -54 91q-7 1 -12 1q-60 0 -89 -61q-9 -20 -13 -43zM327 568l-109 23q17 99 90 138q33 17 71 17q34 0 82 -27q23 -13 35 -13q33 2 42 44l109 -23q-17 -100 -90 -138 q-33 -17 -70 -17q-34 0 -81 27q-24 13 -37 13q-33 -2 -42 -44z" glyph-name="ntilde" horiz-adv-x="632" unicode="ñ"/>
<glyph d="M69 258q22 123 125 201q90 68 203 68q131 0 196 -88q54 -75 36 -181q-22 -124 -124 -202q-90 -68 -203 -68q-129 0 -195 87q-57 76 -38 183zM245 258q-14 -79 39 -108q20 -10 45 -10q66 0 103 59q16 26 22 59q15 77 -37 106q-21 11 -47 11q-70 0 -106 -65 q-13 -24 -19 -52zM476 563h-142l-145 209h212z" glyph-name="ograve" horiz-adv-x="608" unicode="ò"/>
<glyph d="M69 258q22 123 125 201q90 68 203 68q131 0 196 -88q54 -75 36 -181q-22 -124 -124 -202q-90 -68 -203 -68q-129 0 -195 87q-57 76 -38 183zM245 258q-14 -79 39 -108q20 -10 45 -10q66 0 103 59q16 26 22 59q15 77 -37 106q-21 11 -47 11q-70 0 -106 -65 q-13 -24 -19 -52zM330 563l149 209h212l-219 -209h-142z" glyph-name="oacute" horiz-adv-x="608" unicode="ó"/>
<glyph d="M302 -12q-129 0 -195 87q-57 76 -38 183q22 123 125 201q90 68 203 68q131 0 196 -88q54 -75 36 -181q-22 -124 -124 -202q-90 -68 -203 -68zM196 563l174 214h144l98 -214h-150l-39 108l-77 -108h-150zM245 258q-14 -79 39 -108q20 -10 45 -10q66 0 103 59q16 26 22 59 q15 77 -37 106q-21 11 -47 11q-70 0 -106 -65q-13 -24 -19 -52z" glyph-name="ocircumflex" horiz-adv-x="608" unicode="ô"/>
<glyph d="M69 258q22 123 125 201q90 68 203 68q131 0 196 -88q54 -75 36 -181q-22 -124 -124 -202q-90 -68 -203 -68q-129 0 -195 87q-57 76 -38 183zM245 258q-14 -79 39 -108q20 -10 45 -10q66 0 103 59q16 26 22 59q15 77 -37 106q-21 11 -47 11q-70 0 -106 -65 q-13 -24 -19 -52zM315 568l-109 23q17 99 90 138q33 17 71 17q34 0 82 -27q23 -13 35 -13q33 2 42 44l109 -23q-17 -100 -90 -138q-33 -17 -70 -17q-34 0 -81 27q-24 13 -37 13q-33 -2 -42 -44z" glyph-name="otilde" horiz-adv-x="608" unicode="õ"/>
<glyph d="M69 258q22 123 125 201q90 68 203 68q131 0 196 -88q54 -75 36 -181q-22 -124 -124 -202q-90 -68 -203 -68q-129 0 -195 87q-57 76 -38 183zM245 258q-14 -79 39 -108q20 -10 45 -10q66 0 103 59q16 26 22 59q15 77 -37 106q-21 11 -47 11q-70 0 -106 -65 q-13 -24 -19 -52zM209 659q9 54 61 79q23 11 48 11q55 0 74 -44q8 -21 4 -46q-9 -54 -61 -79q-24 -11 -49 -11q-55 0 -73 44q-8 21 -4 46zM446 659q9 54 61 79q23 11 48 11q55 0 74 -44q8 -21 4 -46q-9 -54 -61 -79q-24 -11 -49 -11q-55 0 -73 44q-8 21 -4 46z" glyph-name="odieresis" horiz-adv-x="608" unicode="ö"/>
<glyph d="M193 131q9 54 61 79q23 11 48 11q55 0 74 -44q8 -21 4 -46q-9 -54 -61 -79q-24 -11 -49 -11q-55 0 -73 44q-8 21 -4 46zM103 417h470l-27 -151h-470zM267 552q12 57 64 80q22 10 45 10q54 0 73 -41q10 -23 5 -49q-9 -54 -61 -79q-24 -11 -49 -11q-55 0 -73 44 q-8 21 -4 46z" glyph-name="divide" horiz-adv-x="528" unicode="÷"/>
<glyph d="M44 -31l79 88q-75 78 -55 197q1 3 1 4q22 123 125 201q90 68 203 68q68 0 123 -27l81 91l54 -44l-79 -88q75 -80 53 -201q-22 -124 -124 -202q-90 -68 -203 -68q-68 0 -123 27l-80 -90zM452 320l-156 -175q19 -5 33 -5q66 0 103 59q16 26 22 59t-2 62zM248 196l155 174 q-19 5 -33 5q-70 0 -106 -65q-13 -24 -19 -52q-6 -37 3 -62z" glyph-name="oslash" horiz-adv-x="608" unicode="ø"/>
<glyph d="M254 -12q-122 0 -157 92q-18 51 -6 121l55 314h174l-50 -283q-15 -84 54 -91q7 -1 12 -1q60 0 89 61q9 20 13 43l48 271h174l-91 -515h-166l11 61q-61 -73 -160 -73zM337 563l-145 209h212l75 -209h-142z" glyph-name="ugrave" horiz-adv-x="632" unicode="ù"/>
<glyph d="M254 -12q-122 0 -157 92q-18 51 -6 121l55 314h174l-50 -283q-15 -84 54 -91q7 -1 12 -1q60 0 89 61q9 20 13 43l48 271h174l-91 -515h-166l11 61q-61 -73 -160 -73zM476 563h-142l149 209h212z" glyph-name="uacute" horiz-adv-x="632" unicode="ú"/>
<glyph d="M254 -12q-122 0 -157 92q-18 51 -6 121l55 314h174l-50 -283q-15 -84 54 -91q7 -1 12 -1q60 0 89 61q9 20 13 43l48 271h174l-91 -515h-166l11 61q-61 -73 -160 -73zM349 563h-150l174 214h144l98 -214h-150l-39 108z" glyph-name="ucircumflex" horiz-adv-x="632" unicode="û"/>
<glyph d="M254 -12q-122 0 -157 92q-18 51 -6 121l55 314h174l-50 -283q-15 -84 54 -91q7 -1 12 -1q60 0 89 61q9 20 13 43l48 271h174l-91 -515h-166l11 61q-61 -73 -160 -73zM526 569q-55 0 -73 44q-8 21 -4 46q9 54 61 79q23 11 48 11q55 0 74 -44q8 -21 4 -46q-9 -54 -61 -79 q-24 -11 -49 -11zM289 569q-55 0 -73 44q-8 21 -4 46q9 54 61 79q23 11 48 11q55 0 74 -44q8 -21 4 -46q-9 -54 -61 -79q-24 -11 -49 -11z" glyph-name="udieresis" horiz-adv-x="632" unicode="ü"/>
<glyph d="M75 -212q-56 0 -96 22l25 141q32 -16 70 -16q62 0 96 47q12 18 22 40l-112 493h179l52 -317l167 317h175l-315 -540q-84 -143 -181 -175q-38 -12 -82 -12zM440 563h-142l149 209h212z" glyph-name="yacute" horiz-adv-x="552" unicode="ý"/>
<glyph d="M26 -200l126 715h1l35 200h173l-44 -252q66 64 153 64q99 0 156 -76q57 -78 37 -193q-23 -130 -119 -208q-77 -62 -171 -62q-98 1 -129 62l-44 -250h-174zM276 256q-13 -74 37 -104q22 -12 50 -12q62 0 99 54q19 28 25 62q13 72 -34 105q-22 14 -49 14q-66 0 -105 -59 q-17 -27 -23 -60z" glyph-name="thorn" horiz-adv-x="642" unicode="þ"/>
</font>
</defs>
</svg>
