<?xml version="1.0" encoding="UTF-8"?>
<!DOCTYPE svg  PUBLIC '-//W3C//DTD SVG 1.1//EN'  'http://www.w3.org/Graphics/SVG/1.1/DTD/svg11.dtd'>
<svg version="1.1" xmlns="http://www.w3.org/2000/svg">
<defs>
<font id="Rotunda-Hairline" horiz-adv-x="846">
<font-face font-family="Rotunda Hairline" font-weight="250" ascent="800" bbox="-21 -212 928 917" cap-height="698" descent="-200" panose-1="0 0 0 0 0 0 0 0 0 0" underline-position="-100" underline-thickness="50" unicode-range="U+0020-00FE" units-per-em="1000" x-height="498"/>
<missing-glyph/>
<glyph glyph-name="space" horiz-adv-x="274" unicode=" "/>
<glyph d="M122 161l-4 537h30l-4 -537h-22zM101 22q0 25 23 32q5 1 10 1q25 0 32 -23q1 -5 1 -10q0 -25 -23 -32q-5 -1 -10 -1q-25 0 -32 23q-1 5 -1 10z" glyph-name="exclam" horiz-adv-x="267" unicode="!"/>
<glyph d="M207 490l-4 208h30l-4 -208h-22zM83 490l-4 208h30l-4 -208h-22z" glyph-name="quotedbl" horiz-adv-x="312" unicode='"'/>
<glyph d="M53 244l4 23h152l27 164h-152l4 23h152l38 225h26l-39 -225h188l37 225h26l-39 -225h151l-4 -23h-150l-29 -164h152l-4 -23h-151l-39 -225h-23l38 225h-188l-39 -225h-24l38 225h-152zM233 267h188l28 164h-187z" glyph-name="numbersign" horiz-adv-x="680" unicode="#"/>
<glyph d="M252 -107v95q-111 5 -177 79q-14 17 -24 35l21 14q47 -82 149 -99q21 -3 42 -3q97 0 148 63q32 39 32 90q0 91 -98 144q-30 16 -91 39q-105 42 -142 80q-42 42 -42 102q0 82 66 134q51 41 122 44v97h25v-97q121 -7 172 -98l-21 -14q-52 85 -164 86q-96 0 -145 -66 q-28 -38 -28 -86q0 -79 96 -128q26 -13 69 -30q110 -42 152 -81q56 -51 56 -126q0 -89 -74 -141q-51 -35 -119 -38v-95h-25z" glyph-name="dollar" horiz-adv-x="526" unicode="$"/>
<glyph d="M365 556q0 -81 -64 -125q-41 -29 -92 -29q-79 0 -126 60q-31 42 -31 94q0 78 63 124q42 30 94 30q80 0 126 -61q30 -42 30 -93zM339 556q0 67 -54 106q-34 24 -76 24q-66 0 -106 -53q-26 -35 -26 -77q0 -67 55 -106q35 -24 77 -24q69 0 107 55q23 34 23 75zM738 142 q0 -81 -64 -125q-41 -29 -92 -29q-79 0 -126 60q-31 42 -31 94q0 78 63 124q42 30 94 30q80 0 126 -61q30 -42 30 -93zM712 142q0 67 -54 106q-34 24 -76 24q-66 0 -106 -53q-26 -35 -26 -77q0 -67 55 -106q35 -24 77 -24q69 0 107 55q23 34 23 75zM123 0l511 698h30 l-511 -698h-30z" glyph-name="percent" horiz-adv-x="790" unicode="%"/>
<glyph d="M63 174q0 71 70 128q41 33 125 80q-74 72 -94 103q-26 41 -26 84q0 75 70 115q46 26 105 26q92 0 141 -59q30 -37 30 -82q0 -66 -81 -128q-37 -29 -101 -66l25 -25l218 -221q66 100 49 246h25q16 -157 -56 -264l109 -111h-36l-89 90q-82 -102 -234 -102q-122 0 -196 69 q-53 51 -54 117zM90 174q0 -74 77 -122q64 -39 146 -39q141 1 217 95l-217 219l-37 37q-120 -68 -153 -105q-33 -38 -33 -85zM164 570q0 -56 56 -115q8 -9 63 -62q139 78 166 135q9 20 9 40q0 63 -62 96q-37 20 -83 20q-85 0 -127 -52q-22 -28 -22 -62z" glyph-name="ampersand" horiz-adv-x="697" unicode="&amp;"/>
<glyph d="M105 490h-22l-4 208h30z" glyph-name="quotesingle" horiz-adv-x="188" unicode="'"/>
<glyph d="M177 768h26q-105 -212 -105 -449q0 -238 105 -449h-26q-107 221 -107 449q0 231 107 449z" glyph-name="parenleft" horiz-adv-x="254" unicode="("/>
<glyph d="M77 -130h-26q105 211 105 449t-105 449h26q107 -222 107 -449q0 -231 -107 -449z" glyph-name="parenright" horiz-adv-x="254" unicode=")"/>
<glyph d="M67 569v27l112 -6l-59 97l23 13l50 -101l50 101l23 -13l-59 -97l112 6v-27l-112 6l59 -97l-23 -13l-50 101l-50 -101l-23 13l59 97z" glyph-name="asterisk" horiz-adv-x="386" unicode="*"/>
<glyph d="M53 362h218v218h24v-218h218v-24h-218v-218h-24v218h-218v24z" glyph-name="plus" horiz-adv-x="566" unicode="+"/>
<glyph d="M75 -105l35 94q-23 6 -24 30q4 29 31 31q29 -4 31 -31q0 -7 -3 -14l-46 -110h-24z" glyph-name="comma" horiz-adv-x="223" unicode=","/>
<glyph d="M379 259h-292v24h292v-24z" glyph-name="hyphen" horiz-adv-x="466" unicode="-"/>
<glyph d="M72 19q4 29 31 31q29 -4 31 -31q-4 -29 -31 -31q-29 4 -31 31z" glyph-name="period" horiz-adv-x="206" unicode="."/>
<glyph d="M420 778h27l-379 -918h-27z" glyph-name="slash" horiz-adv-x="488" unicode="/"/>
<glyph d="M325 -12q-161 0 -221 171q-28 83 -28 191q0 202 91 297q63 64 158 64q161 0 221 -171q29 -82 29 -190q0 -206 -94 -300q-62 -62 -156 -62zM103 350q0 -193 84 -280q55 -56 138 -56q152 0 202 175q21 72 21 161q0 192 -84 279q-55 56 -139 56q-150 0 -201 -173 q-21 -72 -21 -162z" glyph-name="zero" horiz-adv-x="651" unicode="0"/>
<glyph d="M246 24v632q-44 -49 -135 -67q-22 -5 -42 -6v25q127 9 175 85q2 3 3 5h24v-674h168v-24h-362v24h169z" glyph-name="one" horiz-adv-x="476" unicode="1"/>
<glyph d="M276 684q-107 0 -165 -78q-10 -14 -17 -29l-21 13q52 100 162 117q20 3 40 3q115 0 170 -83q32 -47 32 -105q0 -101 -104 -188q-21 -18 -124 -90q-99 -70 -132 -125q-26 -45 -25 -95h410v-24h-433q-2 15 -2 28q0 102 103 188q21 18 123 88q99 69 131 125q26 44 26 93 q0 86 -66 132q-45 30 -108 30z" glyph-name="two" horiz-adv-x="575" unicode="2"/>
<glyph d="M52 109l22 13q53 -99 169 -107q9 -1 18 -1q84 0 143 58q52 52 52 128q0 97 -76 148q-54 35 -128 35q-22 0 -36 -2v22l223 271h-357v24h388v-25l-218 -264q126 0 191 -85q40 -55 40 -125q0 -98 -78 -160q-63 -51 -146 -51q-121 0 -189 93q-10 14 -18 28z" glyph-name="three" horiz-adv-x="558" unicode="3"/>
<glyph d="M43 204v18l363 476h17v-470h108v-24h-108v-204h-25v204h-355zM79 228h319v418z" glyph-name="four" horiz-adv-x="594" unicode="4"/>
<glyph d="M255 14q90 0 150 69q48 56 48 128q0 101 -68 158q-51 41 -121 41q-107 -1 -166 -77l-21 7l40 358h327v-24h-304l-33 -297q42 42 112 55q23 4 45 4q108 0 170 -82q46 -62 46 -143q0 -102 -77 -168q-64 -55 -149 -55q-120 0 -185 97q-8 13 -14 25l22 14q57 -109 178 -110z " glyph-name="five" horiz-adv-x="545" unicode="5"/>
<glyph d="M292 -12q-104 0 -170 76q-55 62 -55 145q0 70 53 158q13 22 44 70l174 261h30l-199 -300q54 36 122 36q101 0 169 -74q57 -63 57 -148q0 -102 -76 -169q-64 -55 -149 -55zM292 14q97 0 155 72q43 54 43 126q0 94 -71 152q-55 44 -128 44q-106 0 -161 -77 q-36 -52 -36 -122q0 -98 74 -155q54 -40 124 -40z" glyph-name="six" horiz-adv-x="571" unicode="6"/>
<glyph d="M106 0l347 674h-403v24h433v-20l-349 -678h-28z" glyph-name="seven" horiz-adv-x="523" unicode="7"/>
<glyph d="M298 710q96 0 155 -64q43 -48 43 -109q0 -84 -71 -136q-25 -18 -53 -28q101 -34 137 -116q14 -33 14 -68q0 -102 -84 -160q-61 -41 -141 -41q-111 0 -176 72q-48 55 -48 129q0 94 86 152q30 20 65 32q-78 27 -110 98q-14 32 -14 66q0 84 72 135q55 38 125 38zM298 358 q-93 0 -152 -62q-45 -47 -45 -107q0 -89 75 -140q54 -35 122 -35q98 0 156 65q42 47 42 110q0 81 -73 131q-55 38 -125 38zM298 684q-82 0 -134 -57q-36 -40 -36 -90q0 -76 67 -120q46 -31 103 -31q85 0 136 59q35 40 35 92q0 71 -65 115q-47 32 -106 32z" glyph-name="eight" horiz-adv-x="597" unicode="8"/>
<glyph d="M279 710q104 0 170 -76q55 -62 55 -145q0 -74 -59 -169q-15 -24 -38 -59l-174 -261h-30l199 300q-54 -36 -122 -36q-101 0 -169 74q-57 63 -57 148q0 102 76 169q64 55 149 55zM279 684q-97 0 -155 -72q-43 -54 -43 -126q0 -94 71 -152q55 -44 128 -44q105 0 161 78 q36 52 36 121q0 98 -74 155q-54 40 -124 40z" glyph-name="nine" horiz-adv-x="571" unicode="9"/>
<glyph d="M87 19q4 29 31 31q29 -4 31 -31q-4 -29 -31 -31q-29 4 -31 31zM87 479q4 29 31 31q29 -4 31 -31q-4 -29 -31 -31q-29 4 -31 31z" glyph-name="colon" horiz-adv-x="236" unicode=":"/>
<glyph d="M88 -105l35 94q-23 6 -24 30q4 29 31 31q29 -4 31 -31q0 -7 -3 -14l-46 -110h-24zM99 479q4 29 31 31q29 -4 31 -31q-4 -29 -31 -31q-29 4 -31 31z" glyph-name="semicolon" horiz-adv-x="249" unicode=";"/>
<glyph d="M451 155l-398 184v20l398 185v-27l-363 -168l363 -167v-27z" glyph-name="less" horiz-adv-x="544" unicode="&lt;"/>
<glyph d="M90 260h431v-24h-431v24zM521 439h-431v24h431v-24z" glyph-name="equal" horiz-adv-x="611" unicode="="/>
<glyph d="M93 181l363 168l-363 167v27l398 -184v-20l-398 -185v27z" glyph-name="greater" horiz-adv-x="544" unicode="&gt;"/>
<glyph d="M403 541q0 -76 -63 -143l-30 -30q-57 -54 -73 -90q-15 -32 -15 -67v-47h-25v47q0 75 62 141q10 10 30 29q56 55 73 91q14 32 14 68q0 89 -69 127q-36 19 -83 19q-99 0 -151 -83q-5 -7 -8 -14l-19 13q53 98 159 107q9 1 18 1q101 0 151 -72q29 -43 29 -97zM179 19 q4 29 31 31q29 -4 31 -31q-4 -29 -31 -31q-29 4 -31 31z" glyph-name="question" horiz-adv-x="462" unicode="?"/>
<glyph d="M453 -107q-154 0 -265.5 107.5t-123.5 267.5q-1 16 -1 32q0 164 108 281q105 114 259 127q18 2 36 2q160 0 273 -109q115 -110 124 -278q1 -13 1 -26q0 -109 -56 -177q-39 -47 -89 -48q-57 0 -82 46q-10 21 -10 46v15q-38 -80 -122 -101q-25 -6 -51 -6q-96 0 -159 76 q-53 63 -53 146q0 100 72 166q62 55 143 55q113 0 165 -98l5 -10v96h25v-338q0 -54 45 -66q10 -3 21 -3q59 0 94 78q25 55 25 123q0 166 -107 277q-112 107 -264 110q-156 0 -263.5 -106t-112.5 -265v-13q0 -156 101 -266q100 -109 247 -115h15q146 1 243 86l17 -19 q-104 -93 -260 -93zM457 489q-89 0 -145 -71q-43 -55 -43 -124q0 -94 68 -152q52 -44 120 -44q110 0 152 94q20 45 20 100q0 118 -74 169q-41 28 -98 28z" glyph-name="at" horiz-adv-x="932" unicode="@"/>
<glyph d="M53 0h-27l281 698h30l281 -698h-27l-103 256h-332zM165 280h314l-157 390z" glyph-name="A" horiz-adv-x="644" unicode="A"/>
<glyph d="M117 0v698h225q119 0 172 -77q30 -43 30 -100q0 -105 -87 -152q-16 -8 -32 -14q108 -27 134 -116q7 -25 7 -52q0 -100 -83 -152q-56 -35 -132 -35h-234zM142 342v-318h219q92 0 144 65q34 43 34 98q0 86 -76 129q-47 26 -105 26h-216zM348 674h-206v-308h216q95 0 138 72 q21 37 21 83q0 97 -81 135q-39 18 -88 18z" glyph-name="B" horiz-adv-x="640" unicode="B"/>
<glyph d="M670 143l21 -16q-90 -130 -254 -138q-11 -1 -21 -1q-151 0 -250 106q-98 104 -98 256q0 154 103 258q101 102 250 102q150 -1 249 -111l-20 -19q-89 104 -229 104q-143 0 -237 -100q-89 -96 -89 -234q0 -146 94 -243q92 -93 227 -93q144 0 234 104q11 12 20 25z" glyph-name="C" horiz-adv-x="738" unicode="C"/>
<glyph d="M117 0v698h214q141 0 242 -97q103 -97 108 -238v-13q0 -141 -99 -243q-97 -100 -235 -107h-16h-214zM142 24h182q138 0 234 95q96 96 96 231t-96 229q-96 95 -234 95h-182v-650z" glyph-name="D" horiz-adv-x="749" unicode="D"/>
<glyph d="M117 698h406v-24h-381v-309h319v-24h-319v-317h400v-24h-425v698z" glyph-name="E" horiz-adv-x="608" unicode="E"/>
<glyph d="M117 698h367v-24h-342v-313h300v-24h-300v-337h-25v698z" glyph-name="F" horiz-adv-x="541" unicode="F"/>
<glyph d="M68 350q0 153 102 257q104 102 252 103q150 -1 247 -97l-17 -21q-84 92 -230 92q-143 0 -237 -100q-90 -96 -90 -234q0 -145 96 -242q93 -94 230 -94q115 0 203 65q25 19 43 41v199h-223v24h248v-233v-1q-78 -98 -216 -117q-28 -4 -55 -4q-149 0 -251 104 q-101 106 -102 258z" glyph-name="G" horiz-adv-x="766" unicode="G"/>
<glyph d="M117 698h25v-335h470v335h25v-698h-25v339h-470v-339h-25v698z" glyph-name="H" horiz-adv-x="754" unicode="H"/>
<glyph d="M117 0v698h25v-698h-25z" glyph-name="I" horiz-adv-x="259" unicode="I"/>
<glyph d="M33 120l21 11q21 -77 89 -107q28 -12 59 -12q85 0 129 70q26 44 26 101v515h25v-513q0 -109 -73 -163q-46 -34 -106 -34q-86 0 -137 66q-23 30 -33 66z" glyph-name="J" horiz-adv-x="492" unicode="J"/>
<glyph d="M117 0v698h25v-456l385 456h32l-245 -290l282 -408h-30l-269 388l-155 -184v-204h-25z" glyph-name="K" horiz-adv-x="612" unicode="K"/>
<glyph d="M117 0v698h25v-674h343v-24h-368z" glyph-name="L" horiz-adv-x="526" unicode="L"/>
<glyph d="M117 0v698h20l313 -491l313 491h20v-698h-25v643l-299 -468h-18l-299 468v-643h-25z" glyph-name="M" horiz-adv-x="900" unicode="M"/>
<glyph d="M117 0v698h18l473 -646v646h25v-698h-18l-473 646v-646h-25z" glyph-name="N" horiz-adv-x="750" unicode="N"/>
<glyph d="M423 710q145 0 247 -100q104 -111 108 -261q0 -151 -102 -256q-109 -101 -253 -105q-145 0 -247 100q-104 111 -108 261q0 151 102 256q109 101 253 105zM423 684q-137 0 -232 -97q-96 -98 -96 -238q0 -141 96 -238t232 -97q137 0 232 97q96 98 96 238q0 141 -96 238 t-232 97z" glyph-name="O" unicode="O"/>
<glyph d="M117 0v698h232q99 0 158 -73q43 -55 43 -128q0 -99 -74 -158q-55 -44 -127 -44h-207v-295h-25zM142 319h209q85 0 135 65q37 48 37 113q0 96 -72 146q-44 31 -100 31h-209v-355z" glyph-name="P" horiz-adv-x="602" unicode="P"/>
<glyph d="M423 -12q-145 0 -247 100q-104 111 -108 261q0 151 102 256q109 101 253 105q145 0 247 -100q104 -111 108 -261q0 -153 -103 -257q-38 -38 -85 -63l138 -189h-32l-130 177q-69 -29 -143 -29zM423 684q-137 0 -232 -97q-96 -98 -96 -238q0 -141 96 -238t232 -97 q137 0 232 97q96 98 96 238q0 141 -96 238t-232 97z" glyph-name="Q" unicode="Q"/>
<glyph d="M117 0v698h249q95 0 154 -67q47 -54 47 -127q0 -118 -107 -171q-25 -13 -53 -20l159 -313h-28l-157 309h-239v-309h-25zM365 674h-223v-341h227q81 0 133 62q38 47 38 109q0 86 -70 136q-47 34 -105 34z" glyph-name="R" horiz-adv-x="638" unicode="R"/>
<glyph d="M462 612l-21 -14q-52 85 -164 86q-96 0 -145 -66q-28 -38 -28 -86q0 -79 96 -128q26 -13 69 -30q110 -42 152 -81q56 -51 56 -126q0 -88 -73 -140q-56 -39 -134 -39q-111 0 -182 73q-18 20 -30 41l21 14q47 -82 149 -99q21 -3 42 -3q97 0 148 63q32 39 32 90 q0 91 -98 144q-30 16 -91 39q-105 42 -142 80q-42 42 -42 102q0 82 65 134q56 44 135 44q132 -1 185 -98z" glyph-name="S" horiz-adv-x="542" unicode="S"/>
<glyph d="M39 674v24h500v-24h-238v-674h-24v674h-238z" glyph-name="T" horiz-adv-x="579" unicode="T"/>
<glyph d="M108 250v448h25v-444q0 -131 87 -197q59 -45 143 -45q129 0 191 97q39 61 39 145v444h25v-448q0 -138 -92 -210q-67 -52 -163 -52q-138 0 -208 100q-47 68 -47 162z" glyph-name="U" horiz-adv-x="726" unicode="U"/>
<glyph d="M27 698h27l264 -662l264 662h27l-279 -698h-24z" glyph-name="V" horiz-adv-x="636" unicode="V"/>
<glyph d="M32 698h26l221 -663l191 663h20l191 -663l221 663h26l-232 -698h-31l-185 642l-185 -642h-31z" glyph-name="W" horiz-adv-x="960" unicode="W"/>
<glyph d="M30 0l243 372l-219 326h30l204 -305l204 305h30l-219 -326l243 -372h-30l-228 350l-228 -350h-30z" glyph-name="X" horiz-adv-x="576" unicode="X"/>
<glyph d="M25 698h31l234 -335l234 335h31l-252 -360v-338h-25v338z" glyph-name="Y" horiz-adv-x="580" unicode="Y"/>
<glyph d="M57 0v23l418 651h-400v24h430v-23l-418 -651h411v-24h-441z" glyph-name="Z" horiz-adv-x="565" unicode="Z"/>
<glyph d="M114 -130v898h173v-24h-148v-850h148v-24h-173z" glyph-name="bracketleft" horiz-adv-x="337" unicode="["/>
<glyph d="M447 -140h-27l-379 918h27z" glyph-name="backslash" horiz-adv-x="488" unicode="\"/>
<glyph d="M198 744h-148v24h173v-898h-173v24h148v850z" glyph-name="bracketright" horiz-adv-x="337" unicode="]"/>
<glyph d="M58 409l171 289h31l171 -289h-28l-158 268l-159 -268h-28z" glyph-name="asciicircum" horiz-adv-x="489" unicode="^"/>
<glyph d="M496 -114h-432v24h432v-24z" glyph-name="underscore" horiz-adv-x="560" unicode="_"/>
<glyph d="M198 568h-26l-97 149h34z" glyph-name="grave" horiz-adv-x="273" unicode="`"/>
<glyph d="M62 119q2 108 148 139l209 41v32q0 103 -81 140q-35 15 -79 15q-94 0 -156 -69q-5 -6 -9 -11l-18 15q46 61 122 81q30 8 60 8q111 0 159 -79q26 -43 26 -99v-332h-24v125q-44 -97 -136 -127q-33 -10 -67 -10q-81 0 -126 53q-28 35 -28 78zM419 275l-204 -39 q-128 -26 -129 -117q0 -58 57 -90q33 -18 72 -18q94 0 156 75q48 59 48 129v60z" glyph-name="a" horiz-adv-x="536" unicode="a"/>
<glyph d="M127 0h-24v698h24v-329q30 85 118 122q44 19 89 19q104 0 175 -82q65 -76 65 -179q0 -116 -79 -194q-69 -67 -161 -67q-100 0 -167 73q-25 28 -40 62v-123zM331 13q102 0 165 81q52 67 52 155q0 111 -74 181q-60 56 -141 56q-115 0 -172 -97q-36 -61 -36 -140 q0 -114 69 -182q56 -54 137 -54z" glyph-name="b" horiz-adv-x="639" unicode="b"/>
<glyph d="M499 111l18 -14q-78 -108 -207 -109q-108 0 -181 82q-66 76 -66 180q0 119 82 196q70 64 166 64q120 -1 193 -92l-18 -16q-70 84 -175 84q-104 0 -169 -80q-53 -66 -53 -156q0 -112 77 -182q62 -55 144 -55q120 1 189 98z" glyph-name="c" horiz-adv-x="564" unicode="c"/>
<glyph d="M305 -12q-104 0 -175 82q-65 76 -65 179q0 116 79 194q69 67 161 67t157 -63q34 -34 50 -78v329h24v-698h-24v123q-37 -86 -125 -120q-40 -15 -82 -15zM91 249q0 -110 74 -180q61 -56 143 -56q112 0 169 95q37 62 37 141q0 117 -71 185q-56 52 -137 52q-102 0 -165 -82 q-50 -67 -50 -155z" glyph-name="d" horiz-adv-x="639" unicode="d"/>
<glyph d="M310 510q106 0 170 -78q51 -63 51 -149q0 -19 -2 -30h-439q0 -121 81 -189q61 -51 145 -51q114 1 180 86l18 -16q-75 -95 -198 -95q-129 0 -200 96q-52 72 -52 170q0 117 82 193q70 63 164 63zM309 486q-100 0 -165 -77q-48 -58 -53 -132h415v5q0 113 -83 170 q-50 34 -114 34z" glyph-name="e" horiz-adv-x="594" unicode="e"/>
<glyph d="M150 474h-91v24h91v83q0 94 69 121q22 8 47 8q35 0 55 -11v-25q-29 13 -55 13q-80 0 -91 -81q-1 -12 -1 -24v-84h139v-24h-139v-474h-24v474z" glyph-name="f" horiz-adv-x="334" unicode="f"/>
<glyph d="M263 -212q-127 0 -182 66q-27 34 -27 76q0 58 60 98q16 10 33 17q-41 19 -42 60q0 40 57 68q4 3 7 4q-76 32 -99 107q-8 26 -8 52q0 86 69 137q51 37 117 37q39 0 70 -12h173v-24h-128q69 -53 70 -138q0 -85 -68 -137q-50 -38 -117 -38q-27 0 -51 6q-44 -11 -61 -40 q-6 -11 -6 -21q0 -31 31 -43q12 -4 24 -4h159q85 0 126 -54q23 -31 23 -70q0 -76 -86 -118q-61 -29 -144 -29zM248 486q-85 0 -131 -63q-29 -39 -29 -87q0 -75 61 -120q43 -31 99 -31q84 0 130 63q29 39 29 88q0 74 -60 119q-44 31 -99 31zM343 35h-166q-96 -33 -97 -105 q0 -71 82 -102q43 -16 101 -16q117 0 174 55q30 31 30 68q0 64 -63 89q-28 11 -61 11z" glyph-name="g" horiz-adv-x="539" unicode="g"/>
<glyph d="M103 0v698h24v-328q35 87 115 123q40 17 83 17q103 0 153 -84q28 -49 28 -111v-315h-24v313q0 101 -69 148q-39 25 -90 25q-89 0 -148 -74q-48 -61 -48 -141v-271h-24z" glyph-name="h" horiz-adv-x="601" unicode="h"/>
<glyph d="M103 0v498h24v-498h-24zM84 672q4 29 31 31q29 -4 31 -31q-4 -29 -31 -31q-29 4 -31 31z" glyph-name="i" horiz-adv-x="230" unicode="i"/>
<glyph d="M156 498v-584q0 -97 -77 -120q-20 -6 -42 -6q-30 0 -52 8v24q27 -9 51 -9q76 0 92 69q4 16 4 33v585h24zM113 672q4 29 31 31q29 -4 31 -31q-4 -29 -31 -31q-29 4 -31 31z" glyph-name="j" horiz-adv-x="265" unicode="j"/>
<glyph d="M103 698h24v-515l278 315h32l-178 -201l206 -297h-29l-193 278l-116 -131v-147h-24v698z" glyph-name="k" horiz-adv-x="491" unicode="k"/>
<glyph d="M97 64v634h24v-633q2 -53 57 -54q15 0 30 3v-22q-10 -4 -30 -4q-71 0 -80 61q-1 8 -1 15z" glyph-name="l" horiz-adv-x="258" unicode="l"/>
<glyph d="M103 498h23v-131q29 83 107 122q44 21 92 21q97 0 148 -78q21 -32 29 -71q35 92 117 130q41 19 85 19q103 0 153 -84q28 -49 28 -111v-315h-24v313q0 101 -69 148q-39 25 -90 25q-89 0 -148 -74q-48 -61 -48 -141v-271h-24v313q0 101 -69 148q-39 25 -90 25 q-89 0 -148 -74q-48 -61 -48 -141v-271h-24v498z" glyph-name="m" horiz-adv-x="980" unicode="m"/>
<glyph d="M103 498h23v-131q29 83 107 122q44 21 92 21q103 0 153 -84q28 -49 28 -111v-315h-24v313q0 101 -69 148q-39 25 -90 25q-89 0 -148 -74q-48 -61 -48 -141v-271h-24v498z" glyph-name="n" horiz-adv-x="601" unicode="n"/>
<glyph d="M314 510q116 0 189 -87q61 -74 61 -174q0 -118 -81 -195q-70 -66 -169 -66q-116 0 -189 87q-61 74 -61 174q0 118 81 195q70 66 169 66zM314 486q-106 0 -172 -84q-52 -66 -52 -153q0 -108 74 -178q63 -59 150 -59q106 0 172 84q52 66 52 153q0 108 -74 178 q-63 59 -150 59z" glyph-name="o" horiz-adv-x="628" unicode="o"/>
<glyph d="M127 -200h-24v698h24v-129q30 85 118 122q44 19 89 19q104 0 175 -82q65 -76 65 -179q0 -116 -79 -194q-69 -67 -161 -67q-100 0 -167 73q-25 28 -40 62v-323zM331 13q102 0 165 81q52 67 52 155q0 111 -74 181q-60 56 -141 56q-115 0 -172 -97q-36 -61 -36 -140 q0 -114 69 -182q56 -54 137 -54z" glyph-name="p" horiz-adv-x="639" unicode="p"/>
<glyph d="M305 -12q-104 0 -175 82q-65 76 -65 179q0 116 79 194q69 67 161 67t157 -63q34 -34 50 -78v129h24v-698h-24v323q-37 -86 -125 -120q-40 -15 -82 -15zM91 249q0 -110 74 -180q61 -56 143 -56q112 0 169 95q37 62 37 141q0 117 -71 185q-56 52 -137 52q-102 0 -165 -82 q-50 -67 -50 -155z" glyph-name="q" horiz-adv-x="638" unicode="q"/>
<glyph d="M126 498v-117q33 107 130 126q18 3 36 3q15 0 23 -1v-24q-10 1 -23 1q-97 0 -140 -90q-25 -53 -25 -126v-270h-24v498h23z" glyph-name="r" horiz-adv-x="359" unicode="r"/>
<glyph d="M236 -12q-97 0 -166 70q-8 8 -14 16l17 17q70 -78 161 -79q74 0 113 46q24 29 24 66q0 58 -72 90q-16 7 -73 27q-92 31 -123 60q-32 32 -32 75q0 75 71 113q41 21 90 21q98 -1 155 -86l-19 -14q-48 75 -137 76q-74 0 -112 -47q-22 -28 -22 -63q0 -58 79 -91q20 -8 58 -20 q92 -32 123 -58q39 -33 40 -82q0 -71 -63 -110q-43 -27 -98 -27z" glyph-name="s" horiz-adv-x="461" unicode="s"/>
<glyph d="M132 474h-83v24h83v139h24v-139h133v-24h-133v-351q0 -75 58 -102q21 -10 46 -10q33 0 61 11v-24q-31 -10 -62 -10q-73 0 -107 58q-20 34 -20 78v350z" glyph-name="t" horiz-adv-x="367" unicode="t"/>
<glyph d="M95 498h24v-313q0 -100 68 -146q39 -27 91 -27q88 0 147 73q49 62 49 142v271h24v-498h-23v131q-29 -83 -107 -122q-44 -21 -92 -21q-102 0 -152 83q-29 49 -29 112v315z" glyph-name="u" horiz-adv-x="601" unicode="u"/>
<glyph d="M30 498h26l192 -470l192 470h26l-204 -498h-28z" glyph-name="v" horiz-adv-x="496" unicode="v"/>
<glyph d="M212 0l-179 498h26l169 -471l168 469h26l168 -469l169 471h26l-179 -498h-32l-165 461l-165 -461h-32z" glyph-name="w" horiz-adv-x="818" unicode="w"/>
<glyph d="M35 0l187 263l-166 235h29l154 -218l154 218h29l-166 -235l187 -263h-29l-175 246l-175 -246h-29z" glyph-name="x" horiz-adv-x="480" unicode="x"/>
<glyph d="M29 -195v25q32 -19 71 -19q42 0 70 44q13 21 27 54l40 94l-205 495h26l193 -465l200 465h26l-258 -599q-38 -89 -85 -105q-16 -6 -35 -6q-43 0 -70 17z" glyph-name="y" horiz-adv-x="507" unicode="y"/>
<glyph d="M63 0v24l310 450h-307v24h336v-24l-310 -450h324v-24h-353z" glyph-name="z" horiz-adv-x="474" unicode="z"/>
<glyph d="M53 305v30q57 3 73 41q10 26 10 77v190q0 126 90 139q13 2 26 2h8q6 -1 8 -1v-24q-3 0 -8 1h-6q-83 0 -93 -84q-1 -13 -1 -27v-196q-1 -117 -69 -133q69 -13 69 -134v-196q0 -101 76 -110q9 -1 18 -1h6q6 1 8 1v-24h-8q-6 -1 -8 -1q-100 0 -114 101q-2 19 -2 40v190 q0 87 -34 108q-18 10 -49 11z" glyph-name="braceleft" horiz-adv-x="321" unicode="{"/>
<glyph d="M139 -140h-25v918h25v-918z" glyph-name="bar" horiz-adv-x="253" unicode="|"/>
<glyph d="M161 454v196q0 101 -76 110q-9 1 -18 1h-6q-6 -1 -8 -1v24h8q6 1 8 1q100 0 114 -101q2 -19 2 -40v-190q0 -84 32 -106q18 -11 51 -13v-30q-58 -1 -73 -43q-10 -26 -10 -75v-190q0 -126 -90 -139q-13 -2 -26 -2h-8q-6 1 -8 1v24q3 0 8 -1h6q83 0 93 84q1 13 1 27v196 q1 120 69 133q-68 19 -69 134z" glyph-name="braceright" horiz-adv-x="321" unicode="}"/>
<glyph d="M110 271l-24 10q1 76 58 104q23 10 48 10q42 0 100 -45q54 -42 78 -49q15 -5 28 -5q57 0 74 61q5 19 5 39l25 -10q-1 -78 -60 -104q-22 -10 -47 -10q-40 0 -98 44q-55 42 -79 50q-15 5 -29 5q-54 0 -73 -59q-5 -20 -6 -41z" glyph-name="asciitilde" horiz-adv-x="583" unicode="~"/>
<glyph glyph-name="uni00A0" horiz-adv-x="274" unicode=" "/>
<glyph d="M137 337l4 -537h-30l4 537h22zM94 479q0 25 23 32q5 1 10 1q25 0 32 -23q1 -5 1 -10q0 -25 -23 -32q-5 -1 -10 -1q-25 0 -32 23q-1 5 -1 10z" glyph-name="exclamdown" horiz-adv-x="253" unicode="¡"/>
<glyph d="M302 -9v97q-108 4 -177 89q-61 74 -61 173q0 120 82 196q66 60 156 64v97h25v-97q109 -7 178 -92l-18 -16q-63 78 -160 84h-15q-108 0 -173 -85q-49 -65 -49 -151q0 -109 73 -179q62 -58 148 -58h16q109 8 173 98l18 -14q-74 -101 -191 -109v-97h-25z" glyph-name="cent" horiz-adv-x="570" unicode="¢"/>
<glyph d="M516 0h-442v24h26q49 2 50 70v234h-75v24h75v169q0 98 69 153q47 36 108 36q118 -1 175 -113l-20 -13q-52 99 -154 100q-85 0 -128 -68q-25 -41 -25 -95v-169h212v-24h-212v-235q-1 -53 -29 -69h370v-24z" glyph-name="sterling" horiz-adv-x="576" unicode="£"/>
<glyph d="M130 356q0 -86 67 -146q56 -49 127 -49q84 0 144 67q50 58 50 128q0 86 -68 146q-56 49 -126 49q-86 0 -145 -68q-49 -56 -49 -127zM70 122l89 89q-55 62 -55 145q1 84 56 146l-90 90l18 18l90 -91q62 57 146 57q82 -1 147 -57l91 91l18 -18l-92 -91q56 -63 56 -145 q-1 -83 -55 -144l91 -90l-18 -18l-90 90q-65 -58 -148 -58q-83 1 -147 58l-89 -90z" glyph-name="currency" horiz-adv-x="650" unicode="¤"/>
<glyph d="M290 352l-244 347h31l234 -335l234 335h31l-243 -347h175v-24h-184v-117h184v-24h-184v-186h-25v186h-185v24h185v117h-185v24h176z" glyph-name="yen" horiz-adv-x="623" unicode="¥"/>
<glyph d="M114 200h25v-340h-25v340zM114 778h25v-340h-25v340z" glyph-name="brokenbar" horiz-adv-x="253" unicode="¦"/>
<glyph d="M251 -112q-102 0 -170 76q-10 12 -18 23l20 15q62 -89 168 -90q93 0 133 60q18 29 18 64q0 61 -61 103q-33 23 -90 49q-132 59 -167 115q-19 32 -19 71q1 54 41 93q-36 41 -36 95q0 77 69 120q46 28 103 28q104 0 161 -84q5 -8 9 -15l-19 -13q-48 87 -151 88 q-84 0 -124 -55q-22 -31 -22 -68q0 -61 51 -99q31 -24 96 -53q134 -61 170 -117q20 -32 20 -71q-1 -54 -41 -95q36 -40 36 -91q0 -79 -71 -122q-47 -27 -106 -27zM233 388q-78 37 -110 64q-33 -34 -33 -76q0 -62 61 -106q37 -26 112 -60q72 -33 110 -65q35 33 35 76 q0 66 -84 119q-36 23 -91 48z" glyph-name="section" horiz-adv-x="506" unicode="§"/>
<glyph d="M135 636q4 29 31 31q29 -4 31 -31q-4 -29 -31 -31q-29 4 -31 31zM342 636q4 29 31 31q29 -4 31 -31q-4 -29 -31 -31q-29 4 -31 31z" glyph-name="dieresis" horiz-adv-x="539" unicode="¨"/>
<glyph d="M68 349q0 150 100 255q97 102 236 106h11q144 0 244 -101q102 -111 106 -260q0 -151 -100 -255q-107 -103 -250 -106q-141 0 -241 100q-101 101 -106 249v12zM95 349q0 -145 97 -242q92 -93 223 -93q137 0 230 97t93 238q0 143 -96 241q-94 95 -227 95q-134 0 -227 -97 q-93 -98 -93 -239zM568 237l20 -15q-67 -81 -170 -85q-89 0 -151 70q-53 62 -53 143q0 101 74 164q57 47 131 47q95 -1 157 -75l-18 -16q-54 65 -139 65q-86 0 -139 -69q-39 -51 -39 -116q0 -92 66 -147q49 -40 111 -40q93 1 150 74z" glyph-name="copyright" horiz-adv-x="833" unicode="©"/>
<glyph d="M99 514q0 52 73 71q5 1 9 2l98 20v15q0 43 -42 58q-16 5 -33 5q-50 -1 -83 -35l-15 16q27 34 78 42q11 2 21 2q69 0 91 -51q7 -18 7 -37v-173h-24v51q-20 -42 -70 -53q-13 -3 -25 -3q-56 0 -78 40q-7 14 -7 30zM279 583l-92 -18q-63 -11 -63 -51q0 -35 38 -45 q10 -2 20 -2q55 0 84 43q13 22 13 45v28zM83 352v24h241v-24h-241z" glyph-name="ordfeminine" horiz-adv-x="410" unicode="ª"/>
<glyph d="M327 66l-116 183l116 184h29l-115 -184l115 -183h-29zM59 249l116 184h29l-115 -184l115 -183h-29z" glyph-name="guillemotleft" horiz-adv-x="425" unicode="«"/>
<glyph d="M88 338v24h423v-157h-25v133h-398z" glyph-name="logicalnot" horiz-adv-x="607" unicode="¬"/>
<glyph d="M85 259v24h268v-24h-268z" glyph-name="uni00AD" horiz-adv-x="438" unicode="­"/>
<glyph d="M255 385q-94 0 -150 70q-41 53 -41 121q0 92 69 148q53 43 122 43q92 0 148 -70q43 -52 43 -121q0 -93 -71 -150q-52 -41 -120 -41zM255 742q-86 0 -133 -66q-32 -44 -32 -100q0 -86 66 -134q43 -32 99 -32q87 0 135 67q30 44 30 99q0 87 -66 135q-44 31 -99 31zM196 486 v180h64q41 0 54 -37q3 -10 3 -19q-1 -36 -37 -50l45 -74h-30l-39 68h-35v-68h-25zM221 643v-66h38q32 2 33 33q-2 32 -33 33h-38z" glyph-name="registered" horiz-adv-x="510" unicode="®"/>
<glyph d="M70 621v24h244v-24h-244z" glyph-name="macron" horiz-adv-x="384" unicode="¯"/>
<glyph d="M196 444q-67 0 -107 54q-26 36 -26 79q0 68 55 108q35 25 78 25q67 0 107 -54q26 -36 26 -79q0 -68 -55 -108q-35 -25 -78 -25zM196 468q61 0 92 50q16 27 16 59q0 64 -52 94q-26 15 -56 15q-62 0 -92 -50q-16 -27 -16 -59q0 -64 52 -94q26 -15 56 -15z" glyph-name="degree" horiz-adv-x="392" unicode="°"/>
<glyph d="M85 437h209v199h24v-199h209v-24h-209v-199h-24v199h-209v24zM526 80h-441v24h441v-24z" glyph-name="plusminus" horiz-adv-x="612" unicode="±"/>
<glyph d="M167 686q-55 0 -83 -46q-5 -8 -8 -15l-20 11q40 70 111 74q67 0 94 -54q11 -22 11 -46q0 -57 -59 -101q-11 -8 -38 -26q-60 -41 -77 -63q-19 -26 -18 -54h204v-23h-227q-2 14 -2 22q0 65 72 115q9 7 33 22q50 33 59 43q28 29 28 65q0 49 -41 68q-18 8 -39 8z" glyph-name="twosuperior" horiz-adv-x="342" unicode="²"/>
<glyph d="M49 404l20 12q35 -60 97 -61q50 0 75 42q11 20 11 42q0 57 -52 77q-20 7 -42 7q-16 0 -28 -3v22l109 132h-172v24h207v-21l-109 -131q67 -1 98 -53q14 -25 14 -54q0 -58 -49 -90q-28 -18 -62 -18q-77 1 -117 73z" glyph-name="threesuperior" horiz-adv-x="337" unicode="³"/>
<glyph d="M75 568l90 149h32l-96 -149h-26z" glyph-name="acute" horiz-adv-x="272" unicode="´"/>
<glyph d="M103 498h24v-313q0 -100 68 -146q39 -27 91 -27q88 0 147 73q49 62 49 142v271h24v-498h-23v131q-29 -83 -107 -122q-44 -21 -92 -21q-109 1 -157 93v-281h-24v698z" glyph-name="mu" horiz-adv-x="609" unicode="µ"/>
<glyph d="M49 514q0 91 74 144q55 40 128 40h212v-798h-26v773h-97v-773h-26v431h-63q-101 0 -160 69q-42 50 -42 114z" glyph-name="paragraph" horiz-adv-x="587" unicode="¶"/>
<glyph d="M82 298q4 29 31 31q29 -4 31 -31q-4 -29 -31 -31q-29 4 -31 31z" glyph-name="periodcentered" horiz-adv-x="226" unicode="·"/>
<glyph d="M138 0l-13 -78q52 -5 66 -47q3 -10 3 -20q0 -46 -47 -62q-16 -5 -34 -5q-25 0 -43 5v24q21 -5 40 -5q57 2 58 42q-2 45 -59 46q-7 0 -10 -1h-4l20 107z" glyph-name="cedilla" horiz-adv-x="264" unicode="¸"/>
<glyph d="M153 367v294q-31 -30 -86 -34h-5v24q65 5 92 47h23v-331h86v-24h-197v24h87z" glyph-name="onesuperior" horiz-adv-x="308" unicode="¹"/>
<glyph d="M93 352v24h247v-24h-247zM217 444q-67 0 -107 54q-26 36 -26 79q0 68 55 108q35 25 78 25q67 0 107 -54q26 -36 26 -79q0 -68 -55 -108q-35 -25 -78 -25zM217 468q61 0 92 50q16 27 16 59q0 64 -52 94q-26 15 -56 15q-62 0 -92 -50q-16 -27 -16 -59q0 -64 52 -94 q26 -15 56 -15z" glyph-name="ordmasculine" horiz-adv-x="434" unicode="º"/>
<glyph d="M223 65l115 184l-115 183h29l116 -183l-116 -184h-29zM185 249l-115 183h29l116 -183l-116 -184h-29z" glyph-name="guillemotright" horiz-adv-x="428" unicode="»"/>
<glyph d="M402 110l180 245h25v-235h54v-24h-54v-96h-24v96h-181v14zM114 0l511 698h30l-511 -698h-30zM157 367v294q-31 -30 -86 -34h-5v24q65 5 92 47h23v-331h86v-24h-197v24h87zM439 120h144v196z" glyph-name="onequarter" horiz-adv-x="722" unicode="¼"/>
<glyph d="M144 0h-30l511 698h30zM462 22q0 65 72 115q9 7 33 22q50 33 59 43q28 29 28 65q0 49 -41 68q-18 8 -39 8q-55 0 -83 -46q-5 -8 -8 -15l-20 11q40 70 111 74q67 0 94 -54q11 -22 11 -46q0 -57 -59 -101q-11 -8 -38 -26q-60 -41 -77 -63q-19 -26 -18 -54h204v-23h-227 q-2 14 -2 22zM66 627v24q65 5 92 47h23v-331h86v-24h-197v24h87v294q-31 -30 -86 -34h-5z" glyph-name="onehalf" horiz-adv-x="749" unicode="½"/>
<glyph d="M394 110l180 245h25v-235h54v-24h-54v-96h-24v96h-181v14zM52 404l20 12q35 -60 97 -61q50 0 75 42q11 20 11 42q0 57 -52 77q-20 7 -42 7q-16 0 -28 -3v22l109 132h-172v24h207v-21l-109 -131q67 -1 98 -53q14 -25 14 -54q0 -58 -49 -90q-28 -18 -62 -18q-77 1 -117 73z M135 0h-30l511 698h30zM575 316l-144 -196h144v196z" glyph-name="threequarters" horiz-adv-x="716" unicode="¾"/>
<glyph d="M56 -43q0 77 63 143q10 10 31 30q56 54 72 89q15 32 15 68v47h25v-47q0 -75 -62 -141q-10 -10 -30 -29q-56 -55 -73 -91q-14 -32 -14 -68q0 -89 69 -127q36 -19 83 -19q99 0 151 83q5 7 8 14l19 -13q-53 -98 -159 -107q-9 -1 -18 -1q-101 0 -151 72q-29 43 -29 97z M218 481q4 29 31 31q29 -4 31 -31q-4 -29 -31 -31q-29 4 -31 31z" glyph-name="questiondown" horiz-adv-x="457" unicode="¿"/>
<glyph d="M26 0l281 698h30l281 -698h-27l-103 256h-332l-103 -256h-27zM322 670l-157 -390h314zM297 768l-97 149h34l89 -149h-26z" glyph-name="Agrave" horiz-adv-x="644" unicode="À"/>
<glyph d="M26 0l281 698h30l281 -698h-27l-103 256h-332l-103 -256h-27zM322 670l-157 -390h314zM349 768h-26l90 149h32z" glyph-name="Aacute" horiz-adv-x="644" unicode="Á"/>
<glyph d="M53 0h-27l281 698h30l281 -698h-27l-103 256h-332zM322 670l-157 -390h314zM219 753h-30l121 164h22l121 -164h-30l-102 141z" glyph-name="Acircumflex" horiz-adv-x="644" unicode="Â"/>
<glyph d="M26 0l281 698h30l281 -698h-27l-103 256h-332l-103 -256h-27zM322 670l-157 -390h314zM210 784l-23 8q3 94 73 95q31 0 68 -39q30 -34 45 -38q6 -2 11 -2q49 1 49 81l23 -9q0 -79 -53 -93q-10 -2 -20 -2q-30 0 -67 39q-31 34 -47 39q-5 1 -10 1q-49 -1 -49 -80z" glyph-name="Atilde" horiz-adv-x="644" unicode="Ã"/>
<glyph d="M53 0h-27l281 698h30l281 -698h-27l-103 256h-332zM322 670l-157 -390h314zM395 836q4 29 31 31q29 -4 31 -31q-4 -29 -31 -31q-29 4 -31 31zM217 805q-29 4 -31 31q4 29 31 31q29 -4 31 -31q-4 -29 -31 -31z" glyph-name="Adieresis" horiz-adv-x="644" unicode="Ä"/>
<glyph d="M53 0h-27l281 698h30l281 -698h-27l-103 256h-332zM322 670l-157 -390h314zM322 741q-50 0 -76 43q-12 21 -12 45q0 50 43 76q21 12 45 12q50 0 76 -43q12 -21 12 -45q0 -50 -43 -76q-21 -12 -45 -12zM322 894q-40 0 -57 -36q-7 -14 -7 -29q0 -40 35 -58q14 -7 29 -7 q40 0 57 36q7 14 7 29q0 40 -35 58q-14 7 -29 7z" glyph-name="Aring" horiz-adv-x="644" unicode="Å"/>
<glyph d="M6 0l358 698h449v-24h-347v-309h286v-24h-286v-317h366v-24h-391v243h-282l-125 -243h-28zM380 674l-209 -407h270v407h-61z" glyph-name="AE" horiz-adv-x="898" unicode="Æ"/>
<glyph d="M374 -101l17 90q-146 10 -238 119q-85 102 -85 242q0 154 103 258q101 102 250 102q150 -1 249 -111l-20 -19q-89 104 -229 104q-143 0 -237 -100q-89 -96 -89 -234q0 -146 94 -243q92 -93 227 -93q144 0 234 104q11 12 20 25l21 -16q-98 -138 -276 -139l-11 -66 q52 -5 66 -47q3 -10 3 -20q0 -46 -47 -62q-16 -5 -34 -5q-25 0 -43 5v24q21 -5 40 -5q57 2 58 42q-2 45 -59 46q-7 0 -10 -1h-4z" glyph-name="Ccedilla" horiz-adv-x="738" unicode="Ç"/>
<glyph d="M117 0v698h406v-24h-381v-309h319v-24h-319v-317h400v-24h-425zM193 917h34l89 -149h-26z" glyph-name="Egrave" horiz-adv-x="608" unicode="È"/>
<glyph d="M117 0v698h406v-24h-381v-309h319v-24h-319v-317h400v-24h-425zM337 768h-26l90 149h32z" glyph-name="Eacute" horiz-adv-x="608" unicode="É"/>
<glyph d="M117 0v698h406v-24h-381v-309h319v-24h-319v-317h400v-24h-425zM194 753l121 164h22l121 -164h-30l-102 141l-102 -141h-30z" glyph-name="Ecircumflex" horiz-adv-x="608" unicode="Ê"/>
<glyph d="M117 698h406v-24h-381v-309h319v-24h-319v-317h400v-24h-425v698zM390 836q4 29 31 31q29 -4 31 -31q-4 -29 -31 -31q-29 4 -31 31zM212 805q-29 4 -31 31q4 29 31 31q29 -4 31 -31q-4 -29 -31 -31z" glyph-name="Edieresis" horiz-adv-x="608" unicode="Ë"/>
<glyph d="M98 0v698h25v-698h-25zM113 768h-26l-97 149h34z" glyph-name="Igrave" horiz-adv-x="240" unicode="Ì"/>
<glyph d="M117 0v698h25v-698h-25zM128 768l90 149h32l-96 -149h-26z" glyph-name="Iacute" horiz-adv-x="244" unicode="Í"/>
<glyph d="M149 0h-25v698h25v-698zM4 753l121 164h22l121 -164h-30l-102 141l-102 -141h-30z" glyph-name="Icircumflex" horiz-adv-x="271" unicode="Î"/>
<glyph d="M120 0v698h25v-698h-25zM-3 836q4 29 31 31q29 -4 31 -31q-4 -29 -31 -31q-29 4 -31 31zM205 836q4 29 31 31q29 -4 31 -31q-4 -29 -31 -31q-29 4 -31 31z" glyph-name="Idieresis" horiz-adv-x="262" unicode="Ï"/>
<glyph d="M46 338v24h80v336h214q141 0 242 -97q103 -97 108 -238v-13q0 -141 -99 -243q-97 -100 -235 -107h-16h-214v338h-80zM151 362h242v-24h-242v-314h182q138 0 234 95q96 96 96 231t-96 229q-96 95 -234 95h-182v-312z" glyph-name="Eth" horiz-adv-x="758" unicode="Ð"/>
<glyph d="M117 0v698h18l473 -646v646h25v-698h-18l-473 646v-646h-25zM260 784l-23 8q3 94 73 95q31 0 68 -39q30 -34 45 -38q6 -2 11 -2q49 1 49 81l23 -9q0 -79 -53 -93q-10 -2 -20 -2q-30 0 -67 39q-31 34 -47 39q-5 1 -10 1q-49 -1 -49 -80z" glyph-name="Ntilde" horiz-adv-x="750" unicode="Ñ"/>
<glyph d="M423 710q145 0 247 -100q104 -111 108 -261q0 -151 -102 -256q-109 -101 -253 -105q-145 0 -247 100q-104 111 -108 261q0 151 102 256q109 101 253 105zM423 684q-137 0 -232 -97q-96 -98 -96 -238q0 -141 96 -238t232 -97q137 0 232 97q96 98 96 238q0 141 -96 238 t-232 97zM434 768h-26l-97 149h34z" glyph-name="Ograve" unicode="Ò"/>
<glyph d="M423 710q145 0 247 -100q104 -111 108 -261q0 -151 -102 -256q-109 -101 -253 -105q-145 0 -247 100q-104 111 -108 261q0 151 102 256q109 101 253 105zM423 684q-137 0 -232 -97q-96 -98 -96 -238q0 -141 96 -238t232 -97q137 0 232 97q96 98 96 238q0 141 -96 238 t-232 97zM416 768l90 149h32l-96 -149h-26z" glyph-name="Oacute" unicode="Ó"/>
<glyph d="M68 349q0 151 102 256q109 101 253 105q145 0 247 -100q104 -111 108 -261q0 -151 -102 -256q-109 -101 -253 -105q-145 0 -247 100q-104 111 -108 261zM95 349q0 -141 96 -238t232 -97q137 0 232 97q96 98 96 238q0 141 -96 238t-232 97q-137 0 -232 -97 q-96 -98 -96 -238zM319 753h-30l121 164h22l121 -164h-30l-102 141z" glyph-name="Ocircumflex" unicode="Ô"/>
<glyph d="M423 710q145 0 247 -100q104 -111 108 -261q0 -151 -102 -256q-109 -101 -253 -105q-145 0 -247 100q-104 111 -108 261q0 151 102 256q109 101 253 105zM423 684q-137 0 -232 -97q-96 -98 -96 -238q0 -141 96 -238t232 -97q137 0 232 97q96 98 96 238q0 141 -96 238 t-232 97zM310 784l-23 8q3 94 73 95q31 0 68 -39q30 -34 45 -38q6 -2 11 -2q49 1 49 81l23 -9q0 -79 -53 -93q-10 -2 -20 -2q-30 0 -67 39q-31 34 -47 39q-5 1 -10 1q-49 -1 -49 -80z" glyph-name="Otilde" unicode="Õ"/>
<glyph d="M423 710q145 0 247 -100q104 -111 108 -261q0 -151 -102 -256q-109 -101 -253 -105q-145 0 -247 100q-104 111 -108 261q0 151 102 256q109 101 253 105zM423 684q-137 0 -232 -97q-96 -98 -96 -238q0 -141 96 -238t232 -97q137 0 232 97q96 98 96 238q0 141 -96 238 t-232 97zM286 836q4 29 31 31q29 -4 31 -31q-4 -29 -31 -31q-29 4 -31 31zM495 836q4 29 31 31q29 -4 31 -31q-4 -29 -31 -31q-29 4 -31 31z" glyph-name="Odieresis" unicode="Ö"/>
<glyph d="M76 167l182 182l-182 182l17 17l182 -182l182 182l17 -17l-182 -182l182 -182l-17 -17l-182 182l-182 -182z" glyph-name="multiply" horiz-adv-x="550" unicode="×"/>
<glyph d="M68 349q0 151 102 256q109 101 253 105q112 -1 201 -61l58 80l20 -14l-58 -81q114 -89 131 -238q3 -24 3 -47q0 -151 -102 -256q-109 -101 -253 -105q-111 1 -200 61l-57 -80l-20 15l57 79q-115 90 -132 239q-3 24 -3 47zM423 684q-137 0 -232 -97q-96 -98 -96 -238 q0 -141 95 -238q14 -14 29 -26l389 542q-83 57 -185 57zM628 612l-389 -541q83 -57 184 -57q137 0 232 97q96 98 96 238q0 145 -99 242q-12 11 -24 21z" glyph-name="Oslash" unicode="Ø"/>
<glyph d="M363 -12q-138 0 -208 100q-47 68 -47 162v448h25v-444q0 -131 87 -197q59 -45 143 -45q129 0 191 97q39 61 39 145v444h25v-448q0 -138 -92 -210q-67 -52 -163 -52zM351 768l-97 149h34l89 -149h-26z" glyph-name="Ugrave" horiz-adv-x="726" unicode="Ù"/>
<glyph d="M108 250v448h25v-444q0 -131 87 -197q59 -45 143 -45q129 0 191 97q39 61 39 145v444h25v-448q0 -138 -92 -210q-67 -52 -163 -52q-138 0 -208 100q-47 68 -47 162zM355 768l90 149h32l-96 -149h-26z" glyph-name="Uacute" horiz-adv-x="726" unicode="Ú"/>
<glyph d="M108 250v448h25v-444q0 -131 87 -197q59 -45 143 -45q129 0 191 97q39 61 39 145v444h25v-448q0 -138 -92 -210q-67 -52 -163 -52q-138 0 -208 100q-47 68 -47 162zM260 753h-30l121 164h22l121 -164h-30l-102 141z" glyph-name="Ucircumflex" horiz-adv-x="726" unicode="Û"/>
<glyph d="M108 250v448h25v-444q0 -131 87 -197q59 -45 143 -45q129 0 191 97q39 61 39 145v444h25v-448q0 -138 -92 -210q-67 -52 -163 -52q-138 0 -208 100q-47 68 -47 162zM467 805q-29 4 -31 31q4 29 31 31q29 -4 31 -31q-4 -29 -31 -31zM227 836q4 29 31 31q29 -4 31 -31 q-4 -29 -31 -31q-29 4 -31 31z" glyph-name="Udieresis" horiz-adv-x="726" unicode="Ü"/>
<glyph d="M278 338l-253 360h31l234 -335l234 335h31l-252 -360v-338h-25v338zM305 768h-26l90 149h32z" glyph-name="Yacute" horiz-adv-x="580" unicode="Ý"/>
<glyph d="M117 698h25v-147h207q99 0 158 -73q43 -55 43 -128q0 -99 -74 -158q-55 -44 -127 -44h-207v-148h-25v698zM351 527h-209v-355h209q85 0 135 65q37 48 37 113q0 96 -72 146q-44 31 -100 31z" glyph-name="Thorn" horiz-adv-x="612" unicode="Þ"/>
<glyph d="M127 0h-24v533q0 98 83 148q49 29 107 29q96 0 143 -68q24 -36 24 -76q0 -54 -66 -108q-5 -4 -15 -11q-10 -9 -14 -12q-47 -39 -57 -53q-16 -21 -16 -42q0 -36 67 -74q5 -3 51 -27q79 -39 100 -81q11 -23 11 -49q0 -75 -70 -107q-32 -14 -71 -14q-98 0 -162 77l18 17 q33 -45 93 -63q26 -7 52 -7q64 0 97 44q17 24 17 52q0 56 -77 99l-16 8q-9 5 -28 14q-72 36 -92 62q-16 23 -16 48q0 42 51 87q4 4 13 12q13 11 19 16q6 6 21 18q49 41 59 68q5 13 5 26q0 55 -48 91q-40 29 -95 29q-85 0 -132 -60q-32 -41 -32 -95v-531z" glyph-name="germandbls" horiz-adv-x="567" unicode="ß"/>
<glyph d="M62 119q2 108 148 139l209 41v32q0 103 -81 140q-35 15 -79 15q-94 0 -156 -69q-5 -6 -9 -11l-18 15q46 61 122 81q30 8 60 8q111 0 159 -79q26 -43 26 -99v-332h-24v125q-44 -97 -136 -127q-33 -10 -67 -10q-81 0 -126 53q-28 35 -28 78zM419 275l-204 -39 q-128 -26 -129 -117q0 -58 57 -90q33 -18 72 -18q94 0 156 75q48 59 48 129v60zM236 568l-97 149h34l89 -149h-26z" glyph-name="agrave" horiz-adv-x="536" unicode="à"/>
<glyph d="M62 119q2 108 148 139l209 41v32q0 103 -81 140q-35 15 -79 15q-94 0 -156 -69q-5 -6 -9 -11l-18 15q46 61 122 81q30 8 60 8q111 0 159 -79q26 -43 26 -99v-332h-24v125q-44 -97 -136 -127q-33 -10 -67 -10q-81 0 -126 53q-28 35 -28 78zM86 119q0 -58 57 -90 q33 -18 72 -18q94 0 156 75q48 59 48 129v60l-204 -39q-128 -26 -129 -117zM279 568h-26l90 149h32z" glyph-name="aacute" horiz-adv-x="536" unicode="á"/>
<glyph d="M62 119q2 108 148 139l209 41v32q0 103 -81 140q-35 15 -79 15q-94 0 -156 -69q-5 -6 -9 -11l-18 15q46 61 122 81q30 8 60 8q111 0 159 -79q26 -43 26 -99v-332h-24v125q-44 -97 -136 -127q-33 -10 -67 -10q-81 0 -126 53q-28 35 -28 78zM86 119q0 -58 57 -90 q33 -18 72 -18q94 0 156 75q48 59 48 129v60l-204 -39q-128 -26 -129 -117zM120 553l121 164h22l121 -164h-30l-102 141l-102 -141h-30z" glyph-name="acircumflex" horiz-adv-x="536" unicode="â"/>
<glyph d="M62 119q2 108 148 139l209 41v32q0 103 -81 140q-35 15 -79 15q-94 0 -156 -69q-5 -6 -9 -11l-18 15q46 61 122 81q30 8 60 8q111 0 159 -79q26 -43 26 -99v-332h-24v125q-44 -97 -136 -127q-33 -10 -67 -10q-81 0 -126 53q-28 35 -28 78zM86 119q0 -58 57 -90 q33 -18 72 -18q94 0 156 75q48 59 48 129v60l-204 -39q-128 -26 -129 -117zM138 584l-23 8q3 94 73 95q31 0 68 -39q30 -34 45 -38q6 -2 11 -2q49 1 49 81l23 -9q0 -79 -53 -93q-10 -2 -20 -2q-30 0 -67 39q-31 34 -47 39q-5 1 -10 1q-49 -1 -49 -80z" glyph-name="atilde" horiz-adv-x="536" unicode="ã"/>
<glyph d="M62 119q2 108 148 139l209 41v32q0 103 -81 140q-35 15 -79 15q-94 0 -156 -69q-5 -6 -9 -11l-18 15q46 61 122 81q30 8 60 8q111 0 159 -79q26 -43 26 -99v-332h-24v125q-44 -97 -136 -127q-33 -10 -67 -10q-81 0 -126 53q-28 35 -28 78zM86 119q0 -58 57 -90 q33 -18 72 -18q94 0 156 75q48 59 48 129v60l-204 -39q-128 -26 -129 -117zM328 636q4 29 31 31q29 -4 31 -31q-4 -29 -31 -31q-29 4 -31 31zM150 605q-29 4 -31 31q4 29 31 31q29 -4 31 -31q-4 -29 -31 -31z" glyph-name="adieresis" horiz-adv-x="536" unicode="ä"/>
<glyph d="M62 119q2 108 148 139l209 41v32q0 103 -81 140q-35 15 -79 15q-94 0 -156 -69q-5 -6 -9 -11l-18 15q46 61 122 81q30 8 60 8q111 0 159 -79q26 -43 26 -99v-332h-24v125q-44 -97 -136 -127q-33 -10 -67 -10q-81 0 -126 53q-28 35 -28 78zM419 275l-204 -39 q-128 -26 -129 -117q0 -58 57 -90q33 -18 72 -18q94 0 156 75q48 59 48 129v60zM252 541q-50 0 -76 43q-12 21 -12 45q0 50 43 76q21 12 45 12q50 0 76 -43q12 -21 12 -45q0 -50 -43 -76q-21 -12 -45 -12zM188 629q0 -40 35 -58q14 -7 29 -7q40 0 57 36q7 14 7 29 q0 40 -35 58q-14 7 -29 7q-40 0 -57 -36q-7 -14 -7 -29z" glyph-name="aring" horiz-adv-x="536" unicode="å"/>
<glyph d="M61 126q0 94 99 127q44 14 103 14h178v66q0 83 -70 127q-42 26 -96 26q-98 0 -167 -71q-6 -5 -10 -10l-17 16q83 87 193 89q92 0 147 -64q32 -37 41 -87q35 93 123 132q44 19 91 19q98 0 159 -79q49 -64 49 -152q0 -22 -2 -36h-416q4 -111 79 -179q59 -52 135 -52 q102 1 169 88l17 -17q-68 -94 -187 -95q-119 0 -190 107q-20 30 -33 64q-28 -87 -106 -135q-59 -36 -129 -36q-89 0 -133 57q-27 34 -27 81zM466 267h393v9q0 114 -74 173q-47 37 -110 37q-95 0 -157 -77q-47 -60 -52 -142zM87 127q0 -69 65 -100q32 -15 70 -15 q106 0 171 78q47 57 47 125v28h-174q-145 0 -173 -81q-6 -17 -6 -35z" glyph-name="ae" horiz-adv-x="947" unicode="æ"/>
<glyph d="M268 -101l17 90q-105 11 -169 99q-52 71 -52 162q0 119 82 196q70 64 166 64q120 -1 193 -92l-18 -16q-70 84 -175 84q-104 0 -169 -80q-53 -66 -53 -156q0 -112 77 -182q62 -55 144 -55q120 1 189 98l18 -14q-79 -108 -209 -109l-11 -66q52 -5 66 -47q3 -10 3 -20 q0 -46 -47 -62q-16 -5 -34 -5q-25 0 -43 5v24q21 -5 40 -5q57 2 58 42q-2 45 -59 46q-7 0 -10 -1h-4z" glyph-name="ccedilla" horiz-adv-x="565" unicode="ç"/>
<glyph d="M310 510q106 0 170 -78q51 -63 51 -149q0 -19 -2 -30h-439q0 -121 81 -189q61 -51 145 -51q114 1 180 86l18 -16q-75 -95 -198 -95q-129 0 -200 96q-52 72 -52 170q0 117 82 193q70 63 164 63zM309 486q-100 0 -165 -77q-48 -58 -53 -132h415v5q0 113 -83 170 q-50 34 -114 34zM306 568h-26l-97 149h34z" glyph-name="egrave" horiz-adv-x="594" unicode="è"/>
<glyph d="M310 510q106 0 170 -78q51 -63 51 -149q0 -19 -2 -30h-439q0 -121 81 -189q61 -51 145 -51q114 1 180 86l18 -16q-75 -95 -198 -95q-129 0 -200 96q-52 72 -52 170q0 117 82 193q70 63 164 63zM309 486q-100 0 -165 -77q-48 -58 -53 -132h415v5q0 113 -83 170 q-50 34 -114 34zM308 568l90 149h32l-96 -149h-26z" glyph-name="eacute" horiz-adv-x="594" unicode="é"/>
<glyph d="M64 254q0 117 82 193q70 63 164 63q106 0 170 -78q51 -63 51 -149q0 -19 -2 -30h-439q0 -121 81 -189q61 -51 145 -51q114 1 180 86l18 -16q-75 -95 -198 -95q-129 0 -200 96q-52 72 -52 170zM91 277h415v5q0 113 -83 170q-50 34 -114 34q-100 0 -165 -77 q-48 -58 -53 -132zM199 553h-30l121 164h22l121 -164h-30l-102 141z" glyph-name="ecircumflex" horiz-adv-x="594" unicode="ê"/>
<glyph d="M310 510q106 0 170 -78q51 -63 51 -149q0 -19 -2 -30h-439q0 -121 81 -189q61 -51 145 -51q114 1 180 86l18 -16q-75 -95 -198 -95q-129 0 -200 96q-52 72 -52 170q0 117 82 193q70 63 164 63zM309 486q-100 0 -165 -77q-48 -58 -53 -132h415v5q0 113 -83 170 q-50 34 -114 34zM162 636q4 29 31 31q29 -4 31 -31q-4 -29 -31 -31q-29 4 -31 31zM371 636q4 29 31 31q29 -4 31 -31q-4 -29 -31 -31q-29 4 -31 31z" glyph-name="edieresis" horiz-adv-x="594" unicode="ë"/>
<glyph d="M103 0v498h24v-498h-24zM118 568h-26l-97 149h34z" glyph-name="igrave" horiz-adv-x="230" unicode="ì"/>
<glyph d="M103 0v498h24v-498h-24zM115 568l90 149h32l-96 -149h-26z" glyph-name="iacute" horiz-adv-x="230" unicode="í"/>
<glyph d="M127 0h-24v498h24v-498zM-17 553l121 164h22l121 -164h-30l-102 141l-102 -141h-30z" glyph-name="icircumflex" horiz-adv-x="230" unicode="î"/>
<glyph d="M103 0v498h24v-498h-24zM-21 636q4 29 31 31q29 -4 31 -31q-4 -29 -31 -31q-29 4 -31 31zM187 636q4 29 31 31q29 -4 31 -31q-4 -29 -31 -31q-29 4 -31 31z" glyph-name="idieresis" horiz-adv-x="230" unicode="ï"/>
<glyph d="M292 -12q-119 0 -184 96q-45 65 -45 147q0 117 75 186q64 57 162 57t160 -74q14 -16 17 -25l1 1q-34 147 -149 228l-173 -81l-11 21l161 75q-69 41 -169 68l7 23q111 -27 188 -78l125 58l11 -21l-114 -53q165 -125 165 -384q0 -106 -65 -177q-63 -67 -162 -67zM298 450 q-119 0 -176 -96q-33 -55 -33 -123q0 -96 64 -161q58 -58 140 -58q115 0 170 99q30 55 30 118q0 116 -75 179q-52 42 -120 42z" glyph-name="eth" horiz-adv-x="586" unicode="ð"/>
<glyph d="M103 498h23v-131q29 83 107 122q44 21 92 21q103 0 153 -84q28 -49 28 -111v-315h-24v313q0 101 -69 148q-39 25 -90 25q-89 0 -148 -74q-48 -61 -48 -141v-271h-24v498zM181 584l-23 8q3 94 73 95q31 0 68 -39q30 -34 45 -38q6 -2 11 -2q49 1 49 81l23 -9q0 -79 -53 -93 q-10 -2 -20 -2q-30 0 -67 39q-31 34 -47 39q-5 1 -10 1q-49 -1 -49 -80z" glyph-name="ntilde" horiz-adv-x="601" unicode="ñ"/>
<glyph d="M314 510q116 0 189 -87q61 -74 61 -174q0 -118 -81 -195q-70 -66 -169 -66q-116 0 -189 87q-61 74 -61 174q0 118 81 195q70 66 169 66zM314 486q-106 0 -172 -84q-52 -66 -52 -153q0 -108 74 -178q63 -59 150 -59q106 0 172 84q52 66 52 153q0 108 -74 178 q-63 59 -150 59zM323 568h-26l-97 149h34z" glyph-name="ograve" horiz-adv-x="628" unicode="ò"/>
<glyph d="M314 510q116 0 189 -87q61 -74 61 -174q0 -118 -81 -195q-70 -66 -169 -66q-116 0 -189 87q-61 74 -61 174q0 118 81 195q70 66 169 66zM314 486q-106 0 -172 -84q-52 -66 -52 -153q0 -108 74 -178q63 -59 150 -59q106 0 172 84q52 66 52 153q0 108 -74 178 q-63 59 -150 59zM307 568l90 149h32l-96 -149h-26z" glyph-name="oacute" horiz-adv-x="628" unicode="ó"/>
<glyph d="M64 249q0 118 81 195q70 66 169 66q116 0 189 -87q61 -74 61 -174q0 -118 -81 -195q-70 -66 -169 -66q-116 0 -189 87q-61 74 -61 174zM90 249q0 -108 74 -178q63 -59 150 -59q106 0 172 84q52 66 52 153q0 108 -74 178q-63 59 -150 59q-106 0 -172 -84q-52 -66 -52 -153 zM212 553h-30l121 164h22l121 -164h-30l-102 141z" glyph-name="ocircumflex" horiz-adv-x="628" unicode="ô"/>
<glyph d="M314 510q116 0 189 -87q61 -74 61 -174q0 -118 -81 -195q-70 -66 -169 -66q-116 0 -189 87q-61 74 -61 174q0 118 81 195q70 66 169 66zM314 486q-106 0 -172 -84q-52 -66 -52 -153q0 -108 74 -178q63 -59 150 -59q106 0 172 84q52 66 52 153q0 108 -74 178 q-63 59 -150 59zM203 584l-23 8q3 94 73 95q31 0 68 -39q30 -34 45 -38q6 -2 11 -2q49 1 49 81l23 -9q0 -79 -53 -93q-10 -2 -20 -2q-30 0 -67 39q-31 34 -47 39q-5 1 -10 1q-49 -1 -49 -80z" glyph-name="otilde" horiz-adv-x="628" unicode="õ"/>
<glyph d="M314 510q116 0 189 -87q61 -74 61 -174q0 -118 -81 -195q-70 -66 -169 -66q-116 0 -189 87q-61 74 -61 174q0 118 81 195q70 66 169 66zM314 486q-106 0 -172 -84q-52 -66 -52 -153q0 -108 74 -178q63 -59 150 -59q106 0 172 84q52 66 52 153q0 108 -74 178 q-63 59 -150 59zM179 636q4 29 31 31q29 -4 31 -31q-4 -29 -31 -31q-29 4 -31 31zM387 636q4 29 31 31q29 -4 31 -31q-4 -29 -31 -31q-29 4 -31 31z" glyph-name="odieresis" horiz-adv-x="628" unicode="ö"/>
<glyph d="M69 362h424v-24h-424v24zM249 537q4 29 31 31q29 -4 31 -31q-4 -29 -31 -31q-29 4 -31 31zM249 162q4 29 31 31q29 -4 31 -31q-4 -29 -31 -31q-29 4 -31 31z" glyph-name="divide" horiz-adv-x="562" unicode="÷"/>
<glyph d="M64 249q0 118 81 195q70 66 169 66q79 -1 142 -44l39 55l19 -14l-40 -56q83 -71 90 -185v-17q0 -118 -81 -195q-70 -66 -169 -66q-80 1 -141 44l-39 -55l-20 14l40 55q-81 69 -89 182q-1 11 -1 21zM314 486q-106 0 -172 -84q-52 -66 -52 -153q2 -114 79 -182l272 379 q-57 40 -127 40zM459 431l-271 -379q57 -40 126 -40q106 0 172 84q52 66 52 153q-2 114 -79 182z" glyph-name="oslash" horiz-adv-x="628" unicode="ø"/>
<glyph d="M95 183v315h24v-313q0 -100 68 -146q39 -27 91 -27q88 0 147 73q49 62 49 142v271h24v-498h-23v131q-29 -83 -107 -122q-44 -21 -92 -21q-102 0 -152 83q-29 49 -29 112zM163 717h34l89 -149h-26z" glyph-name="ugrave" horiz-adv-x="601" unicode="ù"/>
<glyph d="M95 183v315h24v-313q0 -100 68 -146q39 -27 91 -27q88 0 147 73q49 62 49 142v271h24v-498h-23v131q-29 -83 -107 -122q-44 -21 -92 -21q-102 0 -152 83q-29 49 -29 112zM306 568h-26l90 149h32z" glyph-name="uacute" horiz-adv-x="601" unicode="ú"/>
<glyph d="M95 498h24v-313q0 -100 68 -146q39 -27 91 -27q88 0 147 73q49 62 49 142v271h24v-498h-23v131q-29 -83 -107 -122q-44 -21 -92 -21q-102 0 -152 83q-29 49 -29 112v315zM159 553l121 164h22l121 -164h-30l-102 141l-102 -141h-30z" glyph-name="ucircumflex" horiz-adv-x="601" unicode="û"/>
<glyph d="M95 498h24v-313q0 -100 68 -146q39 -27 91 -27q88 0 147 73q49 62 49 142v271h24v-498h-23v131q-29 -83 -107 -122q-44 -21 -92 -21q-102 0 -152 83q-29 49 -29 112v315zM376 636q4 29 31 31q29 -4 31 -31q-4 -29 -31 -31q-29 4 -31 31zM199 605q-29 4 -31 31q4 29 31 31 q29 -4 31 -31q-4 -29 -31 -31z" glyph-name="udieresis" horiz-adv-x="601" unicode="ü"/>
<glyph d="M29 -195v25q32 -19 71 -19q42 0 70 44q13 21 27 54l40 94l-205 495h26l193 -465l200 465h26l-258 -599q-38 -89 -85 -105q-16 -6 -35 -6q-43 0 -70 17zM254 568l90 149h32l-96 -149h-26z" glyph-name="yacute" horiz-adv-x="507" unicode="ý"/>
<glyph d="M101 698h24v-329q30 85 118 122q44 19 89 19q104 0 175 -82q65 -76 65 -179q0 -116 -79 -194q-69 -67 -161 -67q-100 0 -167 73q-25 28 -40 62v-323h-24v898zM329 13q102 0 165 81q52 67 52 155q0 111 -74 181q-60 56 -141 56q-115 0 -172 -97q-36 -61 -36 -140 q0 -114 69 -182q56 -54 137 -54z" glyph-name="thorn" horiz-adv-x="637" unicode="þ"/>
</font>
</defs>
</svg>
