<?xml version="1.0" encoding="UTF-8"?>
<!DOCTYPE svg  PUBLIC '-//W3C//DTD SVG 1.1//EN'  'http://www.w3.org/Graphics/SVG/1.1/DTD/svg11.dtd'>
<svg version="1.1" xmlns="http://www.w3.org/2000/svg">
<defs>
<font id="Rotunda-ExtraBold" horiz-adv-x="687">
<font-face font-family="Rotunda Extra Bold" font-weight="700" ascent="800" bbox="-101 -238 1002 979" cap-height="715" descent="-200" panose-1="0 0 0 0 0 0 0 0 0 0" underline-position="-100" underline-thickness="50" unicode-range="U+0020-00FE" units-per-em="1000" x-height="515"/>
<missing-glyph/>
<glyph glyph-name="space" horiz-adv-x="234" unicode=" "/>
<glyph d="M242 715l-16 -495h-143l-16 495h175zM61 78q0 54 47 79q21 11 46 11q57 0 82 -45q12 -21 12 -45q0 -54 -47 -78q-22 -12 -47 -12q-56 0 -81 45q-12 21 -12 45z" glyph-name="exclam" horiz-adv-x="308" unicode="!"/>
<glyph d="M226 435l-17 280h122l-17 -280h-88zM56 435l-17 280h122l-17 -280h-88z" glyph-name="quotedbl" horiz-adv-x="370" unicode='"'/>
<glyph d="M13 181l23 132h131l14 81h-131l23 132h131l29 167h141l-29 -167h83l29 167h141l-29 -167h131l-23 -132h-131l-14 -81h131l-23 -132h-132l-29 -168h-141l29 168h-83l-29 -168h-141l29 168h-130zM308 313h83l14 81h-83z" glyph-name="numbersign" horiz-adv-x="712" unicode="#"/>
<glyph d="M11 133l121 102q52 -78 129 -89q10 -1 19 -1q67 0 83 36q4 9 4 18q0 32 -43 53q-15 8 -58 25q-34 13 -53 21q-106 47 -143 93q-38 48 -38 115q0 108 88 171q49 35 113 46v124h99v-123q133 -21 195 -130l-127 -98q-45 73 -116 74q-52 0 -71 -34q-6 -12 -6 -26 q0 -28 49 -51q12 -5 38 -16q26 -10 39 -16q112 -49 152 -86q57 -54 57 -137q0 -96 -77 -158q-58 -46 -139 -56v-122h-99v123q-132 22 -200 117q-9 12 -16 25z" glyph-name="dollar" horiz-adv-x="558" unicode="$"/>
<glyph d="M246 545q-4 58 -61 60q-59 -4 -61 -60q0 -48 42 -59q9 -2 19 -2q48 0 59 43q2 9 2 18zM358 545q0 -86 -67 -137q-47 -34 -106 -34q-86 0 -137 65q-36 46 -36 106q0 85 66 136q47 36 107 36q85 0 136 -65q37 -47 37 -107zM637 159q-4 58 -61 60q-59 -4 -61 -60 q0 -48 42 -59q9 -2 19 -2q48 0 59 43q2 9 2 18zM749 159q0 -86 -67 -137q-47 -34 -106 -34q-86 0 -137 65q-36 46 -36 106q0 85 66 136q47 36 107 36q85 0 136 -65q37 -47 37 -107zM76 0l523 715h94l-523 -715h-94z" glyph-name="percent" horiz-adv-x="761" unicode="%"/>
<glyph d="M386 146l-136 144q-61 -40 -63 -86q0 -51 63 -70q23 -6 47 -6q50 0 89 18zM291 454q63 41 73 71q3 9 3 18q0 35 -38 48q-13 5 -27 5q-45 0 -60 -34q-5 -10 -5 -20q0 -31 41 -75zM509 385h146q15 -133 -69 -248l127 -137h-190l-40 42q-87 -54 -183 -54q-134 0 -214 68 q-62 54 -63 130q0 99 105 177q16 11 33 22q-67 70 -79 119q-5 18 -5 37q0 83 71 137q63 49 154 49q111 0 176 -73q44 -50 44 -110q0 -76 -70 -137q-28 -24 -70 -51l104 -112q33 66 23 141z" glyph-name="ampersand" horiz-adv-x="698" unicode="&amp;"/>
<glyph d="M144 435h-88l-17 280h122z" glyph-name="quotesingle" horiz-adv-x="200" unicode="'"/>
<glyph d="M320 -130h-167q-122 224 -123 457q0 230 118 449q3 5 5 9h167q-114 -231 -114 -458q0 -226 114 -457z" glyph-name="parenleft" horiz-adv-x="331" unicode="("/>
<glyph d="M11 785h167q122 -224 123 -457q0 -230 -118 -449q-3 -5 -5 -9h-167q114 231 114 458q0 226 -114 457z" glyph-name="parenright" horiz-adv-x="331" unicode=")"/>
<glyph d="M27 535v110l106 -30l-76 77l89 52l29 -104l29 104l89 -52l-75 -77l105 30v-110l-106 30l76 -77l-89 -52l-29 104l-29 -104l-89 52l75 77z" glyph-name="asterisk" horiz-adv-x="350" unicode="*"/>
<glyph d="M13 434h185v185h151v-185h185v-151h-185v-185h-151v185h-185v151z" glyph-name="plus" horiz-adv-x="547" unicode="+"/>
<glyph d="M35 78q0 54 47 79q21 11 46 11q57 0 82 -45q12 -21 12 -45q0 -21 -8 -38l-84 -186h-76l47 138q-50 14 -63 62q-3 12 -3 24z" glyph-name="comma" horiz-adv-x="257" unicode=","/>
<glyph d="M47 203v142h360v-142h-360z" glyph-name="hyphen" horiz-adv-x="454" unicode="-"/>
<glyph d="M32 78q0 54 47 79q21 11 46 11q57 0 82 -45q12 -21 12 -45q0 -54 -47 -78q-22 -12 -47 -12q-56 0 -81 45q-12 21 -12 45z" glyph-name="period" horiz-adv-x="251" unicode="."/>
<glyph d="M384 789h180l-383 -929h-180z" glyph-name="slash" horiz-adv-x="565" unicode="/"/>
<glyph d="M331 -12q-203 0 -268 188q-27 79 -27 181q0 231 126 321q69 49 169 49q203 0 268 -189q27 -78 27 -181q0 -242 -137 -328q-66 -41 -158 -41zM331 148q109 0 118 172q1 18 1 37q0 196 -102 209q-9 1 -17 1q-111 0 -118 -180q-1 -15 -1 -30q0 -191 98 -207q10 -2 21 -2z " glyph-name="zero" horiz-adv-x="662" unicode="0"/>
<glyph d="M190 164v342q-47 -38 -161 -42v160q127 6 211 91h126v-551h148v-164h-476v164h152z" glyph-name="one" horiz-adv-x="511" unicode="1"/>
<glyph d="M537 0h-500q-6 49 -6 95q0 123 126 222q18 14 114 79q73 49 85 82q3 10 3 18q0 52 -55 63q-12 2 -25 2q-60 0 -105 -50q-12 -13 -19 -26l-128 95q49 95 157 131q49 16 102 16q110 0 183 -64q68 -61 68 -155q0 -112 -123 -204q-10 -7 -103 -68q-65 -42 -72 -70 q-1 -4 -1 -7h299v-159z" glyph-name="two" horiz-adv-x="570" unicode="2"/>
<glyph d="M12 123l124 105q44 -66 111 -75q9 -1 17 -1q68 0 93 45q8 16 8 34q0 63 -68 85q-27 8 -60 8q-62 0 -95 -10v109l132 130h-220v162h456v-119l-160 -153q92 -10 148 -82q43 -56 43 -125q0 -123 -95 -193q-75 -55 -182 -55q-148 0 -238 115q-8 10 -14 20z" glyph-name="three" horiz-adv-x="576" unicode="3"/>
<glyph d="M327 164h-324v115l276 436h214v-392h85v-159h-85v-164h-166v164zM207 318h125l-1 201z" glyph-name="four" horiz-adv-x="601" unicode="4"/>
<glyph d="M15 138l131 96q59 -81 124 -82q72 0 92 54q5 15 5 32q0 59 -53 82q-24 10 -52 10q-68 -1 -104 -32l-103 43l29 374h405v-162h-253l-6 -87q20 7 67 7q152 0 214 -103q32 -54 32 -127q0 -128 -89 -199q-71 -56 -176 -56q-141 0 -228 100q-20 23 -35 50z" glyph-name="five" horiz-adv-x="568" unicode="5"/>
<glyph d="M27 237q0 83 52 167q5 7 9 14l196 297h198l-164 -247q124 -10 187 -98q41 -59 41 -136q0 -113 -84 -185q-73 -61 -175 -61q-122 0 -198 85q-62 70 -62 164zM194 231q0 -63 52 -85q19 -8 41 -8q63 0 85 52q8 19 8 41q0 63 -52 85q-19 8 -41 8q-63 0 -85 -52q-8 -19 -8 -41 z" glyph-name="six" horiz-adv-x="560" unicode="6"/>
<glyph d="M290 551h-280v164h485v-133l-289 -582h-183z" glyph-name="seven" horiz-adv-x="495" unicode="7"/>
<glyph d="M293 138q60 0 83 42q8 15 8 33q0 53 -53 70q-18 6 -38 6q-63 0 -84 -44q-7 -15 -7 -32q0 -48 49 -67q20 -8 42 -8zM293 440q53 0 71 40q6 13 6 28q0 47 -46 63q-15 5 -31 5q-53 0 -71 -40q-6 -13 -6 -28q0 -47 46 -63q15 -5 31 -5zM293 727q120 0 190 -77q51 -57 51 -136 q0 -75 -59 -129q-16 -14 -31 -22q67 -28 95 -92q13 -31 13 -65q0 -109 -90 -171q-70 -47 -169 -47q-136 0 -209 82q-50 58 -50 136q0 87 75 139q16 11 33 18q-54 29 -78 90q-12 31 -12 61q0 106 87 167q65 46 154 46z" glyph-name="eight" horiz-adv-x="586" unicode="8"/>
<glyph d="M14 481q0 113 84 185q73 61 175 61q122 0 198 -84q62 -70 62 -165q0 -83 -52 -167q-5 -7 -9 -14l-196 -297h-198l164 247q-124 10 -187 98q-41 59 -41 136zM180 484q0 -63 52 -85q19 -8 41 -8q63 0 85 52q8 19 8 41q0 63 -52 85q-19 8 -41 8q-63 0 -85 -52q-8 -19 -8 -41 z" glyph-name="nine" horiz-adv-x="560" unicode="9"/>
<glyph d="M47 78q0 54 47 79q21 11 46 11q57 0 82 -45q12 -21 12 -45q0 -54 -47 -78q-22 -12 -47 -12q-56 0 -81 45q-12 21 -12 45zM47 437q0 54 47 79q21 11 46 11q57 0 82 -45q12 -21 12 -45q0 -54 -47 -78q-22 -12 -47 -12q-56 0 -81 45q-12 21 -12 45z" glyph-name="colon" horiz-adv-x="281" unicode=":"/>
<glyph d="M49 437q0 54 47 79q21 11 46 11q57 0 82 -45q12 -21 12 -45q0 -54 -47 -78q-22 -12 -47 -12q-56 0 -81 45q-12 21 -12 45zM48 78q0 54 47 79q21 11 46 11q57 0 82 -45q12 -21 12 -45q0 -21 -8 -38l-84 -186h-76l47 138q-50 14 -63 62q-3 12 -3 24z" glyph-name="semicolon" horiz-adv-x="284" unicode=";"/>
<glyph d="M473 86l-460 205v132l460 205v-160l-254 -111l254 -111v-160z" glyph-name="less" horiz-adv-x="526" unicode="&lt;"/>
<glyph d="M50 550h460v-151h-460v151zM510 169h-460v151h460v-151z" glyph-name="equal" horiz-adv-x="560" unicode="="/>
<glyph d="M513 291l-460 -205v160l254 111l-254 111v160l460 -205v-132z" glyph-name="greater" horiz-adv-x="526" unicode="&gt;"/>
<glyph d="M120 497l-114 102q65 105 183 124q24 4 48 4q122 0 188 -74q51 -57 51 -143q0 -90 -79 -159q-11 -10 -34 -28q-48 -38 -57 -58q-5 -11 -5 -21v-37h-159v58q0 75 71 134q9 8 29 23q48 36 58 56q5 12 5 23q0 46 -47 61q-15 5 -31 5q-59 0 -99 -56q-4 -8 -8 -14zM129 78 q0 54 47 79q21 11 46 11q57 0 82 -45q12 -21 12 -45q0 -54 -47 -78q-22 -12 -47 -12q-56 0 -81 45q-12 21 -12 45z" glyph-name="question" horiz-adv-x="495" unicode="?"/>
<glyph d="M483 -152q-184 0 -315 120q-122 112 -142 277q-3 28 -3 55q0 170 113 298q112 127 283 150q33 4 65 4q182 0 309 -119q117 -109 134 -266q3 -24 3 -47q0 -133 -76 -202q-50 -46 -118 -46q-87 1 -139 75q-56 -74 -143 -75q-99 0 -158 79q-45 60 -45 144q0 112 77 177 q55 46 126 46q64 0 104 -41q8 -8 13 -16v45h126v-268q0 -38 30 -49q7 -2 13 -2q40 0 52 75q4 26 4 58q0 127 -89 215q-90 87 -223 87q-143 0 -238 -98q-89 -93 -89 -224q0 -137 92 -231q93 -94 234 -94q76 0 160 39q12 6 22 12l54 -110q-64 -45 -173 -62q-35 -6 -63 -6z M477 398q-49 0 -76 -44q-16 -27 -16 -59q0 -61 47 -90q22 -13 45 -13q50 0 77 46q15 26 15 57q0 65 -49 92q-21 11 -43 11z" glyph-name="at" horiz-adv-x="958" unicode="@"/>
<glyph d="M164 0h-178l273 715h169l273 -715h-178l-57 151h-245zM343 516l-71 -219h142z" glyph-name="A" unicode="A"/>
<glyph d="M77 715h287q121 0 181 -78q38 -50 38 -118q0 -80 -56 -129q-21 -18 -42 -25q77 -20 109 -90q17 -37 17 -81q0 -103 -93 -157q-64 -37 -152 -37h-289v715zM252 150h109q43 0 62 40q8 17 8 35q0 42 -40 63q-19 10 -39 10h-100v-148zM252 438h86q49 0 64 41q5 12 5 25 q0 42 -41 56q-14 5 -30 5h-84v-127z" glyph-name="B" horiz-adv-x="645" unicode="B"/>
<glyph d="M577 268l135 -101q-65 -115 -191 -159q-59 -20 -122 -20q-161 0 -267 109q-103 108 -104 261q0 155 102 260q108 109 274 109q168 0 265 -115q24 -29 41 -62l-133 -102q-35 74 -114 101q-31 11 -62 11q-104 0 -158 -81q-34 -52 -34 -121q0 -102 70 -161q50 -42 117 -42 q113 1 181 113z" glyph-name="C" horiz-adv-x="719" unicode="C"/>
<glyph d="M77 715h267q161 0 267 -107q100 -103 100 -249q0 -150 -101 -253q-106 -106 -266 -106h-267v715zM252 150h77q93 0 153 72q48 59 48 136q0 98 -72 160q-55 47 -128 47h-78v-415z" glyph-name="D" horiz-adv-x="739" unicode="D"/>
<glyph d="M77 715h478v-152h-303v-128h248v-151h-248v-132h317v-152h-492v715z" glyph-name="E" horiz-adv-x="595" unicode="E"/>
<glyph d="M77 715h458v-152h-283v-148h228v-151h-228v-264h-175v715z" glyph-name="F" horiz-adv-x="552" unicode="F"/>
<glyph d="M403 -12q-165 0 -272 110q-103 106 -103 260t103 259q110 110 279 110q186 0 288 -138q8 -10 14 -20l-129 -106q-63 91 -160 98q-8 1 -16 1q-107 0 -163 -82q-35 -53 -35 -122q0 -104 71 -163q51 -42 120 -42q91 0 146 61q5 6 10 11v37h-141v146h306v-248 q-72 -117 -205 -156q-54 -16 -113 -16z" glyph-name="G" horiz-adv-x="755" unicode="G"/>
<glyph d="M77 715h176v-268h260v268h176v-715h-176v283h-260v-283h-176v715z" glyph-name="H" horiz-adv-x="766" unicode="H"/>
<glyph d="M77 0v715h175v-715h-175z" glyph-name="I" horiz-adv-x="329" unicode="I"/>
<glyph d="M-7 148l137 84q32 -83 88 -84q47 0 63 45q5 15 5 32v490h175v-494q0 -120 -87 -185q-65 -48 -155 -48q-126 0 -194 97q-20 29 -32 63z" glyph-name="J" horiz-adv-x="531" unicode="J"/>
<glyph d="M253 0h-176v715h176v-297l242 297h213l-254 -313l257 -402h-204l-176 279l-78 -93v-186z" glyph-name="K" unicode="K"/>
<glyph d="M77 0v715h175v-563h279v-152h-454z" glyph-name="L" horiz-adv-x="532" unicode="L"/>
<glyph d="M253 0h-176v715h156l222 -344l222 344h156v-715h-176v404l-166 -258h-72l-166 258v-404z" glyph-name="M" horiz-adv-x="910" unicode="M"/>
<glyph d="M77 715h147l302 -414v414h175v-715h-146l-303 421v-421h-175v715z" glyph-name="N" horiz-adv-x="778" unicode="N"/>
<glyph d="M28 358q0 153 101 258q109 110 273 111q165 0 272 -110q102 -106 102 -259q0 -154 -102 -260q-108 -110 -272 -110q-165 0 -272 110q-102 107 -102 260zM209 358q0 -103 71 -162q52 -43 122 -43q100 0 155 78q38 55 38 127q0 105 -73 163q-51 41 -120 41q-101 0 -156 -79 q-37 -54 -37 -125z" glyph-name="O" horiz-adv-x="804" unicode="O"/>
<glyph d="M252 0h-175v715h277q119 0 192 -83q61 -68 61 -163q0 -118 -86 -190q-70 -59 -166 -59h-103v-220zM252 565v-194h79q56 0 83 48q12 24 12 51q0 60 -50 85q-21 10 -45 10h-79z" glyph-name="P" horiz-adv-x="619" unicode="P"/>
<glyph d="M28 358q0 153 101 258q109 110 273 111q165 0 272 -110q102 -106 102 -259q0 -159 -107 -265q-30 -29 -65 -50l154 -233h-186l-117 181q-26 -3 -53 -3q-165 0 -272 110q-102 107 -102 260zM209 358q0 -103 71 -162q52 -43 122 -43q100 0 155 78q38 55 38 127 q0 105 -73 163q-51 41 -120 41q-101 0 -156 -79q-37 -54 -37 -125z" glyph-name="Q" horiz-adv-x="804" unicode="Q"/>
<glyph d="M77 0v715h311q130 0 199 -87q48 -61 48 -145q0 -111 -86 -178q-18 -13 -37 -23l132 -282h-189l-104 248h-98v-248h-176zM253 565v-173h103q70 0 91 55q6 16 6 34q0 64 -61 80q-16 4 -34 4h-105z" glyph-name="R" horiz-adv-x="675" unicode="R"/>
<glyph d="M287 145q67 0 83 36q4 9 4 18q0 32 -43 53q-15 8 -58 25q-34 13 -53 21q-106 47 -143 93q-38 48 -38 115q0 109 89 172q69 49 165 49q140 0 218 -99q13 -17 23 -34l-127 -98q-45 73 -116 74q-52 0 -71 -34q-6 -12 -6 -26q0 -28 49 -51q12 -5 38 -16q26 -10 39 -16 q112 -49 152 -86q57 -54 57 -137q0 -98 -81 -161q-73 -56 -181 -56q-124 0 -211 75q-36 32 -58 71l121 102q52 -78 129 -89q10 -1 19 -1z" glyph-name="S" horiz-adv-x="574" unicode="S"/>
<glyph d="M-1 563v152h562v-152h-193v-563h-176v563h-193z" glyph-name="T" horiz-adv-x="561" unicode="T"/>
<glyph d="M68 715h176v-425q0 -89 63 -122q28 -15 62 -15q79 0 111 67q14 31 14 70v425h176v-439q0 -129 -91 -212q-85 -76 -210 -76q-144 0 -231 97q-70 80 -70 191v439z" glyph-name="U" horiz-adv-x="738" unicode="U"/>
<glyph d="M256 0l-269 715h178l172 -509l172 509h178l-269 -715h-162z" glyph-name="V" horiz-adv-x="674" unicode="V"/>
<glyph d="M-8 715h177l124 -482l128 482h152l128 -482l124 482h177l-208 -715h-173l-124 458l-124 -458h-173z" glyph-name="W" horiz-adv-x="994" unicode="W"/>
<glyph d="M207 355l-217 360h199l132 -232l132 232h199l-217 -360l216 -355h-195l-135 228l-135 -228h-195z" glyph-name="X" horiz-adv-x="642" unicode="X"/>
<glyph d="M416 313v-313h-175v313l-256 402h191l153 -255l153 255h191z" glyph-name="Y" horiz-adv-x="658" unicode="Y"/>
<glyph d="M239 150h296v-150h-518v110l301 455h-284v150h506v-108z" glyph-name="Z" horiz-adv-x="560" unicode="Z"/>
<glyph d="M74 -130v915h290v-154h-119v-607h119v-154h-290z" glyph-name="bracketleft" horiz-adv-x="374" unicode="["/>
<glyph d="M564 -140h-180l-383 929h180z" glyph-name="backslash" horiz-adv-x="565" unicode="\"/>
<glyph d="M129 631h-119v154h290v-915h-290v154h119v607z" glyph-name="bracketright" horiz-adv-x="374" unicode="]"/>
<glyph d="M18 375l200 340h86l201 -340h-154l-90 160l-89 -160h-154z" glyph-name="asciicircum" horiz-adv-x="523" unicode="^"/>
<glyph d="M24 -188v138h500v-138h-500z" glyph-name="underscore" horiz-adv-x="548" unicode="_"/>
<glyph d="M359 563h-142l-182 209h212z" glyph-name="grave" horiz-adv-x="394" unicode="`"/>
<glyph d="M195 -12q-95 0 -144 65q-29 39 -29 90q0 104 140 144q14 4 28 7l133 26v1q-5 56 -80 58q-75 -1 -128 -61l-91 109q58 74 166 94q31 6 62 6q154 0 211 -98q26 -46 26 -107v-322h-161v57q-31 -61 -115 -68q-9 -1 -18 -1zM323 215l-84 -16q-50 -13 -51 -45q7 -37 48 -41 q65 0 82 59q5 17 5 35v8z" glyph-name="a" horiz-adv-x="542" unicode="a"/>
<glyph d="M223 0h-160v715h174v-258q47 70 140 70q119 0 188 -93q54 -74 54 -177q0 -131 -85 -209q-66 -60 -152 -60t-138 54q-12 13 -21 28v-70zM233 259q0 -76 55 -106q24 -13 52 -13q58 0 87 52q17 30 17 67q0 73 -54 103q-23 13 -50 13q-65 0 -93 -55q-14 -27 -14 -61z" glyph-name="b" horiz-adv-x="644" unicode="b"/>
<glyph d="M307 140q49 0 95 49q4 5 8 9l110 -99q-68 -96 -187 -109q-16 -2 -32 -2q-132 0 -212 91q-66 75 -66 179q0 124 88 201q78 68 189 68q145 -1 221 -120l-115 -99q-37 66 -101 67q-64 0 -93 -56q-13 -28 -13 -61q0 -72 53 -104q25 -14 55 -14z" glyph-name="c" horiz-adv-x="528" unicode="c"/>
<glyph d="M581 0h-160v70q-44 -74 -143 -81q-9 -1 -16 -1q-104 0 -173 81q-64 77 -64 188q0 130 82 208q66 62 160 62q94 -1 140 -70v258h174v-715zM411 259q0 75 -57 104q-23 12 -50 12q-60 0 -89 -52q-15 -29 -15 -64q0 -73 52 -105q25 -14 52 -14q64 0 93 55q14 29 14 64z" glyph-name="d" horiz-adv-x="644" unicode="d"/>
<glyph d="M529 216h-326q9 -62 81 -78q20 -5 42 -5q72 1 122 48l88 -110q-88 -79 -207 -83h-16q-146 0 -228 96q-61 73 -61 173q0 122 86 200q76 70 182 70q130 0 199 -88q48 -62 48 -149q0 -42 -10 -74zM288 389q-56 0 -79 -41q-8 -15 -9 -32h171v1q-3 49 -50 66q-16 6 -33 6z" glyph-name="e" horiz-adv-x="562" unicode="e"/>
<glyph d="M91 380h-72v135h72v19q0 124 96 171q47 22 109 22q50 0 83 -17v-139q-22 10 -50 10q-63 -2 -64 -50v-16h95v-135h-95v-380h-174v380z" glyph-name="f" horiz-adv-x="352" unicode="f"/>
<glyph d="M14 -73q1 67 78 97q-42 29 -43 78q0 53 62 89l12 6q-83 48 -90 135q-1 7 -1 14q0 84 75 137q63 44 146 44q33 0 69 -12h220v-125h-75q8 -24 8 -44q0 -105 -105 -154q-59 -27 -130 -27q-43 -11 -44 -30q2 -22 42 -22h128q101 0 152 -66q29 -39 29 -89q0 -81 -88 -129 q-76 -41 -187 -41q-157 0 -225 65q-33 33 -33 74zM181 346q0 -39 39 -56q16 -6 33 -6q46 0 65 35q7 13 7 27q0 40 -41 56q-15 6 -31 6q-48 0 -66 -36q-6 -13 -6 -26zM331 -12h-129q-21 -14 -22 -33q0 -37 75 -41q9 -1 18 -1q103 1 104 42q0 24 -31 31q-8 2 -15 2z" glyph-name="g" horiz-adv-x="553" unicode="g"/>
<glyph d="M63 0v715h174v-250q50 62 139 62q126 0 176 -97q25 -50 25 -116v-314h-174v283q-7 88 -82 92q-58 0 -77 -58q-7 -21 -7 -46v-271h-174z" glyph-name="h" horiz-adv-x="632" unicode="h"/>
<glyph d="M63 0v515h174v-515h-174zM56 659q0 54 47 79q21 11 46 11q57 0 82 -45q12 -21 12 -45q0 -54 -47 -78q-22 -12 -47 -12q-56 0 -81 45q-12 21 -12 45z" glyph-name="i" horiz-adv-x="300" unicode="i"/>
<glyph d="M-55 -198v141q24 -6 46 -6q63 2 64 57v521h174v-536q0 -144 -124 -180q-36 -11 -77 -11q-56 0 -83 14zM48 659q0 54 47 79q21 11 46 11q57 0 82 -45q12 -21 12 -45q0 -54 -47 -78q-22 -12 -47 -12q-56 0 -81 45q-12 21 -12 45z" glyph-name="j" horiz-adv-x="285" unicode="j"/>
<glyph d="M63 0v715h174v-368l151 168h205l-194 -213l213 -302h-208l-137 206l-30 -33v-173h-174z" glyph-name="k" horiz-adv-x="598" unicode="k"/>
<glyph d="M57 154v561h174v-529q0 -40 26 -47q8 -2 17 -2q19 0 34 6v-140q-33 -15 -81 -15q-131 0 -162 104q-8 29 -8 62z" glyph-name="l" horiz-adv-x="318" unicode="l"/>
<glyph d="M63 515h166v-61q50 73 145 73q113 -1 167 -84q61 79 154 84h15q127 0 176 -100q23 -49 23 -113v-314h-174v283q-3 90 -80 92q-52 0 -73 -52q-9 -24 -9 -52v-271h-174v283q-3 90 -80 92q-55 0 -75 -56q-7 -22 -7 -48v-271h-174v515z" glyph-name="m" horiz-adv-x="964" unicode="m"/>
<glyph d="M63 515h166v-61q50 73 147 73q126 0 176 -97q25 -50 25 -116v-314h-174v283q-7 88 -82 92q-58 0 -77 -58q-7 -21 -7 -46v-271h-174v515z" glyph-name="n" horiz-adv-x="632" unicode="n"/>
<glyph d="M24 258q0 123 88 201q79 68 192 68q133 0 214 -90q66 -75 66 -179q0 -123 -88 -201q-79 -69 -192 -69q-133 0 -214 91q-66 75 -66 179zM200 258q0 -79 57 -108q22 -10 47 -10q64 0 92 56q13 27 13 62q0 80 -59 107q-21 10 -46 10q-66 0 -92 -57q-12 -27 -12 -60z" glyph-name="o" horiz-adv-x="608" unicode="o"/>
<glyph d="M63 -200v715h160v-70q48 75 144 82h12q103 0 173 -80q67 -78 67 -189q0 -130 -82 -208q-66 -62 -160 -62q-97 1 -140 62v-250h-174zM233 256q0 -75 57 -104q23 -12 50 -12q60 0 89 52q15 29 15 64q0 73 -52 105q-25 14 -52 14q-64 0 -93 -55q-14 -29 -14 -64z" glyph-name="p" horiz-adv-x="644" unicode="p"/>
<glyph d="M581 515v-715h-174v250q-43 -62 -140 -62q-119 0 -188 93q-54 74 -54 177q0 130 86 208q67 61 154 61t140 -61q9 -10 16 -21v70h160zM411 256q0 76 -55 106q-24 13 -52 13q-58 0 -87 -52q-17 -30 -17 -67q0 -73 54 -103q23 -13 50 -13q65 0 93 55q14 27 14 61z" glyph-name="q" horiz-adv-x="643" unicode="q"/>
<glyph d="M413 523v-165q-12 6 -39 6q-95 0 -125 -93q-12 -36 -12 -82v-189h-174v515h173v-88q44 99 145 100q21 0 32 -4z" glyph-name="r" horiz-adv-x="417" unicode="r"/>
<glyph d="M241 -12q-122 0 -195 77q-18 20 -30 41l111 85q44 -72 116 -73q53 1 54 29q0 20 -35 35q-11 5 -71 26q-114 41 -144 97q-14 28 -14 63q0 92 92 135q53 24 121 24q102 0 166 -64q18 -19 29 -40l-108 -78q-32 51 -92 52q-42 0 -49 -24q-1 -3 -1 -6q0 -13 29 -25 q7 -3 25 -10q31 -12 50 -20q85 -33 112 -56q48 -39 48 -105q0 -81 -76 -128q-58 -35 -138 -35z" glyph-name="s" horiz-adv-x="479" unicode="s"/>
<glyph d="M9 380v135h71v139h169v-139h109v-135h-109v-177q7 -58 56 -63q41 1 67 19v-147q-51 -24 -117 -24q-125 0 -165 98q-15 39 -15 88v206h-66z" glyph-name="t" horiz-adv-x="378" unicode="t"/>
<glyph d="M55 201v314h174v-283q7 -88 82 -92q58 0 77 58q7 21 7 46v271h174v-515h-166v61q-50 -73 -147 -73q-126 0 -176 97q-25 50 -25 116z" glyph-name="u" horiz-adv-x="632" unicode="u"/>
<glyph d="M197 0l-207 515h174l110 -318l110 318h174l-207 -515h-154z" glyph-name="v" horiz-adv-x="548" unicode="v"/>
<glyph d="M165 0l-172 515h166l89 -317l99 317h122l99 -317l89 317h166l-172 -515h-155l-88 276l-88 -276h-155z" glyph-name="w" horiz-adv-x="816" unicode="w"/>
<glyph d="M176 255l-181 260h198l83 -143l83 143h198l-181 -260l177 -255h-193l-84 136l-84 -136h-193z" glyph-name="x" horiz-adv-x="554" unicode="x"/>
<glyph d="M-11 515h179l108 -317l111 317h175l-220 -540q-58 -142 -150 -175q-36 -12 -80 -12q-57 0 -99 22v141q36 -16 72 -16q58 0 83 40q12 19 20 47z" glyph-name="y" horiz-adv-x="552" unicode="y"/>
<glyph d="M23 0v86l212 294h-205v135h412v-87l-213 -293h221v-135h-427z" glyph-name="z" horiz-adv-x="468" unicode="z"/>
<glyph d="M82 57v126q0 65 -33 80q-15 6 -36 7v115q55 1 65 47q4 16 4 40v126q2 186 213 187q24 0 37 -1v-149q-60 0 -73 -32q-6 -15 -6 -36v-95q-1 -117 -70 -144q70 -31 70 -145v-95q0 -55 43 -65q15 -3 36 -3v-149q-14 -1 -37 -1q-212 2 -213 187z" glyph-name="braceleft" horiz-adv-x="345" unicode="{"/>
<glyph d="M240 -140h-166v935h166v-935z" glyph-name="bar" horiz-adv-x="314" unicode="|"/>
<glyph d="M13 635v149q14 1 37 1q212 -2 213 -187v-126q0 -65 33 -80q15 -6 36 -7v-115q-55 -1 -65 -47q-4 -16 -4 -40v-126q-2 -186 -213 -187q-24 0 -37 1v149q60 0 73 32q6 15 6 36v95q1 117 70 144q-70 31 -70 145v95q0 55 -43 65q-15 3 -36 3z" glyph-name="braceright" horiz-adv-x="345" unicode="}"/>
<glyph d="M159 238l-113 23q0 108 71 148q32 18 72 18q34 0 105 -30q35 -15 50 -15q34 0 41 31q2 8 3 17l113 -23q0 -108 -71 -148q-32 -18 -72 -18q-35 0 -104 30q-36 15 -51 15q-35 0 -42 -33q-1 -7 -2 -15z" glyph-name="asciitilde" horiz-adv-x="542" unicode="~"/>
<glyph glyph-name="uni00A0" horiz-adv-x="234" unicode=" "/>
<glyph d="M60 -200l16 495h143l16 -495h-175zM54 437q0 54 47 79q21 11 46 11q57 0 82 -45q12 -21 12 -45q0 -54 -47 -78q-22 -12 -47 -12q-56 0 -81 45q-12 21 -12 45z" glyph-name="exclamdown" horiz-adv-x="294" unicode="¡"/>
<glyph d="M250 -28v116q-119 18 -182 115q-44 67 -44 151q0 123 87 201q59 51 139 64v116h99v-116q108 -17 173 -116l-115 -99q-36 66 -101 67q-63 0 -92 -57q-14 -28 -14 -60q0 -71 51 -103q26 -15 57 -15q50 0 98 52q3 4 5 6l110 -99q-64 -89 -172 -107v-116h-99z" glyph-name="cent" horiz-adv-x="534" unicode="¢"/>
<glyph d="M34 0v159h20q35 2 36 33v114h-55v85h55v98q0 128 91 193q64 45 157 45q117 0 194 -85q13 -15 23 -30l-100 -108q-48 59 -116 60q-61 0 -76 -49q-4 -13 -4 -26v-98h179v-85h-179v-98q0 -30 -19 -49h315v-159h-521z" glyph-name="sterling" horiz-adv-x="575" unicode="£"/>
<glyph d="M135 476l-105 105l94 94l105 -105q54 31 120 31q65 0 121 -32l106 106l94 -94l-106 -106q30 -56 30 -119q-1 -67 -31 -120l106 -106l-94 -94l-106 106q-54 -31 -120 -31q-64 0 -119 30l-105 -105l-94 94l105 105q-32 57 -32 121q1 67 31 120zM269 368q-1 -4 -1 -12 q0 -11 1 -14q7 -53 54 -67q8 -2 16 -3q3 -1 10 -1h11q56 4 71 54q2 10 3 20v11q0 7 -1 10q-6 54 -57 67q-7 2 -13 3q-4 1 -14 1q-9 0 -12 -1q-55 -6 -66 -58z" glyph-name="currency" horiz-adv-x="700" unicode="¤"/>
<glyph d="M216 386l-210 329h191l153 -255l153 255h191l-210 -329h101v-85h-148v-58h148v-85h-148v-158h-175v158h-147v85h147v58h-147v85h101z" glyph-name="yen" horiz-adv-x="701" unicode="¥"/>
<glyph d="M74 212h166v-352h-166v352zM240 443h-166v352h166v-352z" glyph-name="brokenbar" horiz-adv-x="314" unicode="¦"/>
<glyph d="M269 -112q-144 0 -224 104q-12 16 -22 33l101 77q56 -86 144 -87q65 0 77 31q2 6 2 11q0 20 -33 41q-27 16 -93 47q-125 61 -156 114q-17 30 -17 65q1 65 72 115q-64 56 -67 117q0 89 85 138q57 33 131 33q140 0 211 -101q9 -13 16 -25l-99 -79q-37 63 -103 76 q-12 2 -24 2q-55 0 -68 -31q-2 -6 -2 -11q0 -20 33 -41q27 -16 93 -47q131 -61 161 -123q12 -26 12 -56q-1 -65 -72 -115q64 -56 67 -117q0 -87 -87 -137q-62 -34 -138 -34zM240 367l-10 5q-7 4 -10 6q-31 -20 -30 -43q2 -22 39 -44q14 -9 78 -43q3 -2 11 -6q7 -3 10 -5 q32 20 29 43q-2 23 -41 46q-16 10 -76 41z" glyph-name="section" horiz-adv-x="532" unicode="§"/>
<glyph d="M95 659q0 54 47 79q21 11 46 11q57 0 82 -45q12 -21 12 -45q0 -54 -47 -78q-22 -12 -47 -12q-56 0 -81 45q-12 21 -12 45zM332 659q0 54 47 79q21 11 46 11q57 0 82 -45q12 -21 12 -45q0 -54 -47 -78q-22 -12 -47 -12q-56 0 -81 45q-12 21 -12 45z" glyph-name="dieresis" horiz-adv-x="614" unicode="¨"/>
<glyph d="M409 727q167 0 278 -114q97 -100 104 -236q1 -11 1 -20q0 -135 -92 -240q-103 -117 -262 -128q-15 -1 -29 -1q-168 0 -278 115q-96 100 -103 236v18q0 139 92 243q104 120 271 127h18zM409 101q125 0 201 91q60 72 60 165q0 108 -76 183q-76 74 -185 74q-124 0 -200 -92 q-59 -72 -59 -165q0 -110 78 -185q74 -71 181 -71zM510 316l78 -69q-68 -93 -174 -94q-112 0 -173 83q-41 56 -41 123q0 90 67 150q61 53 147 53q105 -1 170 -93l-77 -74q-38 56 -94 57q-63 0 -86 -54q-8 -19 -8 -41q0 -58 46 -83q22 -11 48 -11q56 1 97 53z" glyph-name="copyright" horiz-adv-x="820" unicode="©"/>
<glyph d="M43 262v110h295v-110h-295zM328 621v-199h-101v28q-25 -35 -75 -37q-78 0 -95 59q-4 13 -4 27q2 68 96 91l74 18v1q-2 19 -36 20q-49 -1 -94 -35l-40 87q45 38 116 45q13 1 25 1q86 0 120 -56q14 -23 14 -50zM177 499q27 0 39 26q5 10 5 20v1l-43 -12q-19 -6 -20 -19 q1 -15 19 -16z" glyph-name="ordfeminine" horiz-adv-x="384" unicode="ª"/>
<glyph d="M256 258l128 209h163l-129 -209l129 -208h-163zM147 50l-128 208l128 209h163l-129 -209l129 -208h-163z" glyph-name="guillemotleft" horiz-adv-x="576" unicode="«"/>
<glyph d="M48 434h495v-286h-151v135h-344v151z" glyph-name="logicalnot" horiz-adv-x="599" unicode="¬"/>
<glyph d="M45 203v142h336v-142h-336z" glyph-name="uni00AD" horiz-adv-x="426" unicode="­"/>
<glyph d="M230 379q-100 0 -161 75q-45 57 -45 132q0 99 74 159q57 46 132 46q100 0 160 -74q46 -56 46 -131q0 -100 -74 -161q-57 -46 -132 -46zM98 586q0 -80 62 -116q31 -17 70 -17q78 0 113 61q18 32 18 72q0 76 -59 113q-32 19 -72 19q-79 0 -115 -62q-17 -32 -17 -70z M149 679h95q45 0 61 -37q5 -13 5 -27q-1 -39 -29 -57l36 -65h-69l-26 54h-8v-54h-65v186zM227 631h-16v-34h16q17 2 18 16q-1 17 -18 18z" glyph-name="registered" horiz-adv-x="460" unicode="®"/>
<glyph d="M30 594v132h325v-132h-325z" glyph-name="macron" horiz-adv-x="385" unicode="¯"/>
<glyph d="M190 394q-82 0 -132 64q-35 46 -35 103q0 84 65 133q45 33 102 33q83 0 132 -63q35 -45 35 -103q0 -82 -64 -132q-46 -35 -103 -35zM190 510q33 0 47 30q5 10 5 21q0 33 -30 46q-11 5 -22 5q-33 0 -47 -30q-5 -10 -5 -21q0 -33 30 -46q11 -5 22 -5z" glyph-name="degree" horiz-adv-x="380" unicode="°"/>
<glyph d="M210 381h-160v151h160v155h151v-155h160v-151h-160v-155h-151v155zM525 27h-480v151h480v-151z" glyph-name="plusminus" horiz-adv-x="570" unicode="±"/>
<glyph d="M20 386q0 79 81 130q8 5 16 9q61 34 64 37q17 14 18 27q-2 25 -32 26q-37 -1 -68 -43l-84 68q33 58 104 79q26 8 51 8q87 0 127 -58q22 -32 22 -73q0 -76 -84 -124q-3 -2 -5 -3q-11 -6 -31 -16q-36 -18 -40 -28h167v-107h-302q-4 31 -4 68z" glyph-name="twosuperior" horiz-adv-x="344" unicode="²"/>
<glyph d="M9 394l87 64q25 -44 67 -45q35 0 42 26q1 4 1 8q-2 37 -52 38q-44 0 -64 -4v63l67 64h-121v107h276v-79l-89 -77q70 -9 95 -67q9 -22 9 -47q0 -84 -74 -121q-38 -18 -84 -18q-90 0 -144 64q-9 12 -16 24z" glyph-name="threesuperior" horiz-adv-x="347" unicode="³"/>
<glyph d="M35 563l112 209h212l-182 -209h-142z" glyph-name="acute" horiz-adv-x="394" unicode="´"/>
<glyph d="M9 504q0 102 80 163q63 48 148 48h357v-815h-135v663h-70v-663h-135v390h-18q-106 0 -173 74q-54 59 -54 140z" glyph-name="paragraph" horiz-adv-x="678" unicode="¶"/>
<glyph d="M42 304q0 54 47 79q21 11 46 11q57 0 82 -45q12 -21 12 -45q0 -54 -47 -78q-22 -12 -47 -12q-56 0 -81 45q-12 21 -12 45z" glyph-name="periodcentered" horiz-adv-x="271" unicode="·"/>
<glyph d="M90 33l80 -33l-14 -43q85 -29 86 -97q0 -61 -66 -86q-32 -12 -73 -12q-47 0 -73 9v97q27 -9 55 -9q45 1 46 20q-2 22 -49 22q-19 0 -35 -2z" glyph-name="cedilla" horiz-adv-x="272" unicode="¸"/>
<glyph d="M22 557v108q74 1 124 50h85v-286h83v-111h-287v111h85v143q-34 -15 -90 -15z" glyph-name="onesuperior" horiz-adv-x="319" unicode="¹"/>
<glyph d="M57 262v110h302v-110h-302zM208 413q-81 0 -130 61q-34 43 -34 96q0 78 64 125q45 32 100 32q81 0 130 -61q34 -43 34 -96q0 -78 -64 -125q-45 -32 -100 -32zM208 521q32 0 46 29q4 10 4 20q0 32 -30 45q-10 4 -20 4q-32 0 -46 -29q-4 -10 -4 -20q0 -32 30 -45 q10 -4 20 -4z" glyph-name="ordmasculine" horiz-adv-x="416" unicode="º"/>
<glyph d="M396 259l-129 208h163l128 -208l-128 -209h-163zM159 259l-129 208h163l128 -208l-128 -209h-163z" glyph-name="guillemotright" horiz-adv-x="578" unicode="»"/>
<glyph d="M583 80h-177v74l166 243h123v-223h46v-96h-46v-78h-112v80zM116 429v143q-34 -15 -90 -15v108q74 1 124 50h85v-286h83v-111h-287v111h85zM118 0l523 715h94l-523 -715h-94zM526 172h65v96z" glyph-name="onequarter" horiz-adv-x="762" unicode="¼"/>
<glyph d="M587 254l-84 68q33 58 104 79q26 8 51 8q87 0 127 -58q22 -32 22 -73q0 -76 -84 -124q-3 -2 -5 -3q-11 -6 -31 -16q-36 -18 -40 -28h167v-107h-302q-4 31 -4 68q0 79 81 130q8 5 16 9q61 34 64 37q17 14 18 27q-2 25 -32 26q-37 -1 -68 -43zM116 429v143q-34 -15 -90 -15 v108q74 1 124 50h85v-286h83v-111h-287v111h85zM222 0h-94l523 715h94z" glyph-name="onehalf" horiz-adv-x="832" unicode="½"/>
<glyph d="M172 306q-90 0 -144 64q-9 12 -16 24l87 64q25 -44 67 -45q35 0 42 26q1 4 1 8q-2 37 -52 38q-44 0 -64 -4v63l67 64h-121v107h276v-79l-89 -77q70 -9 95 -67q9 -22 9 -47q0 -84 -74 -121q-38 -18 -84 -18zM387 80v74l166 243h123v-223h46v-96h-46v-78h-112v80h-177z M99 0l523 715h94l-523 -715h-94zM572 268l-65 -96h65v96z" glyph-name="threequarters" horiz-adv-x="745" unicode="¾"/>
<glyph d="M372 18l114 -102q-45 -80 -135 -112q-46 -16 -96 -16q-122 0 -188 74q-51 57 -51 143q0 90 79 159q11 10 34 28q48 38 57 58q5 11 5 21v37h159v-58q0 -75 -71 -134q-9 -8 -29 -23q-48 -36 -58 -56q-5 -12 -5 -23q0 -46 47 -61q15 -5 31 -5q59 0 99 56q4 8 8 14zM176 437 q0 54 47 79q21 11 46 11q57 0 82 -45q12 -21 12 -45q0 -54 -47 -78q-22 -12 -47 -12q-56 0 -81 45q-12 21 -12 45z" glyph-name="questiondown" horiz-adv-x="490" unicode="¿"/>
<glyph d="M164 0h-178l273 715h169l273 -715h-178l-57 151h-245zM90 972h212l112 -209h-142zM343 516l-71 -219h142z" glyph-name="Agrave" unicode="À"/>
<glyph d="M-14 0l273 715h169l273 -715h-178l-57 151h-245l-57 -151h-178zM414 763h-142l112 209h212zM272 297h142l-71 219z" glyph-name="Aacute" unicode="Á"/>
<glyph d="M164 0h-178l273 715h169l273 -715h-178l-57 151h-245zM286 763h-150l136 214h144l136 -214h-150l-58 108zM272 297h142l-71 219z" glyph-name="Acircumflex" unicode="Â"/>
<glyph d="M-14 0l273 715h169l273 -715h-178l-57 151h-245l-57 -151h-178zM255 768l-113 23q0 101 67 139q29 16 66 16q33 0 87 -27q26 -13 38 -13q32 2 34 44l113 -23q0 -101 -67 -139q-29 -16 -66 -16q-33 0 -87 27q-26 13 -38 13q-32 -2 -34 -44zM272 297h142l-71 219z" glyph-name="Atilde" unicode="Ã"/>
<glyph d="M-14 0l273 715h169l273 -715h-178l-57 151h-245l-57 -151h-178zM132 859q0 54 47 79q21 11 46 11q57 0 82 -45q12 -21 12 -45q0 -54 -47 -78q-22 -12 -47 -12q-56 0 -81 45q-12 21 -12 45zM462 769q-56 0 -81 45q-12 21 -12 45q0 54 47 79q21 11 46 11q57 0 82 -45 q12 -21 12 -45q0 -54 -47 -78q-22 -12 -47 -12zM272 297h142l-71 219z" glyph-name="Adieresis" unicode="Ä"/>
<glyph d="M-14 0l273 715h169l273 -715h-178l-57 151h-245l-57 -151h-178zM344 739q-86 0 -118 64q-13 26 -13 56q0 72 59 104q32 16 72 16q84 0 117 -62q14 -27 14 -58q0 -70 -58 -103q-32 -17 -73 -17zM272 297h142l-71 219zM344 889q-26 0 -30 -24q-1 -3 -1 -6q0 -25 24 -29 q4 -1 7 -1q26 0 30 24q1 3 1 6q0 25 -24 29q-4 1 -7 1z" glyph-name="Aring" unicode="Å"/>
<glyph d="M159 0h-193l355 715h627v-152h-283v-128h228v-151h-228v-132h297v-152h-472v188h-240zM432 564l-104 -215h162v215h-58z" glyph-name="AE" horiz-adv-x="988" unicode="Æ"/>
<glyph d="M307 -101l30 94q-151 24 -238 142q-71 97 -71 223q0 155 102 260q108 109 274 109q168 0 265 -115q24 -29 41 -62l-133 -102q-35 74 -114 101q-31 11 -62 11q-104 0 -158 -81q-34 -52 -34 -121q0 -102 70 -161q50 -42 117 -42q113 1 181 113l135 -101q-67 -117 -195 -160 q-44 -15 -91 -18l-10 -32q85 -29 86 -97q0 -61 -66 -86q-32 -12 -73 -12q-47 0 -73 9v97q27 -9 55 -9q45 1 46 20q-2 22 -49 22q-19 0 -35 -2z" glyph-name="Ccedilla" horiz-adv-x="719" unicode="Ç"/>
<glyph d="M89 0v715h478v-152h-303v-128h248v-151h-248v-132h317v-152h-492zM77 972h212l112 -209h-142z" glyph-name="Egrave" horiz-adv-x="607" unicode="È"/>
<glyph d="M77 715h478v-152h-303v-128h248v-151h-248v-132h317v-152h-492v715zM357 763h-142l112 209h212z" glyph-name="Eacute" horiz-adv-x="595" unicode="É"/>
<glyph d="M77 715h478v-152h-303v-128h248v-151h-248v-132h317v-152h-492v715zM250 763h-150l136 214h144l136 -214h-150l-58 108z" glyph-name="Ecircumflex" horiz-adv-x="595" unicode="Ê"/>
<glyph d="M77 0v715h478v-152h-303v-128h248v-151h-248v-132h317v-152h-492zM434 769q-56 0 -81 45q-12 21 -12 45q0 54 47 79q21 11 46 11q57 0 82 -45q12 -21 12 -45q0 -54 -47 -78q-22 -12 -47 -12zM197 769q-56 0 -81 45q-12 21 -12 45q0 54 47 79q21 11 46 11q57 0 82 -45 q12 -21 12 -45q0 -54 -47 -78q-22 -12 -47 -12z" glyph-name="Edieresis" horiz-adv-x="595" unicode="Ë"/>
<glyph d="M77 0v715h175v-715h-175zM239 763h-142l-182 209h212z" glyph-name="Igrave" horiz-adv-x="329" unicode="Ì"/>
<glyph d="M77 0v715h175v-715h-175zM90 763l112 209h212l-182 -209h-142z" glyph-name="Iacute" horiz-adv-x="329" unicode="Í"/>
<glyph d="M77 0v715h175v-715h-175zM-43 763l136 214h144l136 -214h-150l-58 108l-58 -108h-150z" glyph-name="Icircumflex" horiz-adv-x="329" unicode="Î"/>
<glyph d="M77 0v715h175v-715h-175zM-47 859q0 54 47 79q21 11 46 11q57 0 82 -45q12 -21 12 -45q0 -54 -47 -78q-22 -12 -47 -12q-56 0 -81 45q-12 21 -12 45zM189 859q0 54 47 79q21 11 46 11q57 0 82 -45q12 -21 12 -45q0 -54 -47 -78q-22 -12 -47 -12q-56 0 -81 45 q-12 21 -12 45z" glyph-name="Idieresis" horiz-adv-x="329" unicode="Ï"/>
<glyph d="M78 316h-72v86h72v313h267q161 0 267 -107q100 -103 100 -249q0 -150 -101 -253q-106 -106 -266 -106h-267v316zM396 316h-143v-166h77q93 0 153 72q48 59 48 136q0 98 -72 160q-55 47 -128 47h-78v-163h143v-86z" glyph-name="Eth" horiz-adv-x="740" unicode="Ð"/>
<glyph d="M252 0h-175v715h147l302 -414v414h175v-715h-146l-303 421v-421zM292 768l-113 23q0 101 67 139q29 16 66 16q33 0 87 -27q26 -13 38 -13q32 2 34 44l113 -23q0 -101 -67 -139q-29 -16 -66 -16q-33 0 -87 27q-26 13 -38 13q-32 -2 -34 -44z" glyph-name="Ntilde" horiz-adv-x="778" unicode="Ñ"/>
<glyph d="M28 358q0 153 101 258q109 110 273 111q165 0 272 -110q102 -106 102 -259q0 -154 -102 -260q-108 -110 -272 -110q-165 0 -272 110q-102 107 -102 260zM209 358q0 -103 71 -162q52 -43 122 -43q100 0 155 78q38 55 38 127q0 105 -73 163q-51 41 -120 41q-101 0 -156 -79 q-37 -54 -37 -125zM485 763h-142l-182 209h212z" glyph-name="Ograve" horiz-adv-x="804" unicode="Ò"/>
<glyph d="M28 358q0 153 101 258q109 110 273 111q165 0 272 -110q102 -106 102 -259q0 -154 -102 -260q-108 -110 -272 -110q-165 0 -272 110q-102 107 -102 260zM209 358q0 -103 71 -162q52 -43 122 -43q100 0 155 78q38 55 38 127q0 105 -73 163q-51 41 -120 41q-101 0 -156 -79 q-37 -54 -37 -125zM321 763l112 209h212l-182 -209h-142z" glyph-name="Oacute" horiz-adv-x="804" unicode="Ó"/>
<glyph d="M402 -12q-165 0 -272 110q-102 107 -102 260t101 258q109 110 273 111q165 0 272 -110q102 -106 102 -259q0 -154 -102 -260q-108 -110 -272 -110zM209 358q0 -103 71 -162q52 -43 122 -43q100 0 155 78q38 55 38 127q0 105 -73 163q-51 41 -120 41q-101 0 -156 -79 q-37 -54 -37 -125zM194 763l136 214h144l136 -214h-150l-58 108l-58 -108h-150z" glyph-name="Ocircumflex" horiz-adv-x="804" unicode="Ô"/>
<glyph d="M28 358q0 153 101 258q109 110 273 111q165 0 272 -110q102 -106 102 -259q0 -154 -102 -260q-108 -110 -272 -110q-165 0 -272 110q-102 107 -102 260zM209 358q0 -103 71 -162q52 -43 122 -43q100 0 155 78q38 55 38 127q0 105 -73 163q-51 41 -120 41q-101 0 -156 -79 q-37 -54 -37 -125zM312 768l-113 23q0 101 67 139q29 16 66 16q33 0 87 -27q26 -13 38 -13q32 2 34 44l113 -23q0 -101 -67 -139q-29 -16 -66 -16q-33 0 -87 27q-26 13 -38 13q-32 -2 -34 -44z" glyph-name="Otilde" horiz-adv-x="804" unicode="Õ"/>
<glyph d="M28 358q0 153 101 258q109 110 273 111q165 0 272 -110q102 -106 102 -259q0 -154 -102 -260q-108 -110 -272 -110q-165 0 -272 110q-102 107 -102 260zM209 358q0 -103 71 -162q52 -43 122 -43q100 0 155 78q38 55 38 127q0 105 -73 163q-51 41 -120 41q-101 0 -156 -79 q-37 -54 -37 -125zM190 859q0 54 47 79q21 11 46 11q57 0 82 -45q12 -21 12 -45q0 -54 -47 -78q-22 -12 -47 -12q-56 0 -81 45q-12 21 -12 45zM427 859q0 54 47 79q21 11 46 11q57 0 82 -45q12 -21 12 -45q0 -54 -47 -78q-22 -12 -47 -12q-56 0 -81 45q-12 21 -12 45z" glyph-name="Odieresis" horiz-adv-x="804" unicode="Ö"/>
<glyph d="M174 358l-138 138l107 107l138 -138l137 138l107 -107l-138 -138l138 -137l-107 -107l-137 138l-138 -138l-107 107z" glyph-name="multiply" horiz-adv-x="561" unicode="×"/>
<glyph d="M81 -21l71 99q-115 99 -123 258q-1 12 -1 22q0 153 101 258q109 110 273 111q103 0 185 -45l71 99l65 -44l-71 -99q115 -99 123 -258q1 -12 1 -22q0 -154 -102 -260q-108 -110 -272 -110q-100 0 -185 45l-70 -98zM549 495l-232 -323q40 -19 85 -19q100 0 155 78 q38 55 38 127q-1 80 -46 137zM255 221l232 322q-40 19 -85 19q-101 0 -156 -79q-37 -54 -37 -125q1 -80 46 -137z" glyph-name="Oslash" horiz-adv-x="804" unicode="Ø"/>
<glyph d="M68 715h176v-425q0 -89 63 -122q28 -15 62 -15q79 0 111 67q14 31 14 70v425h176v-439q0 -129 -91 -212q-85 -76 -210 -76q-144 0 -231 97q-70 80 -70 191v439zM123 972h212l112 -209h-142z" glyph-name="Ugrave" horiz-adv-x="738" unicode="Ù"/>
<glyph d="M68 276v439h176v-425q0 -89 63 -122q28 -15 62 -15q79 0 111 67q14 31 14 70v425h176v-439q0 -129 -91 -212q-85 -76 -210 -76q-144 0 -231 97q-70 80 -70 191zM431 763h-142l112 209h212z" glyph-name="Uacute" horiz-adv-x="738" unicode="Ú"/>
<glyph d="M369 -12q-144 0 -231 97q-70 80 -70 191v439h176v-425q0 -89 63 -122q28 -15 62 -15q79 0 111 67q14 31 14 70v425h176v-439q0 -129 -91 -212q-85 -76 -210 -76zM160 763l136 214h144l136 -214h-150l-58 108l-58 -108h-150z" glyph-name="Ucircumflex" horiz-adv-x="738" unicode="Û"/>
<glyph d="M68 276v439h176v-425q0 -89 63 -122q28 -15 62 -15q79 0 111 67q14 31 14 70v425h176v-439q0 -129 -91 -212q-85 -76 -210 -76q-144 0 -231 97q-70 80 -70 191zM486 769q-56 0 -81 45q-12 21 -12 45q0 54 47 79q21 11 46 11q57 0 82 -45q12 -21 12 -45q0 -54 -47 -78 q-22 -12 -47 -12zM156 859q0 54 47 79q21 11 46 11q57 0 82 -45q12 -21 12 -45q0 -54 -47 -78q-22 -12 -47 -12q-56 0 -81 45q-12 21 -12 45z" glyph-name="Udieresis" horiz-adv-x="738" unicode="Ü"/>
<glyph d="M416 313v-313h-175v313l-256 402h191l153 -255l153 255h191zM257 763l112 209h212l-182 -209h-142z" glyph-name="Yacute" horiz-adv-x="658" unicode="Ý"/>
<glyph d="M77 715h175v-112h102q119 0 192 -83q61 -68 61 -163q0 -118 -86 -190q-70 -59 -166 -59h-103v-108h-175v715zM252 259h79q56 0 83 48q12 24 12 51q0 60 -50 85q-21 10 -45 10h-79v-194z" glyph-name="Thorn" horiz-adv-x="629" unicode="Þ"/>
<glyph d="M44 0v510q0 88 74 151q78 66 200 66q115 0 192 -67q59 -52 60 -116q0 -28 -14.5 -54.5t-27.5 -40t-39 -35.5q-42 -35 -48 -46q-3 -6 -3 -11q0 -15 42 -41q4 -3 13 -8q13 -8 19 -12q89 -53 110 -110q9 -24 9 -48q0 -71 -68 -115q-54 -35 -127 -35q-110 0 -172 76 q-14 16 -23 34l106 80q29 -50 69 -59q7 -1 12 -1q28 0 35 21q1 4 1 7q0 17 -47 45q-5 4 -18 11q-23 14 -35 21q-75 50 -90 93q-5 15 -5 30q0 46 57 95l12 10q43 37 52 52q8 14 8 28q0 44 -54 56q-16 4 -33 4q-61 0 -87 -46q-10 -19 -10 -41v-504h-170z" glyph-name="germandbls" horiz-adv-x="626" unicode="ß"/>
<glyph d="M22 143q0 104 140 144q14 4 28 7l133 26v1q-5 56 -80 58q-75 -1 -128 -61l-91 109q58 74 166 94q31 6 62 6q154 0 211 -98q26 -46 26 -107v-322h-161v57q-31 -61 -115 -68q-9 -1 -18 -1q-95 0 -144 65q-29 39 -29 90zM5 772h212l112 -209h-142zM323 215l-84 -16 q-50 -13 -51 -45q7 -37 48 -41q65 0 82 59q5 17 5 35v8z" glyph-name="agrave" horiz-adv-x="541" unicode="à"/>
<glyph d="M195 -12q-95 0 -144 65q-29 39 -29 90q0 104 140 144q14 4 28 7l133 26v1q-5 56 -80 58q-75 -1 -128 -61l-91 109q58 74 166 94q31 6 62 6q154 0 211 -98q26 -46 26 -107v-322h-161v57q-31 -61 -115 -68q-9 -1 -18 -1zM323 563h-142l112 209h212zM323 215l-84 -16 q-50 -13 -51 -45q7 -37 48 -41q65 0 82 59q5 17 5 35v8z" glyph-name="aacute" horiz-adv-x="542" unicode="á"/>
<glyph d="M195 -12q-95 0 -144 65q-29 39 -29 90q0 104 140 144q14 4 28 7l133 26v1q-5 56 -80 58q-75 -1 -128 -61l-91 109q58 74 166 94q31 6 62 6q154 0 211 -98q26 -46 26 -107v-322h-161v57q-31 -61 -115 -68q-9 -1 -18 -1zM205 563h-150l136 214h144l136 -214h-150l-58 108z M188 154q7 -37 48 -41q65 0 82 59q5 17 5 35v8l-84 -16q-50 -13 -51 -45z" glyph-name="acircumflex" horiz-adv-x="542" unicode="â"/>
<glyph d="M22 143q0 104 140 144q14 4 28 7l133 26v1q-5 56 -80 58q-75 -1 -128 -61l-91 109q58 74 166 94q31 6 62 6q154 0 211 -98q26 -46 26 -107v-322h-161v57q-31 -61 -115 -68q-9 -1 -18 -1q-95 0 -144 65q-29 39 -29 90zM170 568l-113 23q0 101 67 139q29 16 66 16 q33 0 87 -27q26 -13 38 -13q32 2 34 44l113 -23q0 -101 -67 -139q-29 -16 -66 -16q-33 0 -87 27q-26 13 -38 13q-32 -2 -34 -44zM188 154q7 -37 48 -41q65 0 82 59q5 17 5 35v8l-84 -16q-50 -13 -51 -45z" glyph-name="atilde" horiz-adv-x="542" unicode="ã"/>
<glyph d="M195 -12q-95 0 -144 65q-29 39 -29 90q0 104 140 144q14 4 28 7l133 26v1q-5 56 -80 58q-75 -1 -128 -61l-91 109q58 74 166 94q31 6 62 6q154 0 211 -98q26 -46 26 -107v-322h-161v57q-31 -61 -115 -68q-9 -1 -18 -1zM144 569q-56 0 -81 45q-12 21 -12 45q0 54 47 79 q21 11 46 11q57 0 82 -45q12 -21 12 -45q0 -54 -47 -78q-22 -12 -47 -12zM381 569q-56 0 -81 45q-12 21 -12 45q0 54 47 79q21 11 46 11q57 0 82 -45q12 -21 12 -45q0 -54 -47 -78q-22 -12 -47 -12zM323 215l-84 -16q-50 -13 -51 -45q7 -37 48 -41q65 0 82 59q5 17 5 35v8z " glyph-name="adieresis" horiz-adv-x="542" unicode="ä"/>
<glyph d="M22 143q0 104 140 144q14 4 28 7l133 26v1q-5 56 -80 58q-75 -1 -128 -61l-91 109q58 74 166 94q31 6 62 6q154 0 211 -98q26 -46 26 -107v-322h-161v57q-31 -61 -115 -68q-9 -1 -18 -1q-95 0 -144 65q-29 39 -29 90zM132 659q0 72 59 104q32 16 72 16q84 0 117 -62 q14 -27 14 -58q0 -70 -58 -103q-32 -17 -73 -17q-86 0 -118 64q-13 26 -13 56zM323 215l-84 -16q-50 -13 -51 -45q7 -37 48 -41q65 0 82 59q5 17 5 35v8zM232 659q0 -25 24 -29q4 -1 7 -1q26 0 30 24q1 3 1 6q0 25 -24 29q-4 1 -7 1q-26 0 -30 -24q-1 -3 -1 -6z" glyph-name="aring" horiz-adv-x="542" unicode="å"/>
<glyph d="M224 -12q-107 0 -165 64q-38 42 -38 99q0 89 89 134q52 26 111 26h125v6q0 44 -56 63q-22 8 -45 8q-73 -1 -131 -58l-91 104q39 49 117 76q49 17 98 17q120 -1 187 -67q68 67 171 67q124 0 192 -86q51 -65 51 -156q0 -39 -10 -69h-319q12 -62 72 -82q20 -6 41 -6 q74 0 124 43q4 3 6 5l88 -105q-92 -83 -221 -83q-117 1 -199 86q-64 -73 -167 -84q-16 -2 -30 -2zM187 168q0 -34 38 -45q12 -3 25 -3q52 0 81 37q15 21 15 45v14h-97q-49 0 -60 -34q-2 -7 -2 -14zM507 311h169v1q-3 51 -49 70q-17 7 -35 7q-54 0 -76 -44q-8 -16 -9 -34z " glyph-name="ae" horiz-adv-x="864" unicode="æ"/>
<glyph d="M24 258q0 124 88 201q78 68 189 68q145 -1 221 -120l-115 -99q-37 66 -101 67q-64 0 -93 -56q-13 -28 -13 -61q0 -72 53 -104q25 -14 55 -14q49 0 95 49q4 5 8 9l110 -99q-71 -97 -187 -109l-11 -33q85 -29 86 -97q0 -61 -66 -86q-32 -12 -73 -12q-47 0 -73 9v97 q27 -9 55 -9q45 1 46 20q-2 22 -49 22q-19 0 -35 -2l30 94q-118 21 -179 119q-41 66 -41 146z" glyph-name="ccedilla" horiz-adv-x="529" unicode="ç"/>
<glyph d="M529 216h-326q9 -62 81 -78q20 -5 42 -5q72 1 122 48l88 -110q-88 -79 -207 -83h-16q-146 0 -228 96q-61 73 -61 173q0 122 86 200q76 70 182 70q130 0 199 -88q48 -62 48 -149q0 -42 -10 -74zM288 389q-56 0 -79 -41q-8 -15 -9 -32h171v1q-3 49 -50 66q-16 6 -33 6z M366 563h-142l-182 209h212z" glyph-name="egrave" horiz-adv-x="562" unicode="è"/>
<glyph d="M529 216h-326q9 -62 81 -78q20 -5 42 -5q72 1 122 48l88 -110q-88 -79 -207 -83h-16q-146 0 -228 96q-61 73 -61 173q0 122 86 200q76 70 182 70q130 0 199 -88q48 -62 48 -149q0 -42 -10 -74zM288 389q-56 0 -79 -41q-8 -15 -9 -32h171v1q-3 49 -50 66q-16 6 -33 6z M219 563l112 209h212l-182 -209h-142z" glyph-name="eacute" horiz-adv-x="562" unicode="é"/>
<glyph d="M313 -12q-146 0 -228 96q-61 73 -61 173q0 122 86 200q76 70 182 70q130 0 199 -88q48 -62 48 -149q0 -42 -10 -74h-326q9 -62 81 -78q20 -5 42 -5q72 1 122 48l88 -110q-88 -79 -207 -83h-16zM76 563l136 214h144l136 -214h-150l-58 108l-58 -108h-150zM200 316h171v1 q-3 49 -50 66q-16 6 -33 6q-56 0 -79 -41q-8 -15 -9 -32z" glyph-name="ecircumflex" horiz-adv-x="562" unicode="ê"/>
<glyph d="M529 216h-326q9 -62 81 -78q20 -5 42 -5q72 1 122 48l88 -110q-88 -79 -207 -83h-16q-146 0 -228 96q-61 73 -61 173q0 122 86 200q76 70 182 70q130 0 199 -88q48 -62 48 -149q0 -42 -10 -74zM288 389q-56 0 -79 -41q-8 -15 -9 -32h171v1q-3 49 -50 66q-16 6 -33 6z M82 659q0 54 47 79q21 11 46 11q57 0 82 -45q12 -21 12 -45q0 -54 -47 -78q-22 -12 -47 -12q-56 0 -81 45q-12 21 -12 45zM319 659q0 54 47 79q21 11 46 11q57 0 82 -45q12 -21 12 -45q0 -54 -47 -78q-22 -12 -47 -12q-56 0 -81 45q-12 21 -12 45z" glyph-name="edieresis" horiz-adv-x="562" unicode="ë"/>
<glyph d="M63 0v515h174v-515h-174zM223 563h-142l-182 209h212z" glyph-name="igrave" horiz-adv-x="300" unicode="ì"/>
<glyph d="M63 0v515h174v-515h-174zM79 563l112 209h212l-182 -209h-142z" glyph-name="iacute" horiz-adv-x="300" unicode="í"/>
<glyph d="M63 0v515h174v-515h-174zM-58 563l136 214h144l136 -214h-150l-58 108l-58 -108h-150z" glyph-name="icircumflex" horiz-adv-x="300" unicode="î"/>
<glyph d="M63 0v515h174v-515h-174zM-62 659q0 54 47 79q21 11 46 11q57 0 82 -45q12 -21 12 -45q0 -54 -47 -78q-22 -12 -47 -12q-56 0 -81 45q-12 21 -12 45zM174 659q0 54 47 79q21 11 46 11q57 0 82 -45q12 -21 12 -45q0 -54 -47 -78q-22 -12 -47 -12q-56 0 -81 45 q-12 21 -12 45z" glyph-name="idieresis" horiz-adv-x="300" unicode="ï"/>
<glyph d="M10 246q0 105 67 181q67 72 164 73q42 0 70 -18l1 1q-42 35 -108 63l-115 -53l-26 54l60 28q-42 12 -66 17l48 135q105 -25 192 -72l116 54l26 -54l-81 -37q175 -128 176 -345q0 -134 -76 -213q-70 -72 -186 -72q-132 0 -207 98q-55 71 -55 160zM184 246q0 -84 55 -106 q16 -6 33 -6q62 0 81 63q7 22 7 49q0 83 -52 108q-17 8 -35 8q-58 0 -80 -59q-9 -26 -9 -57z" glyph-name="eth" horiz-adv-x="556" unicode="ð"/>
<glyph d="M237 0h-174v515h166v-61q50 73 147 73q126 0 176 -97q25 -50 25 -116v-314h-174v283q-7 88 -82 92q-58 0 -77 -58q-7 -21 -7 -46v-271zM227 568l-113 23q0 101 67 139q29 16 66 16q33 0 87 -27q26 -13 38 -13q32 2 34 44l113 -23q0 -101 -67 -139q-29 -16 -66 -16 q-33 0 -87 27q-26 13 -38 13q-32 -2 -34 -44z" glyph-name="ntilde" horiz-adv-x="632" unicode="ñ"/>
<glyph d="M24 258q0 123 88 201q79 68 192 68q133 0 214 -90q66 -75 66 -179q0 -123 -88 -201q-79 -69 -192 -69q-133 0 -214 91q-66 75 -66 179zM200 258q0 -79 57 -108q22 -10 47 -10q64 0 92 56q13 27 13 62q0 80 -59 107q-21 10 -46 10q-66 0 -92 -57q-12 -27 -12 -60zM377 563 h-142l-182 209h212z" glyph-name="ograve" horiz-adv-x="608" unicode="ò"/>
<glyph d="M24 258q0 123 88 201q79 68 192 68q133 0 214 -90q66 -75 66 -179q0 -123 -88 -201q-79 -69 -192 -69q-133 0 -214 91q-66 75 -66 179zM200 258q0 -79 57 -108q22 -10 47 -10q64 0 92 56q13 27 13 62q0 80 -59 107q-21 10 -46 10q-66 0 -92 -57q-12 -27 -12 -60zM231 563 l112 209h212l-182 -209h-142z" glyph-name="oacute" horiz-adv-x="608" unicode="ó"/>
<glyph d="M304 -12q-133 0 -214 91q-66 75 -66 179q0 123 88 201q79 68 192 68q133 0 214 -90q66 -75 66 -179q0 -123 -88 -201q-79 -69 -192 -69zM97 563l136 214h144l136 -214h-150l-58 108l-58 -108h-150zM304 375q-66 0 -92 -57q-12 -27 -12 -60q0 -79 57 -108q22 -10 47 -10 q64 0 92 56q13 27 13 62q0 80 -59 107q-21 10 -46 10z" glyph-name="ocircumflex" horiz-adv-x="608" unicode="ô"/>
<glyph d="M24 258q0 123 88 201q79 68 192 68q133 0 214 -90q66 -75 66 -179q0 -123 -88 -201q-79 -69 -192 -69q-133 0 -214 91q-66 75 -66 179zM200 258q0 -79 57 -108q22 -10 47 -10q64 0 92 56q13 27 13 62q0 80 -59 107q-21 10 -46 10q-66 0 -92 -57q-12 -27 -12 -60zM215 568 l-113 23q0 101 67 139q29 16 66 16q33 0 87 -27q26 -13 38 -13q32 2 34 44l113 -23q0 -101 -67 -139q-29 -16 -66 -16q-33 0 -87 27q-26 13 -38 13q-32 -2 -34 -44z" glyph-name="otilde" horiz-adv-x="608" unicode="õ"/>
<glyph d="M24 258q0 123 88 201q79 68 192 68q133 0 214 -90q66 -75 66 -179q0 -123 -88 -201q-79 -69 -192 -69q-133 0 -214 91q-66 75 -66 179zM200 258q0 -79 57 -108q22 -10 47 -10q64 0 92 56q13 27 13 62q0 80 -59 107q-21 10 -46 10q-66 0 -92 -57q-12 -27 -12 -60zM93 659 q0 54 47 79q21 11 46 11q57 0 82 -45q12 -21 12 -45q0 -54 -47 -78q-22 -12 -47 -12q-56 0 -81 45q-12 21 -12 45zM330 659q0 54 47 79q21 11 46 11q57 0 82 -45q12 -21 12 -45q0 -54 -47 -78q-22 -12 -47 -12q-56 0 -81 45q-12 21 -12 45z" glyph-name="odieresis" horiz-adv-x="608" unicode="ö"/>
<glyph d="M170 131q0 54 47 79q21 11 46 11q57 0 82 -45q12 -21 12 -45q0 -54 -47 -78q-22 -12 -47 -12q-56 0 -81 45q-12 21 -12 45zM29 417h470v-151h-470v151zM170 552q0 54 47 79q21 11 46 11q57 0 82 -45q12 -21 12 -45q0 -54 -47 -78q-22 -12 -47 -12q-56 0 -81 45 q-12 21 -12 45z" glyph-name="divide" horiz-adv-x="528" unicode="÷"/>
<glyph d="M49 -31l63 88q-88 78 -88 201t88 201q79 68 192 68q67 0 128 -27l65 91l62 -44l-63 -88q88 -78 88 -201t-88 -201q-79 -69 -192 -69q-69 0 -127 27l-65 -90zM396 320l-126 -175q20 -5 34 -5q64 0 92 56q13 27 13 62t-13 62zM213 197l125 173q-20 5 -34 5q-66 0 -92 -57 q-12 -27 -12 -60q0 -34 13 -61z" glyph-name="oslash" horiz-adv-x="608" unicode="ø"/>
<glyph d="M256 -12q-126 0 -176 97q-25 50 -25 116v314h174v-283q7 -88 82 -92q58 0 77 58q7 21 7 46v271h174v-515h-166v61q-50 -73 -147 -73zM56 772h212l112 -209h-142z" glyph-name="ugrave" horiz-adv-x="632" unicode="ù"/>
<glyph d="M55 515h174v-283q7 -88 82 -92q58 0 77 58q7 21 7 46v271h174v-515h-166v61q-50 -73 -147 -73q-126 0 -176 97q-25 50 -25 116v314zM377 563h-142l112 209h212z" glyph-name="uacute" horiz-adv-x="632" unicode="ú"/>
<glyph d="M55 201v314h174v-283q7 -88 82 -92q58 0 77 58q7 21 7 46v271h174v-515h-166v61q-50 -73 -147 -73q-126 0 -176 97q-25 50 -25 116zM250 563h-150l136 214h144l136 -214h-150l-58 108z" glyph-name="ucircumflex" horiz-adv-x="632" unicode="û"/>
<glyph d="M55 515h174v-283q7 -88 82 -92q58 0 77 58q7 21 7 46v271h174v-515h-166v61q-50 -73 -147 -73q-126 0 -176 97q-25 50 -25 116v314zM333 659q0 54 47 79q21 11 46 11q57 0 82 -45q12 -21 12 -45q0 -54 -47 -78q-22 -12 -47 -12q-56 0 -81 45q-12 21 -12 45zM96 659 q0 54 47 79q21 11 46 11q57 0 82 -45q12 -21 12 -45q0 -54 -47 -78q-22 -12 -47 -12q-56 0 -81 45q-12 21 -12 45z" glyph-name="udieresis" horiz-adv-x="632" unicode="ü"/>
<glyph d="M-11 515h179l108 -317l111 317h175l-220 -540q-58 -142 -150 -175q-36 -12 -80 -12q-57 0 -99 22v141q36 -16 72 -16q58 0 83 40q12 19 20 47zM341 563h-142l112 209h212z" glyph-name="yacute" horiz-adv-x="552" unicode="ý"/>
<glyph d="M61 515h1v200h173v-251q58 59 142 63q103 0 173 -80q67 -78 67 -189q0 -130 -82 -208q-66 -62 -160 -62q-97 1 -140 62v-250h-174v715zM235 291q-4 -13 -4 -35q0 -72 52 -102q25 -14 55 -14q60 0 89 52q15 29 15 64q0 73 -52 105q-25 14 -52 14q-66 0 -94 -57 q-6 -13 -9 -27z" glyph-name="thorn" horiz-adv-x="642" unicode="þ"/>
</font>
</defs>
</svg>
