<svg width="112" height="86" viewBox="0 0 112 86" fill="none" xmlns="http://www.w3.org/2000/svg">
<path d="M62 39.2281V0H111.608C112.435 14.9201 112.501 47.7778 106.151 59.848C99.8013 71.9181 82.67 82.3119 74.8981 86C72.7484 81.9766 67.5561 72.3205 63.9843 65.883C81.8432 58.6409 86.3079 45.0955 86.3079 39.2281H62Z" fill="#AFC3FF"/>
<path d="M0 39.2281V0H49.608C50.4348 14.9201 50.5009 47.7778 44.1511 59.848C37.8013 71.9181 20.67 82.3119 12.8981 86C10.7484 81.9766 5.55609 72.3205 1.98432 65.883C19.8432 58.6409 24.3079 45.0955 24.3079 39.2281H0Z" fill="#AFC3FF"/>
</svg>
