<svg width="68" height="52" viewBox="0 0 68 52" fill="none" xmlns="http://www.w3.org/2000/svg">
<path d="M37.4884 23.7193V0H67.4839C67.9838 9.02144 68.0238 28.8889 64.1844 36.1871C60.3449 43.4854 49.9865 49.77 45.2872 52C43.9874 49.5673 40.8479 43.7287 38.6882 39.8363C49.4866 35.4573 52.1862 27.2671 52.1862 23.7193H37.4884Z" fill="#3768FF"/>
<path d="M0 23.7193V0H29.9955C30.4954 9.02144 30.5354 28.8889 26.696 36.1871C22.8566 43.4854 12.4981 49.77 7.79883 52C6.49903 49.5673 3.3595 43.7287 1.19982 39.8363C11.9982 35.4573 14.6978 27.2671 14.6978 23.7193H0Z" fill="#3768FF"/>
</svg>
