<svg width="16" height="16" viewBox="0 0 16 16" fill="none" xmlns="http://www.w3.org/2000/svg">
<g id="Icons">
<path id="Icon" d="M1.71174 2L4.21931 4.39277M14.2875 14L11.7801 11.6075M9.30948 12.5497C8.88529 12.6265 8.44752 12.6667 7.99993 12.6667C4.87161 12.6667 2.22351 10.7047 1.33325 7.99998C1.57561 7.26367 1.94824 6.5824 2.42537 5.98079M6.51754 6.58579C6.89683 6.22386 7.42082 6 7.99961 6C9.15717 6 10.0956 6.89543 10.0956 8C10.0956 8.55228 9.86096 9.05229 9.48167 9.41421M6.51754 6.58579L9.48167 9.41421M6.51754 6.58579L4.21931 4.39277M9.48167 9.41421L4.21931 4.39277M9.48167 9.41421L11.7801 11.6075M4.21931 4.39277C5.30909 3.72236 6.60689 3.33333 7.99991 3.33333C11.1282 3.33333 13.7763 5.29528 14.6666 8.00002C14.1727 9.50048 13.1378 10.7723 11.7801 11.6075" stroke="#3768FF" stroke-linecap="round" stroke-linejoin="round"/>
</g>
</svg>
