<svg width="33" height="32" viewBox="0 0 33 32" fill="none" xmlns="http://www.w3.org/2000/svg">
<g id="Icons">
<path id="Icon" d="M3.92373 4L8.93887 8.78555M29.0752 28L24.0605 23.2149M19.1192 25.0995C18.2708 25.253 17.3953 25.3333 16.5001 25.3333C10.2435 25.3333 4.94727 21.4095 3.16675 16C3.65147 14.5273 4.39673 13.1648 5.35099 11.9616M13.5353 13.1716C14.2939 12.4477 15.3419 12 16.4995 12C18.8146 12 20.6914 13.7909 20.6914 16C20.6914 17.1046 20.2222 18.1046 19.4636 18.8284M13.5353 13.1716L19.4636 18.8284M13.5353 13.1716L8.93887 8.78555M19.4636 18.8284L8.93887 8.78555M19.4636 18.8284L24.0605 23.2149M8.93887 8.78555C11.1184 7.44472 13.714 6.66667 16.5001 6.66667C22.7567 6.66667 28.0529 10.5906 29.8334 16C28.8456 19.001 26.7759 21.5447 24.0605 23.2149" stroke="#3768FF" stroke-width="2" stroke-linecap="round" stroke-linejoin="round"/>
</g>
</svg>
