<svg width="24" height="24" viewBox="0 0 24 24" fill="none" xmlns="http://www.w3.org/2000/svg">
<path d="M2 12L4.22222 9.77778M4.22222 9.77778L12 2L19.7778 9.77778M4.22222 9.77778V20.8889C4.22222 21.5025 4.71968 22 5.33333 22H8.66667M19.7778 9.77778L22 12M19.7778 9.77778V20.8889C19.7778 21.5025 19.2803 22 18.6667 22H15.3333M8.66667 22C9.28032 22 9.77778 21.5025 9.77778 20.8889V16.4444C9.77778 15.8308 10.2752 15.3333 10.8889 15.3333H13.1111C13.7248 15.3333 14.2222 15.8308 14.2222 16.4444V20.8889C14.2222 21.5025 14.7197 22 15.3333 22M8.66667 22H15.3333" stroke="white" stroke-width="1.5" stroke-linecap="round" stroke-linejoin="round"/>
</svg>
