<?xml version="1.0" encoding="UTF-8"?><svg id="Layer_1" xmlns="http://www.w3.org/2000/svg" viewBox="0 0 600 131.49"><defs><style>.cls-1{fill:#fff;}</style></defs><g id="Artwork_1"><rect class="cls-1" x="203.56" width="5.81" height="50.8"/><path class="cls-1" d="m245.58,16.48c2.83,2.47,4.28,6.1,4.28,10.52v23.81h-5.81v-23.81c0-2.68-.73-4.79-2.32-6.17-1.67-1.45-4.28-2.18-7.62-2.18s-5.95.72-7.62,2.18c-1.53,1.38-2.32,3.48-2.32,6.17v23.81h-5.81V12.85h5.81v2.54c2.61-1.67,5.95-2.54,9.94-2.54,4.86,0,8.71,1.23,11.47,3.63"/><path class="cls-1" d="m281.5,14.88c2.61,1.38,4.57,3.48,5.66,6.24l-5.37,2.18c-.65-1.52-1.6-2.54-3.05-3.34-1.6-.87-3.7-1.31-6.31-1.31-3.34,0-5.95.73-7.62,2.18-1.53,1.38-2.32,3.48-2.32,6.17v9.65c0,2.69.8,4.79,2.32,6.17,1.67,1.45,4.28,2.18,7.62,2.18,2.61,0,4.72-.44,6.31-1.31,1.45-.8,2.39-1.81,3.05-3.34l5.37,2.18c-1.09,2.76-3.05,4.86-5.66,6.24-2.47,1.38-5.51,2.03-9.07,2.03-4.79,0-8.64-1.23-11.39-3.63-2.83-2.47-4.35-6.1-4.35-10.52v-9.65c0-4.43,1.52-8.06,4.35-10.52,2.76-2.4,6.6-3.63,11.39-3.63,3.56,0,6.6.65,9.07,2.03"/><path class="cls-1" d="m324.03,49.5c0,4.43-1.52,8.06-4.35,10.52-2.76,2.4-6.6,3.63-11.39,3.63h-.87c-3.56,0-6.6-.65-9.07-2.03-2.61-1.38-4.5-3.48-5.59-6.24l5.37-2.18c.58,1.52,1.52,2.54,2.98,3.34,1.6.87,3.7,1.31,6.31,1.31h.87c3.34,0,5.95-.73,7.62-2.18,1.52-1.38,2.32-3.48,2.32-6.17v-1.23c-2.61,1.67-5.95,2.54-9.94,2.54-4.86,0-8.71-1.23-11.47-3.63-2.83-2.47-4.28-6.17-4.28-10.52V12.85h5.81v23.8c0,2.69.73,4.79,2.32,6.17,1.67,1.38,4.28,2.18,7.62,2.18s5.95-.8,7.62-2.18c1.52-1.38,2.32-3.48,2.32-6.17V12.85h5.81v36.65Z"/><path class="cls-1" d="m350.3,12.85v5.81h-9.94v18c0,2.69.8,4.79,2.32,6.17,1.67,1.45,4.28,2.18,7.62,2.18v5.81c-4.86,0-8.71-1.23-11.47-3.63-2.83-2.47-4.28-6.1-4.28-10.52v-18h-5.15v-5.81h5.15V0h5.81v12.85h9.94Z"/><path class="cls-1" d="m382.88,16.47c2.83,2.47,4.28,6.1,4.28,10.52v7.69h-25.69v1.96c0,2.69.8,4.79,2.32,6.17,1.67,1.45,4.28,2.18,7.62,2.18h.87c2.61,0,4.72-.44,6.31-1.31,1.45-.8,2.4-1.81,2.98-3.34l5.37,2.18c-1.09,2.76-2.98,4.86-5.59,6.24-2.47,1.38-5.51,2.03-9.07,2.03h-.87c-4.79,0-8.63-1.23-11.39-3.63-2.83-2.47-4.36-6.1-4.36-10.52v-9.65c0-4.43,1.52-8.06,4.36-10.52,2.76-2.39,6.6-3.63,11.39-3.63s8.71,1.23,11.47,3.63m-19.09,4.36c-1.52,1.38-2.32,3.48-2.32,6.17v1.89h19.89v-1.89c0-2.69-.73-4.79-2.32-6.17-1.67-1.45-4.28-2.18-7.62-2.18s-5.95.73-7.62,2.18"/><path class="cls-1" d="m220.91,67.84c2.69,0,5.15.44,7.26,1.24,2.25.87,4.14,2.18,5.66,3.84,2.98,3.34,4.5,7.98,4.5,13.86v12.85c0,5.88-1.52,10.6-4.5,13.86-1.52,1.74-3.41,3.05-5.66,3.92-2.11.8-4.57,1.23-7.26,1.23h-17.34v-50.8h17.34Zm-11.54,45h11.54c3.78,0,6.68-1.09,8.56-3.19,2.03-2.25,3.05-5.59,3.05-10.02v-12.85c0-4.35-1.02-7.76-3.05-9.94-1.89-2.1-4.79-3.19-8.56-3.19h-11.54v39.19Z"/><path class="cls-1" d="m272.36,84.31c2.83,2.47,4.28,6.1,4.28,10.52v7.69h-25.69v1.96c0,2.69.8,4.79,2.32,6.17,1.67,1.45,4.28,2.18,7.62,2.18h.87c2.61,0,4.72-.44,6.31-1.31,1.45-.8,2.4-1.81,2.98-3.34l5.37,2.18c-1.09,2.76-2.98,4.86-5.59,6.24-2.47,1.38-5.51,2.03-9.07,2.03h-.87c-4.79,0-8.63-1.23-11.39-3.63-2.83-2.47-4.36-6.1-4.36-10.52v-9.65c0-4.43,1.53-8.06,4.36-10.52,2.76-2.39,6.6-3.63,11.39-3.63s8.71,1.23,11.47,3.63m-19.09,4.36c-1.52,1.38-2.32,3.48-2.32,6.17v1.89h19.89v-1.89c0-2.69-.73-4.79-2.32-6.17-1.67-1.45-4.28-2.18-7.62-2.18s-5.95.73-7.62,2.18"/><path class="cls-1" d="m299.93,86.49c-3.34,0-5.95.73-7.62,2.18-1.52,1.38-2.32,3.48-2.32,6.17v23.81h-5.81v-37.96h5.81v2.54c2.61-1.67,5.95-2.54,9.94-2.54h3.27v5.81h-3.27Z"/><path class="cls-1" d="m363.65,84.31c2.83,2.47,4.36,6.1,4.36,10.52v23.81h-5.81v-23.81c0-2.68-.8-4.79-2.32-6.17-1.67-1.45-4.28-2.18-7.62-2.18s-6.02.73-7.62,2.18c-1.6,1.38-2.4,3.48-2.4,6.17v23.81h-5.81v-23.81c0-2.68-.73-4.79-2.32-6.17-1.67-1.45-4.28-2.18-7.62-2.18s-5.95.73-7.62,2.18c-1.52,1.38-2.32,3.48-2.32,6.17v23.81h-5.81v-37.96h5.81v2.54c2.61-1.67,5.95-2.54,9.94-2.54,4.86,0,8.71,1.23,11.47,3.63.51.44.94.94,1.38,1.45.44-.51.94-1.02,1.45-1.45,2.76-2.39,6.6-3.63,11.47-3.63s8.64,1.23,11.39,3.63"/><path class="cls-1" d="m390.57,80.68c4.86,0,8.71,1.23,11.47,3.63,2.83,2.47,4.28,6.1,4.28,10.52v23.81h-5.81v-2.54c-2.61,1.67-5.95,2.54-9.94,2.54h-1.6c-4.21,0-7.62-.87-10.02-2.61-2.76-1.96-4.14-4.79-4.14-8.35s1.38-6.39,4.14-8.28c2.39-1.74,5.81-2.69,10.02-2.69h11.54v-1.89c0-2.68-.8-4.79-2.32-6.17-1.67-1.45-4.28-2.18-7.62-2.18h-.07c-3.12,0-5.59.65-7.26,1.89-1.52,1.16-2.4,2.83-2.61,5.15l-5.81-.58c.44-3.92,2.1-7.04,4.93-9.22,2.69-2.03,6.31-3.05,10.74-3.05h.07Zm-1.6,21.85c-2.98,0-5.23.58-6.68,1.6-1.16.8-1.67,1.96-1.67,3.56s.51,2.76,1.67,3.63c1.45,1.02,3.7,1.52,6.68,1.52h1.6c3.34,0,5.95-.72,7.62-2.18,1.52-1.38,2.32-3.48,2.32-6.17v-1.96h-11.54Z"/><path class="cls-1" d="m432.59,80.68v5.81h-9.94v18c0,2.69.8,4.79,2.32,6.17,1.67,1.45,4.28,2.18,7.62,2.18v5.81c-4.86,0-8.71-1.23-11.47-3.63-2.83-2.47-4.28-6.1-4.28-10.52v-18h-5.15v-5.81h5.15v-12.85h5.81v12.85h9.94Z"/><path class="cls-1" d="m465.17,84.31c2.83,2.47,4.28,6.1,4.28,10.52v9.65c0,4.43-1.45,8.05-4.28,10.52-2.76,2.39-6.6,3.63-11.47,3.63s-8.63-1.23-11.39-3.63c-2.83-2.47-4.36-6.1-4.36-10.52v-9.65c0-4.43,1.52-8.06,4.36-10.52,2.76-2.39,6.6-3.63,11.39-3.63s8.71,1.23,11.47,3.63m-19.09,4.36c-1.52,1.38-2.32,3.48-2.32,6.17v9.65c0,2.69.8,4.79,2.32,6.17,1.67,1.45,4.28,2.18,7.62,2.18s5.95-.73,7.62-2.18c1.6-1.38,2.32-3.48,2.32-6.17v-9.65c0-2.69-.72-4.79-2.32-6.17-1.67-1.45-4.28-2.18-7.62-2.18s-5.95.73-7.62,2.18"/><path class="cls-1" d="m482.08,104.49c0,2.9.51,5.23,1.52,6.68.87,1.16,1.96,1.67,3.63,1.67v5.81c-3.56,0-6.39-1.45-8.35-4.14-1.74-2.47-2.61-5.81-2.61-10.02v-36.65h5.81v36.65Z"/><path class="cls-1" d="m518.36,84.31c2.83,2.47,4.28,6.1,4.28,10.52v9.65c0,4.43-1.45,8.05-4.28,10.52-2.76,2.39-6.6,3.63-11.47,3.63s-8.64-1.23-11.39-3.63c-2.83-2.47-4.35-6.1-4.35-10.52v-9.65c0-4.43,1.52-8.06,4.35-10.52,2.76-2.39,6.61-3.63,11.39-3.63s8.71,1.23,11.47,3.63m-19.09,4.36c-1.52,1.38-2.32,3.48-2.32,6.17v9.65c0,2.69.8,4.79,2.32,6.17,1.67,1.45,4.28,2.18,7.62,2.18s5.95-.73,7.62-2.18c1.6-1.38,2.32-3.48,2.32-6.17v-9.65c0-2.69-.73-4.79-2.32-6.17-1.67-1.45-4.28-2.18-7.62-2.18s-5.95.73-7.62,2.18"/><path class="cls-1" d="m553.7,83.22v-2.25h5.81v36.36c0,4.43-1.45,8.06-4.28,10.52-2.76,2.39-6.6,3.63-11.47,3.63h-.87c-3.56,0-6.6-.65-9.07-2.03-2.61-1.38-4.5-3.48-5.59-6.24l5.37-2.18c.58,1.52,1.6,2.54,2.97,3.34,1.67.87,3.77,1.31,6.31,1.31h.87c3.34,0,5.95-.73,7.62-2.18,1.6-1.38,2.32-3.48,2.32-6.17v-1.23c-2.54,1.67-5.88,2.54-9.94,2.54-4.79,0-8.64-1.23-11.39-3.63-2.83-2.47-4.35-6.17-4.35-10.52v-9.65c0-4.43,1.52-8.06,4.35-10.52,2.76-2.39,6.61-3.63,11.39-3.63,4.06,0,7.4.8,9.94,2.54m-17.56,5.44c-1.52,1.38-2.32,3.41-2.32,6.17v9.65c0,2.69.8,4.79,2.32,6.17,1.67,1.38,4.28,2.18,7.62,2.18s5.95-.8,7.62-2.18c1.6-1.38,2.32-3.48,2.32-6.17v-9.65c0-2.76-.72-4.79-2.32-6.17-1.67-1.45-4.28-2.18-7.62-2.18s-5.95.73-7.62,2.18"/><path class="cls-1" d="m600,117.33c0,4.43-1.52,8.06-4.35,10.52-2.76,2.4-6.6,3.63-11.39,3.63h-.87c-3.56,0-6.6-.65-9.07-2.03-2.61-1.38-4.5-3.48-5.59-6.24l5.37-2.18c.58,1.52,1.52,2.54,2.98,3.34,1.59.87,3.7,1.31,6.31,1.31h.87c3.34,0,5.95-.73,7.62-2.18,1.52-1.38,2.32-3.48,2.32-6.17v-1.23c-2.61,1.67-5.95,2.54-9.94,2.54-4.86,0-8.71-1.23-11.47-3.63-2.83-2.47-4.28-6.17-4.28-10.52v-23.8h5.81v23.8c0,2.69.73,4.79,2.32,6.17,1.67,1.38,4.28,2.18,7.62,2.18s5.95-.8,7.62-2.18c1.52-1.38,2.32-3.48,2.32-6.17v-23.8h5.81v36.65Z"/></g><path class="cls-1" d="m79.02,56.56c2.2,0,4.23.4,6.29,1.48.21.12.38.16.38-.09v-4.81c-.88-.32-4.05-1.12-7.4-1.12-7.84,0-13.32,5.09-13.32,11.83s5.39,11.82,13.55,11.82c3.9,0,6.96-.87,8.04-1.38v-5c0-.25-.22-.25-.35-.13-3.2,1.48-4.83,1.85-7.41,1.85-3.63,0-7.14-2.78-7.14-7.15s3.34-7.31,7.36-7.31m75.52,9.31h-16.8c0,1.98,1.56,5.35,6.42,5.35,3.46,0,6.19-.79,9.02-2.36.16-.12.43-.12.43.13v4.82c-1.32.51-4.63,1.9-9.74,1.9-7.43,0-12.83-4.98-12.83-11.82s4.47-11.82,12.01-11.82,11.49,5.22,11.49,12.3v1.51Zm-6.34-4.51c0-1.35-.82-5.13-5.15-5.13-3.65,0-5.1,3.65-5.16,5.13h10.31ZM29.63,42.12h-6.37v32.82h6.37v-32.82Zm86.74,32.01c2.08,1.73,7.03,2.08,11.44.91v-4.67c0-.14-.19-.16-.3-.08-2.09.95-4.63,1.05-5.62.33-.66-.49-.96-1.35-.96-2.53v-10.57h6.85v-4.47h-6.85v-8.02c0-.16-.18-.22-.32-.18l-6.3,3.12c4.3,18.1-.59,37.94-14.71,52.06-21.66,21.64-56.75,21.64-78.39,0C-.43,78.38-.43,43.28,21.22,21.64,35.35,7.5,55.23,2.62,73.35,6.95l.1-.41c-4.95-1.32-10.03-1.98-15.11-1.98-14.92,0-29.86,5.69-41.25,17.08C5.79,32.95.09,47.73,0,62.54v.71c.09,14.81,5.79,29.6,17.09,40.9,11.19,11.18,25.78,16.88,40.44,17.08h1.65c14.66-.2,29.25-5.9,40.43-17.08,8.68-8.68,14.05-19.44,16.12-30.66.19.23.4.44.63.64m.68-69.79h-.7c-14.82.09-29.61,5.79-40.91,17.09-9.58,9.57-15.12,21.65-16.64,34.12h0c-1.44-2.42-4.17-3.75-8.16-3.75-2.89,0-6.03,1.64-7.9,3.33v-2.29h-5.82v21.89h6.37v-14.69c.99-1.06,3.5-3.45,6.11-3.45s4.21,1.8,4.21,3.67v14.47h6.5c-1.08-5.98-1.19-12.11-.31-18.12h0c1.67-11.36,6.88-22.3,15.63-31.05,21.65-21.64,56.74-21.64,78.4,0,21.64,21.65,21.64,56.75,0,78.4-14.14,14.14-34.01,19.03-52.13,14.7l-.11.41c19.47,5.19,41.09.16,56.37-15.11,11.39-11.39,17.09-26.32,17.09-41.25s-5.7-29.87-17.09-41.27c-11.31-11.3-26.09-17-40.91-17.09m-21.37,82.91l17.49-34.2h-6.35l-6.02,11.78-5.89-11.78h-6.47l9.26,17.84-8.36,16.36h6.34Z"/></svg>