<svg width="80" height="80" viewBox="0 0 80 80" fill="none" xmlns="http://www.w3.org/2000/svg">
<circle cx="40" cy="40" r="40" fill="#3768FF"/>
<path d="M30.4886 55.0875L56.4211 41.1047C56.5934 41.0069 56.7386 40.8565 56.8407 40.6702C56.9429 40.4839 56.998 40.269 56.9999 40.0491C57.0019 39.8293 56.9507 39.6131 56.8518 39.4244C56.753 39.2358 56.6105 39.0821 56.4401 38.9802L30.5171 24.1303C30.3588 24.038 30.1824 23.9934 30.0048 24.0008C29.8272 24.0082 29.6542 24.0674 29.5022 24.1727C29.3503 24.2781 29.2244 24.426 29.1365 24.6026C29.0486 24.7792 29.0016 24.9786 29 25.1817V54.0144C29.0007 54.215 29.0457 54.4121 29.1308 54.5875C29.2158 54.763 29.3382 54.911 29.4867 55.018C29.6351 55.125 29.8047 55.1875 29.9799 55.1996C30.155 55.2117 30.33 55.1732 30.4886 55.0875Z" fill="white"/>
</svg>
