<svg width="24" height="24" viewBox="0 0 24 24" fill="none" xmlns="http://www.w3.org/2000/svg">
<g id="Icons">
<path id="Icon" d="M2 4.22222C2 2.99492 2.99492 2 4.22222 2H7.86582C8.34408 2 8.76868 2.30603 8.91992 2.75975L10.5842 7.75246C10.759 8.27703 10.5215 8.85035 10.027 9.09763L7.5189 10.3517C8.74361 13.068 10.932 15.2564 13.6483 16.4811L14.9024 13.973C15.1497 13.4785 15.723 13.241 16.2475 13.4158L21.2403 15.0801C21.694 15.2313 22 15.6559 22 16.1342V19.7778C22 21.0051 21.0051 22 19.7778 22H18.6667C9.46192 22 2 14.5381 2 5.33333V4.22222Z" stroke="#3768FF" stroke-width="1.5" stroke-linecap="round" stroke-linejoin="round"/>
</g>
</svg>
