<svg width="68" height="52" viewBox="0 0 68 52" fill="none" xmlns="http://www.w3.org/2000/svg">
<path d="M0.267334 23.7193V0H30.2628C30.7628 9.02144 30.8028 28.8889 26.9633 36.1871C23.1239 43.4854 12.7655 49.77 8.06617 52C6.76636 49.5673 3.62683 43.7287 1.46715 39.8363C12.2655 35.4573 14.9651 27.2671 14.9651 23.7193H0.267334Z" fill="white"/>
<path d="M37.5 23.7193V0H67.4955C67.9954 9.02144 68.0354 28.8889 64.196 36.1871C60.3566 43.4854 49.9981 49.77 45.2988 52C43.999 49.5673 40.8595 43.7287 38.6998 39.8363C49.4982 35.4573 52.1978 27.2671 52.1978 23.7193H37.5Z" fill="white"/>
</svg>
