<svg width="16" height="16" viewBox="0 0 16 16" fill="none" xmlns="http://www.w3.org/2000/svg">
<g id="Icons">
<g id="Pin">
<path d="M11.5355 10.4853C10.9353 11.082 9.66345 12.7528 8.82027 13.8856C8.41317 14.4326 7.58861 14.4311 7.1826 13.8833C6.35396 12.7653 5.10528 11.1223 4.46447 10.4853C2.51184 8.54416 2.51184 5.39697 4.46447 3.45584C6.41709 1.51472 9.58291 1.51472 11.5355 3.45584C13.4882 5.39697 13.4882 8.54416 11.5355 10.4853Z" stroke="#1D8190" stroke-width="1.5" stroke-linecap="round" stroke-linejoin="round"/>
<path d="M9.875 6.97056C9.875 8 9.03553 8.83452 8 8.83452C6.96447 8.83452 6.125 8 6.125 6.97056C6.125 5.94113 6.96447 5.1066 8 5.1066C9.03553 5.1066 9.875 5.94113 9.875 6.97056Z" stroke="#1D8190" stroke-width="1.5" stroke-linecap="round" stroke-linejoin="round"/>
</g>
</g>
</svg>
